<svg width="512pt" height="512pt" version="1.1" viewBox="0 -15 512 511" xmlns="http://www.w3.org/2000/svg">
 <path d="m510.6 278.95-48.301 59.5-77.801 13.801-182.1 72.602 55.203-145.9c0.89844-1.5 2.1992-2.8008 3.6992-3.8008l44-57.199 73.199-10.898c3.1992-1.8008 7.1016-1.8008 10.199 0l118.3 68.301c1.6016 0.79688 2.8008 2.0977 3.6016 3.5977z" fill="#ffc5b0"/>
 <path d="m382.7 73.75-18.5 10.801-107.6 188.5-127-199.3c0.89844-1.5 2.1992-2.8008 3.6992-3.8008l117.3-68.098c3.1992-1.8008 7.0977-1.8008 10.297 0l118 68.098c1.6016 1 2.9023 2.3008 3.8008 3.8008z" fill="#9de7fc"/>
 <path d="m384.1 78.75-0.30078 119.3c0 3.6992-2 7-5.1016 8.8984l-14.5 8.4023-102.8 59.699c-1.5977 0.89844-3.3984 1.3984-5.0977 1.3984l0.30078-129.4 107.6-62.5 18.5-10.801c0.90234 1.5 1.3008 3.1992 1.4023 5z" fill="#00c2f8"/>
 <path d="m384.1 78.75-0.30078 119.3c0 3.6992-2 7-5.1016 8.8984l-14.5 8.4023v-130.8l18.5-10.801c0.90234 1.5 1.3008 3.1992 1.4023 5z" fill="#00abef"/>
 <path d="m254.8 278.95-52.402 65.102-73.699 8.0977-90.699 0.90234-36.301-74.102c0.90234-1.5 2.1992-2.8008 3.8008-3.8008l117.3-68.098c3.0977-1.8008 7-1.8008 10.098-0.10156l60.402 21.199 57.699 47 0.19922 0.10156c1.5 0.89844 2.6992 2.1992 3.6016 3.6992z" fill="#d6f1f2"/>
 <path d="m256.6 147.05-0.30078 129.4c-1.6992 0-3.4023-0.39844-5-1.3008l-14.602-8.3984-103.8-60c-3-1.8008-4.7969-5-4.8984-8.5l0.30078-119.5c0-1.8008 0.5-3.6016 1.3984-5.1016l107.1 61.801z" fill="#1475cc"/>
 <path d="m256.6 147.05-0.30078 129.4c-1.6992 0-3.4023-0.39844-5-1.3008l-14.602-8.3984v-131.2z" fill="#0057a1"/>
 <path d="m512 283.95-0.30078 119.3c0 3.6992-2 7-5.0977 8.8984l-14.602 8.5-102.6 59.602c-1.5977 0.89844-3.2969 1.3984-5.0977 1.3984l0.30078-129.4 107.4-62.398 18.699-10.902c0.80078 1.5 1.3008 3.1992 1.3008 5z" fill="#ff966e"/>
 <path d="m512 283.95-0.30078 119.3c0 3.6992-2 7-5.0977 8.8984l-14.602 8.5v-130.9l18.699-10.898c0.80078 1.5977 1.3008 3.2969 1.3008 5.0977z" fill="#ff6a3d"/>
 <path d="m384.5 352.25-0.30078 129.4c-1.8008 0-3.5977-0.5-5.1992-1.3984l-14.398-8.3008-103.6-59.801c-3.1016-1.7969-5-5-5.1992-8.5977l0.30078-119.5c0-1.8008 0.5-3.6016 1.3984-5.1016l107.1 61.801z" fill="#ff6a3d"/>
 <path d="m384.5 352.25-0.30078 129.4c-1.8008 0-3.5977-0.5-5.1992-1.3984l-14.398-8.3008v-131.2z" fill="#ed462f"/>
 <path d="m256.2 283.65-0.30078 119.6c0 3.6992-2 7-5.0977 8.8984l-117.5 68.203c-1.5 0.79688-3.1992 1.2969-4.9023 1.2969l0.30078-129.4 107.8-62.602 18.398-10.699c0.70312 1.4023 1.2031 3 1.3008 4.6992z" fill="#90bac4"/>
 <path d="m256.2 283.65-0.30078 119.6c0 3.6992-2 7-5.0977 8.8984l-14.301 8.3008v-130.9l18.398-10.699c0.70312 1.5 1.2031 3.0977 1.3008 4.7969z" fill="#7da2b0"/>
 <path d="m128.7 352.25-0.30078 129.4c-1.7969 0-3.5977-0.5-5.1992-1.3984l-14.398-8.3008-103.6-59.801c-3.1992-1.7969-5.0977-5.0977-5.1992-8.6992l0.30078-119.4c0-1.8008 0.5-3.6016 1.3984-5.1016l107.1 61.801z" fill="#688d97"/>
 <path d="m128.7 352.25-0.30078 129.4c-1.7969 0-3.5977-0.5-5.1992-1.3984l-14.398-8.3008v-131.2z" fill="#557983"/>
</svg>
