<svg enable-background="new 0 0 294.842 294.842" version="1.1" viewBox="0 0 294.84 294.84" xmlns="http://www.w3.org/2000/svg">
 <path d="m33.319 0c-17.643 0-31.996 14.353-31.996 31.995 0 3.313 2.687 6 6 6s6-2.687 6-6c0-11.025 8.97-19.995 19.996-19.995s19.996 8.97 19.996 19.995-8.97 19.996-19.996 19.996c-3.313 0-6 2.687-6 6s2.687 6 6 6c17.643 0 31.996-14.354 31.996-31.996s-14.354-31.995-31.996-31.995z"/>
 <path d="m147.42 0c-17.643 0-31.996 14.353-31.996 31.995s14.354 31.996 31.996 31.996 31.996-14.354 31.996-31.996-14.354-31.995-31.996-31.995zm0 51.991c-11.026 0-19.996-8.97-19.996-19.996 0-11.025 8.97-19.995 19.996-19.995s19.996 8.97 19.996 19.995c0 11.026-8.97 19.996-19.996 19.996z"/>
 <path d="m261.52 63.991c17.643 0 31.996-14.354 31.996-31.996s-14.353-31.995-31.996-31.995-31.996 14.353-31.996 31.995 14.353 31.996 31.996 31.996zm0-51.991c11.025 0 19.996 8.97 19.996 19.995 0 11.026-8.97 19.996-19.996 19.996s-19.996-8.97-19.996-19.996c0-11.025 8.97-19.995 19.996-19.995z"/>
 <path d="m33.319 115.42c-17.643 0-31.996 14.354-31.996 31.996s14.353 31.996 31.996 31.996 31.996-14.354 31.996-31.996-14.354-31.996-31.996-31.996zm0 51.992c-11.025 0-19.996-8.97-19.996-19.996s8.97-19.996 19.996-19.996 19.996 8.97 19.996 19.996-8.97 19.996-19.996 19.996z"/>
 <path d="m173.42 141.42c-3.313 0-6 2.687-6 6 0 11.025-8.97 19.996-19.996 19.996s-19.996-8.971-19.996-19.996 8.97-19.996 19.996-19.996c3.313 0 6-2.687 6-6s-2.687-6-6-6c-17.643 0-31.996 14.354-31.996 31.996s14.354 31.996 31.996 31.996 31.996-14.354 31.996-31.996c0-3.314-2.687-6-6-6z"/>
 <path d="m261.52 115.42c-17.643 0-31.996 14.354-31.996 31.996s14.354 31.996 31.996 31.996 31.996-14.354 31.996-31.996-14.353-31.996-31.996-31.996zm0 51.992c-11.026 0-19.996-8.97-19.996-19.996s8.97-19.996 19.996-19.996c11.025 0 19.996 8.97 19.996 19.996s-8.971 19.996-19.996 19.996z"/>
 <path d="m33.319 230.85c-17.643 0-31.996 14.354-31.996 31.996s14.353 31.995 31.996 31.995 31.996-14.353 31.996-31.995-14.354-31.996-31.996-31.996zm0 51.991c-11.025 0-19.996-8.97-19.996-19.995 0-11.026 8.97-19.996 19.996-19.996s19.996 8.97 19.996 19.996c0 11.025-8.97 19.995-19.996 19.995z"/>
 <path d="m147.42 230.85c-17.643 0-31.996 14.354-31.996 31.996s14.354 31.995 31.996 31.995 31.996-14.353 31.996-31.995-14.354-31.996-31.996-31.996zm0 51.991c-11.026 0-19.996-8.97-19.996-19.995 0-11.026 8.97-19.996 19.996-19.996s19.996 8.97 19.996 19.996c0 11.025-8.97 19.995-19.996 19.995z"/>
 <path d="m261.52 230.85c-17.643 0-31.996 14.354-31.996 31.996s14.354 31.995 31.996 31.995 31.996-14.353 31.996-31.995-14.353-31.996-31.996-31.996zm0 51.991c-11.026 0-19.996-8.97-19.996-19.995 0-11.026 8.97-19.996 19.996-19.996 11.025 0 19.996 8.97 19.996 19.996 0 11.025-8.971 19.995-19.996 19.995z"/>
 <path d="m29.984 33.732c77.875 84.452 155.75 156.66 233.62 232.38l-2.4987-237.37-117.44 4.9973-41.228 39.979" fill="none" stroke="#f50000" stroke-width="13"/>
</svg>
