<svg enable-background="new 0 0 512 512" version="1.1" viewBox="0 0 512 512" xmlns="http://www.w3.org/2000/svg">
 <g fill="#A4C2F7">
  <circle cx="73.143" cy="438.86" r="64"/>
  <circle cx="256" cy="438.86" r="64"/>
  <circle cx="438.86" cy="438.86" r="64"/>
  <circle cx="73.143" cy="256" r="64"/>
  <circle cx="438.86" cy="256" r="64"/>
  <circle cx="73.143" cy="73.143" r="64"/>
  <circle cx="256" cy="73.143" r="64"/>
  <circle cx="438.86" cy="73.143" r="64"/>
 </g>
 <g fill="#E3E7F2">
  <ellipse cx="425.14" cy="73.143" rx="50.286" ry="64"/>
  <ellipse cx="242.29" cy="73.143" rx="50.286" ry="64"/>
 </g>
 <g fill="#fff">
  <path d="m438.86 137.14c2.568-0.015 5.133-0.183 7.681-0.504-24.922-3.8-44.252-30.754-44.252-63.496s19.33-59.696 44.252-63.496c-23.609-2.862-46.858 7.607-60.364 27.182-13.505 19.575-15.039 45.027-3.981 66.082s32.882 34.239 56.664 34.232z"/>
  <path d="m256 137.14c2.568-0.015 5.133-0.183 7.681-0.504-24.922-3.8-44.252-30.754-44.252-63.496s19.33-59.696 44.252-63.496c-23.609-2.862-46.858 7.607-60.364 27.182s-15.039 45.027-3.981 66.082 32.882 34.239 56.664 34.232z"/>
 </g>
 <ellipse cx="59.429" cy="73.143" rx="50.286" ry="64" fill="#E3E7F2"/>
 <path d="m73.143 137.14c2.568-0.015 5.133-0.183 7.681-0.504-24.922-3.8-44.252-30.754-44.252-63.496s19.33-59.696 44.252-63.496c-23.61-2.863-46.858 7.606-60.364 27.182s-15.039 45.027-3.981 66.082 32.882 34.239 56.664 34.232z" fill="#fff"/>
 <ellipse cx="59.429" cy="256" rx="50.286" ry="64" fill="#E3E7F2"/>
 <path d="m73.143 320c2.568-0.015 5.133-0.183 7.681-0.504-24.922-3.8-44.252-30.754-44.252-63.496s19.33-59.696 44.252-63.496c-23.609-2.862-46.858 7.607-60.364 27.182-13.505 19.575-15.039 45.026-3.981 66.082s32.882 34.239 56.664 34.232z" fill="#fff"/>
 <ellipse cx="59.429" cy="438.86" rx="50.286" ry="64" fill="#E3E7F2"/>
 <path d="m73.143 502.86c2.568-0.015 5.133-0.183 7.681-0.504-24.922-3.8-44.252-30.754-44.252-63.496s19.33-59.696 44.252-63.496c-23.609-2.862-46.858 7.607-60.364 27.182-13.505 19.575-15.039 45.027-3.981 66.082s32.882 34.24 56.664 34.232z" fill="#fff"/>
 <ellipse cx="242.29" cy="438.86" rx="50.286" ry="64" fill="#E3E7F2"/>
 <path d="m256 502.86c2.568-0.015 5.133-0.183 7.681-0.504-24.922-3.8-44.252-30.754-44.252-63.496s19.33-59.696 44.252-63.496c-23.609-2.862-46.858 7.607-60.364 27.182-13.505 19.575-15.039 45.027-3.981 66.082s32.882 34.24 56.664 34.232z" fill="#fff"/>
 <g fill="#E3E7F2">
  <ellipse cx="425.14" cy="438.86" rx="50.286" ry="64"/>
  <ellipse cx="425.14" cy="256" rx="50.286" ry="64"/>
 </g>
 <g fill="#fff">
  <path d="m440.32 320c2.568-0.015 5.133-0.183 7.681-0.504-24.922-3.8-44.252-30.754-44.252-63.496s19.33-59.696 44.252-63.496c-23.609-2.862-46.858 7.607-60.364 27.182-13.505 19.575-15.039 45.026-3.981 66.082 11.058 21.055 32.882 34.239 56.664 34.232z"/>
  <path d="m440.32 502.86c2.568-0.015 5.133-0.183 7.681-0.504-24.922-3.8-44.252-30.754-44.252-63.496s19.33-59.696 44.252-63.496c-23.609-2.862-46.858 7.607-60.364 27.182-13.505 19.575-15.039 45.027-3.981 66.082s32.882 34.24 56.664 34.232z"/>
 </g>
 <g fill="#428DFF">
  <path d="m73.143 512c-40.396 0-73.143-32.747-73.143-73.143s32.747-73.143 73.143-73.143 73.143 32.747 73.143 73.143c-0.046 40.377-32.767 73.097-73.143 73.143zm0-128c-30.297 0-54.857 24.56-54.857 54.857s24.56 54.857 54.857 54.857 54.857-24.56 54.857-54.857c-0.033-30.283-24.574-54.824-54.857-54.857z"/>
  <path d="m256 512c-40.396 0-73.143-32.747-73.143-73.143s32.747-73.143 73.143-73.143 73.143 32.747 73.143 73.143c-0.046 40.377-32.766 73.097-73.143 73.143zm0-128c-30.297 0-54.857 24.56-54.857 54.857s24.56 54.857 54.857 54.857 54.857-24.56 54.857-54.857c-0.033-30.283-24.574-54.824-54.857-54.857z"/>
  <path d="m438.86 512c-40.396 0-73.143-32.747-73.143-73.143s32.747-73.143 73.143-73.143 73.143 32.747 73.143 73.143c-0.046 40.377-32.766 73.097-73.143 73.143zm0-128c-30.297 0-54.857 24.56-54.857 54.857s24.56 54.857 54.857 54.857 54.857-24.56 54.857-54.857c-0.033-30.283-24.574-54.824-54.857-54.857z"/>
  <path d="m73.143 329.14c-40.396 0-73.143-32.747-73.143-73.143s32.747-73.143 73.143-73.143 73.143 32.747 73.143 73.143c-0.046 40.377-32.767 73.097-73.143 73.143zm0-128c-30.297 0-54.857 24.56-54.857 54.857s24.56 54.857 54.857 54.857 54.857-24.56 54.857-54.857c-0.033-30.283-24.574-54.824-54.857-54.857z"/>
  <path d="m438.86 329.14c-40.396 0-73.143-32.747-73.143-73.143s32.747-73.143 73.143-73.143 73.143 32.747 73.143 73.143c-0.046 40.377-32.766 73.097-73.143 73.143zm0-128c-30.297 0-54.857 24.56-54.857 54.857s24.56 54.857 54.857 54.857 54.857-24.56 54.857-54.857c-0.033-30.283-24.574-54.824-54.857-54.857z"/>
  <path d="m73.143 146.29c-40.396 0-73.143-32.747-73.143-73.143s32.747-73.143 73.143-73.143 73.143 32.747 73.143 73.143c-0.046 40.376-32.767 73.097-73.143 73.143zm0-128c-30.297 0-54.857 24.56-54.857 54.857s24.56 54.857 54.857 54.857 54.857-24.56 54.857-54.857c-0.033-30.283-24.574-54.824-54.857-54.857z"/>
  <path d="m256 146.29c-40.396 0-73.143-32.747-73.143-73.143s32.747-73.143 73.143-73.143 73.143 32.747 73.143 73.143c-0.046 40.376-32.766 73.097-73.143 73.143zm0-128c-30.297 0-54.857 24.56-54.857 54.857s24.56 54.857 54.857 54.857 54.857-24.56 54.857-54.857c-0.033-30.283-24.574-54.824-54.857-54.857z"/>
  <path d="m438.86 146.29c-40.396 0-73.143-32.747-73.143-73.143s32.747-73.143 73.143-73.143 73.143 32.747 73.143 73.143c-0.046 40.376-32.766 73.097-73.143 73.143zm0-128c-30.297 0-54.857 24.56-54.857 54.857s24.56 54.857 54.857 54.857 54.857-24.56 54.857-54.857c-0.033-30.283-24.574-54.824-54.857-54.857z"/>
 </g>
</svg>
