<svg width="512pt" height="512pt" version="1.1" viewBox="0 0 512 512" xmlns="http://www.w3.org/2000/svg">
 <path d="m460 384h-408c-11.047 0-20-8.9531-20-20v-306h448v306c0 11.047-8.9531 20-20 20z" fill="#d3d7df"/>
 <g fill="#ffcb7c">
  <path d="m236 384h40v118h-40z"/>
  <path d="m415.85 502h-48.18l-54.363-118h48.18z"/>
  <path d="m96.152 502h48.18l54.363-118h-48.18z"/>
  <path d="m10 10h492v48h-492z"/>
 </g>
 <path d="m502 0h-206c-5.5234 0-10 4.4766-10 10s4.4766 10 10 10h196v28h-472v-28h196c5.5234 0 10-4.4766 10-10s-4.4766-10-10-10h-206c-5.5234 0-10 4.4766-10 10v48c0 5.5234 4.4766 10 10 10h12v296c0 16.543 13.457 30 30 30h82.895l-47.824 103.82c-1.4258 3.0977-1.1797 6.707 0.66016 9.5781 1.8398 2.8711 5.0117 4.6055 8.4219 4.6055h48.18c3.9023 0 7.4492-2.2695 9.082-5.8125l51.684-112.19h20.902v108c0 5.5234 4.4766 10 10 10h40c5.5234 0 10-4.4766 10-10v-108h20.902l51.684 112.19c1.6328 3.543 5.1797 5.8125 9.082 5.8125h48.18c3.4102 0 6.582-1.7344 8.4219-4.6055 1.8398-2.8711 2.0859-6.4805 0.66016-9.5781l-47.824-103.82h82.895c16.543 0 30-13.457 30-30v-296h12c5.5234 0 10-4.4766 10-10v-48c0-5.5234-4.4766-10-10-10zm-364.07 492h-26.16l45.148-98h26.16zm128.07 0h-20v-98h20zm134.23 0h-26.16l-45.148-98h26.16zm69.77-128c0 5.5156-4.4844 10-10 10h-408c-5.5156 0-10-4.4844-10-10v-296h428z"/>
 <path d="m256 20c2.6289 0 5.2109-1.0703 7.0703-2.9297 1.8594-1.8594 2.9297-4.4375 2.9297-7.0703 0-2.6289-1.0703-5.2109-2.9297-7.0703-1.8594-1.8594-4.4414-2.9297-7.0703-2.9297s-5.2109 1.0703-7.0703 2.9297c-1.8594 1.8633-2.9297 4.4414-2.9297 7.0703 0 2.6328 1.0703 5.2109 2.9297 7.0703 1.8594 1.8594 4.4414 2.9297 7.0703 2.9297z"/>
 <path d="m105.62 210.05 1.7812-1.7812v37.855h-6.7227c-5.5195 0-10 4.4766-10 10s4.4805 10 10 10h33.445c5.5234 0 10-4.4766 10-10s-4.4766-10-10-10h-6.7227v-62c0-4.0469-2.4375-7.6914-6.1719-9.2383-3.7383-1.5469-8.0391-0.69141-10.898 2.168l-18.855 18.852c-3.9062 3.9062-3.9062 10.238 0 14.145 3.9062 3.9023 10.238 3.9023 14.145 0z"/>
 <path d="m244.22 210.05 1.7812-1.7812v37.855h-6.7227c-5.5234 0-10 4.4766-10 10s4.4766 10 10 10h33.445c5.5195 0 10-4.4766 10-10s-4.4805-10-10-10h-6.7227v-62c0-4.0469-2.4375-7.6914-6.1719-9.2383-3.7383-1.5469-8.0391-0.69141-10.898 2.168l-18.855 18.852c-3.9023 3.9062-3.9023 10.238 0 14.145 3.9062 3.9023 10.238 3.9023 14.145 0z"/>
 <path d="m168 231h4.332v4.332c0 5.5234 4.4805 10 10 10 5.5234 0 10-4.4766 10-10v-4.332h4.3359c5.5195 0 10-4.4805 10-10 0-5.5234-4.4805-10-10-10h-4.3359v-4.3359c0-5.5195-4.4766-10-10-10-5.5195 0-10 4.4805-10 10v4.3359h-4.332c-5.5234 0-10 4.4766-10 10 0 5.5195 4.4766 10 10 10z"/>
 <path d="m318.17 226h28.664c5.5234 0 10-4.4766 10-10 0-5.5195-4.4766-10-10-10h-28.664c-5.5234 0-10 4.4805-10 10 0 5.5234 4.4766 10 10 10z"/>
 <path d="m318.17 266h28.664c5.5234 0 10-4.4766 10-10 0-5.5195-4.4766-10-10-10h-28.664c-5.5234 0-10 4.4805-10 10 0 5.5234 4.4766 10 10 10z"/>
 <path d="m387.18 207.56c5.5234 0 10-4.4766 10-10 0-2.3242 0.95703-4.457 2.6875-6.0117 1.7305-1.5508 3.9805-2.2617 6.3398-2 3.6211 0.39844 6.6523 3.4336 7.0547 7.0547 0.4375 3.9766-1.8242 6.7461-4.0898 8.0117-8.5898 4.8008-13.926 13.719-13.926 23.273v0.77344c0 5.5234 4.4766 10 10 10s10-4.4766 10-10v-0.77344c0-2.3555 1.3789-4.5273 3.6836-5.8164 9.8789-5.5234 15.457-16.383 14.211-27.664-1.4258-12.906-11.832-23.312-24.738-24.738-7.9688-0.87891-15.941 1.6641-21.875 6.9805-5.9414 5.3203-9.3477 12.941-9.3477 20.91 0 5.5234 4.4766 10 10 10z"/>
 <path d="m405.25 246c-2.6289 0-5.2109 1.0625-7.0703 2.9219-1.8594 1.8672-2.9297 4.4492-2.9297 7.0781 0 2.6328 1.0703 5.2109 2.9297 7.0703 1.8594 1.8594 4.4414 2.9297 7.0703 2.9297s5.2109-1.0703 7.0703-2.9297c1.8594-1.8711 2.9297-4.4375 2.9297-7.0703 0-2.6289-1.0703-5.2109-2.9297-7.0781-1.8594-1.8594-4.4414-2.9219-7.0703-2.9219z"/>
</svg>
