<?xml version="1.0" encoding="iso-8859-1"?>
<!-- Generator: Adobe Illustrator 19.0.0, SVG Export Plug-In . SVG Version: 6.00 Build 0)  -->
<svg version="1.1" id="Layer_1" xmlns="http://www.w3.org/2000/svg" xmlns:xlink="http://www.w3.org/1999/xlink" x="0px" y="0px"
	 viewBox="0 0 502 502" style="enable-background:new 0 0 502 502;" xml:space="preserve">
<g>
	<rect x="10" y="319" style="fill:#F0EFE4;" width="482" height="36"/>
	<g>
		<rect x="189" y="112" style="fill:#F0EFE4;" width="62" height="207"/>
		<polygon style="fill:#F77E65;" points="127,73 127,112 65,112 65,319 127,319 189,319 189,73 		"/>
		<rect x="375" y="128" style="fill:#F0EFE4;" width="62" height="191"/>
		<polygon style="fill:#F77E65;" points="313,86 313,166 251,166 251,319 313,319 375,319 375,86 		"/>
		<g>
			<path d="M492,309h-45V128c0-5.523-4.477-10-10-10h-52V86c0-5.523-4.477-10-10-10h-62c-5.523,0-10,4.477-10,10v70h-42v-44
				c0-5.523-4.477-10-10-10h-52V73c0-5.523-4.477-10-10-10h-62c-5.523,0-10,4.477-10,10v29H65c-5.523,0-10,4.477-10,10v197H10
				c-5.523,0-10,4.477-10,10v36c0,5.523,4.477,10,10,10h42v64c0,5.523,4.477,10,10,10s10-4.477,10-10v-64h420
				c5.523,0,10-4.477,10-10v-36C502,313.477,497.523,309,492,309z M427,138v171h-42V138H427z M365,309h-42V96h42V309z M303,176v133
				h-42V176H303z M241,309h-42V122h42V309z M179,309h-42V83h42V309z M75,122h42v187H75V122z M482,329v16H20v-16H482z"/>
			<path d="M440,379c-5.523,0-10,4.477-10,10v40c0,5.523,4.477,10,10,10s10-4.477,10-10v-40C450,383.477,445.523,379,440,379z"/>
			<path d="M96,140c-5.523,0-10,4.477-10,10v9c0,5.523,4.477,10,10,10s10-4.477,10-10v-9C106,144.477,101.523,140,96,140z"/>
			<path d="M96,185c-5.523,0-10,4.477-10,10v90c0,5.523,4.477,10,10,10s10-4.477,10-10v-90C106,189.477,101.523,185,96,185z"/>
			<path d="M282,217.533c5.523,0,10-4.477,10-10V202c0-5.523-4.477-10-10-10s-10,4.477-10,10v5.533
				C272,213.056,276.477,217.533,282,217.533z"/>
			<path d="M282,295c5.523,0,10-4.477,10-10v-43c0-5.523-4.477-10-10-10s-10,4.477-10,10v43C272,290.523,276.477,295,282,295z"/>
		</g>
	</g>
</g>
<g>
</g>
<g>
</g>
<g>
</g>
<g>
</g>
<g>
</g>
<g>
</g>
<g>
</g>
<g>
</g>
<g>
</g>
<g>
</g>
<g>
</g>
<g>
</g>
<g>
</g>
<g>
</g>
<g>
</g>
</svg>
