<?xml version="1.0" encoding="iso-8859-1"?>
<!-- Generator: Adobe Illustrator 19.0.0, SVG Export Plug-In . SVG Version: 6.00 Build 0)  -->
<svg version="1.1" id="Layer_1" xmlns="http://www.w3.org/2000/svg" xmlns:xlink="http://www.w3.org/1999/xlink" x="0px" y="0px"
	 viewBox="0 0 512.001 512.001" style="enable-background:new 0 0 512.001 512.001;" xml:space="preserve">
<g>
	<path style="fill:#A3875E;" d="M488.859,220.592c21.68,12.181,16.708,62.209-11.121,111.728
		c-27.818,49.53-103.597,92.455-103.597,92.455s-2.756-87.048,25.072-136.568C427.031,238.688,467.168,208.411,488.859,220.592z"/>
	<path style="fill:#A3875E;" d="M419.451,135.589c0,18.054-9.891,33.787-24.553,42.098c0.689,3.212,1.05,6.488,1.05,9.806
		c0,6.276,0.148,13.146-0.011,20.323c0,0-63.905,38.589-110.912,20.705c-18.372-6.997-38.738-6.997-57.12,0
		c-47.007,17.885-110.901-20.705-110.901-20.705h-0.011c-0.159-7.177-0.011-14.047-0.011-20.323c0-3.318,0.371-6.594,1.06-9.806
		c-14.662-8.312-24.563-24.044-24.563-42.098c0-26.705,21.659-48.364,48.364-48.364c20.673,0,38.303,12.976,45.226,31.221
		c20.44-6.711,44.134-10.538,69.397-10.538c25.274,0,48.968,3.827,69.408,10.538c6.923-18.245,24.553-31.221,45.215-31.221
		C397.803,87.226,419.451,108.884,419.451,135.589z"/>
</g>
<path style="fill:#6E5B3F;" d="M395.937,207.817c-0.488,21.182-3.753,44.982-21.892,63.725
	c-10.22,10.57-25.168,19.528-47.028,25.496c-18.266,4.993-41.367,7.887-70.552,7.887c-28.157,0-50.632-2.693-68.591-7.368
	c-22.931-5.958-38.473-15.128-48.989-26.016c-18.139-18.743-21.404-42.544-21.892-63.725h0.011c0,0,63.895,38.589,110.901,20.705
	c18.383-6.997,38.748-6.997,57.12,0C332.032,246.406,395.937,207.817,395.937,207.817z"/>
<path style="fill:#A3875E;" d="M374.056,271.553v153.222h-47.039V297.039c21.86-5.969,36.808-14.927,47.028-25.496L374.056,271.553z
	"/>
<path style="fill:#6E5B3F;" d="M327.018,297.039v127.737H187.874V297.558c17.959,4.675,40.434,7.368,68.591,7.368
	C285.651,304.926,308.751,302.032,327.018,297.039z"/>
<g>
	<path style="fill:#A3875E;" d="M187.874,297.558v127.217h-48.989v-6.573v-146.66C149.401,282.43,164.943,291.6,187.874,297.558z"/>
	<path style="fill:#A3875E;" d="M138.885,418.202c0,4.198-0.074,6.573-0.074,6.573S63.031,381.85,35.213,332.32
		C7.385,282.801,2.413,232.773,24.092,220.592c21.691-12.181,61.828,18.097,89.646,67.616
		C136.966,329.543,138.885,397.021,138.885,418.202z"/>
</g>
<path d="M141.842,163.65c17.829,0,32.334-14.501,32.334-32.323c0-5.854-4.746-10.601-10.601-10.601
	c-5.855,0-10.601,4.747-10.601,10.601c0,6.132-4.993,11.12-11.132,11.12c-6.132,0-11.121-4.988-11.121-11.12
	c0-5.854-4.746-10.601-10.601-10.601s-10.601,4.747-10.601,10.601C109.519,149.151,124.019,163.65,141.842,163.65z"/>
<path d="M371.088,163.65c17.829,0,32.334-14.501,32.334-32.323c0-5.854-4.746-10.601-10.601-10.601
	c-5.855,0-10.601,4.747-10.601,10.601c0,6.132-4.993,11.12-11.132,11.12c-6.132,0-11.121-4.988-11.121-11.12
	c0-5.854-4.746-10.601-10.601-10.601c-5.855,0-10.601,4.747-10.601,10.601C338.764,149.151,353.265,163.65,371.088,163.65z"/>
<path d="M228.785,173.532c5.855,0,10.601-4.747,10.601-10.601v-2.809c0-5.854-4.746-10.601-10.601-10.601
	s-10.601,4.747-10.601,10.601v2.809C218.183,168.785,222.93,173.532,228.785,173.532z"/>
<path d="M279.947,173.532c5.855,0,10.601-4.747,10.601-10.601v-2.809c0-5.854-4.746-10.601-10.601-10.601
	c-5.855,0-10.601,4.747-10.601,10.601v2.809C269.346,168.785,274.092,173.532,279.947,173.532z"/>
<path d="M494.05,211.347c-27.66-15.526-72.402,15.28-104.078,71.667c-1.905,3.389-3.67,6.936-5.313,10.599v-17.982
	c18.413-21.235,21.407-47.102,21.878-67.569v-0.01c0.112-5.056,0.077-9.851,0.043-14.49c-0.015-2.076-0.03-4.101-0.03-6.068
	c0-1.548-0.065-3.103-0.193-4.656c14.773-11.051,23.696-28.556,23.696-47.248c0-32.514-26.452-58.965-58.965-58.965
	c-20.967,0-40.316,11.357-50.796,29.063c-19.809-5.497-41.677-8.379-63.827-8.379c-22.143,0-44.009,2.884-63.816,8.379
	c-10.48-17.705-29.832-29.063-50.806-29.063c-32.514,0-58.965,26.452-58.965,58.965c0,18.688,8.923,36.192,23.699,47.244
	c-0.131,1.561-0.197,3.115-0.197,4.66c0,1.967-0.015,3.992-0.03,6.068c-0.034,4.639-0.069,9.434,0.043,14.5
	c0.472,20.473,3.468,46.35,21.889,67.582v17.968c-1.643-3.655-3.398-7.208-5.302-10.596c-31.676-56.389-76.42-87.203-104.082-71.667
	c-14.383,8.08-20.904,26.603-18.362,52.154c2.241,22.531,11.275,48.815,25.433,74.009c17.388,30.961,51.588,58.899,76.808,76.662
	H38.436c-5.855,0-10.601,4.747-10.601,10.601c0,5.854,4.746,10.601,10.601,10.601h100.3c0.014,0,0.028-0.002,0.041-0.002
	c0.011,0,0.022,0.002,0.033,0.002s0.022-0.002,0.033-0.002c0.014,0,0.028,0.002,0.041,0.002h235.171
	c0.014,0,0.029-0.002,0.042-0.002s0.029,0.002,0.042,0.002h100.311c5.855,0,10.601-4.747,10.601-10.601
	c0-5.854-4.746-10.601-10.601-10.601h-64.279c25.22-17.763,59.419-45.701,76.807-76.661c5.292-9.416,9.909-19.062,13.724-28.669
	c2.161-5.443-0.499-11.604-5.941-13.765c-5.441-2.161-11.604,0.5-13.765,5.941c-3.466,8.73-7.671,17.515-12.501,26.11
	c-18.463,32.873-60.484,63.401-83.603,78.512c0.88-27.607,5.094-79.374,23.565-112.242c27.992-49.831,62.672-70.607,75.209-63.566
	c4.499,2.528,6.45,8.689,7.295,13.412c1.03,5.762,6.539,9.597,12.302,8.569c5.764-1.03,9.601-6.538,8.569-12.302
	C508.846,222.816,500.515,214.98,494.05,211.347z M146.503,264.17c-10.859-11.221-15.504-24.765-17.496-38.204
	c23.62,10.921,66.786,26.119,102.668,12.463c15.99-6.085,33.597-6.086,49.58,0.001c10.134,3.856,20.843,5.41,31.537,5.41
	c27.162,0,54.176-10.035,71.13-17.871c-1.993,13.439-6.638,26.983-17.498,38.204c-9.692,10.023-23.889,17.64-42.202,22.638
	c-18.237,4.986-41.034,7.513-67.757,7.513c-25.834,0-48.013-2.363-65.926-7.028C171.319,282.303,156.505,274.523,146.503,264.17z
	 M198.475,310.758c16.864,3.162,36.293,4.77,57.99,4.77c22.542,0,42.629-1.733,59.951-5.146v103.792H198.475V310.758z
	 M337.619,304.92c9.612-3.156,18.234-7.055,25.836-11.659v120.913h-25.836V304.92z M104.08,135.589
	c0-20.822,16.94-37.762,37.762-37.762c15.589,0,29.78,9.798,35.313,24.381c2.011,5.299,7.832,8.079,13.219,6.311
	c19.944-6.548,42.798-10.009,66.09-10.009c23.3,0,46.156,3.461,66.1,10.009c5.387,1.769,11.208-1.012,13.219-6.311
	c5.534-14.583,19.721-24.381,35.303-24.381c20.822,0,37.762,16.94,37.762,37.762c0,13.572-7.349,26.17-19.18,32.876
	c-4.029,2.284-6.109,6.918-5.137,11.447c0.54,2.516,0.814,5.066,0.814,7.581c0,2.016,0.015,4.094,0.031,6.223
	c0.019,2.558,0.029,5.178,0.022,7.828c-15.306,8.113-62.131,30.186-96.601,17.069c-20.846-7.937-43.81-7.936-64.664-0.001
	c-34.482,13.121-81.32-8.969-96.604-17.073c-0.006-2.648,0.004-5.266,0.022-7.823c0.016-2.129,0.031-4.207,0.031-6.223
	c0-2.482,0.278-5.033,0.825-7.583c0.971-4.528-1.109-9.162-5.137-11.445C111.433,161.755,104.08,149.158,104.08,135.589z
	 M44.456,327.126c-12.757-22.7-20.86-46.041-22.819-65.721c-1.609-16.174,1.25-27.976,7.647-31.569
	c1.583-0.889,3.518-1.335,5.748-1.335c15.439,0,45.004,21.358,69.464,64.899c0,0.001,0,0.001,0,0.001
	c18.55,33.01,22.722,85.017,23.581,112.261C104.971,390.571,62.955,360.065,44.456,327.126z M149.486,293.264
	c8.109,4.908,17.383,9.014,27.786,12.279v108.631h-27.786L149.486,293.264L149.486,293.264z"/>
<path d="M502.444,261.102c-5.765-1.018-11.266,2.828-12.285,8.595c-0.229,1.296-0.482,2.606-0.76,3.931
	c-1.199,5.73,2.474,11.349,8.206,12.548c0.733,0.154,1.462,0.227,2.182,0.227c4.912,0,9.32-3.434,10.366-8.432
	c0.322-1.539,0.62-3.081,0.885-4.583C512.057,267.622,508.209,262.122,502.444,261.102z"/>
<g>
</g>
<g>
</g>
<g>
</g>
<g>
</g>
<g>
</g>
<g>
</g>
<g>
</g>
<g>
</g>
<g>
</g>
<g>
</g>
<g>
</g>
<g>
</g>
<g>
</g>
<g>
</g>
<g>
</g>
</svg>
