<?xml version="1.0" encoding="iso-8859-1"?>
<!-- Generator: Adobe Illustrator 19.0.0, SVG Export Plug-In . SVG Version: 6.00 Build 0)  -->
<svg version="1.1" id="Layer_1" xmlns="http://www.w3.org/2000/svg" xmlns:xlink="http://www.w3.org/1999/xlink" x="0px" y="0px"
	 viewBox="0 0 512 512" style="enable-background:new 0 0 512 512;" xml:space="preserve">
<path style="fill:#048B7D;" d="M409.753,161.171H51.24v86.45h442.419v-86.45h-53.396c-4.213,0-7.628-3.415-7.628-7.629H417.38
	C417.381,157.755,413.965,161.171,409.753,161.171z"/>
<path style="fill:#FFFFFF;" d="M409.753,145.915c4.213,0,7.628,3.415,7.628,7.628h15.256c0-4.212,3.414-7.628,7.628-7.628h53.396
	v-86.45H51.24v86.45H409.753z"/>
<rect x="54.324" y="262.878" style="fill:#ED1F34;" width="442.417" height="86.454"/>
<path d="M504.371,44.209H46.696c-4.212,0-7.628,3.415-7.628,7.628v305.117c0,4.213,3.415,7.628,7.628,7.628h457.676
	c4.214,0,7.629-3.415,7.629-7.628V51.836C512,47.624,508.586,44.209,504.371,44.209z M493.659,59.465v86.45h-53.396
	c-4.213,0-7.628,3.415-7.628,7.628c0,4.213,3.414,7.629,7.628,7.629h53.396v86.45H51.24v-86.45h358.513
	c4.213,0,7.628-3.415,7.628-7.629c0-4.212-3.414-7.628-7.628-7.628H51.24v-86.45H493.659z M54.324,349.326v-86.45h442.419v86.45
	H54.324z"/>
<path style="fill:#2E3033;" d="M20.844,480.643c-6.391,0-11.591-5.2-11.591-11.591V42.841c0-6.332,5.152-11.484,11.484-11.484h1.514
	c6.392,0,11.591,5.2,11.591,11.591v426.102c0,6.392-5.2,11.591-11.591,11.591h-1.407V480.643z"/>
<path d="M22.251,22.104h-1.514C9.302,22.104,0,31.407,0,42.841v426.21c0,11.494,9.351,20.844,20.844,20.844h1.406
	c11.494,0,20.844-9.351,20.844-20.844V42.948C43.095,31.455,33.745,22.104,22.251,22.104z M27.674,469.052
	c0,2.99-2.433,5.422-5.422,5.422h-1.406c-2.99,0-5.422-2.432-5.422-5.422V42.841c0-2.931,2.384-5.315,5.315-5.315h1.514
	c2.99,0,5.422,2.433,5.422,5.422v426.103H27.674z"/>
<g>
</g>
<g>
</g>
<g>
</g>
<g>
</g>
<g>
</g>
<g>
</g>
<g>
</g>
<g>
</g>
<g>
</g>
<g>
</g>
<g>
</g>
<g>
</g>
<g>
</g>
<g>
</g>
<g>
</g>
</svg>
