<svg enable-background="new 0 0 512 512" version="1.1" viewBox="0 0 512 512" xmlns="http://www.w3.org/2000/svg">
 <circle cx="256" cy="256" r="256" fill="#F2AE5A"/>
 <circle cx="256" cy="215.02" r="215.02" fill="#F9DF73"/>
 <g fill="#484B7F">
  <circle cx="256" cy="55.965" r="55.965"/>
  <circle cx="256" cy="456.04" r="55.965"/>
  <circle cx="82.766" cy="155.98" r="55.965"/>
  <circle cx="429.23" cy="356.02" r="55.965"/>
  <circle cx="82.766" cy="356.02" r="55.965"/>
  <circle cx="429.23" cy="155.98" r="55.965"/>
 </g>
 <g fill="#EF487D">
  <path d="m274.69 153.61h9.5c4.897 0 7.79-5.489 5.021-9.528l-26.761-39.048c-3.105-4.531-9.792-4.531-12.897 0l-26.761 39.048c-2.768 4.04 0.124 9.528 5.021 9.528h9.5c3.896 0 7.056 3.159 7.056 7.056v190.67c0 3.896-3.159 7.056-7.056 7.056h-9.5c-4.897 0-7.79 5.489-5.021 9.528l26.761 39.048c3.105 4.531 9.792 4.531 12.897 0l26.761-39.048c2.768-4.04-0.124-9.528-5.021-9.528h-9.5c-3.896 0-7.056-3.159-7.056-7.056v-190.67c1e-3 -3.897 3.16-7.056 7.056-7.056z"/>
  <path d="m176.67 188.62 4.75-8.228c2.448-4.241-0.859-9.49-5.741-9.113l-47.197 3.652c-5.476 0.424-8.82 6.214-6.448 11.169l20.436 42.7c2.114 4.417 8.313 4.657 10.762 0.416l4.75-8.228c1.949-3.375 6.264-4.531 9.638-2.583l165.12 95.334c3.375 1.949 4.531 6.264 2.583 9.638l-4.75 8.228c-2.448 4.241 0.859 9.49 5.741 9.113l47.197-3.652c5.476-0.423 8.82-6.214 6.448-11.169l-20.437-42.7c-2.114-4.417-8.313-4.657-10.762-0.416l-4.75 8.228c-1.949 3.375-6.264 4.531-9.638 2.583l-165.12-95.334c-3.374-1.949-4.53-6.263-2.582-9.638z"/>
  <path d="m157.98 291.01-4.75-8.228c-2.448-4.241-8.648-4.002-10.762 0.416l-20.436 42.7c-2.371 4.955 0.972 10.746 6.448 11.169l47.197 3.652c4.883 0.378 8.19-4.871 5.741-9.113l-4.75-8.228c-1.949-3.375-0.792-7.69 2.583-9.638l165.12-95.334c3.375-1.949 7.69-0.792 9.638 2.583l4.75 8.228c2.448 4.241 8.648 4.002 10.762-0.416l20.436-42.7c2.371-4.955-0.972-10.745-6.448-11.169l-47.197-3.652c-4.883-0.378-8.19 4.871-5.741 9.113l4.75 8.228c1.949 3.375 0.792 7.69-2.583 9.638l-165.12 95.334c-3.374 1.948-7.69 0.792-9.639-2.583z"/>
 </g>
 <g fill="#F0F0F0">
  <circle cx="256" cy="271.67" r="55.965"/>
  <path d="m70.662 139.25-2.508 1.557c-0.778 0.518-1.557 0.692-2.162 0.692-2.508 0-4.238-2.681-4.238-5.361 0-1.816 0.778-3.545 2.509-4.583l11.414-6.918c0.692-0.432 1.557-0.605 2.508-0.605 2.766 0 5.967 1.643 5.967 4.237v54.999c0 2.768-3.373 4.151-6.746 4.151s-6.746-1.383-6.746-4.151v-44.017h2e-3z"/>
  <path d="m103.78 181.28c0 3.545-3.027 6.659-6.572 6.659-3.806 0-6.659-3.113-6.659-6.659 0-3.632 2.854-6.659 6.659-6.659 3.545 0 6.572 3.027 6.572 6.659z"/>
  <path d="m247.61 24.103c10.032 0 20.149 6.312 20.149 17.901 0 18.765-26.72 24.905-26.72 32.774v0.778h22.657c2.162 0 4.065 2.68 4.065 5.794 0 3.113-1.903 5.967-4.065 5.967h-30.785c-2.422 0-5.881-1.643-5.881-4.15v-8.388c0-13.576 27.24-21.36 27.24-32.343 0-2.767-1.73-6.139-6.572-6.139-3.46 0-6.487 1.729-6.487 6.485 0 2.509-2.681 4.93-7.092 4.93-3.458 0-6.052-1.557-6.052-7.005-1e-3 -10.551 9.685-16.604 19.543-16.604z"/>
  <path d="m284.97 81.177c0 3.545-3.027 6.659-6.572 6.659-3.806 0-6.659-3.113-6.659-6.659 0-3.632 2.854-6.659 6.659-6.659 3.545 0 6.572 3.027 6.572 6.659z"/>
  <path d="m428.2 168.31v-1.643c0-5.794-3.546-6.917-8.303-6.917-2.94 0-3.89-2.594-3.89-5.189s0.951-5.189 3.89-5.189c3.286 0 6.746-0.433 6.746-7.438 0-5.016-2.854-6.227-6.4-6.227-4.236 0-6.398 1.038-6.398 4.411 0 2.94-1.298 4.929-6.313 4.929-6.227 0-7.005-1.297-7.005-5.448 0-6.746 4.843-15.479 19.716-15.479 10.984 0 19.285 3.978 19.285 15.653 0 6.313-2.335 12.193-6.659 14.182 5.102 1.903 8.821 5.707 8.821 12.712v1.643c0 14.182-9.771 19.544-21.879 19.544-14.873 0-20.581-9.08-20.581-16.344 0-3.891 1.644-4.929 6.4-4.929 5.535 0 6.917 1.21 6.917 4.496 0 4.065 3.806 5.016 7.697 5.016 5.88-1e-3 7.956-2.163 7.956-7.783z"/>
  <path d="m459.24 181.19c0 3.545-3.027 6.659-6.572 6.659-3.806 0-6.659-3.113-6.659-6.659 0-3.632 2.854-6.659 6.659-6.659 3.545-1e-3 6.572 3.027 6.572 6.659z"/>
  <path d="m423.44 374.04h-20.235c-2.508 0-4.497-1.643-4.497-4.67 0-0.693 0.173-1.644 0.692-2.594l19.976-39.174c1.298-2.508 3.46-3.459 5.622-3.459 2.335 0 6.746 1.988 6.746 5.102 0 0.518-0.173 1.038-0.433 1.643l-15.308 30.7h7.438v-6.054c0-2.854 3.373-4.064 6.746-4.064s6.746 1.21 6.746 4.064v6.054h3.719c2.766 0 4.149 3.113 4.149 6.227s-2.075 6.227-4.149 6.227h-3.719v9.166c0 2.768-3.373 4.151-6.746 4.151s-6.746-1.383-6.746-4.151l-1e-3 -9.168z"/>
  <path d="m459.76 381.22c0 3.545-3.027 6.659-6.572 6.659-3.806 0-6.659-3.113-6.659-6.659 0-3.632 2.854-6.659 6.659-6.659 3.545 0 6.572 3.027 6.572 6.659z"/>
  <path d="m247.62 447.51c11.933 0 21.186 5.016 21.186 18.852v1.643c0 14.442-9.425 19.89-21.014 19.89-13.922 0-21.36-7.956-21.36-16.085 0-4.67 2.508-5.966 6.746-5.966 5.881 0 6.744 2.249 6.744 5.016 0 3.459 3.286 5.275 7.524 5.275 4.93 0 7.87-2.508 7.87-8.129v-1.643c0-5.707-2.94-8.475-7.697-8.475h-13.146c-3.978 0-5.189-1.988-5.189-5.276 0-0.864 0.087-1.556 0.173-2.508l2.333-21.792c0.261-2.594 0.952-4.15 2.422-4.15h27.586c2.594 0 3.892 2.94 3.892 5.881s-1.298 5.881-3.892 5.881h-18.939l-0.863 11.588h5.622v-2e-3z"/>
  <path d="m285.57 481.24c0 3.545-3.027 6.659-6.572 6.659-3.806 0-6.659-3.113-6.659-6.659 0-3.632 2.854-6.659 6.659-6.659 3.545 1e-3 6.572 3.028 6.572 6.659z"/>
  <path d="m95.008 366.7v0.778c0 14.874-9.254 20.408-21.187 20.408s-21.273-5.535-21.273-20.408v-22.917c0-14.874 9.599-20.408 22.052-20.408 14.614 0 20.409 9.079 20.409 16.258 0 4.15-1.989 5.448-6.313 5.448-3.719 0-7.005-0.952-7.005-4.929 0-3.286-3.46-5.015-7.524-5.015-5.102 0-8.129 2.68-8.129 8.648v7.783c2.768-3.027 6.659-3.806 10.811-3.806 9.857-1e-3 18.159 4.324 18.159 18.16zm-28.971 1.73c0 5.966 2.94 8.561 7.783 8.561s7.697-2.594 7.697-8.561v-0.778c0-6.313-2.854-8.734-7.783-8.734-4.67 0-7.697 2.249-7.697 7.956v1.556z"/>
  <path d="m112.99 381.22c0 3.545-3.027 6.659-6.572 6.659-3.806 0-6.659-3.113-6.659-6.659 0-3.632 2.854-6.659 6.659-6.659 3.545 0 6.572 3.027 6.572 6.659z"/>
 </g>
 <path d="m264.88 269.72c-5.253 4.106-5.348 6.972-5.348 11.937 0 1.815-0.955 3.915-5.634 3.915-3.915 0-5.253-1.433-5.253-6.399 0-8.213 3.629-12.128 6.398-14.516 3.151-2.674 8.499-5.634 8.499-10.791 0-4.393-3.82-6.494-8.594-6.494-9.741 0-7.64 7.353-12.796 7.353-2.579 0-5.73-1.719-5.73-5.443 0-5.157 5.92-12.797 18.812-12.797 12.223 0 20.341 6.78 20.341 15.757 0 8.978-8.118 15.473-10.695 17.478zm-3.534 29.796c0 3.915-3.246 7.353-7.353 7.353-4.106 0-7.258-3.438-7.258-7.353 0-4.011 3.248-7.353 7.258-7.353s7.353 3.341 7.353 7.353z" fill="#484B7F"/>
</svg>
