<svg id="Capa_1" enable-background="new 0 0 512 512" height="512" viewBox="0 0 512 512" width="512" xmlns="http://www.w3.org/2000/svg"><g><path d="m512 256c0 17.52-1.76 34.64-5.12 51.17-3.745 18.465-20.61 21.063-28.098 37.85-7.488 16.788-5.597 47.765-16.362 62.41-46.59 63.41-121.7 104.57-206.42 104.57s-159.83-41.16-206.42-104.57c-5.77-7.86 9.494-31.402 4.624-39.912-13.26-23.19-43.604-33.328-49.084-60.348-.01-.01-.01-.02-.01-.03-3.35-16.52-5.11-33.63-5.11-51.14 0-19.06 2.09-37.63 6.04-55.5 0-.01 0-.02.01-.03 6.89-31.18 19.47-60.23 36.59-85.99v-.01c45.87-68.99 124.3-114.47 213.36-114.47s167.5 45.48 213.36 114.48c17.12 25.76 29.7 54.81 36.59 85.99 3.96 17.88 6.05 36.46 6.05 55.53z" fill="#f4dd45"/><g fill="#2f373b"><path d="m103.53 399.769s1.242 48.45 23.604 58.389 19.877-77.023 19.877-77.023"/><path d="m408.47 399.769s-1.242 48.45-23.604 58.389-19.877-77.023-19.877-77.023"/></g><path d="m506.88 307.17c-7.49 36.93-22.93 70.97-44.46 100.26-137.61 7.91-275.23 7.91-412.84 0-21.53-29.29-36.97-63.33-44.46-100.26-2.09-35.56-1.78-71.13.93-106.7 1.54-20.5 3.88-41 7.02-61.5 2.05-13.35 13.09-23.5 26.57-24.31l3-.18c142.24-8.45 284.48-8.45 426.72 0l3 .18c13.48.81 24.52 10.96 26.57 24.31 3.14 20.5 5.48 41 7.02 61.5 2.71 35.57 3.02 71.14.93 106.7z" fill="#78d090"/><path d="m45.78 114.29c-6 4.59-10.22 11.42-11.43 19.31-12.72 83.09-12.97 166.18-.75 249.26-13.26-23.19-23-48.67-28.48-75.69-.01-.01-.01-.02-.01-.03-2.07-35.55-1.77-71.1.93-106.64 0-.01 0-.02.01-.03 1.54-20.5 3.88-41 7.02-61.5 2.05-13.36 13.09-23.5 26.57-24.32l3-.18c1.05-.06 2.09-.12 3.14-.18z" fill="#63af7d"/><g fill="#2f373b"><path d="m151.188 362.77c-32.122 4.182-64.244 4.182-96.366 0-9.206-1.199-16.278-8.769-16.826-18.037-3.348-56.651-3.348-113.302 0-169.954.548-9.268 7.62-16.839 16.826-18.037 32.122-4.182 64.244-4.182 96.366 0 9.206 1.199 16.278 8.769 16.826 18.037 3.348 56.651 3.348 113.302 0 169.954-.547 9.268-7.619 16.838-16.826 18.037z"/><path d="m304.183 362.77c-32.122 4.182-64.244 4.182-96.366 0-9.206-1.199-16.278-8.769-16.826-18.037-3.348-56.651-3.348-113.302 0-169.954.548-9.268 7.62-16.839 16.826-18.037 32.122-4.182 64.244-4.182 96.366 0 9.206 1.199 16.278 8.769 16.826 18.037 3.348 56.651 3.348 113.302 0 169.954-.548 9.268-7.62 16.838-16.826 18.037z"/><path d="m474.003 344.737c-.546 9.259-7.622 16.833-16.823 18.03-.871.115-1.752.22-2.624.335-4.845.594-9.69 1.092-14.535 1.503-26.408 2.212-52.806 1.599-79.214-1.839-9.202-1.197-16.277-8.771-16.823-18.03-3.351-56.655-3.351-113.31 0-169.956.546-9.269 7.622-16.842 16.823-18.039 8.407-1.101 16.814-1.905 25.22-2.422 5.64-.354 11.27-.575 16.9-.67 7.804-.124 15.598-.01 23.392.364 4.778.22 9.565.536 14.353.948 5.506.469 11.002 1.063 16.507 1.781 9.202 1.197 16.277 8.771 16.823 18.039 3.352 56.646 3.352 113.301.001 169.956z"/></g><path d="m454.556 363.102c-4.845.594-9.69 1.092-14.535 1.503-1.484-4.472-3.954-8.608-7.325-12.151-6.233-6.569-14.65-10.188-23.698-10.188-11.605 0-16.651 1.867-22.501 4.5-.804.364-1.283.603-1.36.642-2.413 1.235-5.324 1.005-7.516-.594-2.183-1.599-3.294-4.29-2.853-6.971l9.709-58.56c.575-3.466 3.571-6.013 7.085-6.013h48.976c3.964 0 7.181 3.217 7.181 7.181 0 3.974-3.217 7.181-7.181 7.181h-42.886l-6.674 40.234c4.922-1.293 10.446-1.963 18.02-1.963 13.022 0 25.134 5.209 34.116 14.659 5.592 5.891 9.479 12.928 11.442 20.54z" fill="#f6f9f9"/><path d="m449.922 193.97h-9.431c.077-12.888.144-26.705.182-39.008-4.788-.412-9.575-.728-14.353-.948-.038 11.959-.105 25.862-.192 39.956h-45.883c7.191-12.955 15.339-27.461 22.683-40.32-5.63.096-11.26.316-16.9.67-11.231 19.791-22.042 39.353-24.253 43.365-1.226 2.221-1.187 4.931.105 7.124 1.293 2.183 3.638 3.524 6.185 3.524h57.967c-.077 10.944-.163 21.63-.249 31.233-.029 3.964 3.16 7.21 7.124 7.248h.057c3.935 0 7.152-3.179 7.181-7.124.029-3.6.134-15.875.249-31.358h9.527c3.974 0 7.181-3.208 7.181-7.181.001-3.964-3.206-7.181-7.18-7.181z" fill="#f6f9f9"/><g><path d="m103.002 184.73c-24.742 0-44.878 20.136-44.878 44.878v60.294c0 24.742 20.136 44.878 44.878 44.878 24.751 0 44.878-20.136 44.878-44.878v-60.294c-.001-24.742-20.127-44.878-44.878-44.878zm30.515 105.172c0 16.823-13.683 30.515-30.515 30.515-16.823 0-30.515-13.692-30.515-30.515v-60.294c0-16.823 13.692-30.516 30.515-30.516 16.833 0 30.515 13.692 30.515 30.516z" fill="#f6f9f9"/></g><g><path d="m256 184.73c-24.742 0-44.878 20.136-44.878 44.878v60.294c0 24.742 20.136 44.878 44.878 44.878s44.878-20.136 44.878-44.878v-60.294c0-24.742-20.136-44.878-44.878-44.878zm30.516 105.172c0 16.823-13.692 30.515-30.515 30.515s-30.515-13.692-30.515-30.515v-60.294c0-16.823 13.692-30.516 30.515-30.516s30.515 13.692 30.515 30.516z" fill="#f6f9f9"/></g><path d="m103.005 370.679c-16.305 0-32.61-1.054-48.801-3.162-11.479-1.495-20.305-10.958-20.987-22.502-3.343-56.574-3.343-113.945 0-170.519.682-11.544 9.508-21.008 20.987-22.502 32.382-4.216 65.22-4.216 97.602 0 11.478 1.494 20.305 10.957 20.987 22.502 3.343 56.574 3.343 113.945 0 170.519-.683 11.544-9.509 21.007-20.987 22.502-16.191 2.109-32.496 3.162-48.801 3.162zm0-212.271c-15.892 0-31.784 1.027-47.565 3.081-6.927.902-12.253 6.609-12.665 13.572-3.321 56.199-3.321 113.19 0 169.389.411 6.962 5.738 12.67 12.665 13.572 31.562 4.109 63.568 4.109 95.13 0 6.927-.902 12.253-6.61 12.665-13.572 3.321-56.199 3.321-113.19 0-169.389-.412-6.962-5.738-12.67-12.665-13.572-15.781-2.054-31.673-3.081-47.565-3.081z" fill="#63af7d"/><path d="m256 370.679c-16.305 0-32.61-1.054-48.801-3.162-11.478-1.494-20.305-10.958-20.987-22.502-3.343-56.574-3.343-113.945 0-170.519.683-11.545 9.509-21.008 20.987-22.502 32.382-4.216 65.22-4.216 97.602 0 11.478 1.494 20.305 10.957 20.987 22.502 3.343 56.574 3.343 113.945 0 170.519-.683 11.544-9.509 21.008-20.987 22.502-16.191 2.109-32.496 3.162-48.801 3.162zm0-212.271c-15.892 0-31.784 1.027-47.565 3.081-6.927.902-12.253 6.609-12.665 13.572-3.321 56.199-3.321 113.19 0 169.389.412 6.962 5.738 12.671 12.665 13.572 31.561 4.109 63.567 4.109 95.13 0 6.927-.902 12.253-6.61 12.665-13.572 3.321-56.199 3.321-113.19 0-169.389-.412-6.962-5.738-12.67-12.665-13.572-15.781-2.054-31.673-3.081-47.565-3.081z" fill="#63af7d"/><path d="m409.086 370.683c-16.325 0-32.678-1.058-48.896-3.168-11.479-1.493-20.304-10.954-20.984-22.496-3.347-56.578-3.347-113.95 0-170.52.68-11.546 9.505-21.011 20.985-22.504 8.432-1.105 17.028-1.93 25.544-2.454 5.609-.353 11.369-.581 17.112-.678 7.976-.128 15.95-.003 23.702.369 4.812.221 9.705.544 14.534.96 5.524.47 11.15 1.077 16.716 1.803 11.478 1.493 20.303 10.958 20.984 22.505 3.347 56.569 3.347 113.94 0 170.52-.681 11.54-9.506 21.001-20.985 22.494l-2.617.335c-4.84.593-9.79 1.105-14.754 1.526-10.405.872-20.868 1.308-31.341 1.308zm-.179-212.294c-1.966 0-3.934.016-5.903.047-5.593.095-11.205.318-16.676.662-8.305.51-16.68 1.315-24.899 2.391-6.931.902-12.256 6.61-12.666 13.574-3.325 56.196-3.325 113.188 0 169.392.41 6.96 5.735 12.664 12.662 13.565 25.948 3.376 52.258 3.988 78.196 1.815 4.84-.411 9.671-.911 14.352-1.484l2.579-.33c6.935-.902 12.26-6.607 12.671-13.565v-.001c3.325-56.204 3.325-113.195 0-169.39-.41-6.965-5.736-12.673-12.662-13.575-5.427-.708-10.909-1.299-16.296-1.758-4.707-.405-9.472-.72-14.167-.936-5.641-.271-11.401-.407-17.191-.407z" fill="#63af7d"/></g></svg>