<svg width="512pt" height="512pt" version="1.1" viewBox="0 0 512 512" xmlns="http://www.w3.org/2000/svg">
 <g fill="#dfebfa">
  <path d="m490.37 170.67h-152.12l-167.57 167.57v152.12c0 11.949 9.6836 21.633 21.633 21.633h298.07c11.949 0 21.633-9.6836 21.633-21.633v-298.07c0-11.949-9.6836-21.633-21.633-21.633z"/>
  <path d="m201.57 490.37v-183.03l-30.906 30.906v152.12c0 11.949 9.6836 21.633 21.633 21.633h30.906c-11.949 0-21.633-9.6836-21.633-21.633z"/>
  <path d="m319.7 0h-298.07c-11.945 0-21.633 9.6875-21.633 21.633v298.07c0 11.949 9.6875 21.637 21.633 21.637h152.12l167.58-167.58v-152.12c0-11.945-9.6875-21.633-21.637-21.633z"/>
  <path d="m30.906 319.7v-298.07c0-11.945 9.6875-21.633 21.633-21.633h-30.906c-11.945 0-21.633 9.6875-21.633 21.633v298.07c0 11.949 9.6875 21.637 21.633 21.637h30.906c-11.945 0-21.633-9.6875-21.633-21.637z"/>
 </g>
 <path d="m298.95 32.051h-256.57c-5.707 0-10.332 4.625-10.332 10.332v256.57c0 5.7031 4.625 10.328 10.332 10.328h131.38v-113.89c0-11.949 9.6875-21.633 21.633-21.633h113.89v-131.38c0-5.707-4.625-10.332-10.328-10.332z" fill="#b1dbfc"/>
 <path d="m62.957 298.95v-256.57c0-5.707 4.625-10.332 10.332-10.332h-30.906c-5.707 0-10.332 4.625-10.332 10.332v256.57c0 5.7031 4.625 10.328 10.332 10.328h30.906c-5.707 0-10.332-4.625-10.332-10.328z" fill="#8cc9f9"/>
 <path d="m466.39 202.72h-128.15v113.89c0 11.949-9.6836 21.633-21.633 21.633h-113.89v128.15c0 7.4844 6.0703 13.555 13.555 13.555h250.12c7.4844 0 13.555-6.0703 13.555-13.555v-250.12c0-7.4883-6.0703-13.555-13.555-13.555z" fill="#b1dbfc"/>
 <path d="m233.62 461.21v-122.96h-30.906v128.15c0 7.4844 6.0703 13.555 13.555 13.555h36.094c-10.352 0-18.742-8.3906-18.742-18.742z" fill="#8cc9f9"/>
 <path d="m192.3 170.67c-11.949 0-21.633 9.6836-21.633 21.633v149.04h149.03c11.949 0 21.637-9.6875 21.637-21.637v-149.03h-149.04z" fill="#60b8fe"/>
 <path d="m223.21 169.98h-30.906c-11.949 0-21.633 9.6836-21.633 21.633v149.04h30.906v-149.04c0-11.949 9.6836-21.633 21.633-21.633z" fill="#23a8fe"/>
</svg>
