<?xml version="1.0" encoding="UTF-8" standalone="no"?>
<svg
   xmlns:dc="http://purl.org/dc/elements/1.1/"
   xmlns:cc="http://creativecommons.org/ns#"
   xmlns:rdf="http://www.w3.org/1999/02/22-rdf-syntax-ns#"
   xmlns:svg="http://www.w3.org/2000/svg"
   xmlns="http://www.w3.org/2000/svg"
   xmlns:sodipodi="http://sodipodi.sourceforge.net/DTD/sodipodi-0.dtd"
   xmlns:inkscape="http://www.inkscape.org/namespaces/inkscape"
   id="Capa_1"
   enable-background="new 0 0 512 512"
   height="512"
   viewBox="0 0 512 512"
   width="512"
   version="1.1"
   sodipodi:docname="countdown.svg"
   inkscape:version="0.92.4 (5da689c313, 2019-01-14)">
  <metadata
     id="metadata47">
    <rdf:RDF>
      <cc:Work
         rdf:about="">
        <dc:format>image/svg+xml</dc:format>
        <dc:type
           rdf:resource="http://purl.org/dc/dcmitype/StillImage" />
      </cc:Work>
    </rdf:RDF>
  </metadata>
  <defs
     id="defs45" />
  <sodipodi:namedview
     pagecolor="#ffffff"
     bordercolor="#666666"
     borderopacity="1"
     objecttolerance="10"
     gridtolerance="10"
     guidetolerance="10"
     inkscape:pageopacity="0"
     inkscape:pageshadow="2"
     inkscape:window-width="1920"
     inkscape:window-height="1017"
     id="namedview43"
     showgrid="false"
     inkscape:zoom="1.84375"
     inkscape:cx="96.052551"
     inkscape:cy="186.9319"
     inkscape:window-x="-8"
     inkscape:window-y="-8"
     inkscape:window-maximized="1"
     inkscape:current-layer="g40" />
  <g
     id="g40">
    <path
       d="m512 256c0 17.52-1.76 34.64-5.12 51.17-3.745 18.465-20.61 21.063-28.098 37.85-7.488 16.788-5.597 47.765-16.362 62.41-46.59 63.41-121.7 104.57-206.42 104.57s-159.83-41.16-206.42-104.57c-5.77-7.86 9.494-31.402 4.624-39.912-13.26-23.19-43.604-33.328-49.084-60.348-.01-.01-.01-.02-.01-.03-3.35-16.52-5.11-33.63-5.11-51.14 0-19.06 2.09-37.63 6.04-55.5 0-.01 0-.02.01-.03 6.89-31.18 19.47-60.23 36.59-85.99v-.01c45.87-68.99 124.3-114.47 213.36-114.47s167.5 45.48 213.36 114.48c17.12 25.76 29.7 54.81 36.59 85.99 3.96 17.88 6.05 36.46 6.05 55.53z"
       fill="#f4dd45"
       id="path2" />
    <g
       fill="#2f373b"
       id="g8">
      <path
         d="m103.53 399.769s1.242 48.45 23.604 58.389 19.877-77.023 19.877-77.023"
         id="path4" />
      <path
         d="m408.47 399.769s-1.242 48.45-23.604 58.389-19.877-77.023-19.877-77.023"
         id="path6" />
    </g>
    <path
       d="m506.88 307.17c-7.49 36.93-22.93 70.97-44.46 100.26-137.61 7.91-275.23 7.91-412.84 0-21.53-29.29-36.97-63.33-44.46-100.26-2.09-35.56-1.78-71.13.93-106.7 1.54-20.5 3.88-41 7.02-61.5 2.05-13.35 13.09-23.5 26.57-24.31l3-.18c142.24-8.45 284.48-8.45 426.72 0l3 .18c13.48.81 24.52 10.96 26.57 24.31 3.14 20.5 5.48 41 7.02 61.5 2.71 35.57 3.02 71.14.93 106.7z"
       fill="#78d090"
       id="path10" />
    <path
       d="m45.78 114.29c-6 4.59-10.22 11.42-11.43 19.31-12.72 83.09-12.97 166.18-.75 249.26-13.26-23.19-23-48.67-28.48-75.69-.01-.01-.01-.02-.01-.03-2.07-35.55-1.77-71.1.93-106.64 0-.01 0-.02.01-.03 1.54-20.5 3.88-41 7.02-61.5 2.05-13.36 13.09-23.5 26.57-24.32l3-.18c1.05-.06 2.09-.12 3.14-.18z"
       fill="#63af7d"
       id="path12" />
    <g
       fill="#2f373b"
       id="g20">
      <path
         d="m151.188 362.77c-32.122 4.182-64.244 4.182-96.366 0-9.206-1.199-16.278-8.769-16.826-18.037-3.348-56.651-3.348-113.302 0-169.954.548-9.268 7.62-16.839 16.826-18.037 32.122-4.182 64.244-4.182 96.366 0 9.206 1.199 16.278 8.769 16.826 18.037 3.348 56.651 3.348 113.302 0 169.954-.547 9.268-7.619 16.838-16.826 18.037z"
         id="path14" />
      <path
         d="m304.183 362.77c-32.122 4.182-64.244 4.182-96.366 0-9.206-1.199-16.278-8.769-16.826-18.037-3.348-56.651-3.348-113.302 0-169.954.548-9.268 7.62-16.839 16.826-18.037 32.122-4.182 64.244-4.182 96.366 0 9.206 1.199 16.278 8.769 16.826 18.037 3.348 56.651 3.348 113.302 0 169.954-.548 9.268-7.62 16.838-16.826 18.037z"
         id="path16" />
      <path
         d="m474.003 344.737c-.546 9.259-7.622 16.833-16.823 18.03-.871.115-1.752.22-2.624.335-4.845.594-9.69 1.092-14.535 1.503-26.408 2.212-52.806 1.599-79.214-1.839-9.202-1.197-16.277-8.771-16.823-18.03-3.351-56.655-3.351-113.31 0-169.956.546-9.269 7.622-16.842 16.823-18.039 8.407-1.101 16.814-1.905 25.22-2.422 5.64-.354 11.27-.575 16.9-.67 7.804-.124 15.598-.01 23.392.364 4.778.22 9.565.536 14.353.948 5.506.469 11.002 1.063 16.507 1.781 9.202 1.197 16.277 8.771 16.823 18.039 3.352 56.646 3.352 113.301.001 169.956z"
         id="path18" />
    </g>
    <path
       d="m103.005 370.679c-16.305 0-32.61-1.054-48.801-3.162-11.479-1.495-20.305-10.958-20.987-22.502-3.343-56.574-3.343-113.945 0-170.519.682-11.544 9.508-21.008 20.987-22.502 32.382-4.216 65.22-4.216 97.602 0 11.478 1.494 20.305 10.957 20.987 22.502 3.343 56.574 3.343 113.945 0 170.519-.683 11.544-9.509 21.007-20.987 22.502-16.191 2.109-32.496 3.162-48.801 3.162zm0-212.271c-15.892 0-31.784 1.027-47.565 3.081-6.927.902-12.253 6.609-12.665 13.572-3.321 56.199-3.321 113.19 0 169.389.411 6.962 5.738 12.67 12.665 13.572 31.562 4.109 63.568 4.109 95.13 0 6.927-.902 12.253-6.61 12.665-13.572 3.321-56.199 3.321-113.19 0-169.389-.412-6.962-5.738-12.67-12.665-13.572-15.781-2.054-31.673-3.081-47.565-3.081z"
       fill="#63af7d"
       id="path34" />
    <path
       d="m256 370.679c-16.305 0-32.61-1.054-48.801-3.162-11.478-1.494-20.305-10.958-20.987-22.502-3.343-56.574-3.343-113.945 0-170.519.683-11.545 9.509-21.008 20.987-22.502 32.382-4.216 65.22-4.216 97.602 0 11.478 1.494 20.305 10.957 20.987 22.502 3.343 56.574 3.343 113.945 0 170.519-.683 11.544-9.509 21.008-20.987 22.502-16.191 2.109-32.496 3.162-48.801 3.162zm0-212.271c-15.892 0-31.784 1.027-47.565 3.081-6.927.902-12.253 6.609-12.665 13.572-3.321 56.199-3.321 113.19 0 169.389.412 6.962 5.738 12.671 12.665 13.572 31.561 4.109 63.567 4.109 95.13 0 6.927-.902 12.253-6.61 12.665-13.572 3.321-56.199 3.321-113.19 0-169.389-.412-6.962-5.738-12.67-12.665-13.572-15.781-2.054-31.673-3.081-47.565-3.081z"
       fill="#63af7d"
       id="path36" />
    <path
       d="m409.086 370.683c-16.325 0-32.678-1.058-48.896-3.168-11.479-1.493-20.304-10.954-20.984-22.496-3.347-56.578-3.347-113.95 0-170.52.68-11.546 9.505-21.011 20.985-22.504 8.432-1.105 17.028-1.93 25.544-2.454 5.609-.353 11.369-.581 17.112-.678 7.976-.128 15.95-.003 23.702.369 4.812.221 9.705.544 14.534.96 5.524.47 11.15 1.077 16.716 1.803 11.478 1.493 20.303 10.958 20.984 22.505 3.347 56.569 3.347 113.94 0 170.52-.681 11.54-9.506 21.001-20.985 22.494l-2.617.335c-4.84.593-9.79 1.105-14.754 1.526-10.405.872-20.868 1.308-31.341 1.308zm-.179-212.294c-1.966 0-3.934.016-5.903.047-5.593.095-11.205.318-16.676.662-8.305.51-16.68 1.315-24.899 2.391-6.931.902-12.256 6.61-12.666 13.574-3.325 56.196-3.325 113.188 0 169.392.41 6.96 5.735 12.664 12.662 13.565 25.948 3.376 52.258 3.988 78.196 1.815 4.84-.411 9.671-.911 14.352-1.484l2.579-.33c6.935-.902 12.26-6.607 12.671-13.565v-.001c3.325-56.204 3.325-113.195 0-169.39-.41-6.965-5.736-12.673-12.662-13.575-5.427-.708-10.909-1.299-16.296-1.758-4.707-.405-9.472-.72-14.167-.936-5.641-.271-11.401-.407-17.191-.407z"
       fill="#63af7d"
       id="path38" />
    <g
       aria-label="5"
       style="font-style:normal;font-weight:normal;font-size:192px;line-height:1.25;font-family:sans-serif;letter-spacing:0px;word-spacing:0px;fill:#ffffff;fill-opacity:0.88324872;stroke:none"
       id="text856">
      <path
         d="M 133.29232,215.375 H 88.761074 l -5.34375,30.375 q 13.3125,-7.125 24.562496,-7.125 9,0 16.78125,3.375 7.875,3.375 13.78125,9.375 5.90625,5.90625 9.28125,14.0625 3.375,8.15625 3.375,17.53125 0,13.59375 -6.09375,24.75 -6.09375,11.15625 -17.625,17.71875 -11.4375,6.5625 -26.4375,6.5625 -16.781246,0 -27.281246,-6.1875 -10.40625,-6.1875 -14.8125,-14.15625 -4.3125,-8.0625 -4.3125,-14.0625 0,-3.65625 3,-6.9375 3.09375,-3.28125 7.6875,-3.28125 7.875,0 11.71875,9.09375 3.75,8.34375 10.125,13.03125 6.375,4.59375 14.249996,4.59375 7.21875,0 12.65625,-3.75 5.4375,-3.75 8.34375,-10.3125 3,-6.5625 3,-14.90625 0,-9 -3.1875,-15.375 -3.1875,-6.375 -8.53125,-9.46875 -5.34375,-3.1875 -11.90625,-3.1875 -8.062496,0 -11.531246,1.96875 -3.46875,1.96875 -10.03125,6.9375 -6.46875,4.875 -10.6875,4.875 -4.59375,0 -8.15625,-3.28125 -3.5625,-3.375 -3.5625,-7.59375 0,-0.46875 1.03125,-6.375 l 7.875,-44.90625 q 1.3125,-8.0625 4.875,-11.71875 3.5625,-3.65625 11.625,-3.65625 h 49.499996 q 14.625,0 14.625,11.15625 0,4.875 -3.5625,7.875 -3.5625,3 -10.5,3 z"
         style="font-style:normal;font-variant:normal;font-weight:normal;font-stretch:normal;font-family:'Arial Rounded MT Bold';-inkscape-font-specification:'Arial Rounded MT Bold, ';fill:#ffffff;fill-opacity:0.88324872"
         id="path834" />
    </g>
    <g
       aria-label="8"
       style="font-style:normal;font-weight:normal;font-size:192px;line-height:1.25;font-family:sans-serif;letter-spacing:0px;word-spacing:0px;fill:#ffffff;fill-opacity:0.88324872;stroke:none"
       id="text856-8">
      <path
         d="m 211.97087,227.09375 q 0,-9.375 5.0625,-17.625 5.15625,-8.34375 15,-13.3125 9.9375,-4.96875 23.15625,-4.96875 11.15625,0 19.59375,2.90625 8.4375,2.90625 14.0625,8.0625 5.625,5.0625 8.34375,11.53125 2.71875,6.375 2.71875,13.59375 0,9.1875 -4.78125,16.40625 -4.6875,7.21875 -14.0625,11.8125 7.96875,3.09375 13.21875,8.15625 5.25,4.96875 7.875,11.625 2.71875,6.5625 2.71875,14.625 0,11.8125 -5.71875,21.46875 -5.71875,9.5625 -16.78125,15 -11.0625,5.4375 -26.0625,5.4375 -15.5625,0 -26.625,-5.4375 -11.0625,-5.4375 -16.6875,-14.90625 -5.625,-9.5625 -5.625,-21.375 0,-25.21875 23.8125,-34.59375 -19.21875,-9 -19.21875,-28.40625 z m 67.21875,62.0625 q 0,-7.3125 -3,-12.75 -3,-5.4375 -8.4375,-8.34375 -5.4375,-2.90625 -12.1875,-2.90625 -9.5625,0 -16.03125,6.375 -6.46875,6.375 -6.46875,17.8125 0,7.3125 3,12.9375 3.09375,5.53125 8.34375,8.625 5.25,3 11.71875,3 6.5625,0 11.8125,-3.09375 5.25,-3.09375 8.25,-8.71875 3,-5.625 3,-12.9375 z m -23.4375,-80.0625 q -8.8125,0 -14.25,5.53125 -5.34375,5.4375 -5.34375,14.0625 0,7.96875 5.53125,13.3125 5.53125,5.25 14.25,5.25 4.40625,0 7.96875,-1.40625 3.65625,-1.40625 6.1875,-3.84375 2.625,-2.53125 4.03125,-5.90625 1.40625,-3.46875 1.40625,-7.59375 0,-5.53125 -2.53125,-9.9375 -2.4375,-4.40625 -6.9375,-6.9375 -4.5,-2.53125 -10.3125,-2.53125 z"
         style="font-style:normal;font-variant:normal;font-weight:normal;font-stretch:normal;font-family:'Arial Rounded MT Bold';-inkscape-font-specification:'Arial Rounded MT Bold, ';fill:#ffffff;fill-opacity:0.88324872"
         id="path837" />
    </g>
    <g
       aria-label="4"
       style="font-style:normal;font-weight:normal;font-size:192px;line-height:1.25;font-family:sans-serif;letter-spacing:0px;word-spacing:0px;fill:#ffffff;fill-opacity:0.88324872;stroke:none"
       id="text856-8-6">
      <path
         d="m 419.29501,317.75 v -17.4375 h -47.0625 q -8.90625,0 -13.40625,-4.03125 -4.40625,-4.03125 -4.40625,-10.96875 0,-1.78125 0.65625,-3.5625 0.65625,-1.875 1.96875,-3.84375 1.3125,-2.0625 2.71875,-3.9375 1.40625,-1.875 3.46875,-4.59375 l 49.6875,-66.46875 q 4.875,-6.5625 7.96875,-9.46875 3.1875,-3 7.59375,-3 14.25,0 14.25,16.3125 v 72.5625 h 4.03125 q 7.21875,0 11.53125,1.96875 4.40625,1.96875 4.40625,8.625 0,5.4375 -3.5625,7.96875 -3.5625,2.4375 -10.6875,2.4375 h -5.71875 V 317.75 q 0,7.21875 -3.1875,10.78125 Q 436.35751,332 431.01376,332 q -5.25,0 -8.53125,-3.5625 -3.1875,-3.65625 -3.1875,-10.6875 z m -40.3125,-38.4375 h 40.3125 v -54.46875 z"
         style="font-style:normal;font-variant:normal;font-weight:normal;font-stretch:normal;font-family:'Arial Rounded MT Bold';-inkscape-font-specification:'Arial Rounded MT Bold, ';fill:#ffffff;fill-opacity:0.88324872"
         id="path840" />
    </g>
  </g>
</svg>
