<svg id="Capa_1" enable-background="new 0 0 512 512" height="512" viewBox="0 0 512 512" width="512" xmlns="http://www.w3.org/2000/svg"><path d="m506.1 153.877-151.825-127.396-24.608 10.519-94.894 115.222c-5.863 6.987-60.691 326.746-60.691 326.746l34.76 29.168c6.987 5.863 17.405 4.952 23.268-2.036l276.025-328.954c5.864-6.988 4.952-17.406-2.035-23.269z" fill="#eceaec"/><path d="m247.742 228.154v-56.679c0-11.649 4.104-22.926 11.592-31.849l94.941-113.145c-6.987-5.863-17.405-4.952-23.269 2.036l-83.264 99.23-192.761 229.724c-5.863 6.987-4.952 17.405 2.036 23.268l117.065 98.229h40.629c18.243 0 33.032-14.789 33.032-33.032v-196.231l91.774 77.005c1.548 1.298 3.427 1.935 5.298 1.935 2.363 0 4.702-1 6.331-2.952 2.935-3.492 2.476-8.702-1.016-11.629z" fill="#dad8db"/><path d="m214.71 0h-198.194s-9.032 7.394-9.032 16.516l-4.081 425.339c0 9.121 7.395 16.516 16.516 16.516h190.71c9.121 0 20.597-12.435 20.597-12.435v-429.42c0-9.122-7.395-16.516-16.516-16.516z" fill="#ff8086"/><path d="m198.194 239.484h-165.162c-4.565 0-8.258-3.694-8.258-8.258 0-4.565 3.694-8.258 8.258-8.258h165.161c4.565 0 8.258 3.694 8.258 8.258.001 4.564-3.693 8.258-8.257 8.258z" fill="#e5646e"/><g fill="#fff"><circle cx="115.613" cy="346.839" r="16.516"/><circle cx="49.548" cy="412.903" r="16.516"/><circle cx="181.677" cy="181.677" r="16.516"/><circle cx="181.677" cy="49.548" r="16.516"/><circle cx="49.548" cy="181.677" r="16.516"/><circle cx="49.548" cy="49.548" r="16.516"/><circle cx="181.677" cy="280.774" r="16.516"/></g><circle cx="313.407" cy="229.352" fill="#6f6571" r="16.516"/><circle cx="398.338" cy="128.135" fill="#6f6571" r="16.516"/><circle cx="300.318" cy="347.73" fill="#6f6571" r="16.516"/><path d="m16.516 412.903v-412.903c-9.121 0-16.516 7.394-16.516 16.516v429.419c0 9.122 7.395 16.516 16.516 16.516h198.194c9.121 0 16.516-7.395 16.516-16.516h-181.678c-18.243 0-33.032-14.789-33.032-33.032z" fill="#e5646e"/></svg>