<svg id="Capa_1" enable-background="new 0 0 512 512" height="512" viewBox="0 0 512 512" width="512" xmlns="http://www.w3.org/2000/svg"><g><g><g clip-rule="evenodd" fill-rule="evenodd"><path d="m7.5 121.111h31v90h-31z" fill="#f8a986"/><path d="m128.5 121.111h82.5v90h-82.5z" fill="#f8a986"/><path d="m301 121.111h82.5v90h-82.5z" fill="#f8a986"/><path d="m473.5 121.111h31v90h-31z" fill="#f8a986"/><path d="m473.5 504.5c0-150.667 0-301.333 0-452l-37.5-45h-15.001l-37.5 45v410.224c13.564 7.674 20.275 20.592 17.649 41.776z" fill="#e7cda2"/><path d="m257.626 451.488c.965-21.917 23.317-36.063 43.374-28.192 0-123.598 0-247.197 0-370.796l-37.5-45h-15.001l-37.499 45v414.484c3.6-24.178 35.058-29.204 46.626-15.496z" fill="#e7cda2"/><path d="m128.5 467.715c0-138.405 0-276.81 0-415.215l-37.5-45h-15.001l-37.5 45v452h60.326c.001-12.291 8.971-33.12 29.675-36.785z" fill="#e7cda2"/><path d="m98.826 504.5h302.323c2.627-21.183-4.085-34.102-17.649-41.776-14.206-8.037-35.928-10.32-62.313-10.32-.273-17.461-14.532-31.294-31.793-31.294-17.086 0-31.022 13.475-31.767 30.378-11.569-13.708-43.027-8.682-46.627 15.496l-75.973.169c-2.294 0-4.468.195-6.527.56-20.704 3.667-29.674 24.496-29.674 36.787z" fill="#7fdcc7"/><path d="m7.5 301.111h31v90h-31z" fill="#f8a986"/><path d="m128.5 301.111h82.5v90h-82.5z" fill="#f8a986"/><path d="m301 301.111h82.5v90h-82.5z" fill="#f8a986"/><path d="m473.5 301.111h31v90h-31z" fill="#f8a986"/><path d="m98.826 504.5h30c0-20.675 17.218-34.999 32.102-37.405l-25.901.058c-2.294 0-4.468.195-6.527.56-20.704 3.667-29.674 24.496-29.674 36.787z" fill="#6ab7a4"/><path d="m98.5 16.5-7.5-9h-15.001l-37.5 45v452h30c0-150.667 0-301.333 0-452z" fill="#dfbd84"/><path d="m271 16.5-7.5-9h-15.001l-37.499 45v414.484c2.388-16.038 17.033-23.646 30-22.952v-391.532z" fill="#dfbd84"/><path d="m443.5 16.5-7.5-9h-15.001l-37.5 45v410.224c13.564 7.674 20.275 20.592 17.649 41.776h12.352c0-150.667 0-301.333 0-452z" fill="#dfbd84"/><path d="m38.5 211.111v-30h-31v30zm466 0v-30h-31v30zm-121 0v-30h-82.5v30zm-255 0h82.5v-30h-82.5z" fill="#f69365"/><path d="m38.5 391.111v-30h-31v30zm466 0v-30h-31v30zm-121 0v-30h-82.5v30zm-255 0h82.5v-30h-82.5z" fill="#f69365"/></g><g><path d="m436 120h-15v-30h15zm0-45h-15v-15h15z" fill="#fff"/></g><g><path d="m263.5 120h-15v-30h15zm0-45h-15v-15h15z" fill="#fff"/></g><g><path d="m91 120h-15v-30h15zm0-45h-15v-15h15z" fill="#fff"/></g><g><path d="m278.899 467h15v15h-15z" fill="#fff"/></g></g><g><path d="m512 218.611v-105h-31v-19.305h-15v387.694h15v-83.39h31v-105h-31v-75h31zm-15-90v75h-16v-75zm0 180v75h-16v-75z"/><path d="m31 482h15v-218.5h-15v30.11h-31v105h31zm-16-98.389v-75h16v75z"/><path d="m31 248.5h15v-193.285l33.512-40.215h7.976l33.512 40.215v24.09h15v-29.52l-41.487-49.785h-22.027l-41.486 49.785v63.826h-31v105h31zm-16-44.889v-75h16v75z"/><path d="m76 158.61h15v15h-15z"/><path d="m248.5 158.61h15v15h-15z"/><path d="m421 158.61h15v15h-15z"/><path d="m76 338.61h15v15h-15z"/><path d="m248.5 338.61h15v15h-15z"/><path d="m421 338.61h15v15h-15z"/><path d="m398.788 465.436c-2.283-2.584-4.899-4.846-7.788-6.83v-195.105h-15v30.11h-67.5v-75h67.5v29.89h15v-193.286l33.512-40.215h7.976l33.512 40.215v24.09h15v-29.52l-41.487-49.785h-22.026l-41.487 49.785v63.826h-67.5v-19.305h-15v319.529c-1.352-.143-2.72-.225-4.106-.225-16.812 0-31.181 10.483-36.787 25.403-7.095-2.893-15.653-3.384-23.925-1.037-3.738 1.061-7.148 2.618-10.182 4.585v-179.06h-15v30.11h-67.5v-75h67.5v29.89h15v-193.286l33.512-40.215h7.976l33.512 40.215v24.09h15v-29.52l-41.487-49.785h-22.026l-41.487 49.785v63.826h-67.5v-19.305h-15v367.676c-16.406 5.727-26.258 21.084-28.929 35.018h-92.071v15h334.75v-15h-227.172c2.806-9.581 10.722-22.347 27.465-22.347l22.873-.051-.033-15-21.883.049v-61.04h67.5v60.89l-30.616.068.033 15 44.551-.099.95-6.381c1.629-10.938 10.585-14.611 14.359-15.683 7.513-2.132 15.371-.52 19.117 3.919l13.224-4.507c.574-13.014 11.237-23.208 24.275-23.208 13.19 0 24.088 10.726 24.294 23.911l.115 7.383h7.384c24.534 0 54.249 1.758 66.361 15.465 4.65 5.263 6.845 12.379 6.65 21.631h-44.447v15h162.25v-15h-102.82c.184-12.93-3.29-23.527-10.392-31.564zm-195.288-336.825v75h-67.5v-75zm-67.5 255v-75h67.5v75zm240-75v75h-67.5v-75zm0-180v75h-67.5v-75zm-67.5 290.016v-20.016h67.5v52.729c-14.212-4.793-31.385-6.14-48.127-6.389-2.351-11.283-9.6-20.83-19.373-26.324z"/></g></g></svg>