<svg enable-background="new 0 0 256 256" height="512" viewBox="0 0 256 256" width="512" xmlns="http://www.w3.org/2000/svg"><g fill="#7ccc4e"><path d="m190.8 35.89c1.208-2.869 1.877-6.02 1.877-9.328 0-13.289-10.773-24.062-24.061-24.062-10.526 0-19.451 6.771-22.716 16.186-6.14-.911-12.518-1.407-19.075-1.407s-12.934.496-19.075 1.407c-3.265-9.415-12.19-16.186-22.717-16.186-13.289 0-24.061 10.773-24.061 24.062 0 3.308.669 6.459 1.877 9.328-14.114 10.181-22.73 23.74-22.73 38.629 0 31.612 38.819 57.24 86.706 57.24s86.706-25.627 86.706-57.24c-.001-14.889-8.617-28.448-22.731-38.629z"/><path d="m187.896 223.975c21.303-25.788 16.469-45.267 13.752-51.916-.751-1.838-1.175-3.777-1.335-5.756-.914-11.304-6.397-24.064-14.503-28.977-5.815-3.524-10.869-8.136-15.421-13.187l-.092-.102c-12.783 4.902-27.625 7.722-43.473 7.722s-30.689-2.82-43.473-7.722c-.031.034-.061.068-.092.102-4.552 5.051-9.606 9.663-15.421 13.187-8.107 4.913-13.589 17.673-14.503 28.977-.16 1.979-.584 3.918-1.335 5.756-2.716 6.649-7.551 26.128 13.752 51.916 0 0-26.501 2.789-23.711 11.158s19.527 0 19.527 0-12.553 11.158-6.974 16.738c5.579 5.579 15.343-4.185 18.132-13.948 0 0 1.395 15.343 8.369 15.343s8.369-9.764 2.789-18.133c0 0 2.431-1.207 5.757-1.674 10.401 8.804 23.259 14.016 37.182 14.016s26.782-5.212 37.182-14.016c3.326.467 5.757 1.674 5.757 1.674-5.579 8.369-4.184 18.133 2.789 18.133 6.974 0 8.369-15.343 8.369-15.343 2.79 9.763 12.553 19.527 18.132 13.948 5.579-5.58-6.974-16.738-6.974-16.738s16.737 8.369 19.527 0c2.792-8.369-23.709-11.158-23.709-11.158z"/><path d="m203.793 219.077s53.143-62.404 36.579-78.861c-9.585-9.524-29.742-.726-45.027 8.377 2.776 5.493 4.494 11.869 4.967 17.692.164 2.018.616 3.991 1.374 5.868.033.082.068.176.102.262 6.84 17.435-2.077 37.214-13.892 51.56 0 0 8.385.882 15.225 3.144.76.251 1.501.52 2.209.806 3.865 1.561 6.75 3.65 6.455 6.376-.029.271-.084.548-.179.832-.3.901-.77 1.598-1.355 2.142 12.405 1.469 25.899 1.113 27.869-6.878 3.763-15.252-34.327-11.32-34.327-11.32z"/><path d="m42.042 235.133c-.095-.284-.149-.561-.179-.832-.295-2.726 2.59-4.815 6.455-6.376.708-.286 1.449-.554 2.209-.806 6.84-2.262 15.225-3.144 15.225-3.144-13.086-15.888-20.347-35.61-13.79-51.822.759-1.877 1.21-3.85 1.374-5.868.512-6.309 2.508-13.222 5.524-18.776-15.063-8.657-34.075-16.376-43.261-7.19-16.511 16.511 36.832 78.744 36.832 78.744s-38.102-3.81-34.292 11.43c1.871 7.484 13.845 8.226 25.551 7.047-.728-.571-1.298-1.357-1.648-2.407z"/></g><ellipse cx="127" cy="193.75" fill="#f9bd55" rx="31.384" ry="40.25"/><circle cx="167.378" cy="31.357" fill="#f9bd55" r="16.021"/><circle cx="86.271" cy="31.357" fill="#f9bd55" r="16.021"/><path d="m161.517 34.06c-1.377 0-2.496-1.114-2.5-2.492-.007-2.233.856-4.335 2.43-5.919 1.574-1.585 3.672-2.461 5.904-2.468h.028c2.223 0 4.314.862 5.892 2.43 1.585 1.574 2.461 3.671 2.468 5.904.004 1.381-1.111 2.504-2.492 2.508-.003 0-.006 0-.008 0-1.377 0-2.496-1.114-2.5-2.492-.003-.897-.354-1.74-.991-2.373-.635-.63-1.476-.977-2.369-.977-.004 0-.008 0-.012 0-.897.003-1.74.354-2.372.991-.633.638-.98 1.482-.978 2.38.004 1.381-1.111 2.504-2.492 2.508-.004 0-.006 0-.008 0z"/><path d="m167.378 49.878c-10.212 0-18.521-8.309-18.521-18.521s8.309-18.521 18.521-18.521 18.521 8.309 18.521 18.521c-.001 10.212-8.309 18.521-18.521 18.521zm0-32.042c-7.455 0-13.521 6.065-13.521 13.521s6.065 13.521 13.521 13.521 13.521-6.065 13.521-13.521c-.001-7.456-6.066-13.521-13.521-13.521z"/><path d="m80.41 34.06c-1.377 0-2.495-1.114-2.5-2.492-.008-2.232.855-4.335 2.43-5.919 1.574-1.585 3.672-2.461 5.904-2.468h.028c4.597 0 8.344 3.732 8.359 8.334.005 1.38-1.111 2.503-2.492 2.508-.002 0-.005 0-.008 0-1.377 0-2.495-1.114-2.5-2.492-.003-.897-.355-1.74-.992-2.373-.634-.63-1.475-.977-2.368-.977-.004 0-.008 0-.012 0-.897.003-1.74.354-2.373.991-.633.638-.979 1.482-.977 2.38.005 1.38-1.111 2.503-2.492 2.508-.001 0-.004 0-.007 0z"/><path d="m86.271 49.878c-10.213 0-18.521-8.309-18.521-18.521s8.309-18.521 18.521-18.521 18.521 8.309 18.521 18.521-8.309 18.521-18.521 18.521zm0-32.042c-7.456 0-13.521 6.065-13.521 13.521s6.065 13.521 13.521 13.521c7.455 0 13.521-6.065 13.521-13.521s-6.065-13.521-13.521-13.521z"/><path d="m126.824 134.259c-49.188 0-89.206-26.8-89.206-59.74 0-14.645 7.875-28.615 22.226-39.515-.911-2.714-1.372-5.545-1.372-8.442 0-14.647 11.915-26.562 26.561-26.562 10.599 0 20.128 6.324 24.323 15.936 11.557-1.535 23.379-1.535 34.936 0 4.195-9.612 13.724-15.936 24.323-15.936 14.646 0 26.562 11.915 26.562 26.562 0 2.898-.461 5.729-1.371 8.442 14.35 10.899 22.225 24.87 22.225 39.515-.001 32.94-40.018 59.74-89.207 59.74zm-41.791-129.259c-11.889 0-21.562 9.673-21.562 21.562 0 2.895.565 5.707 1.682 8.358.451 1.073.103 2.316-.842 2.997-13.989 10.092-21.693 23.09-21.693 36.602 0 30.184 37.774 54.74 84.206 54.74s84.206-24.557 84.206-54.74c0-13.512-7.704-26.51-21.693-36.602-.944-.681-1.293-1.924-.841-2.997 1.115-2.649 1.681-5.462 1.681-8.358 0-11.889-9.673-21.562-21.562-21.562-9.166 0-17.346 5.829-20.354 14.506-.395 1.136-1.537 1.837-2.729 1.653-12.344-1.83-25.073-1.83-37.415 0-1.188.185-2.334-.518-2.729-1.653-3.009-8.677-11.189-14.506-20.355-14.506z"/><path d="m137.346 67.429c-.917 0-1.8-.507-2.238-1.383l-2.475-4.951c-.617-1.235-.116-2.737 1.118-3.354 1.236-.618 2.735-.117 3.354 1.118l2.475 4.951c.617 1.235.116 2.737-1.118 3.354-.359.18-.74.265-1.116.265z"/><path d="m116.303 67.429c-.376 0-.757-.085-1.116-.265-1.234-.618-1.735-2.119-1.118-3.354l2.476-4.951c.618-1.235 2.117-1.738 3.354-1.118 1.234.618 1.735 2.119 1.118 3.354l-2.476 4.951c-.438.876-1.321 1.383-2.238 1.383z"/><path d="m126.824 95.226c-13.522 0-26.468-5.77-35.517-15.83-.924-1.026-.84-2.607.187-3.53 1.025-.924 2.607-.84 3.53.187 8.103 9.008 19.693 14.174 31.8 14.174s23.698-5.166 31.801-14.174c.923-1.026 2.505-1.109 3.53-.187 1.026.923 1.11 2.504.187 3.53-9.049 10.06-21.994 15.83-35.518 15.83z"/><path d="m195.235 255.997c-.732 0-1.485-.098-2.25-.296-4.259-1.104-8.295-5.081-11.137-9.688-1.464 4.713-4.217 9.753-9.296 9.753-3.254 0-5.883-1.564-7.402-4.404-2.09-3.905-1.661-9.621.967-14.909-1.858-.525-4.519-.979-7.184-.425-3.652.769-7.293-1.33-8.471-4.863-1.147-3.44.426-7.262 3.659-8.887 3.566-1.791 9.01-3.574 15.455-2.566 1.942-5.229 7.085-19.969 7.812-31.319.242-3.766-1.06-7.349-3.571-9.83-4.687-4.632-7.994-10.397-9.564-16.673-.336-1.34.479-2.697 1.817-3.032 1.339-.344 2.696.478 3.032 1.817 1.349 5.388 4.194 10.344 8.229 14.331 3.542 3.5 5.381 8.496 5.047 13.707-.946 14.771-8.575 33.986-8.899 34.797-.465 1.161-1.716 1.792-2.928 1.497-5.92-1.484-10.979.129-14.185 1.739-1.028.517-1.527 1.737-1.16 2.838.375 1.127 1.535 1.788 2.708 1.55 6.584-1.372 12.709 1.636 12.967 1.764.642.321 1.114.901 1.298 1.595.185.693.062 1.432-.336 2.028-3.265 4.897-3.621 9.986-2.285 12.482.635 1.187 1.614 1.764 2.994 1.764 3.315 0 5.465-8.512 5.88-13.069.108-1.198 1.057-2.149 2.255-2.263 1.197-.105 2.308.646 2.638 1.803 1.807 6.32 6.805 12.56 10.914 13.624 1.257.328 2.196.093 3.047-.758.503-.503.718-1.067.695-1.83-.097-3.387-4.69-8.712-7.563-11.272-.936-.833-1.109-2.23-.406-3.268.701-1.038 2.062-1.396 3.186-.836 3.853 1.92 11.208 4.448 14.55 3.062.763-.316 1.222-.815 1.488-1.617.137-.409.095-.705-.154-1.091-2.159-3.354-13.842-5.989-21.447-6.79-.916-.097-1.704-.688-2.053-1.541s-.199-1.827.387-2.537c20.196-24.446 16.1-42.616 13.401-49.293-.841-2.077-1.361-4.299-1.549-6.603-.832-10.237-5.331-20.485-11.194-25.5-1.049-.897-1.172-2.476-.275-3.525.9-1.049 2.477-1.17 3.525-.275 6.801 5.816 11.996 17.429 12.929 28.896.146 1.798.55 3.525 1.199 5.134 2.9 7.175 7.315 26.054-11.422 50.861 6.529 1.031 17.483 3.465 20.703 8.466 1.072 1.665 1.312 3.524.694 5.379-.726 2.176-2.22 3.785-4.321 4.656-2.726 1.13-6.222.861-9.457.124 1.511 2.321 2.705 4.925 2.778 7.42.062 2.134-.684 4.04-2.158 5.515-1.554 1.553-3.487 2.358-5.587 2.358z"/><path d="m58.413 255.997c-2.101 0-4.031-.805-5.586-2.359-1.475-1.475-2.221-3.381-2.158-5.515.073-2.495 1.268-5.099 2.778-7.42-3.237.738-6.732 1.005-9.456-.124-2.103-.871-3.596-2.48-4.321-4.656-.618-1.854-.378-3.714.693-5.379 3.221-5.001 14.174-7.435 20.703-8.466-18.736-24.807-14.321-43.687-11.421-50.861.649-1.61 1.054-3.339 1.199-5.134.933-11.467 6.128-23.079 12.928-28.896 1.048-.897 2.627-.775 3.524.274s.774 2.627-.274 3.524c-5.863 5.016-10.361 15.264-11.193 25.501-.188 2.301-.708 4.521-1.548 6.602-2.699 6.679-6.796 24.848 13.399 49.294.586.709.734 1.685.387 2.536-.348.853-1.137 1.445-2.052 1.542-7.609.804-19.294 3.442-21.448 6.79-.248.386-.29.682-.153 1.091.267.803.727 1.302 1.49 1.618 3.359 1.391 10.702-1.141 14.546-3.063 1.121-.562 2.482-.204 3.187.834.703 1.037.529 2.436-.406 3.27-2.873 2.561-7.467 7.886-7.563 11.272-.022.763.192 1.327.695 1.83.851.851 1.79 1.083 3.048.758 4.109-1.064 9.107-7.304 10.912-13.624.331-1.157 1.458-1.925 2.637-1.802 1.198.111 2.146 1.062 2.257 2.26.421 4.559 2.578 13.071 5.88 13.071 1.38 0 2.359-.577 2.994-1.764 1.336-2.496.979-7.585-2.285-12.482-.397-.597-.521-1.336-.336-2.028.184-.693.657-1.274 1.298-1.595.258-.128 6.386-3.135 12.969-1.764 1.166.239 2.332-.424 2.707-1.55.367-1.101-.133-2.321-1.161-2.839-3.205-1.607-8.266-3.222-14.185-1.738-1.214.295-2.464-.336-2.928-1.497-.324-.811-7.953-20.026-8.899-34.797-.334-5.211 1.506-10.206 5.047-13.707 4.036-3.988 6.882-8.943 8.229-14.33.334-1.34 1.694-2.161 3.031-1.818 1.34.335 2.154 1.692 1.818 3.031-1.569 6.276-4.877 12.042-9.564 16.674-2.511 2.482-3.812 6.065-3.571 9.83.727 11.351 5.869 26.091 7.812 31.319 6.452-1.012 11.89.775 15.454 2.565 3.233 1.625 4.808 5.445 3.661 8.888-1.177 3.532-4.816 5.635-8.47 4.863-2.658-.551-5.32-.097-7.184.428 2.626 5.287 3.055 11.002.965 14.906-1.52 2.84-4.148 4.404-7.402 4.404-5.079 0-7.832-5.04-9.296-9.753-2.841 4.607-6.877 8.584-11.136 9.688-.766.199-1.519.298-2.252.298z"/><path d="m58.412 255.997c-2.1 0-4.031-.804-5.585-2.358-1.475-1.475-2.221-3.382-2.158-5.516.073-2.495 1.268-5.099 2.778-7.42-3.237.738-6.732 1.005-9.456-.124-2.103-.871-3.596-2.48-4.321-4.656-.618-1.854-.378-3.714.693-5.379 3.221-5.001 14.174-7.435 20.703-8.466-18.797-24.884-14.313-43.786-11.38-50.965.621-1.521 1.011-3.207 1.156-5.012.878-10.838 6.165-25.135 15.7-30.914 5.031-3.05 9.892-7.211 14.859-12.724.695-.759 1.888-1.129 2.845-.762 12.891 4.943 27.614 7.557 42.577 7.557s29.687-2.613 42.577-7.557c.963-.37 2.05-.111 2.741.647l.093.102c4.977 5.523 9.837 9.686 14.871 12.736 9.536 5.779 14.822 20.076 15.699 30.914.146 1.803.535 3.489 1.157 5.012 2.933 7.181 7.415 26.083-11.381 50.965 6.529 1.031 17.483 3.465 20.703 8.466 1.072 1.665 1.312 3.524.694 5.379-.726 2.176-2.22 3.785-4.321 4.656-2.726 1.128-6.223.861-9.456.124 1.511 2.321 2.705 4.925 2.778 7.42.062 2.134-.684 4.041-2.158 5.516-2.097 2.096-4.881 2.829-7.837 2.062-4.259-1.104-8.295-5.081-11.137-9.689-1.464 4.714-4.217 9.754-9.296 9.754-3.254 0-5.883-1.564-7.402-4.404-2.09-3.904-1.661-9.619.965-14.906-.427-.12-.895-.236-1.395-.338-11.1 9.07-24.178 13.857-37.896 13.857s-26.796-4.787-37.896-13.857c-.5.102-.968.218-1.395.338 2.626 5.287 3.055 11.002.965 14.906-1.52 2.84-4.148 4.404-7.402 4.404-5.079 0-7.832-5.04-9.296-9.753-2.841 4.607-6.877 8.585-11.136 9.688-.764.199-1.516.297-2.25.297zm3.154-23.364c.806 0 1.591.391 2.07 1.098.703 1.037.529 2.436-.406 3.27-2.873 2.561-7.467 7.886-7.563 11.272-.022.763.192 1.328.695 1.831.851.85 1.788 1.079 3.047.758 4.11-1.065 9.108-7.305 10.913-13.625.331-1.157 1.458-1.925 2.637-1.802 1.198.111 2.146 1.062 2.257 2.26.421 4.559 2.578 13.071 5.88 13.071 1.38 0 2.359-.577 2.994-1.764 1.336-2.496.979-7.585-2.285-12.482-.398-.598-.521-1.338-.335-2.031.185-.694.66-1.275 1.303-1.595.114-.057 2.837-1.394 6.521-1.91.709-.103 1.42.107 1.963.567 10.376 8.782 22.675 13.424 35.567 13.424 12.894 0 25.192-4.642 35.567-13.424.543-.461 1.254-.671 1.963-.567 3.685.517 6.407 1.854 6.521 1.91.643.319 1.118.9 1.303 1.595.186.693.063 1.434-.335 2.031-3.265 4.897-3.621 9.986-2.285 12.482.635 1.187 1.614 1.764 2.994 1.764 3.303 0 5.459-8.513 5.88-13.07.11-1.198 1.059-2.148 2.257-2.261 1.181-.121 2.306.645 2.636 1.802 1.807 6.32 6.805 12.56 10.915 13.625 1.258.324 2.196.092 3.047-.759.503-.503.718-1.068.695-1.832-.112-3.812-5.637-9.557-7.563-11.27-.937-.832-1.111-2.229-.409-3.269s2.064-1.397 3.188-.836c3.852 1.92 11.207 4.446 14.55 3.062.763-.316 1.222-.815 1.488-1.617.137-.408.095-.704-.153-1.091-2.155-3.348-13.84-5.986-21.449-6.79-.915-.097-1.704-.689-2.052-1.542-.348-.852-.199-1.827.387-2.536 20.253-24.517 16.095-42.699 13.366-49.379-.816-1.998-1.325-4.185-1.513-6.5-.935-11.562-6.531-22.935-13.307-27.041-5.093-3.087-9.986-7.182-14.923-12.493-13.066 4.772-27.812 7.289-42.768 7.289s-29.7-2.517-42.768-7.289c-4.938 5.312-9.831 9.408-14.922 12.493-6.775 4.106-12.372 15.479-13.308 27.042-.188 2.316-.696 4.504-1.512 6.499-2.729 6.679-6.889 24.86 13.365 49.379.586.709.734 1.685.387 2.536-.348.853-1.137 1.445-2.052 1.542-7.609.804-19.294 3.442-21.448 6.79-.248.386-.29.682-.153 1.091.267.803.727 1.302 1.49 1.618 3.359 1.391 10.702-1.141 14.546-3.063.359-.178.74-.263 1.117-.263zm21.694-108.495.039.035.001-.002z"/><path d="m220.546 240.449c-3.165 0-6.694-.23-10.588-.691-.968-.114-1.78-.78-2.083-1.706-.302-.927-.039-1.943.675-2.607.314-.293.533-.644.687-1.103.031-.095.052-.193.064-.31.091-.838-1.15-2.272-4.906-3.789-.639-.258-1.331-.511-2.057-.75-6.511-2.152-14.623-3.023-14.704-3.032-.915-.097-1.703-.688-2.052-1.539s-.201-1.826.384-2.537c20.017-24.303 16.105-42.402 13.495-49.057l-.092-.237c-.84-2.078-1.361-4.3-1.549-6.604-.458-5.643-2.173-11.754-4.706-16.768-.592-1.172-.177-2.603.952-3.274 23.283-13.869 39.455-16.56 48.068-8.003 15.545 15.444-20.024 62.162-32.691 77.741 8.595-.351 23.737.011 29.241 6.338 2.016 2.316 2.66 5.247 1.864 8.475-1.55 6.288-8.265 9.452-20.002 9.453zm-6.363-5.295c7.89.634 20.043.604 21.511-5.355.534-2.163-.189-3.315-.78-3.995-4.311-4.959-21.22-5.232-30.864-4.239-1.007.104-1.993-.42-2.469-1.324-.475-.904-.353-2.006.31-2.784 19.964-23.447 47.587-64.671 36.721-75.467-8.427-8.373-27.911.626-40.025 7.604 2.283 5.146 3.767 10.917 4.22 16.49.146 1.798.55 3.525 1.199 5.134l.072.185c.002.004.038.097.039.101 2.804 7.146 7.019 25.943-11.557 50.596 3.13.508 7.449 1.359 11.348 2.647.826.273 1.621.562 2.36.861 5.706 2.305 8.399 5.32 8.005 8.963-.023.199-.052.393-.09.583z"/><path d="m35.548 240.487c-11.614 0-18.273-3.145-19.834-9.387-.806-3.225-.171-6.157 1.837-8.48 5.483-6.345 20.625-6.751 29.221-6.432-12.717-15.538-48.436-62.141-32.94-77.637 8.345-8.345 23.914-6.06 46.275 6.79 1.177.677 1.599 2.168.951 3.361-2.829 5.208-4.734 11.69-5.229 17.784-.188 2.301-.708 4.521-1.548 6.602-5.609 13.87-.6 32.298 13.401 49.296.585.711.731 1.685.383 2.537s-1.138 1.442-2.053 1.539c-.081.009-8.194.881-14.7 3.032-.732.241-1.425.494-2.058.75-3.756 1.516-4.997 2.951-4.906 3.789.013.116.033.215.065.31v.001c.179.536.447.939.82 1.233.803.63 1.142 1.684.856 2.663-.284.979-1.136 1.688-2.15 1.79-3.035.307-5.834.459-8.391.459zm7.458-19.366c-8.804 0-18.558 1.163-21.673 4.77-.589.681-1.309 1.836-.768 3.997 1.056 4.226 7.736 6.13 18.948 5.482-.062-.26-.106-.525-.136-.801-.395-3.644 2.299-6.659 8.005-8.963.731-.296 1.526-.586 2.36-.861 3.841-1.27 8.167-2.131 11.355-2.649-13.077-17.482-17.367-36.257-11.453-50.88.649-1.609 1.054-3.337 1.199-5.133.481-5.933 2.173-12.205 4.706-17.569-11.604-6.417-30.099-14.514-38.185-6.427-10.831 10.832 16.924 51.966 36.963 75.35.664.775.79 1.877.318 2.783-.473.904-1.445 1.438-2.465 1.331-2.646-.264-5.842-.43-9.174-.43z"/><path d="m203.827 192.909c-.693 0-1.384-.287-1.878-.849-.912-1.036-.812-2.616.226-3.528 14.21-12.505 18.042-25.796 18.079-25.929.37-1.328 1.748-2.106 3.075-1.74 1.328.368 2.109 1.739 1.745 3.068-.164.599-4.195 14.802-19.597 28.354-.474.419-1.063.624-1.65.624z"/><path d="m49.478 190.292c-.627 0-1.254-.234-1.74-.705-13.06-12.658-16.619-25.078-16.765-25.601-.369-1.33.41-2.708 1.74-3.078 1.333-.365 2.706.408 3.076 1.735.033.115 3.404 11.699 15.429 23.354.991.961 1.016 2.544.055 3.535-.491.506-1.143.76-1.795.76z"/><path d="m127 236.5c-18.684 0-33.884-19.178-33.884-42.75s15.2-42.75 33.884-42.75 33.884 19.178 33.884 42.75-15.2 42.75-33.884 42.75zm0-80.5c-15.927 0-28.884 16.935-28.884 37.75s12.957 37.75 28.884 37.75 28.884-16.935 28.884-37.75-12.957-37.75-28.884-37.75z"/></svg>