<?xml version="1.0" encoding="iso-8859-1"?>
<!-- Generator: Adobe Illustrator 19.0.0, SVG Export Plug-In . SVG Version: 6.00 Build 0)  -->
<svg version="1.1" id="Capa_1" xmlns="http://www.w3.org/2000/svg" xmlns:xlink="http://www.w3.org/1999/xlink" x="0px" y="0px"
	 viewBox="0 0 360.49 360.49" style="enable-background:new 0 0 360.49 360.49;" xml:space="preserve">
<g>
	<g>
		<rect x="263.837" y="266.449" style="fill:#00EFD1;" width="83.592" height="83.592"/>
		<rect x="138.449" y="266.449" style="fill:#00EFD1;" width="83.592" height="83.592"/>
		<rect x="13.061" y="266.449" style="fill:#00EFD1;" width="83.592" height="83.592"/>
		<rect x="263.837" y="135.837" style="fill:#00EFD1;" width="83.592" height="83.592"/>
		<rect x="138.449" y="135.837" style="fill:#00EFD1;" width="83.592" height="83.592"/>
		<rect x="13.061" y="135.837" style="fill:#00EFD1;" width="83.592" height="83.592"/>
		<rect x="263.837" y="10.449" style="fill:#00EFD1;" width="83.592" height="83.592"/>
		<rect x="138.449" y="10.449" style="fill:#00EFD1;" width="83.592" height="83.592"/>
		<rect x="13.061" y="10.449" style="fill:#00EFD1;" width="83.592" height="83.592"/>
	</g>
	<g>
		<path style="fill:#083863;" d="M96.653,104.49H13.061c-5.771,0-10.449-4.678-10.449-10.449V10.449C2.612,4.678,7.29,0,13.061,0
			h83.592c5.771,0,10.449,4.678,10.449,10.449v83.592C107.102,99.812,102.424,104.49,96.653,104.49z M23.51,83.592h62.694V20.898
			H23.51V83.592z"/>
		<path style="fill:#083863;" d="M222.041,104.49h-83.592c-5.771,0-10.449-4.678-10.449-10.449V10.449
			C128,4.678,132.678,0,138.449,0h83.592c5.771,0,10.449,4.678,10.449,10.449v83.592C232.49,99.812,227.812,104.49,222.041,104.49z
			 M148.898,83.592h62.694V20.898h-62.694V83.592z"/>
		<path style="fill:#083863;" d="M96.653,229.878H13.061c-5.771,0-10.449-4.678-10.449-10.449v-83.592
			c0-5.771,4.678-10.449,10.449-10.449h83.592c5.771,0,10.449,4.678,10.449,10.449v83.592
			C107.102,225.199,102.424,229.878,96.653,229.878z M23.51,208.98h62.694v-62.694H23.51V208.98z"/>
		<path style="fill:#083863;" d="M222.041,229.878h-83.592c-5.771,0-10.449-4.678-10.449-10.449v-83.592
			c0-5.771,4.678-10.449,10.449-10.449h83.592c5.771,0,10.449,4.678,10.449,10.449v83.592
			C232.49,225.199,227.812,229.878,222.041,229.878z M148.898,208.98h62.694v-62.694h-62.694V208.98z"/>
		<path style="fill:#083863;" d="M347.429,104.49h-83.592c-5.771,0-10.449-4.678-10.449-10.449V10.449
			C253.388,4.678,258.066,0,263.837,0h83.592c5.771,0,10.449,4.678,10.449,10.449v83.592
			C357.878,99.812,353.199,104.49,347.429,104.49z M274.286,83.592h62.694V20.898h-62.694V83.592z"/>
		<path style="fill:#083863;" d="M347.429,229.878h-83.592c-5.771,0-10.449-4.678-10.449-10.449v-83.592
			c0-5.771,4.678-10.449,10.449-10.449h83.592c5.771,0,10.449,4.678,10.449,10.449v83.592
			C357.878,225.199,353.199,229.878,347.429,229.878z M274.286,208.98h62.694v-62.694h-62.694V208.98z"/>
		<path style="fill:#083863;" d="M96.653,360.49H13.061c-5.771,0-10.449-4.678-10.449-10.449v-83.592
			C2.612,260.678,7.29,256,13.061,256h83.592c5.771,0,10.449,4.678,10.449,10.449v83.592
			C107.102,355.812,102.424,360.49,96.653,360.49z M23.51,339.592h62.694v-62.694H23.51V339.592z"/>
		<path style="fill:#083863;" d="M222.041,360.49h-83.592c-5.771,0-10.449-4.678-10.449-10.449v-83.592
			c0-5.771,4.678-10.449,10.449-10.449h83.592c5.771,0,10.449,4.678,10.449,10.449v83.592
			C232.49,355.812,227.812,360.49,222.041,360.49z M148.898,339.592h62.694v-62.694h-62.694V339.592z"/>
		<path style="fill:#083863;" d="M347.429,360.49h-83.592c-5.771,0-10.449-4.678-10.449-10.449v-83.592
			c0-5.771,4.678-10.449,10.449-10.449h83.592c5.771,0,10.449,4.678,10.449,10.449v83.592
			C357.878,355.812,353.199,360.49,347.429,360.49z M274.286,339.592h62.694v-62.694h-62.694V339.592z"/>
	</g>
</g>
<g>
</g>
<g>
</g>
<g>
</g>
<g>
</g>
<g>
</g>
<g>
</g>
<g>
</g>
<g>
</g>
<g>
</g>
<g>
</g>
<g>
</g>
<g>
</g>
<g>
</g>
<g>
</g>
<g>
</g>
</svg>
