<svg enable-background="new 0 0 512 512" version="1.1" viewBox="0 0 512 512" xmlns="http://www.w3.org/2000/svg">
 <path d="m238.34 512c-121.69 0-220.69-99.004-220.69-220.69s99.004-220.69 220.69-220.69 220.69 99.004 220.69 220.69-99.004 220.69-220.69 220.69z" fill="#00D2FF"/>
 <path d="m341.33 438.44c-121.69 0-220.69-99.004-220.69-220.69 0-50.937 17.515-97.768 46.613-135.16-86.87 29.68-149.6 111.93-149.6 208.72 0 121.69 99.004 220.69 220.69 220.69 70.749 0 133.66-33.598 174.08-85.532-22.342 7.633-46.195 11.968-71.089 11.968z" fill="#18BDF6"/>
 <path d="m357.22 168.7h64.515c-3.784-5.641-7.832-11.09-12.107-16.348h-58.816c-12.999-30.534-30.175-55.542-50.058-72.691-19.805-5.853-40.738-9.046-62.414-9.046s-42.61 3.194-62.415 9.046c-19.882 17.15-37.057 42.157-50.057 72.691h-58.816c-4.274 5.258-8.323 10.706-12.107 16.348h64.515c-11.955 33.607-19.116 72.673-19.951 114.43h-81.651c-0.099 2.718-0.207 5.431-0.207 8.173s0.108 5.455 0.207 8.173h81.651c0.835 41.759 7.996 80.825 19.951 114.43h-64.515c3.784 5.641 7.833 11.09 12.107 16.348h58.817c13 30.535 30.175 55.542 50.057 72.691 19.805 5.852 40.739 9.046 62.414 9.046s42.61-3.193 62.414-9.046c19.883-17.15 37.058-42.156 50.058-72.691h58.816c4.275-5.258 8.323-10.706 12.107-16.348h-64.515c11.955-33.607 19.116-72.673 19.951-114.43h81.651c0.099-2.718 0.207-5.432 0.207-8.173s-0.108-5.455-0.207-8.173h-81.651c-0.835-41.759-7.996-80.825-19.951-114.43zm-127.05 342.75c-35.044-4.177-66.102-34.935-86.988-81.192h86.988v81.192zm0-97.539h-93.714c-12.285-32.97-19.743-72.207-20.602-114.43h114.32v114.43zm0-130.78h-114.32c0.86-42.225 8.318-81.461 20.602-114.43h93.714v114.43h2e-3zm0-130.78h-86.988c20.886-46.257 51.945-77.015 86.988-81.192v81.192zm16.346-81.192c35.044 4.177 66.102 34.936 86.989 81.192h-86.989v-81.192zm0 440.29v-81.192h86.989c-20.886 46.257-51.945 77.015-86.989 81.192zm93.715-97.539h-93.714v-114.43h114.32c-0.859 42.224-8.317 81.462-20.602 114.43zm-93.715-130.78v-114.43h93.714c12.285 32.97 19.743 72.207 20.601 114.43h-114.32z" fill="#EFF2FA"/>
 <g fill="#E4EAF6">
  <path d="m257.4 511.09c3.652-0.318 7.286-0.703 10.886-1.197 1.405-0.192 2.802-0.406 4.196-0.625 3.703-0.584 7.377-1.258 11.017-2.024 1.133-0.237 2.274-0.457 3.401-0.713 4.317-0.978 8.588-2.078 12.808-3.302 0.356-0.104 0.722-0.186 1.078-0.292 18.115-15.631 33.941-37.838 46.447-64.751-1.974 0.055-3.91 0.255-5.896 0.255-3.88 0-7.734-0.106-11.565-0.306-20.767 41.85-50.236 69.388-83.25 73.324v-81.192h35.463c-18.341-5.131-35.719-12.564-51.81-21.988v5.641h-93.714c-12.285-32.97-19.743-72.207-20.602-114.43h20.547c-2.145-5.358-4.139-10.793-5.866-16.348h-14.681c0.386-18.969 2.169-37.287 5.058-54.752-0.168-3.527-0.27-7.069-0.27-10.637 0-39.328 10.528-76.149 28.68-108.13-8.799 12.55-16.698 26.878-23.449 42.737h-58.55c-1.451 1.778-2.871 3.581-4.267 5.404-1.747 2.283-3.474 4.578-5.131 6.93-0.929 1.316-1.8 2.677-2.701 4.014h64.244c-11.955 33.607-19.116 72.673-19.951 114.43h-81.532c-0.1 2.727-0.33 5.42-0.33 8.172 0 2.742 0.108 5.455 0.207 8.173h81.651c0.835 41.759 7.996 80.825 19.951 114.43h-64.514l1e-3 2e-3c3.784 5.641 7.832 11.087 12.106 16.345h58.817c13 30.535 30.175 55.542 50.057 72.691 4.858 1.436 9.789 2.702 14.777 3.809 0.147 0.032 0.291 0.07 0.438 0.102 4.985 1.097 10.034 2.026 15.137 2.777 0.213 0.032 0.428 0.052 0.641 0.082 4.454 0.644 8.961 1.113 13.496 1.484 1.118 0.089 2.234 0.182 3.356 0.256 4.821 0.322 9.67 0.536 14.569 0.536 5.024 0 9.998-0.212 14.938-0.547 1.379-0.093 2.74-0.248 4.112-0.366zm-27.223 0.369c-35.044-4.177-66.102-34.935-86.988-81.192h86.988v81.192z"/>
  <path d="m412.42 426.47c-4.163 1.422-8.433 2.609-12.698 3.796h9.575c1.033-1.271 2.116-2.5 3.123-3.796z"/>
 </g>
 <path d="m79.448 0c-34.127 0-61.793 27.666-61.793 61.793 0 52.966 61.793 97.103 61.793 97.103s61.793-44.138 61.793-97.103c0-34.127-27.665-61.793-61.793-61.793zm0 97.103c-19.501 0-35.31-15.809-35.31-35.31 0-19.502 15.809-35.31 35.31-35.31s35.31 15.808 35.31 35.31c1e-3 19.501-15.808 35.31-35.31 35.31z" fill="#FF6464"/>
 <path d="M44.138,61.793c0-10.177,4.366-19.277,11.253-25.72C59.576,14.802,68.76,0,79.448,0  C45.321,0,17.655,27.666,17.655,61.793c0,52.966,61.793,97.103,61.793,97.103s-18.4-30.785-24.501-71.75  C48.303,80.726,44.138,71.761,44.138,61.793z" fill="#D2555A"/>
 <path d="m432.55 176.55c-34.127 0-61.793 27.666-61.793 61.793 0 52.965 61.793 97.103 61.793 97.103s61.793-44.138 61.793-97.103c0-34.128-27.666-61.793-61.793-61.793zm0 97.103c-19.501 0-35.31-15.809-35.31-35.31 0-19.502 15.809-35.31 35.31-35.31s35.31 15.808 35.31 35.31c0 19.501-15.809 35.31-35.31 35.31z" fill="#FF6464"/>
 <path d="m397.24 238.34c0-10.177 4.366-19.277 11.253-25.72 4.185-21.271 13.369-36.073 24.057-36.073-34.127 0-61.793 27.666-61.793 61.793 0 52.965 61.793 97.103 61.793 97.103s-18.4-30.785-24.501-71.75c-6.643-6.42-10.809-15.386-10.809-25.353z" fill="#D2555A"/>
 <path d="m194.21 282.48c-34.127 0-61.793 27.666-61.793 61.793 0 52.966 61.793 97.103 61.793 97.103s61.793-44.138 61.793-97.103c0-34.128-27.666-61.793-61.793-61.793zm0 97.103c-19.501 0-35.31-15.809-35.31-35.31 0-19.502 15.809-35.31 35.31-35.31s35.31 15.808 35.31 35.31c0 19.501-15.809 35.31-35.31 35.31z" fill="#FF6464"/>
 <path d="m158.9 344.28c0-10.177 4.366-19.277 11.253-25.72 4.185-21.271 13.369-36.073 24.057-36.073-34.127 0-61.793 27.666-61.793 61.793 0 52.966 61.793 97.103 61.793 97.103s-18.4-30.785-24.501-71.75c-6.644-6.42-10.809-15.386-10.809-25.353z" fill="#D2555A"/>
</svg>
