<svg id="fill" height="512" viewBox="0 0 64 64" width="512" xmlns="http://www.w3.org/2000/svg"><path d="m10.433 22.537a14.309 14.309 0 0 0 -.279 2.815v4.614l-5 9.278a1.308 1.308 0 0 0 1.156 1.928h3.844v10.106a1.963 1.963 0 0 0 1.964 1.963h9.243v7.759h14.655v-12.069l6.289-7.861a18.507 18.507 0 0 0 4.056-11.562 18.508 18.508 0 0 0 -18.508-18.508h-3.347a14.352 14.352 0 0 0 -14.073 11.537z" fill="#f8f8fe"/><path d="m10.433 22.537a14.309 14.309 0 0 0 -.279 2.815v4.614l-5 9.278a1.308 1.308 0 0 0 1.156 1.928h3.844v10.106a1.963 1.963 0 0 0 1.964 1.963h9.243v7.759h14.655v-12.069l6.289-7.861a18.507 18.507 0 0 0 4.056-11.562 18.508 18.508 0 0 0 -18.508-18.508h-3.347a14.352 14.352 0 0 0 -14.073 11.537z" fill="#f8f8fe"/><path d="m39.345 15.016a18.413 18.413 0 0 1 4.016 11.492 18.5 18.5 0 0 1 -4.056 11.561l-6.289 7.862v.414a11.655 11.655 0 0 1 -11.655 11.655v3h14.655v-12.069l6.289-7.862a18.5 18.5 0 0 0 4.056-11.561 18.459 18.459 0 0 0 -7.016-14.492z" fill="#e3e3ff"/><path d="m50 5a11 11 0 0 1 11 11 11 11 0 0 1 -11 11h-11a0 0 0 0 1 0 0v-11a11 11 0 0 1 11-11z" fill="#b1a6d8"/><path d="m51 20h-2v-3a1 1 0 0 1 1-1 3 3 0 1 0 -3-3h-2a5 5 0 1 1 6 4.9z" fill="#fff"/><path d="m49 22h2v2h-2z" fill="#fff"/><path d="m22 3a7 7 0 0 1 7 7v7a0 0 0 0 1 0 0h-7a7 7 0 0 1 -7-7 7 7 0 0 1 7-7z" fill="#b1a6d8" transform="matrix(.707 .707 -.707 .707 13.515 -12.627)"/><path d="m39 34h6a6 6 0 0 1 6 6 6 6 0 0 1 -6 6 6 6 0 0 1 -6-6v-6a0 0 0 0 1 0 0z" fill="#b1a6d8"/><path d="m26 9h-1.586l1.293-1.293-1.414-1.414-1.293 1.293v-1.586h-2v1.586l-1.293-1.293-1.414 1.414 1.293 1.293h-1.586v2h1.586l-1.293 1.293 1.414 1.414 1.293-1.293v1.586h2v-1.586l1.293 1.293 1.414-1.414-1.293-1.293h1.586z" fill="#fff"/><path d="m46 38v1.586l-3.293-3.293-1.414 1.414 3.293 3.293h-1.586v2h4a1 1 0 0 0 1-1v-4z" fill="#fff"/><path d="m34 28h-2a1 1 0 0 1 -1-1v2h-1v2h2v2h-3a1 1 0 0 1 -1-1v-4a1 1 0 0 1 1-1h2v-2a1 1 0 0 0 -1-1h-4.022a.978.978 0 0 0 -.978.978v17.022h7a1 1 0 0 0 1-1v-3h-3v1h-2v-2a1 1 0 0 1 1-1h4v2a1 1 0 0 1 1-1 1 1 0 0 0 1-1v-7a1 1 0 0 0 -1-1z" fill="#f8cc5c"/><path d="m20 30h5v-5.022a.978.978 0 0 0 -.978-.978h-4.044a.978.978 0 0 0 -.978.978v2.044a.978.978 0 0 1 -.978.978h-2.044a.978.978 0 0 0 -.978.978v7.044a.978.978 0 0 0 .978.978h.044a.978.978 0 0 1 .978.978v3.044a.978.978 0 0 0 .978.978h2.022v-3h2v3h3v-10h-4v3h1v2h-2a1 1 0 0 1 -1-1v-5a1 1 0 0 1 1-1z" fill="#d8aa44"/><path d="m50 4a12.009 12.009 0 0 0 -11.626 9.082 19.349 19.349 0 0 0 -8.384-2.954 7.993 7.993 0 1 0 -15.19 3.348 15.294 15.294 0 0 0 -5.646 11.877v4.361l-4.876 9.056a2.308 2.308 0 0 0 2.032 3.4h2.844v9.1a2.968 2.968 0 0 0 2.964 2.964h8.243v6.766a1 1 0 0 0 1 1h14.655a1 1 0 0 0 1-1v-11.719l3.284-4.107a6.994 6.994 0 1 0 6.684-11.883 19.528 19.528 0 0 0 .375-3.783c0-.5-.025-1.007-.063-1.508h2.704a12 12 0 0 0 0-24zm-32.243 1.757a6 6 0 0 1 8.486 8.486l-4.243 4.242-4.243-4.242a6.008 6.008 0 0 1 0-8.486zm17.478 42.549a1 1 0 0 0 -.219.625v11.069h-12.655v-6.759a1 1 0 0 0 -1-1h-9.243a.965.965 0 0 1 -.964-.964v-10.1a1 1 0 0 0 -1-1h-3.844a.309.309 0 0 1 -.271-.455l5-9.278a1.007 1.007 0 0 0 .119-.474v-4.617a13.311 13.311 0 0 1 4.742-10.192c.143.169.289.337.448.5l4.95 4.949a1 1 0 0 0 1.414 0l4.95-4.949a7.938 7.938 0 0 0 2.052-3.549 17.381 17.381 0 0 1 8.328 3.17c-.015.24-.037.478-.037.722v10.996a1 1 0 0 0 1 1h6.289c.043.5.072 1 .072 1.508a17.5 17.5 0 0 1 -.366 3.492h-6a1 1 0 0 0 -1 1v6a6.945 6.945 0 0 0 1.005 3.6zm14.765-8.306a5 5 0 0 1 -10 0v-5h5a5.006 5.006 0 0 1 5 5zm0-14h-10v-10a10 10 0 1 1 10 10z"/><path d="m50 8a5.006 5.006 0 0 0 -5 5h2a3 3 0 1 1 3 3 1 1 0 0 0 -1 1v3h2v-2.1a5 5 0 0 0 -1-9.9z"/><path d="m49 22h2v2h-2z"/><path d="m18.293 12.293 1.414 1.414 1.293-1.293v1.586h2v-1.586l1.293 1.293 1.414-1.414-1.293-1.293h1.586v-2h-1.586l1.293-1.293-1.414-1.414-1.293 1.293v-1.586h-2v1.586l-1.293-1.293-1.414 1.414 1.293 1.293h-1.586v2h1.586z"/><path d="m41.293 37.707 3.293 3.293h-1.586v2h4a1 1 0 0 0 1-1v-4h-2v1.586l-3.293-3.293z"/><path d="m34 27h-2v-2a2 2 0 0 0 -2-2h-4.022a1.961 1.961 0 0 0 -.978.269 1.956 1.956 0 0 0 -.978-.269h-4.044a1.98 1.98 0 0 0 -1.978 1.978l.022 2.022h-2.044a1.98 1.98 0 0 0 -1.978 1.978v7.044a1.969 1.969 0 0 0 2 1.956v3.044a1.98 1.98 0 0 0 1.978 1.978h14.022a2 2 0 0 0 2-2v-3a2 2 0 0 0 2-2v-7a2 2 0 0 0 -2-2zm-10 3h-4a1 1 0 0 0 -1 1v5a1 1 0 0 0 1 1h2v-2h-1v-3h3v9l-2 .006v-2.006h-2v2.016l-2 .006v-3.044a1.951 1.951 0 0 0 -1.958-1.956h-.042l-.022-7.022h2.044a1.98 1.98 0 0 0 1.978-1.978v-2.022l4-.022zm10 6h-5a1 1 0 0 0 -1 1v2h2v-1h2v3h-6v-16.014l4 .014v2h-1a1 1 0 0 0 -1 1v4a1 1 0 0 0 1 1h3v-2h-2v-2h4z"/></svg>