<svg id="Capa_1" enable-background="new 0 0 512 512" height="512" viewBox="0 0 512 512" width="512" xmlns="http://www.w3.org/2000/svg"><path d="m458.399 512h-204.661c-29.603 0-53.601-23.998-53.601-53.601v-204.661c0-29.603 23.998-53.601 53.601-53.601h204.661c29.603 0 53.601 23.998 53.601 53.601v204.661c0 29.603-23.998 53.601-53.601 53.601z" fill="#e8899e"/><path d="m253.738 200.138c-29.603 0-53.601 23.998-53.601 53.601v204.661c0 29.603 23.998 53.601 53.601 53.601h173.066c-2.534-1.297-7.828-2.826-16.377-4.618-92.964-19.49-113.599-205.479-78.577-307.245z" fill="#de5c6e"/><path d="m449.286 478.506h-186.434c-16.138 0-29.22-13.082-29.22-29.22v-186.434c0-16.137 13.082-29.219 29.22-29.219h186.435c16.137 0 29.219 13.082 29.219 29.219v186.435c0 16.137-13.082 29.219-29.22 29.219z" fill="#fcf2d0"/><path d="m322.891 233.632h-60.039c-16.138 0-29.22 13.082-29.22 29.219v186.435c0 16.138 13.082 29.22 29.22 29.22h101.027c-45.728-52.785-57.472-163.262-40.988-244.874z" fill="#f6e3a3"/><path d="m478.506 369.895v-15.082c-8.359.715-17.2 3.055-25.437 7.003-20.285 9.719-32.921 26.655-35.578 47.689-5.37 42.489-15.399 63.311-57.866 66.723-1.899.153-3.57 1.005-4.795 2.278h47.09c21.613-14.719 27.033-40.058 30.453-67.12 2.694-21.321 18.185-31.733 27.179-36.043 6.392-3.064 12.976-4.793 18.954-5.448z" fill="#f6e3a3"/><path d="m301.27 264.925c-9.473 36.455-42.217 62.023-67.638 76.922v17.216c22.982-12.369 41.753-26.72 55.841-42.744 13.132-14.936 21.985-30.958 26.315-47.621 3.592-13.824 3.496-25.761 1.541-35.066h-15.442c2.223 7.55 2.68 18.608-.617 31.293z" fill="#fcf2d0"/><path d="m313.102 398.299c-22.667-12.054-41.695 3.292-58.487 16.832-7.181 5.792-14.144 11.402-20.982 14.745v16.164c11.072-3.649 21.125-11.754 30.398-19.233 17.49-14.103 29.046-22.17 42.026-15.265 8.85 4.707 13.657 11.432 14.29 19.989 1.023 13.818-8.598 31.598-24.762 46.974h20.488c13.156-15.912 20.335-33.189 19.233-48.082-1.024-13.833-8.703-24.942-22.204-32.124z" fill="#fcf2d0"/><path d="m469.728 275.772c2.923 0 5.85-.217 8.777-.585v-12.336c0-.916-.048-1.821-.13-2.716-16.492 2.573-32.685-1.089-48.491-26.503h-17.286c17.611 32.634 37.262 42.14 57.13 42.14z" fill="#f6e3a3"/><path d="m398.848 351.374c7.453-8.124 12.009-18.949 12.009-30.816 0-25.157-20.467-45.624-45.624-45.624h-46.132c-7.732 0-14 6.268-14 14v134.27c0 7.732 6.268 14 14 14h46.132c27.301 0 49.511-22.211 49.511-49.511-.001-14.336-6.125-27.269-15.896-36.319zm-33.616-48.44c9.718 0 17.624 7.906 17.624 17.624s-7.906 17.625-17.624 17.625h-32.132v-35.249zm0 106.27h-32.132v-43.021h32.132c11.861 0 21.511 9.65 21.511 21.511 0 11.86-9.649 21.51-21.511 21.51z" fill="#e8899e"/><path d="m317.141 275.087c-6.802.955-12.04 6.782-12.04 13.847v134.27c0 7.732 6.268 14 14 14h19.896c-19.528-45.867-26.349-106.876-21.856-162.117z" fill="#de5c6e"/><path d="m380.936 236.219-144.717 144.717c-20.933 20.932-54.871 20.932-75.803 0l-144.717-144.717c-20.932-20.932-20.932-54.87 0-75.803l144.717-144.717c20.932-20.932 54.87-20.932 75.803 0l144.717 144.717c20.933 20.933 20.933 54.871 0 75.803z" fill="#89d47f"/><path d="m145.145 30.971-129.446 129.445c-20.932 20.932-20.932 54.871 0 75.803l144.717 144.717c20.933 20.932 54.87 20.932 75.803 0l36.897-36.897c-1.464-.857-2.996-1.718-4.599-2.585-86.708-46.871-138.336-221.865-123.372-310.483z" fill="#5ec783"/><path d="m350.808 218.979-131.829 131.829c-11.411 11.411-29.912 11.411-41.323 0l-131.829-131.829c-11.411-11.411-11.411-29.912 0-41.323l131.83-131.829c11.411-11.411 29.912-11.411 41.323 0l131.829 131.829c11.41 11.412 11.41 29.912-.001 41.323z" fill="#fcf2d0"/><path d="m143.021 80.463-97.193 97.193c-11.411 11.411-11.411 29.912 0 41.323l131.829 131.829c11.411 11.411 29.912 11.411 41.323 0l25.909-25.909c-59.195-51.325-97.433-161.987-101.868-244.436z" fill="#f6e3a3"/><path d="m96.265 269.417 10.63 10.629c6.604-6.878 12.27-15.982 15.811-26.04 7.472-21.216 4.431-42.127-8.563-58.879-19.57-25.23-28.78-43.777-20.761-65.026l-17.941 17.941c.891 20.326 12.959 38.37 26.848 56.279 13.171 16.981 9.58 35.297 6.268 44.704-2.917 8.283-7.484 15.318-12.292 20.392z" fill="#fcf2d0"/><path d="m272.809 99.657c-21.48 71.982-10.565 140.187 9.412 174.192 1.795 3.056 3.65 5.779 5.547 8.172l10.697-10.697c-1.064-1.46-2.171-3.134-3.31-5.073-9.492-16.157-16.183-40.811-18.355-67.638-2.298-28.374.535-58.075 8.169-86.796z" fill="#f6e3a3"/><path d="m218.979 45.827c-.51-.51-1.038-.989-1.575-1.453-2.874 10.292-2.565 22.315-2.272 33.514.601 22.978.012 37.221-13.217 41.263-6.869 2.101-12.272 1.176-17.007-2.905-10.692-9.219-16.751-33.709-16.171-61.5l-14.636 14.636c1.461 24.027 7.771 46.808 21.012 58.224 5.865 5.056 12.716 7.618 20.193 7.618 3.536 0 7.215-.574 10.991-1.727 25.093-7.668 24.392-34.467 23.829-56.001-.202-7.733-.276-14.527.222-20.299z" fill="#f6e3a3"/><path d="m160.103 333.255 10.578 10.578c12.031-10.355 28.27-14.665 57.048-1.776l11.269-11.269c-39.025-19.018-62.101-12.483-78.895 2.467z" fill="#fcf2d0"/><path d="m295.924 180.264-144.674-46.633c-4.999-1.611-10.48-.289-14.194 3.425s-5.037 9.195-3.425 14.194l46.633 144.674c2.372 7.359 10.261 11.402 17.62 9.03 7.362-2.373 11.402-10.261 9.03-17.619l-12.332-38.259 54.494-54.494 38.259 12.332c5.173 1.668 10.608.165 14.205-3.432 1.519-1.519 2.711-3.413 3.415-5.598 2.371-7.359-1.672-15.248-9.031-17.62zm-110.995 38.866-16.268-50.468 50.468 16.268z" fill="#89d47f"/><path d="m137.056 137.056c-3.714 3.714-5.037 9.195-3.425 14.194l46.633 144.674c2.372 7.359 10.261 11.402 17.62 9.03 7.363-2.373 11.402-10.261 9.03-17.619l-4.681-14.521c-25.005-40.748-43.137-91.636-52.474-139.566-4.572-.936-9.355.46-12.703 3.808z" fill="#5ec783"/></svg>