<?xml version="1.0" encoding="iso-8859-1"?>
<!-- Generator: Adobe Illustrator 19.0.0, SVG Export Plug-In . SVG Version: 6.00 Build 0)  -->
<svg version="1.1" id="Capa_1" xmlns="http://www.w3.org/2000/svg" xmlns:xlink="http://www.w3.org/1999/xlink" x="0px" y="0px"
	 viewBox="0 0 512 512" style="enable-background:new 0 0 512 512;" xml:space="preserve">
<path style="fill:#6C9BAA;" d="M512,256c0,141.385-114.615,256-256,256S0,397.385,0,256S114.615,0,256,0S512,114.615,512,256z"/>
<path style="fill:#55879B;" d="M9.276,310.992L237.393,82.875c7.811-7.81,20.474-7.81,28.284,0l231.596,231.596
	c2.865,2.865,4.668,6.383,5.431,10.074c-1.763,6.358-3.758,12.619-5.989,18.768L343.313,496.715
	C316.064,506.602,286.664,512,256,512c-31.85,0-62.333-5.833-90.462-16.462L16.462,346.462c-3.944-10.439-7.238-21.197-9.806-32.235
	C7.402,313.083,8.272,311.996,9.276,310.992z"/>
<path style="fill:#4B556E;" d="M481.295,229.197l-74.246,74.246l-28.284-28.284l74.246-74.246c25.344-25.344,25.343-66.581,0-91.924
	s-66.58-25.344-91.924,0l-74.246,74.246l-28.284-28.284l74.246-74.246c40.939-40.939,107.553-40.939,148.492,0
	C522.235,121.644,522.235,188.258,481.295,229.197z"/>
<path style="fill:#323750;" d="M358.172,90.988l-74.246,74.246l10.458,10.458l-7.542,7.543l-28.284-28.284l74.246-74.246
	c34.127-34.127,86.091-39.799,126.155-17.03C424.086,54.624,385.436,63.724,358.172,90.988z M478.38,119.273
	c-9.807-9.807-21.996-15.801-34.721-18.018c3.293,2.247,6.432,4.815,9.352,7.734c25.343,25.343,25.344,66.58,0,91.924
	l-74.246,74.246l28.284,28.284l7.543-7.542l-10.458-10.458l74.246-74.246C503.724,185.853,503.723,144.616,478.38,119.273z"/>
<path style="fill:#D2D2D7;" d="M427.259,272.741L220.784,479.216c-7.81,7.81-20.474,7.81-28.284,0L30.918,317.635
	c-7.81-7.81-7.81-20.474,0-28.284L237.393,82.875c7.81-7.81,20.474-7.81,28.284,0l161.582,161.582
	C435.069,252.267,435.069,264.931,427.259,272.741z"/>
<path style="fill:#EBEBF0;" d="M223.199,509.916L59.202,345.919c-7.811-7.81-7.811-20.474,0-28.284L265.677,111.16
	c7.81-7.811,20.474-7.811,28.284,0l185.163,185.163c7.811,7.811,7.811,20.474,0,28.284L294.632,509.1
	c-12.6,1.907-25.5,2.9-38.632,2.9C244.886,512,233.939,511.29,223.199,509.916z"/>
<path style="fill:#A0A0A5;" d="M273.063,324.292l-25.113,25.113c-9.763,9.763-25.592,9.763-35.355,0s-9.763-25.592,0-35.355
	l25.113-25.113c0.091-8.836,3.501-17.643,10.243-24.385c13.668-13.668,35.829-13.668,49.497,0s13.668,35.829,0,49.497
	C290.706,320.791,281.898,324.201,273.063,324.292z"/>
<path style="fill:#FFF091;" d="M250.425,281.169l-8.516-8.516l-58.257-58.257c3.905-3.905,3.905-10.237,0-14.142l-17.678-17.678
	l3.536-3.536c27.293-27.293,27.293-71.702,0-98.995s-71.702-27.293-98.995,0l-42.426,42.426c-27.293,27.293-27.293,71.702,0,98.995
	s71.702,27.293,98.995,0l3.536-3.536l17.678,17.678c3.905,3.905,10.237,3.905,14.142,0l64.297,64.297l2.475,2.475l1.061,1.061
	l-7.071,7.071c-3.905,3.905-3.905,10.237,0,14.142l7.071,7.071c3.905,3.905,10.237,3.905,14.142,0l7.071-7.071l10.607,10.607
	l10.971-10.971c5.614-0.058,11.215-1.461,16.283-4.202L250.425,281.169z M105.871,200.255c-15.596,15.596-40.972,15.596-56.569,0
	s-15.596-40.973,0-56.569l42.426-42.426c15.596-15.596,40.972-15.596,56.569,0s15.596,40.973,0,56.569L105.871,200.255z"/>
<path style="fill:#F5DA73;" d="M176.188,227.099l65.214,65.214l21.213,21.213l10.755,10.755c-0.103,0.002-0.205,0.009-0.308,0.01
	l-10.971,10.971l-10.607-10.607l-7.071,7.071c-3.905,3.905-10.237,3.905-14.142,0l-7.071-7.071c-3.905-3.905-3.905-10.237,0-14.142
	l7.071-7.071l-1.061-1.061l-2.475-2.475l-64.298-64.298c-3.905,3.905-10.237,3.905-14.142,0l-3.836-3.836l-0.007,0.007
	l-13.842-13.842l-3.528,3.528c-27.293,27.293-71.702,27.293-98.995,0s-27.293-71.702,0-98.995l17.958-17.958
	c-27.293,27.293-27.293,71.702,0,98.995c22.273,22.273,55.938,26.351,82.403,12.269l-19.352-19.352l11.137-11.137l24.749,24.749
	l10.607,10.607l3.536,3.536C163.743,228.796,170.613,229.758,176.188,227.099z"/>
<g>
</g>
<g>
</g>
<g>
</g>
<g>
</g>
<g>
</g>
<g>
</g>
<g>
</g>
<g>
</g>
<g>
</g>
<g>
</g>
<g>
</g>
<g>
</g>
<g>
</g>
<g>
</g>
<g>
</g>
</svg>
