<svg width="512pt" height="512pt" version="1.1" viewBox="-17 0 512 512" xmlns="http://www.w3.org/2000/svg">
 <path d="m477.53 54.59v200.13c0 8.293-6.7109 15-15 15-8.2812 0-15-6.707-15-15v-200.13c0-13.559-10.961-24.59-24.43-24.59-7.5898 0-14.391 3.5117-18.879 9-3.2812 4.0117-5.3203 9.0898-5.5312 14.641-0.011719 0.30859-0.019531 0.62891-0.019531 0.94922 0 8.2891-6.7109 15-15 15-8.2812 0-15-6.7109-15-15 0-5.4102 0.78906-10.648 2.2578-15.59 6.7109-22.531 27.562-39 52.172-39 30.02 0 54.43 24.488 54.43 54.59z" fill="#8ebac5"/>
 <path d="m15.008 39c-5.9922 0-11.402 3.5586-13.781 9.0586-2.3711 5.4922-1.25 11.871 2.8594 16.23l77.27 81.949v289.86c0 41.848 33.934 75.898 75.652 75.898h166c41.719 0 75.66-34.051 75.66-75.898v-382.1c0-0.12109 0-0.23828 0.019531-0.35938 0.21094-5.5508 2.25-10.629 5.5312-14.641z" fill="#deecf1"/>
 <path d="m322.65 158.52c-8.2852 0-15 6.7148-15 15v15h-106.32c-8.2812 0-15 6.7148-15 15 0 8.2852 6.7188 15 15 15h106.32v30.906h-45.656c-8.2852 0-15 6.7148-15 15 0 8.2852 6.7148 15 15 15h45.656v30.902h-45.656c-8.2852 0-15 6.7188-15 15 0 8.2852 6.7148 15 15 15h45.656v30.906h-106.32c-8.2812 0-15 6.7148-15 15s6.7188 15 15 15h106.32v15.004c0 8.2812 6.7148 15 15 15s15-6.7188 15-15v-242.72c0-8.2812-6.7148-14.996-15-14.996z" fill="#a8d3d8"/>
 <path d="m238.77 39v473h84.242c41.719 0 75.66-34.051 75.66-75.898v-382.1c0-0.12109 0-0.23828 0.019531-0.35938 0.21094-5.5508 2.25-10.629 5.5312-14.641z" fill="#a8d3d8"/>
 <path d="m322.65 158.52c-8.2852 0-15 6.7148-15 15v15h-68.887v30h68.887v30.906h-45.656c-8.2852 0-15 6.7148-15 15 0 8.2852 6.7148 15 15 15h45.656v30.902h-45.656c-8.2852 0-15 6.7188-15 15 0 8.2852 6.7148 15 15 15h45.656v30.906h-68.887v30h68.887v15.004c0 8.2812 6.7148 15 15 15s15-6.7188 15-15v-242.72c0-8.2812-6.7148-14.996-15-14.996z" fill="#8ebac5"/>
</svg>
