<svg height="511pt" viewBox="-13 0 511 511.99841" width="511pt" xmlns="http://www.w3.org/2000/svg"><path d="m228.652344 503.976562-209.136719-52.46875c-8.070313-2.027343-13.019531-10.285156-10.996094-18.359374l77.007813-306.933594c2.023437-8.070313 10.285156-13.019532 18.359375-10.992188l209.132812 52.46875c8.074219 2.023438 13.019531 10.285156 10.996094 18.359375l-77.003906 306.929688c-2.027344 8.074219-10.289063 13.023437-18.359375 10.996093zm0 0" fill="#f5f7f3"/><path d="m313.019531 167.691406-209.132812-52.46875c-5.320313-1.335937-10.710938.371094-14.355469 3.992188l193.226562 48.476562c8.070313 2.023438 13.019532 10.285156 10.992188 18.359375l-77.003906 306.929688c-.691406 2.753906-2.117188 5.128906-4.003906 7.003906l15.910156 3.992187c8.070312 2.027344 16.332031-2.921874 18.359375-10.996093l77.003906-306.929688c2.023437-8.074219-2.921875-16.335937-10.996094-18.359375zm0 0" fill="#ede9e6"/><path d="m152.703125 378.921875-49.71875-61.324219c-15.015625-18.515625-12.171875-45.695312 6.34375-60.707031s45.695313-12.171875 60.707031 6.34375l5.765625 7.113281 6.605469-3.355468c21.25-10.800782 47.230469-2.332032 58.035156 18.917968 10.796875 21.25 2.328125 47.234375-18.921875 58.035156zm0 0" fill="#f86654"/><path d="m240.441406 285.910156c-10.0625-19.792968-33.296875-28.492187-53.609375-20.859375 9.765625 3.65625 18.246094 10.832031 23.34375 20.859375 10.800781 21.253906 2.328125 47.234375-18.921875 58.035156l-47.382812 24.085938 8.832031 10.890625 68.816406-34.976563c21.25-10.800781 29.722657-36.785156 18.921875-58.035156zm0 0" fill="#ea543c"/><path d="m467.035156 347.09375-210.941406 44.644531c-8.144531 1.722657-16.214844-3.527343-17.9375-11.671875l-65.523438-309.585937c-1.722656-8.140625 3.53125-16.214844 11.671876-17.9375l210.945312-44.644531c8.140625-1.722657 16.210938 3.53125 17.9375 11.671874l65.519531 309.585938c1.722657 8.144531-3.53125 16.214844-11.671875 17.9375zm0 0" fill="#f5f7f3"/><path d="m478.707031 329.15625-65.519531-309.585938c-1.726562-8.140624-9.796875-13.394531-17.9375-11.671874l-17.007812 3.601562c2.296874 2.066406 3.996093 4.832031 4.679687 8.070312l65.519531 309.585938c1.722656 8.144531-3.527344 16.214844-11.667968 17.9375l-193.9375 41.046875c3.480468 3.128906 8.351562 4.636719 13.257812 3.597656l210.941406-44.644531c8.140625-1.722656 13.394532-9.792969 11.671875-17.9375zm0 0" fill="#ede9e6"/><path d="m417.265625 180.40625c-10.707031-50.585938-60.398437-82.914062-110.984375-72.207031-50.589844 10.710937-82.917969 60.402343-72.207031 110.988281 10.707031 50.585938 60.398437 82.914062 110.984375 72.207031 50.589844-10.710937 82.917968-60.402343 72.207031-110.988281zm0 0" fill="#f5f7f3"/><path d="m417.269531 180.433594c-10.402343-49.144532-57.589843-81.054688-106.65625-73.023438 36.953125 6.09375 68.167969 34.171875 76.390625 73.023438 10.707032 50.589844-21.625 100.277344-72.210937 110.984375-1.445313.304687-2.886719.570312-4.328125.808593 11.164062 1.839844 22.851562 1.675782 34.589844-.808593 50.589843-10.707031 82.921874-60.398438 72.214843-110.984375zm0 0" fill="#ede9e6"/><path d="m326.503906 161.902344 8.339844 11.015625c1.980469 2.613281 5.160156 4.035156 8.429688 3.761719l13.769531-1.148438c8.078125-.675781 13.289062 8.367188 8.65625 15.019531l-7.902344 11.335938c-1.875 2.691406-2.242187 6.15625-.972656 9.179687l5.347656 12.738282c3.136719 7.476562-3.851563 15.222656-11.609375 12.871093l-13.222656-4.007812c-3.136719-.953125-6.546875-.234375-9.03125 1.910156l-10.464844 9.023437c-6.140625 5.292969-15.667969 1.039063-15.828125-7.0625l-.273437-13.816406c-.0625-3.28125-1.800782-6.296875-4.609376-8l-11.8125-7.164062c-6.933593-4.199219-5.832031-14.578125 1.824219-17.234375l13.054688-4.527344c3.101562-1.074219 5.433593-3.664063 6.183593-6.855469l3.164063-13.449218c1.855469-7.894532 12.0625-10.054688 16.957031-3.589844zm0 0" fill="#f7ec77"/><path d="m365.699219 190.550781c4.632812-6.652343-.578125-15.691406-8.65625-15.019531l-13.769531 1.148438c-3.269532.273437-6.449219-1.144532-8.429688-3.761719l-8.339844-11.015625c-4.894531-6.460938-15.101562-4.304688-16.957031 3.589844l-2.308594 9.824218c1.703125 1.039063 3.722657 1.535156 5.773438 1.363282l13.769531-1.148438c8.078125-.671875 13.285156 8.367188 8.652344 15.019531l-7.898438 11.335938c-1.875 2.691406-2.242187 6.15625-.972656 9.179687l5.347656 12.742188c1.386719 3.304687.789063 6.664062-.976562 9.179687 2.011718-.824219 4.269531-.96875 6.40625-.320312l13.222656 4.011719c7.757812 2.351562 14.746094-5.398438 11.609375-12.871094l-5.347656-12.742188c-1.269531-3.023437-.902344-6.488281.972656-9.179687zm0 0" fill="#f7e05d"/><path d="m48.644531 62.863281h8.066407v8.066407c0 4.179687 3.386718 7.566406 7.566406 7.566406 4.179687 0 7.566406-3.386719 7.566406-7.566406v-8.066407h8.066406c4.179688 0 7.566406-3.386719 7.566406-7.566406s-3.386718-7.566406-7.566406-7.566406h-8.066406v-8.066407c0-4.179687-3.386719-7.566406-7.566406-7.566406-4.179688 0-7.566406 3.386719-7.566406 7.566406v8.066407h-8.066407c-4.175781 0-7.566406 3.386719-7.566406 7.566406s3.390625 7.566406 7.566406 7.566406zm0 0"/><path d="m466.078125 395.855469h-8.066406v-8.066407c0-4.175781-3.386719-7.5625-7.566407-7.5625-4.179687 0-7.566406 3.386719-7.566406 7.5625v8.066407h-8.066406c-4.179688 0-7.566406 3.390625-7.566406 7.566406 0 4.179687 3.386718 7.566406 7.566406 7.566406h8.066406v8.066407c0 4.179687 3.386719 7.566406 7.566406 7.566406 4.179688 0 7.566407-3.386719 7.566407-7.566406v-8.066407h8.066406c4.179687 0 7.566406-3.386719 7.566406-7.566406 0-4.175781-3.386719-7.566406-7.566406-7.566406zm0 0"/><path d="m364.195312 453.457031h-5.574218v-5.574219c0-4.179687-3.386719-7.566406-7.5625-7.566406-4.179688 0-7.566406 3.386719-7.566406 7.566406v5.574219h-5.574219c-4.179688 0-7.566407 3.386719-7.566407 7.566407 0 4.175781 3.386719 7.566406 7.566407 7.566406h5.574219v5.570312c0 4.179688 3.386718 7.566406 7.566406 7.566406 4.175781 0 7.5625-3.386718 7.5625-7.566406v-5.570312h5.574218c4.179688 0 7.566407-3.390625 7.566407-7.566406 0-4.179688-3.386719-7.566407-7.566407-7.566407zm0 0"/><path d="m486.109375 327.589844-65.523437-309.585938c-1.25-5.917968-4.742188-10.996094-9.835938-14.3125-5.09375-3.3125-11.148438-4.449218-17.070312-3.195312l-101.09375 21.394531c-4.089844.867187-6.703126 4.882813-5.835938 8.96875.867188 4.089844 4.882812 6.703125 8.96875 5.835937l101.097656-21.394531c1.957032-.414062 3.976563-.03125 5.679688 1.074219 1.707031 1.109375 2.871094 2.800781 3.289062 4.761719l65.519532 309.585937c.414062 1.960938.03125 3.976563-1.078126 5.683594-1.105468 1.703125-2.796874 2.871094-4.757812 3.285156l-210.941406 44.644532c-1.964844.414062-3.980469.03125-5.683594-1.078126-1.707031-1.105468-2.871094-2.796874-3.289062-4.757812l-65.519532-309.585938c-.414062-1.960937-.03125-3.980468 1.074219-5.683593 1.109375-1.703125 2.800781-2.871094 4.707031-3.273438l78.476563-16.027343c4.09375-.835938 6.734375-4.832032 5.898437-8.925782-.835937-4.09375-4.828125-6.738281-8.925781-5.902344l-78.527344 16.039063c-5.914062 1.253906-10.996093 4.746094-14.3125 9.835937-3.3125 5.09375-4.445312 11.15625-3.195312 17.070313l11.347656 53.613281-70.851563-17.777344c-5.863281-1.46875-11.960937-.5625-17.175781 2.558594-5.210937 3.121094-8.890625 8.070313-10.363281 13.933594l-56.441406 224.980469c-1.019532 4.050781 1.441406 8.164062 5.496094 9.179687.617187.15625 1.238281.230469 1.847656.230469 3.386718 0 6.46875-2.292969 7.332031-5.726563l56.445313-224.980468c.484374-1.945313 1.714843-3.589844 3.460937-4.636719 1.742187-1.042969 3.777344-1.347656 5.71875-.863281l78.019531 19.574218 23.835938 112.632813c-8.59375-.351563-17.082032 1.496094-24.921875 5.480469l-1.152344.585937-1.914063-2.363281c-8.53125-10.523438-20.65625-17.097656-34.128906-18.503906-13.480468-1.410156-26.695312 2.515625-37.222656 11.046875-21.726562 17.617187-25.070312 49.625-7.453125 71.351562l49.71875 61.324219c1.476563 1.820312 3.65625 2.800781 5.878906 2.800781 1.164063 0 2.335938-.265625 3.425781-.820312l68.144532-34.636719 6.476562 30.601562c1.253906 5.914063 4.746094 10.996094 9.839844 14.3125 3.738281 2.433594 8.003906 3.691407 12.347656 3.691407 1.570313 0 3.148438-.164063 4.71875-.496094l5.382813-1.140625-23.367188 93.140625c-.488281 1.945313-1.71875 3.589844-3.460937 4.632813-1.746094 1.046874-3.777344 1.351562-5.71875.863281l-209.136719-52.46875c-1.941406-.484375-3.589844-1.714844-4.632813-3.460938-1.042968-1.742187-1.351562-3.773437-.863281-5.71875l12.484375-49.757812c1.015625-4.054688-1.445312-8.164063-5.496094-9.179688-4.050781-1.019531-8.164062 1.441407-9.179687 5.496094l-12.484375 49.757813c-1.472656 5.867187-.5625 11.964843 2.558594 17.175781 3.121094 5.214843 8.070312 8.894531 13.933594 10.363281l209.132812 52.46875c1.847656.464844 3.699219.6875 5.523438.6875 10.160156 0 19.433593-6.886719 22.015624-17.179688l25.167969-100.308593 189.085938-40.015625c5.914062-1.253906 10.996093-4.746094 14.3125-9.839844 3.308593-5.089844 4.441406-11.152344 3.191406-17.066406zm-268.019531 9.609375-63.363282 32.207031-45.867187-56.570312c-12.359375-15.246094-10.011719-37.707032 5.234375-50.066407 7.382812-5.988281 16.660156-8.742187 26.117188-7.753906 9.453124.984375 17.960937 5.597656 23.949218 12.984375l5.765625 7.113281c2.25 2.773438 6.128907 3.597657 9.304688 1.980469l6.605469-3.355469c6.671874-3.394531 14.019531-4.582031 21.34375-3.480469l13.816406 65.273438c-.941406.59375-1.90625 1.160156-2.90625 1.667969zm0 0"/><path d="m240.851562 144.628906c-14.742187 22.65625-19.777343 49.699219-14.183593 76.144532 10.066406 47.554687 52.195312 80.25 98.976562 80.25 6.917969 0 13.945313-.714844 20.976563-2.203126 54.589844-11.554687 89.601562-65.363281 78.050781-119.953124-5.597656-26.445313-21.15625-49.125-43.8125-63.867188s-49.699219-19.777344-76.140625-14.183594c-26.445312 5.597656-49.128906 21.15625-63.867188 43.8125zm67-29.007812c5.988282-1.265625 12.011719-1.894532 17.992188-1.894532 16.480469 0 32.625 4.757813 46.761719 13.953126 19.269531 12.539062 32.5 31.828124 37.261719 54.320312 9.824218 46.425781-19.953126 92.1875-66.378907 102.015625-46.425781 9.824219-92.191406-19.953125-102.015625-66.378906-4.757812-22.488281-.476562-45.488281 12.058594-64.753907 12.539062-19.269531 31.828125-32.5 54.320312-37.261718zm0 0"/><path d="m281.398438 214.03125 11.8125 7.164062c.59375.359376.957031.988282.96875 1.679688l.273437 13.8125c.132813 6.710938 4.019531 12.582031 10.152344 15.316406 2.273437 1.015625 4.664062 1.511719 7.03125 1.511719 4.011719 0 7.953125-1.425781 11.148437-4.183594l10.464844-9.023437c.523438-.453125 1.234375-.601563 1.894531-.398438l13.222657 4.007813c6.425781 1.949219 13.207031.0625 17.703124-4.921875 4.496094-4.984375 5.679688-11.925782 3.078126-18.117188l-5.34375-12.738281c-.269532-.640625-.195313-1.359375.203124-1.929687l7.898438-11.335938c3.835938-5.503906 4.140625-12.539062.789062-18.359375-3.351562-5.8125-9.582031-9.082031-16.28125-8.523437l-13.769531 1.148437c-.695312.058594-1.351562-.238281-1.769531-.789063l-8.339844-11.015624c-4.050781-5.351563-10.640625-7.8125-17.214844-6.421876-6.570312 1.390626-11.601562 6.3125-13.136718 12.847657l-3.164063 13.449219c-.15625.675781-.644531 1.210937-1.296875 1.4375l-13.054687 4.527343c-6.339844 2.203125-10.722657 7.714844-11.429688 14.390625-.707031 6.675782 2.417969 12.984375 8.160157 16.464844zm6.886718-14.871094c.0625-.578125.34375-1.34375 1.339844-1.6875l13.054688-4.527344c5.578124-1.933593 9.71875-6.523437 11.070312-12.273437l3.160156-13.449219c.242188-1.027344.972656-1.386718 1.542969-1.507812.144531-.03125.304687-.050782.476563-.050782.496093 0 1.066406.175782 1.542968.804688l8.339844 11.015625c3.566406 4.710937 9.199219 7.226563 15.09375 6.734375l13.765625-1.148438c1.046875-.085937 1.621094.496094 1.910156 1 .292969.503907.511719 1.289063-.089843 2.15625l-7.902344 11.335938c-3.375 4.84375-4.027344 10.988281-1.742188 16.433594l5.347656 12.738281c.410157.972656.03125 1.695313-.359374 2.125-.390626.433594-1.070313.882813-2.078126.578125l-13.21875-4.011719c-5.652343-1.710937-11.699218-.433593-16.171874 3.425781l-10.460938 9.019532c-.800781.691406-1.605469.550781-2.132812.3125-.53125-.234375-1.171876-.738282-1.191407-1.792969l-.273437-13.816406c-.117188-5.902344-3.199219-11.257813-8.25-14.320313l-11.816406-7.160156c-.902344-.550781-1.019532-1.355469-.957032-1.933594zm0 0"/></svg>