<svg height="456pt" viewBox="0 -32 456 456" width="456pt" xmlns="http://www.w3.org/2000/svg"><path d="m404 180h-144c-8.839844 0-16-7.160156-16-16v-144c0-8.839844 7.160156-16 16-16h144c8.839844 0 16 7.160156 16 16v144c0 8.839844-7.160156 16-16 16zm0 0" fill="#99a2b9"/><path d="m404 184h-144c-11.023438 0-20-8.976562-20-20v-144c0-11.023438 8.976562-20 20-20h144c11.023438 0 20 8.976562 20 20v144c0 11.023438-8.976562 20-20 20zm-144-176c-6.617188 0-12 5.382812-12 12v144c0 6.617188 5.382812 12 12 12h144c6.617188 0 12-5.382812 12-12v-144c0-6.617188-5.382812-12-12-12zm0 0" fill="#212a41"/><path d="m436 180h-144c-8.839844 0-16-7.160156-16-16v-144c0-8.839844 7.160156-16 16-16h144c8.839844 0 16 7.160156 16 16v144c0 8.839844-7.160156 16-16 16zm0 0" fill="#b7c0d7"/><path d="m436 184h-144c-11.023438 0-20-8.976562-20-20v-144c0-11.023438 8.976562-20 20-20h144c11.023438 0 20 8.976562 20 20v144c0 11.023438-8.976562 20-20 20zm-144-176c-6.617188 0-12 5.382812-12 12v144c0 6.617188 5.382812 12 12 12h144c6.617188 0 12-5.382812 12-12v-144c0-6.617188-5.382812-12-12-12zm0 0" fill="#212a41"/><path d="m292 168c-2.207031 0-4-1.792969-4-4v-144c0-2.207031 1.792969-4 4-4s4 1.792969 4 4v144c0 2.207031-1.792969 4-4 4zm0 0" fill="#d5def5"/><path d="m436 168c-2.207031 0-4-1.792969-4-4v-144c0-2.207031 1.792969-4 4-4s4 1.792969 4 4v144c0 2.207031-1.792969 4-4 4zm0 0" fill="#99a2b9"/><path d="m164 180h-144c-8.839844 0-16-7.160156-16-16v-144c0-8.839844 7.160156-16 16-16h144c8.839844 0 16 7.160156 16 16v144c0 8.839844-7.160156 16-16 16zm0 0" fill="#99a2b9"/><path d="m164 184h-144c-11.023438 0-20-8.976562-20-20v-144c0-11.023438 8.976562-20 20-20h144c11.023438 0 20 8.976562 20 20v144c0 11.023438-8.976562 20-20 20zm-144-176c-6.617188 0-12 5.382812-12 12v144c0 6.617188 5.382812 12 12 12h144c6.617188 0 12-5.382812 12-12v-144c0-6.617188-5.382812-12-12-12zm0 0" fill="#212a41"/><path d="m196 180h-144c-8.839844 0-16-7.160156-16-16v-144c0-8.839844 7.160156-16 16-16h144c8.839844 0 16 7.160156 16 16v144c0 8.839844-7.160156 16-16 16zm0 0" fill="#b7c0d7"/><path d="m196 184h-144c-11.023438 0-20-8.976562-20-20v-144c0-11.023438 8.976562-20 20-20h144c11.023438 0 20 8.976562 20 20v144c0 11.023438-8.976562 20-20 20zm-144-176c-6.617188 0-12 5.382812-12 12v144c0 6.617188 5.382812 12 12 12h144c6.617188 0 12-5.382812 12-12v-144c0-6.617188-5.382812-12-12-12zm0 0" fill="#212a41"/><path d="m52 168c-2.207031 0-4-1.792969-4-4v-144c0-2.207031 1.792969-4 4-4s4 1.792969 4 4v144c0 2.207031-1.792969 4-4 4zm0 0" fill="#d5def5"/><path d="m196 168c-2.207031 0-4-1.792969-4-4v-144c0-2.207031 1.792969-4 4-4s4 1.792969 4 4v144c0 2.207031-1.792969 4-4 4zm0 0" fill="#99a2b9"/><path d="m404 388h-144c-8.839844 0-16-7.160156-16-16v-144c0-8.839844 7.160156-16 16-16h144c8.839844 0 16 7.160156 16 16v144c0 8.839844-7.160156 16-16 16zm0 0" fill="#99a2b9"/><path d="m404 392h-144c-11.023438 0-20-8.976562-20-20v-144c0-11.023438 8.976562-20 20-20h144c11.023438 0 20 8.976562 20 20v144c0 11.023438-8.976562 20-20 20zm-144-176c-6.617188 0-12 5.382812-12 12v144c0 6.617188 5.382812 12 12 12h144c6.617188 0 12-5.382812 12-12v-144c0-6.617188-5.382812-12-12-12zm0 0" fill="#212a41"/><path d="m436 388h-144c-8.839844 0-16-7.160156-16-16v-144c0-8.839844 7.160156-16 16-16h144c8.839844 0 16 7.160156 16 16v144c0 8.839844-7.160156 16-16 16zm0 0" fill="#b7c0d7"/><path d="m436 392h-144c-11.023438 0-20-8.976562-20-20v-144c0-11.023438 8.976562-20 20-20h144c11.023438 0 20 8.976562 20 20v144c0 11.023438-8.976562 20-20 20zm-144-176c-6.617188 0-12 5.382812-12 12v144c0 6.617188 5.382812 12 12 12h144c6.617188 0 12-5.382812 12-12v-144c0-6.617188-5.382812-12-12-12zm0 0" fill="#212a41"/><path d="m292 376c-2.207031 0-4-1.792969-4-4v-144c0-2.207031 1.792969-4 4-4s4 1.792969 4 4v144c0 2.207031-1.792969 4-4 4zm0 0" fill="#d5def5"/><path d="m436 376c-2.207031 0-4-1.792969-4-4v-144c0-2.207031 1.792969-4 4-4s4 1.792969 4 4v144c0 2.207031-1.792969 4-4 4zm0 0" fill="#99a2b9"/><path d="m164 388h-144c-8.839844 0-16-7.160156-16-16v-144c0-8.839844 7.160156-16 16-16h144c8.839844 0 16 7.160156 16 16v144c0 8.839844-7.160156 16-16 16zm0 0" fill="#99a2b9"/><path d="m164 392h-144c-11.023438 0-20-8.976562-20-20v-144c0-11.023438 8.976562-20 20-20h144c11.023438 0 20 8.976562 20 20v144c0 11.023438-8.976562 20-20 20zm-144-176c-6.617188 0-12 5.382812-12 12v144c0 6.617188 5.382812 12 12 12h144c6.617188 0 12-5.382812 12-12v-144c0-6.617188-5.382812-12-12-12zm0 0" fill="#212a41"/><path d="m196 388h-144c-8.839844 0-16-7.160156-16-16v-144c0-8.839844 7.160156-16 16-16h144c8.839844 0 16 7.160156 16 16v144c0 8.839844-7.160156 16-16 16zm0 0" fill="#b7c0d7"/><path d="m196 392h-144c-11.023438 0-20-8.976562-20-20v-144c0-11.023438 8.976562-20 20-20h144c11.023438 0 20 8.976562 20 20v144c0 11.023438-8.976562 20-20 20zm-144-176c-6.617188 0-12 5.382812-12 12v144c0 6.617188 5.382812 12 12 12h144c6.617188 0 12-5.382812 12-12v-144c0-6.617188-5.382812-12-12-12zm0 0" fill="#212a41"/><path d="m52 376c-2.207031 0-4-1.792969-4-4v-144c0-2.207031 1.792969-4 4-4s4 1.792969 4 4v144c0 2.207031-1.792969 4-4 4zm0 0" fill="#d5def5"/><path d="m196 376c-2.207031 0-4-1.792969-4-4v-144c0-2.207031 1.792969-4 4-4s4 1.792969 4 4v144c0 2.207031-1.792969 4-4 4zm0 0" fill="#99a2b9"/><path d="m316 84h96v24h-96zm0 0" fill="#d32e5e"/><path d="m412 112h-96c-2.207031 0-4-1.792969-4-4v-24c0-2.207031 1.792969-4 4-4h96c2.207031 0 4 1.792969 4 4v24c0 2.207031-1.792969 4-4 4zm-92-8h88v-16h-88zm0 0" fill="#212a41"/><path d="m316 288h96v24h-96zm0 0" fill="#bed38e"/><path d="m412 316h-96c-2.207031 0-4-1.792969-4-4v-24c0-2.207031 1.792969-4 4-4h96c2.207031 0 4 1.792969 4 4v24c0 2.207031-1.792969 4-4 4zm-92-8h88v-16h-88zm0 0" fill="#212a41"/><path d="m172 84h-36v-36h-24v36h-36v24h36v36h24v-36h36zm0 0" fill="#0079a8"/><path d="m136 148h-24c-2.207031 0-4-1.792969-4-4v-32h-32c-2.207031 0-4-1.792969-4-4v-24c0-2.207031 1.792969-4 4-4h32v-32c0-2.207031 1.792969-4 4-4h24c2.207031 0 4 1.792969 4 4v32h32c2.207031 0 4 1.792969 4 4v24c0 2.207031-1.792969 4-4 4h-32v32c0 2.207031-1.792969 4-4 4zm-20-8h16v-32c0-2.207031 1.792969-4 4-4h32v-16h-32c-2.207031 0-4-1.792969-4-4v-32h-16v32c0 2.207031-1.792969 4-4 4h-32v16h32c2.207031 0 4 1.792969 4 4zm0 0" fill="#212a41"/><path d="m149.457031 261.574219-25.457031 25.457031-25.457031-25.457031-16.96875 16.96875 25.457031 25.457031-25.457031 25.457031 16.96875 16.96875 25.457031-25.457031 25.457031 25.457031 16.96875-16.96875-25.457031-25.457031 25.457031-25.457031zm0 0" fill="#f9ac2f"/><path d="m149.457031 350.425781c-1.023437 0-2.050781-.394531-2.832031-1.167969l-22.625-22.632812-22.632812 22.632812c-1.558594 1.558594-4.09375 1.558594-5.65625 0l-16.96875-16.96875c-1.558594-1.5625-1.558594-4.097656 0-5.65625l22.632812-22.632812-22.632812-22.632812c-1.558594-1.558594-1.558594-4.09375 0-5.65625l16.96875-16.96875c1.5625-1.558594 4.097656-1.558594 5.65625 0l22.632812 22.632812 22.632812-22.632812c1.558594-1.558594 4.09375-1.558594 5.65625 0l16.96875 16.96875c1.558594 1.5625 1.558594 4.097656 0 5.65625l-22.632812 22.632812 22.632812 22.632812c1.558594 1.558594 1.558594 4.09375 0 5.65625l-16.96875 16.96875c-.785156.773438-1.808593 1.167969-2.832031 1.167969zm-25.457031-33.457031c1.023438 0 2.046875.390625 2.832031 1.167969l22.632813 22.632812 11.3125-11.3125-22.632813-22.632812c-1.558593-1.558594-1.558593-4.097657 0-5.65625l22.632813-22.632813-11.3125-11.3125-22.632813 22.632813c-1.558593 1.558593-4.097656 1.558593-5.65625 0l-22.632812-22.632813-11.3125 11.3125 22.632812 22.632813c1.5625 1.558593 1.5625 4.097656 0 5.65625l-22.632812 22.632812 11.3125 11.3125 22.632812-22.632812c.777344-.777344 1.800781-1.167969 2.824219-1.167969zm0 0" fill="#212a41"/><path d="m376 256c0 6.628906-5.371094 12-12 12s-12-5.371094-12-12 5.371094-12 12-12 12 5.371094 12 12zm0 0" fill="#bed38e"/><path d="m364 272c-8.824219 0-16-7.175781-16-16s7.175781-16 16-16 16 7.175781 16 16-7.175781 16-16 16zm0-24c-4.40625 0-8 3.59375-8 8s3.59375 8 8 8 8-3.59375 8-8-3.59375-8-8-8zm0 0" fill="#212a41"/><path d="m376 344c0 6.628906-5.371094 12-12 12s-12-5.371094-12-12 5.371094-12 12-12 12 5.371094 12 12zm0 0" fill="#bed38e"/><path d="m364 360c-8.824219 0-16-7.175781-16-16s7.175781-16 16-16 16 7.175781 16 16-7.175781 16-16 16zm0-24c-4.40625 0-8 3.59375-8 8s3.59375 8 8 8 8-3.59375 8-8-3.59375-8-8-8zm0 0" fill="#212a41"/></svg>