<?xml version="1.0" encoding="UTF-8" standalone="no"?>
<svg
   xmlns:dc="http://purl.org/dc/elements/1.1/"
   xmlns:cc="http://creativecommons.org/ns#"
   xmlns:rdf="http://www.w3.org/1999/02/22-rdf-syntax-ns#"
   xmlns:svg="http://www.w3.org/2000/svg"
   xmlns="http://www.w3.org/2000/svg"
   xmlns:sodipodi="http://sodipodi.sourceforge.net/DTD/sodipodi-0.dtd"
   xmlns:inkscape="http://www.inkscape.org/namespaces/inkscape"
   id="Capa_1"
   enable-background="new 0 0 497 497"
   height="512"
   viewBox="0 0 497 497"
   width="512"
   version="1.1"
   sodipodi:docname="make-many.svg"
   inkscape:version="0.92.4 (5da689c313, 2019-01-14)">
  <metadata
     id="metadata69">
    <rdf:RDF>
      <cc:Work
         rdf:about="">
        <dc:format>image/svg+xml</dc:format>
        <dc:type
           rdf:resource="http://purl.org/dc/dcmitype/StillImage" />
      </cc:Work>
    </rdf:RDF>
  </metadata>
  <defs
     id="defs67" />
  <sodipodi:namedview
     pagecolor="#ffffff"
     bordercolor="#666666"
     borderopacity="1"
     objecttolerance="10"
     gridtolerance="10"
     guidetolerance="10"
     inkscape:pageopacity="0"
     inkscape:pageshadow="2"
     inkscape:window-width="1920"
     inkscape:window-height="1017"
     id="namedview65"
     showgrid="false"
     inkscape:zoom="1.3037281"
     inkscape:cx="-3.0745027"
     inkscape:cy="313.26191"
     inkscape:window-x="-8"
     inkscape:window-y="-8"
     inkscape:window-maximized="1"
     inkscape:current-layer="text878" />
  <g
     id="g62">
    <path
       d="m397.6 347.9h66.267v66.266h-66.267z"
       fill="#f8aa8b"
       id="path2" />
    <path
       d="m381.033 433.733v-27.85c0-4.575 3.709-8.283 8.283-8.283h82.833c4.575 0 8.283 3.708 8.283 8.283v27.85z"
       fill="#394d5c"
       id="path4" />
    <path
       d="m472.15 397.6h-23c4.575 0 8.283 3.709 8.283 8.283v27.85h23v-27.85c0-4.574-3.708-8.283-8.283-8.283z"
       fill="#2c4252"
       id="path6" />
    <path
       d="m491 497h-120.533c-3.314 0-6-2.686-6-6v-44.267c0-8.837 7.164-16 16-16h100.533c8.837 0 16 7.163 16 16v44.267c0 3.314-2.686 6-6 6z"
       fill="#fdbe40"
       id="path8" />
    <path
       d="m481 430.733h-23c8.837 0 16 7.163 16 16v44.267c0 3.314-2.686 6-6 6h23c3.314 0 6-2.686 6-6v-44.267c0-8.836-7.164-16-16-16z"
       fill="#faa83c"
       id="path10" />
    <path
       d="m33.133 347.9h66.267v66.266h-66.267z"
       fill="#f8aa8b"
       id="path12" />
    <path
       d="m16.567 433.733v-27.85c0-4.575 3.709-8.283 8.283-8.283h82.833c4.575 0 8.283 3.708 8.283 8.283v27.85z"
       fill="#394d5c"
       id="path14" />
    <path
       d="m107.683 397.6h-23c4.575 0 8.283 3.709 8.283 8.283v27.85h23v-27.85c.001-4.574-3.708-8.283-8.283-8.283z"
       fill="#2c4252"
       id="path16" />
    <path
       d="m126.533 497h-120.533c-3.314 0-6-2.686-6-6v-44.267c0-8.837 7.163-16 16-16h100.533c8.837 0 16 7.163 16 16v44.267c0 3.314-2.686 6-6 6z"
       fill="#fdbe40"
       id="path18" />
    <path
       d="m116.533 430.733h-23c8.837 0 16 7.163 16 16v44.267c0 3.314-2.686 6-6 6h23c3.314 0 6-2.686 6-6v-44.267c0-8.836-7.163-16-16-16z"
       fill="#faa83c"
       id="path20" />
    <path
       d="m447.3 347.9c0 9.15-7.417 16.568-16.568 16.568h-364.464c-9.15 0-16.568-7.418-16.568-16.568v-331.332c0-9.15 7.418-16.568 16.568-16.568h364.465c9.15 0 16.568 7.418 16.568 16.568v331.332z"
       fill="#394d5c"
       id="path22" />
    <path
       d="m430.733 0h-23c9.15 0 16.568 7.418 16.568 16.567v331.333c0 9.15-7.418 16.568-16.568 16.568h23c9.15 0 16.568-7.417 16.568-16.568v-331.333c-.001-9.149-7.418-16.567-16.568-16.567z"
       fill="#2c4252"
       id="path24" />
    <path
       d="m414.167 265.067h-331.333v-223.65c0-4.575 3.709-8.283 8.283-8.283h314.766c4.575 0 8.283 3.709 8.283 8.283z"
       id="path26"
       fill="#2c4252" />
    <g
       fill="#d0e2ed"
       id="g34">
      <path
         d="m190.8 331.333h-17.133c-4.418 0-8-3.582-8-8v-17.133c0-4.418 3.582-8 8-8h17.133c4.418 0 8 3.582 8 8v17.133c0 4.419-3.582 8-8 8z"
         id="path28" />
      <path
         d="m323.333 331.333h-17.133c-4.418 0-8-3.582-8-8v-17.133c0-4.418 3.582-8 8-8h17.133c4.418 0 8 3.582 8 8v17.133c0 4.419-3.581 8-8 8z"
         id="path30" />
    </g>
    <path
       d="m463.867 198.8h-57.562c-9.145 0-16.884 7.231-16.987 16.375-.081 7.137 4.336 12.282 10.582 14.634.432.163.726.565.726 1.027 0 .606-.491 1.097-1.098 1.097h-18.063c-8.927 0-16.578 6.882-16.98 15.8-.346 7.662 4.52 14.228 11.348 16.486.37.122.626.458.626.848s-.256.725-.626.848c-6.828 2.258-11.694 8.823-11.348 16.485.402 8.918 8.053 15.8 16.98 15.8h7.871c.574 0 1.04.465 1.04 1.04v.008c0 .386-.22.732-.56.914-5.328 2.845-8.928 8.501-8.777 14.998.211 9.073 7.948 16.174 17.024 16.174h7.822 20.708 20.707v16.566c0 9.15-7.418 16.568-16.567 16.567h33.133c18.299 0 33.133-14.834 33.133-33.133v-99.4c.001-18.3-14.833-33.134-33.132-33.134z"
       fill="#f8c09c"
       id="path38" />
    <g
       fill="#f8aa8b"
       id="g48">
      <path
         d="m463.866 323.834h-80.024c3.079 4.534 8.364 7.5 14.219 7.5h7.822 20.708 20.709v7.5h16.566c4.143 0 7.5-3.358 7.5-7.5 0-4.143-3.357-7.5-7.5-7.5z"
         id="path40" />
      <path
         d="m430.733 239.433c4.143 0 7.5-3.358 7.5-7.5s-3.357-7.5-7.5-7.5h-38.376c1.868 2.398 4.483 4.224 7.542 5.376.432.163.726.565.726 1.027 0 .606-.491 1.097-1.097 1.097h-18.063c-5.844 0-11.126 2.96-14.201 7.5z"
         id="path42" />
      <path
         d="m389.815 300.162c-2.456 1.311-4.538 3.225-6.061 5.539h63.547c4.143 0 7.5-3.358 7.5-7.5s-3.357-7.5-7.5-7.5h-80.038c3.075 4.539 8.357 7.5 14.201 7.5h7.871c.574 0 1.04.465 1.04 1.04v.008c0 .385-.219.731-.56.913z"
         id="path44" />
      <path
         d="m447.301 257.567h-80.114c2.033 3.091 5.064 5.468 8.646 6.652.37.122.626.458.626.848s-.256.725-.626.848c-3.582 1.184-6.613 3.561-8.646 6.652h80.115c4.143 0 7.5-3.358 7.5-7.5-.001-4.142-3.359-7.5-7.501-7.5z"
         id="path46" />
    </g>
    <path
       d="m33.133 198.8h57.562c9.145 0 16.884 7.231 16.987 16.375.081 7.137-4.336 12.282-10.582 14.634-.432.163-.725.565-.725 1.027 0 .606.491 1.097 1.097 1.097h18.063c8.927 0 16.578 6.882 16.98 15.8.346 7.662-4.52 14.228-11.348 16.486-.37.122-.626.458-.626.848s.256.725.626.848c6.828 2.258 11.694 8.823 11.348 16.485-.402 8.918-8.053 15.8-16.98 15.8h-7.871c-.574 0-1.04.465-1.04 1.04v.008c0 .386.219.732.56.914 5.328 2.845 8.928 8.501 8.777 14.998-.211 9.073-7.949 16.174-17.024 16.174h-7.822-20.707-20.708v16.566c0 9.15 7.418 16.568 16.567 16.567h-33.134c-18.299 0-33.133-14.835-33.133-33.134v-99.4c0-18.299 14.834-33.133 33.133-33.133z"
       fill="#f8c09c"
       id="path50" />
    <g
       fill="#f8aa8b"
       id="g60">
      <path
         d="m33.134 323.834h80.024c-3.079 4.534-8.364 7.5-14.219 7.5h-7.822-20.709-20.708v7.5h-16.566c-4.143 0-7.5-3.358-7.5-7.5 0-4.143 3.357-7.5 7.5-7.5z"
         id="path52" />
      <path
         d="m66.267 239.433c-4.143 0-7.5-3.358-7.5-7.5s3.357-7.5 7.5-7.5h38.376c-1.868 2.398-4.483 4.224-7.542 5.376-.432.163-.726.565-.726 1.027 0 .606.491 1.097 1.097 1.097h18.063c5.844 0 11.126 2.96 14.201 7.5z"
         id="path54" />
      <path
         d="m107.185 300.162c2.456 1.311 4.538 3.225 6.061 5.539h-63.547c-4.143 0-7.5-3.358-7.5-7.5s3.357-7.5 7.5-7.5h80.038c-3.075 4.539-8.357 7.5-14.201 7.5h-7.871c-.574 0-1.04.465-1.04 1.04v.008c0 .385.22.731.56.913z"
         id="path56" />
      <path
         d="m49.699 257.567h80.114c-2.033 3.091-5.064 5.468-8.646 6.652-.37.122-.626.458-.626.848s.256.725.626.848c3.581 1.184 6.613 3.561 8.646 6.652h-80.114c-4.143 0-7.5-3.358-7.5-7.5s3.358-7.5 7.5-7.5z"
         id="path58" />
    </g>
    <g
       aria-label="635"
       style="font-style:normal;font-weight:normal;font-size:168.25520325px;line-height:1.25;font-family:sans-serif;letter-spacing:0px;word-spacing:0px;fill:#000000;fill-opacity:1;stroke:none;stroke-width:0.97070312"
       id="text878">
      <path
         d="m 186.18228,147.74668 q 0,18.64938 -12.32338,30.47983 -12.24123,11.74828 -30.06905,11.74828 -9.03714,0 -16.43117,-2.79329 -7.39403,-2.7933 -13.06278,-8.29775 -7.06541,-6.81893 -10.92673,-18.07429 -3.779172,-11.25535 -3.779172,-27.11143 0,-16.26686 3.450542,-28.83671 3.53271,-12.569844 11.1732,-22.346391 7.22972,-9.283612 18.64938,-14.459432 11.41967,-5.257975 26.6185,-5.257975 4.8472,0 8.13343,0.410779 3.28624,0.41078 6.65463,1.478806 v 15.691769 h -0.82156 q -2.30037,-1.232337 -6.98325,-2.300364 -4.60073,-1.150182 -9.44792,-1.150182 -17.66351,0 -28.17947,11.091041 -10.51595,11.008886 -12.24122,29.822579 6.90109,-4.18995 13.55572,-6.326 6.73678,-2.21821 15.52746,-2.21821 7.8048,0 13.72003,1.4788 5.99737,1.39665 12.24122,5.75092 7.22971,5.0115 10.84457,12.652 3.69702,7.64049 3.69702,18.56722 z m -16.67764,0.65725 q 0,-7.6405 -2.30037,-12.652 -2.21821,-5.01151 -7.39403,-8.70852 -3.77917,-2.62899 -8.37989,-3.45055 -4.60073,-0.82156 -9.61224,-0.82156 -6.98325,0 -12.98063,1.64312 -5.99737,1.64312 -12.32337,5.09366 -0.16432,1.80743 -0.24647,3.5327 -0.0822,1.64312 -0.0822,4.18995 0,12.98063 2.62899,20.53897 2.71114,7.47618 7.39403,11.83044 3.77917,3.61486 8.13343,5.34013 4.43641,1.64312 9.61223,1.64312 11.9126,0 18.73154,-7.22972 6.81894,-7.31187 6.81894,-20.94974 z"
         style="text-align:center;text-anchor:middle;fill:#cccccc;stroke-width:0.97070312"
         id="path842" />
      <path
         d="m 280.74367,128.52221 q 3.94348,3.5327 6.49031,8.87283 2.54683,5.34013 2.54683,13.80219 0,8.3799 -3.03976,15.36314 -3.03977,6.98325 -8.54421,12.15907 -6.16169,5.75091 -14.54159,8.54421 -8.29774,2.71114 -18.2386,2.71114 -10.18733,0 -20.04603,-2.46467 -9.8587,-2.38252 -16.18471,-5.25798 v -17.17057 h 1.23234 q 6.98325,4.60073 16.43118,7.64049 9.44792,3.03977 18.2386,3.03977 5.17582,0 11.00888,-1.72527 5.83307,-1.72528 9.44793,-5.09367 3.77917,-3.61485 5.58659,-7.96911 1.88959,-4.35426 1.88959,-11.00889 0,-6.57247 -2.13605,-10.84457 -2.0539,-4.35426 -5.75091,-6.81894 -3.69702,-2.54683 -8.95499,-3.45055 -5.25798,-0.98587 -11.33751,-0.98587 h -7.39403 v -13.63787 h 5.75091 q 12.48769,0 19.88172,-5.17582 7.47618,-5.25797 7.47618,-15.280988 0,-4.436417 -1.88958,-7.722651 -1.88959,-3.36839 -5.25798,-5.504443 -3.5327,-2.136052 -7.55834,-2.957611 -4.02563,-0.821558 -9.1193,-0.821558 -7.8048,0 -16.59548,2.793299 -8.79068,2.793299 -16.59548,7.886962 h -0.82156 V 70.273706 q 5.83306,-2.875456 15.52745,-5.257976 9.77655,-2.464675 18.89585,-2.464675 8.95499,0 15.77393,1.643117 6.81893,1.643117 12.32338,5.257975 5.91522,3.943481 8.95499,9.53008 3.03976,5.586598 3.03976,13.062782 0,10.187331 -7.22971,17.827821 -7.14756,7.55834 -16.92411,9.53008 v 1.15018 q 3.94348,0.65725 9.03714,2.7933 5.09367,2.0539 8.62637,5.17582 z"
         style="text-align:center;text-anchor:middle;fill:#cccccc;stroke-width:0.97070312"
         id="path844" />
      <path
         d="m 397.65146,148.56824 q 0,8.54421 -3.12192,16.34902 -3.12193,7.8048 -8.54421,13.14494 -5.91523,5.75091 -14.13081,8.87283 -8.13343,3.03976 -18.89585,3.03976 -10.02302,0 -19.30663,-2.13605 -9.28361,-2.05389 -15.69177,-5.0115 v -17.33489 h 1.15019 q 6.73678,4.2721 15.77392,7.31187 9.03715,2.95761 17.74567,2.95761 5.83306,0 11.25535,-1.64312 5.50444,-1.64311 9.77655,-5.75091 3.61485,-3.5327 5.42228,-8.46205 1.88959,-4.92935 1.88959,-11.41966 0,-6.32601 -2.21821,-10.68027 -2.13605,-4.35426 -5.99738,-6.98324 -4.2721,-3.12193 -10.43379,-4.35427 -6.07954,-1.31449 -13.63787,-1.31449 -7.22972,0 -13.9665,0.98587 -6.65463,0.98587 -11.50182,1.97174 V 65.097886 h 73.61165 v 14.377276 h -57.75557 v 32.533718 q 3.5327,-0.32862 7.22972,-0.49293 3.69701,-0.16431 6.40815,-0.16431 9.94086,0 17.41704,1.72527 7.47619,1.64312 13.72003,5.91522 6.57247,4.51857 10.18733,11.66613 3.61486,7.14756 3.61486,17.90998 z"
         style="text-align:center;text-anchor:middle;fill:#cccccc;stroke-width:0.97070312"
         id="path846" />
    </g>
    <flowRoot
       xml:space="preserve"
       id="flowRoot849"
       style="fill:black;fill-opacity:1;stroke:none;font-family:sans-serif;font-style:normal;font-weight:normal;font-size:40px;line-height:1.25;letter-spacing:0px;word-spacing:0px"><flowRegion
         id="flowRegion851"><rect
           id="rect853"
           width="296.07401"
           height="42.18671"
           x="-167.21278"
           y="37.974781" /></flowRegion><flowPara
         id="flowPara855"></flowPara></flowRoot>  </g>
</svg>
