<svg id="color" enable-background="new 0 0 24 24" height="512" viewBox="0 0 24 24" width="512" xmlns="http://www.w3.org/2000/svg"><path d="m12 0c-6.617 0-12 5.383-12 12v6.359c0 3.11 2.531 5.641 5.641 5.641 3.111 0 5.642-2.531 5.642-5.641v-1.468c0-.935.761-1.695 1.695-1.695.935 0 1.696.761 1.696 1.695v2.446c0 2.571 2.092 4.663 4.663 4.663s4.663-2.092 4.663-4.663v-7.337c0-6.617-5.383-12-12-12z" fill="#eceff1"/><path d="m12 0c-6.617 0-12 5.383-12 12v6.359c0 3.11 2.531 5.641 5.641 5.641 3.111 0 5.642-2.531 5.642-5.641v-1.468c0-.914.728-1.662 1.634-1.694v-15.162c-.303-.023-.609-.035-.917-.035z" fill="#cdd0d2"/><path d="m5.5 21c-1.654 0-3-1.346-3-3s1.346-3 3-3 3 1.346 3 3-1.346 3-3 3z" fill="#2196f3"/><path d="m5.5 15c-1.654 0-3 1.346-3 3s1.346 3 3 3z" fill="#1d83d4"/><path d="m6.5 13.5c-1.93 0-3.5-1.57-3.5-3.5s1.57-3.5 3.5-3.5 3.5 1.57 3.5 3.5-1.57 3.5-3.5 3.5z" fill="#4caf50"/><path d="m6.5 6.5c-1.93 0-3.5 1.57-3.5 3.5s1.57 3.5 3.5 3.5z" fill="#429846"/><path d="m15.5 12c-2.206 0-4-1.794-4-4s1.794-4 4-4 4 1.794 4 4-1.794 4-4 4z" fill="#ffc107"/><path d="m15.5 4c-2.206 0-4 1.794-4 4s1.794 4 4 4z" fill="#dea806"/><path d="m19.5 18c-1.378 0-2.5-1.122-2.5-2.5s1.122-2.5 2.5-2.5 2.5 1.122 2.5 2.5-1.122 2.5-2.5 2.5z" fill="#f44336"/><path d="m19.5 13c-1.378 0-2.5 1.122-2.5 2.5s1.122 2.5 2.5 2.5z" fill="#d43a2f"/></svg>