<svg id="Layer_3" height="512" viewBox="0 0 64 64" width="512" xmlns="http://www.w3.org/2000/svg" data-name="Layer 3"><path d="m37 19c-1.5-.75-2.75-3.75-2.75-3.75a10.85 10.85 0 0 0 3.75.25c-3.25-4.75 0-9.5 0-9.5l4 4s-.08-7.5 11.25-9c0 0 4.5 5.25.75 13l4.5-1.5s.25 8.5-6.5 11.5a8.22 8.22 0 0 1 -7 1c-4-1.25-8-6-8-6z" fill="#f66959"/><path d="m-5.92 37.84h59.22v4.95h-59.22z" fill="#67bfa6" transform="matrix(.707 -.707 .707 .707 -21.57 28.56)"/><path d="m22.75 37.75-16.62-16.62 3.5-3.5 16.62 16.62" fill="#2b6350"/><path d="m36.4 34.99h4.95v30.76h-4.95z" fill="#2b6350" transform="matrix(.707 -.707 .707 .707 -24.23 42.24)"/><circle cx="6.25" cy="17.75" fill="#f78453" r="4"/><circle cx="46.25" cy="17.75" fill="#f78453" r="4"/><g opacity=".5"><path d="m46 10.5a.5.5 0 0 1 -.46-.69 9.67 9.67 0 0 1 4-4.25.5.5 0 1 1 .48.88 8.8 8.8 0 0 0 -3.53 3.75.5.5 0 0 1 -.49.31z" fill="#fff"/></g><g opacity=".5"><path d="m39.75 13.75a.5.5 0 0 1 -.4-.2 4.18 4.18 0 0 1 -.59-2.88.5.5 0 0 1 1 .16 3.22 3.22 0 0 0 .39 2.17.5.5 0 0 1 -.4.8z" fill="#fff"/></g><g opacity=".5"><path d="m53.5 19.75a.5.5 0 0 1 -.26-.93 2.79 2.79 0 0 0 1.27-1.67.51.51 0 0 1 .59-.39.5.5 0 0 1 .39.59 3.81 3.81 0 0 1 -1.73 2.33.49.49 0 0 1 -.26.07z" fill="#fff"/></g><g opacity=".5"><path d="m32.25 31.38a.5.5 0 0 1 -.35-.85l1.87-1.87a.5.5 0 1 1 .71.71l-1.88 1.86a.5.5 0 0 1 -.35.15z" fill="#fff"/></g><g fill="#231f20"><path d="m3.79 63.71a1 1 0 0 0 1.41 0l21-21 21 21a1 1 0 0 0 1.41 0l3.5-3.5a1 1 0 0 0 0-1.41l-21-21 14.89-14.8a1 1 0 0 0 .25-.46 5 5 0 1 0 -5-5v.38a1 1 0 0 0 -.25.08l-7.37 7.38a1 1 0 0 0 1.41 1.41l6.67-6.67 2.09 2.09-14.75 14.79-3.48 3.48-21 21-2.16-1.98 21-21 3.59-3.5 3.87-3.87a1 1 0 0 0 -1.41-1.41l-3.17 3.17-5.42-5.42a1 1 0 0 0 -1.41 1.41l5.42 5.42-2.09 2.09-14.13-14.14 2.09-2.09 4.54 4.54a1 1 0 0 0 1.41-1.41l-5.24-5.29a1 1 0 0 0 -.49-.25c0-.1 0-.19 0-.29a5 5 0 1 0 -5 5h.29a1 1 0 0 0 .25.49l14.83 14.8-21 21a1 1 0 0 0 0 1.41zm42.46-49.21a3 3 0 1 1 -3 3 3 3 0 0 1 3-3zm3.84 45-2.09 2.09-20.34-20.34 2.09-2.09zm-47.09-42a3 3 0 1 1 3 3 3 3 0 0 1 -3-3z"/><path d="m33.33 15.63c.14.34 1.44 3.37 3.23 4.26a1 1 0 0 0 .89-1.79 4.51 4.51 0 0 1 -1.45-1.56 12.72 12.72 0 0 0 2.07 0 1 1 0 0 0 .7-1.56 7.38 7.38 0 0 1 -.58-7.27l3 3a1 1 0 0 0 1.81-.71c0-.07 0-6.38 9.8-7.91.89 1.32 3.16 5.58.3 11.49a1 1 0 0 0 1.22 1.38l3.11-1c-.25 2.38-1.33 7.17-5.83 9.17a1 1 0 0 0 .81 1.83c7.28-3.24 7.1-12.07 7.09-12.44a1 1 0 0 0 -1.32-.92l-2.44.81a12.66 12.66 0 0 0 -1.74-12.06 1 1 0 0 0 -.88-.35c-6.22.83-9.18 3.45-10.57 5.5a9.34 9.34 0 0 0 -1.18 2.45l-2.66-2.66a1 1 0 0 0 -1.53.14 9.88 9.88 0 0 0 -.85 9.12 7.8 7.8 0 0 1 -1.8-.26 1 1 0 0 0 -1.2 1.35z"/><path d="m48.57 24.26s-.42.32-1.26 0a1 1 0 1 0 -.63 1.9 4.12 4.12 0 0 0 1.31.23 2.82 2.82 0 0 0 2-.72 1 1 0 0 0 0-1.43 1 1 0 0 0 -1.42.02z"/></g></svg>