<svg height="512" viewBox="0 0 60 61" width="512" xmlns="http://www.w3.org/2000/svg"><g id="016---Macaque-Monkey" fill="none"><g id="Icons" transform="translate(1 1)"><path id="Shape" d="m31 10c.0051613 2.1042568-1.6208982 3.8527079-3.72 4h-.28c-2.209139 0-4-1.790861-4-4s1.790861-4 4-4h.08c2.1778348.04356537 3.9204357 1.82172955 3.92 4z" fill="#ef314c"/><path id="Shape" d="m10 10.34c-.00497202.0532175-.00497202.1067825 0 .16" fill="#a0522d"/><path id="Shape" d="m27.28 14c-.4346349 1.1366185-1.1179809 2.1616376-2 3-1.4317225 1.3298998-3.3264915 2.0476153-5.28 2-.9466466-.015329-1.849983.3959462-2.46 1.12.68-1 1.18-1.84 1.55-2.45.5219612-.9120051 1.1644054-1.749537 1.91-2.49 1.416272-1.3349921 2.1516538-3.2396311 2-5.18 0 2.209139 1.790861 4 4 4z" fill="#91562d"/><path id="Shape" d="m21 15.18c-.7526472.7391948-1.4018645 1.576786-1.93 2.49-.37.61-.87 1.42-1.55 2.45-.114207.1270404-.2116671.2681894-.29.42-.6164929 1.1396921-1.5557559 2.0719976-2.7 2.68-1.2245302.6538044-2.62821.89243-4 .68-3.23435891-.5222224-5.59180438-3.3443361-5.53-6.62.07352211-2.2768498 1.59638731-4.2509343 3.78-4.9.75947698-.3212581 1.24392-1.0757186 1.22-1.9v-.14c.0909226-3.32548184 2.6780572-6.0455637 5.9948157-6.30287623 3.3167584-.25731252 6.2924579 2.03120734 6.8951843 5.30287623.0505049.21746879.0872445.43790631.11.66.1516538 1.9403689-.583728 3.8450079-2 5.18z" fill="#ffe0b2"/><path id="Shape" d="m23 10c-.0124355-.22480351-.0391561-.44858854-.08-.67-.4780212-2.61246719-2.4973064-4.67134617-5.1-5.2-.9259077-.20077421-1.8840923-.20077421-2.81 0 2.5196953.60555216 4.4402716 2.64788282 4.89 5.2.0475597.22097728.080961.44476589.1.67.1516538 1.9403689-.583728 3.8450079-2 5.18-.7526472.7391948-1.4018645 1.576786-1.93 2.49-.37.61-.87 1.42-1.55 2.45-.114207.1270404-.2116671.2681894-.29.42-.6164929 1.1396921-1.5557559 2.0719976-2.7 2.68-.4926615.2577973-1.0171897.4494518-1.56.57l.54.11c1.37179.21243 2.7754698-.0261956 4-.68 1.1442441-.6080024 2.0835071-1.5403079 2.7-2.68.0783329-.1518106.175793-.2929596.29-.42.68-1 1.18-1.84 1.55-2.45.5343062-.9144318 1.190298-1.7520829 1.95-2.49 1.416272-1.3349921 2.1516538-3.2396311 2-5.18z" fill="#dfc49c"/><path id="Shape" d="m27.08 6h-.08c-2.209139 0-4 1.790861-4 4-.0124355-.22480351-.0391561-.44858854-.08-.67-.6027264-3.27166889-3.5784259-5.56018875-6.8951843-5.30287623-3.3167585.25731253-5.9038931 2.97739439-5.9948163 6.30287623.0000006-.14.0000006-.26.0000006-.34-.0010189-2.89428414 1.3899519-5.61245137 3.7380111-7.3046392 2.3480592-1.69218782 5.3666535-2.15188435 8.1119889-1.2353608 2.2907385.7273889 4.1749678 2.37608957 5.2 4.55z" fill="#91562d"/><path id="Shape" d="m58 16v31c0 11.13-6.12 12-8 12h-14c2.8541691-.0260817 5.4867086-1.5433955 6.94-4h.06 7c2 0 4-2 4-8v-31c0-3-1.46-3-2-3-.73 0-1.72 0-2 1.43-.1092409.7431219-.6256338 1.362385-1.3370306 1.6033795-.7113967.2409945-1.4978421.063084-2.0362432-.4606411-.538401-.5237251-.737973-1.3049546-.5167262-2.0227384.5379032-2.7831935 3.0611785-4.73241291 5.89-4.55 3 0 6 2 6 7z" fill="#91562d"/><path id="Shape" d="m46 43c0 4.44-1 8.89-3.06 12-1.4532914 2.4566045-4.0858309 3.9739183-6.94 4h-18.84c-.3387769.0065273-.6578141-.1589424-.8476285-.4396253-.1898144-.280683-.2245819-.6383926-.0923715-.9503747.85-2.14 3.78-1 3.78-3.61v-5c-1.6909407-2.97232-3.0331559-6.1298813-4-9.41-.9933479-3.1156536-1.6373017-6.3320683-1.92-9.59-.08-.68-.08-1.35-.08-2 .0375031-1.5919606.211474-3.1777718.52-4.74 1.1442441-.6080024 2.0835071-1.5403079 2.7-2.68l.29-.42c.6088112-.7472612 1.5262389-1.1746572 2.49-1.16 1.9466436.042372 3.8332775-.6749793 5.26-2 19.01 5 20.74 20 20.74 26z" fill="#a0522d"/><g fill="#783e22"><path id="Shape" d="m25.27 17c-.25732.2391859-.5313464.4597438-.82.66 16.95 5.52 18.55 19.58 18.55 25.34 0 4.44-1 8.89-3.06 12-1.4532914 2.4566045-4.0858309 3.9739183-6.94 4h3c2.8541691-.0260817 5.4867086-1.5433955 6.94-4 2.06-3.11 3.06-7.56 3.06-12 0-6-1.73-21-20.73-26z"/><path id="Shape" d="m16 39.59c-.1688628 2.9695342-2.160904 5.523331-5 6.41-.4551052.1453142-.9494333-.0515792-1.18-.47l-4.51-8c-.17657612-.3317472-.52424304-.5364844-.9-.53h-2.41c-1.1045695 0-2-.8954305-2-2s.8954305-2 2-2h4.43c.35306729.0000616.67993568.1863005.86.49l1.71 2.77c.19584807.3176714.55229033.4998566.92447892.4725207.37218858-.0273359.69818788-.2596439.84552108-.6025207.8326496-2.178312 1.9453324-4.2389604 3.31-6.13.2826983 3.2579317.9266521 6.4743464 1.92 9.59z"/></g></g><g id="Layer_11" fill="#000"><path id="Shape" d="m19 13c0-.5522847-.4477153-1-1-1-.8804076.0551524-1.6929791-.4730191-2-1.3-.1846092-.4947957-.7221481-.7607423-1.2274761-.6072919s-.8042203.6733917-.6825239 1.1872919c.581346 1.6542606 2.1568238 2.7502452 3.91 2.72.5522847 0 1-.4477153 1-1z"/><path id="Shape" d="m9.15 34c-.35510459-.6150891-1.00977788-.9957131-1.72-1h-4.43c-1.65685425 0-3 1.3431458-3 3s1.34314575 3 3 3h2.42l4.51 8c.4611333.8368415 1.4497897 1.2306284 2.36.94 2.0535099-.6598498 3.7684805-2.0949716 4.78-4 .7994631 2.1875912 1.7795086 4.3048911 2.93 6.33v4.73c0 .65-.16.75-1.13 1.11-1.1458539.2735888-2.0993319 1.0644581-2.58 2.14-.2504711.6191199-.175377 1.3224076.2001708 1.8746839.3755478.5522762 1.0019844.8806511 1.6698292.8753161h32.84c2.11 0 9-.94 9-13v-31c0-5.9-3.77-8-7-8-3.3113799-.19889816-6.2614912 2.076658-6.91 5.33-.2740382 1.0592695.0503442 2.1837255.8464773 2.9342726.796133.7505472 1.9377418 1.0081409 2.9790329.6721921 1.0412912-.3359489 1.8171051-1.2121554 2.0244898-2.2864647.14-.63.3-.65 1.06-.65.38 0 1 0 1 2v31c0 4.38-1.12 7-3 7h-5.38c1.6210949-3.4374326 2.4351534-7.1998882 2.38-11 0-6.24-2-21-20-26.53.3848901-.4886514.7198938-1.0146073 1-1.57 2.359122-.492195 4.0314843-2.5971653 3.9775627-5.0064816-.0539216-2.40931624-1.8187828-4.43735984-4.1975627-4.8235184-2.2336372-4.14590933-7.057214-6.17155203-11.5812251-4.86349131-4.5240111 1.30806071-7.52229873 5.59529681-7.1987749 10.29349131.018803.4025977-.20591823.7771331-.57.95-2.36271806.7318061-4.0744113 2.7842712-4.37 5.24-.06.31-.06.31-.06.41-.12635265 2.363268.87165677 4.6472258 2.69169849 6.1599878 1.82004172 1.5127619 4.24797581 2.0763416 6.54830151 1.5200122-.2594204 1.6231168-.3265505 3.2711613-.2 4.91-1.3210098 1.879668-2.4121149 3.9108022-3.25 6.05zm41.85 23c1.5 0 5-.88 5-9v-31c0-2.62-1-4-3-4-1.4341979-.1868259-2.7594154.793835-3 2.22-.0902732.3664244-.3791391.6508207-.7469265.7353696-.3677874.0845488-.751848-.0451518-.9930735-.3353696-.1933848-.2377219-.2670946-.5509888-.2-.85.4584427-2.323797 2.5775976-3.9410468 4.94-3.77 2.42 0 5 1.58 5 6v31c0 10.21-5.35 11-7 11h-8.47c.7055844-.5847113 1.333957-1.2567675 1.87-2zm-26.61-42.56c.6431919.6703077 1.460409 1.148172 2.36 1.38-1.1941742 1.9985316-3.3620666 3.210113-5.69 3.18 1.39-2.26 2.39-2.36 3.33-4.56zm6.61-3.44c0 1.6568542-1.3431458 3-3 3s-3-1.3431458-3-3c0-1.65685425 1.3431458-3 3-3s3 1.34314575 3 3zm-4.51-4.74c-.9489083.29903002-1.7854137.87761287-2.4 1.66-1.5998101-2.97666998-5.0027866-4.50369921-8.29-3.72 3.5531799-2.21758907 8.215336-1.31917546 10.69 2.06zm-16.49 17.1c1.3985653-.6568164 2.6711597-1.5537247 3.76-2.65.3921222-.3921222.3921222-1.0278778 0-1.42s-1.0278778-.3921222-1.42 0c-1.1546578 1.1797157-2.56888485 2.0734525-4.13 2.61-.67183676-.8313764-1.09170175-1.8376644-1.21-2.9h1c.55228475 0 1-.4477153 1-1s-.44771525-1-1-1h-.76c.49493202-1.2936198 1.5627857-2.2838786 2.89-2.68 1.1584157-.4705036 1.9035562-1.6101302 1.87-2.86.010858-2.50178561 1.7087924-4.6810405 4.1319827-5.303293 2.4231902-.6222525 4.9610356.46929392 6.1759356 2.65631639 1.2148999 2.18702251.8007212 4.91843031-1.0079183 6.64697661-.8116399.8011136-1.5143379 1.7055431-2.09 2.69-.79 1.33-1.25 2-1.83 2.88-.6672172 1.2900365-1.8209133 2.2610826-3.2058947 2.6983464s-2.8871046.304708-4.1741053-.3683464zm11-2.36c1.9943157.0185108 3.9337609-.6526998 5.49-1.9 16.95 4.69 19.51 17.58 19.51 24.9s-2.81 15-9 15h-11.85c.53-1.32 3.27-.8 3.81-3.26.1256337-.5545732.009267-1.1364069-.32-1.6-.4791247-.9744477-.6995206-2.0557647-.64-3.14 0-4.52 3.68-8.14 7.25-9 .3572656-.0875301.6406959-.3590101.7435254-.7121762s.0094361-.734364-.245-1c-.2544361-.2656361-.6312598-.3753539-.9885254-.2878238-4.25 1.09-8.76 5.3-8.76 11-.0746893 1.4954033.2717796 2.9817551 1 4.29-.24 1.12-3.35.55-3.92 3.69h-4.93c.22-.53.65-.72 1.41-1 1-.35 2.44-.89 2.44-3v-17.98c0-.5522847-.4477153-1-1-1s-1 .4477153-1 1v8.84c-2.19-4.93-4-11.46-4-16.84.0308863-1.3794419.1747003-2.7540369.43-4.11 2.95-1.81 2.3-3.89 4.57-3.89zm-8.35 16.51c.5082708-1.2544925 1.0926923-2.4767683 1.75-3.66.3702095 2.3085413.9049044 4.5876784 1.6 6.82-.2325551 2.4888693-1.9415457 4.5925459-4.33 5.33l-4.51-8c-.36045327-.6243901-1.02906457-1.0064537-1.75-1h-2.41c-.55228475 0-1-.4477153-1-1s.44771525-1 1-1h4.43l1.67 2.77c.39013812.6408825 1.1061546 1.0094982 1.8544424.9546941.7482878-.0548042 1.4029574-.5238083 1.6955576-1.2146941z"/></g></g></svg>