<?xml version="1.0" encoding="UTF-8" standalone="no"?>
<svg
   xmlns:dc="http://purl.org/dc/elements/1.1/"
   xmlns:cc="http://creativecommons.org/ns#"
   xmlns:rdf="http://www.w3.org/1999/02/22-rdf-syntax-ns#"
   xmlns:svg="http://www.w3.org/2000/svg"
   xmlns="http://www.w3.org/2000/svg"
   xmlns:sodipodi="http://sodipodi.sourceforge.net/DTD/sodipodi-0.dtd"
   xmlns:inkscape="http://www.inkscape.org/namespaces/inkscape"
   height="512"
   viewBox="0 0 64 64"
   width="512"
   version="1.1"
   id="svg51"
   sodipodi:docname="nim-21.svg"
   inkscape:version="0.92.4 (5da689c313, 2019-01-14)">
  <metadata
     id="metadata57">
    <rdf:RDF>
      <cc:Work
         rdf:about="">
        <dc:format>image/svg+xml</dc:format>
        <dc:type
           rdf:resource="http://purl.org/dc/dcmitype/StillImage" />
      </cc:Work>
    </rdf:RDF>
  </metadata>
  <defs
     id="defs55" />
  <sodipodi:namedview
     pagecolor="#ffffff"
     bordercolor="#666666"
     borderopacity="1"
     objecttolerance="10"
     gridtolerance="10"
     guidetolerance="10"
     inkscape:pageopacity="0"
     inkscape:pageshadow="2"
     inkscape:window-width="1920"
     inkscape:window-height="1017"
     id="namedview53"
     showgrid="false"
     inkscape:zoom="1.84375"
     inkscape:cx="87.308998"
     inkscape:cy="271.49179"
     inkscape:window-x="-8"
     inkscape:window-y="-8"
     inkscape:window-maximized="1"
     inkscape:current-layer="flat" />
  <g
     id="flat">
    <path
       d="m3 31h12v8h-12z"
       fill="#ffd782"
       id="path2" />
    <path
       d="m15 23-4 3-5-3-3 3v5h12z"
       fill="#394d5c"
       id="path4" />
    <path
       d="m3 43h12v18h-12z"
       fill="#195c85"
       id="path6" />
    <path
       d="m9 47h12a0 0 0 0 1 0 0v4a0 0 0 0 1 0 0h-12a2 2 0 0 1 -2-2 2 2 0 0 1 2-2z"
       fill="#ffd782"
       id="path8" />
    <path
       d="m43 27h12v12h-12z"
       fill="#ffd782"
       transform="matrix(-1 0 0 -1 98 66)"
       id="path10" />
    <path
       d="m43 27h12v4h-12z"
       fill="#394d5c"
       transform="matrix(-1 0 0 -1 98 58)"
       id="path12" />
    <path
       d="m43 43h12v18h-12z"
       fill="#e4544f"
       transform="matrix(-1 0 0 -1 98 104)"
       id="path14" />
    <circle
       cx="35"
       cy="55"
       fill="#ffd782"
       r="2"
       id="circle16" />
    <path
       d="m55 27a6 6 0 0 1 6 6v4a0 0 0 0 1 0 0 6 6 0 0 1 -6-6v-4a0 0 0 0 1 0 0z"
       fill="#143441"
       id="path18" />
    <path
       d="m39 53h8v-4a2 2 0 0 1 4 0v8h-12z"
       fill="#ffd782"
       id="path24" />
    <path
       d="m9 3v12h3v6l5-6h12v-12z"
       fill="#7fcac9"
       id="path26" />
    <path
       d="m35 7v12h2l5 6v-6h13v-12z"
       id="path28"
       fill="#7fcac9" />
    <g
       aria-label="1"
       style="font-style:normal;font-weight:normal;font-size:10.66666698px;line-height:1.25;font-family:sans-serif;letter-spacing:0px;word-spacing:0px;fill:#000000;fill-opacity:1;stroke:none;stroke-width:0.125"
       id="text866">
      <path
         d="M 18.926312,11.895377 V 7.155793 q -1.322916,1.0156251 -1.78125,1.0156251 -0.21875,0 -0.390625,-0.171875 Q 16.58777,7.8224597 16.58777,7.593293 q 0,-0.265625 0.166667,-0.390625 0.166667,-0.125 0.588542,-0.3229166 0.630208,-0.2968751 1.005208,-0.6250001 0.380209,-0.328125 0.671875,-0.734375 0.291667,-0.40625 0.380209,-0.5 0.08854,-0.09375 0.333333,-0.09375 0.276042,0 0.442708,0.2135417 0.166667,0.2135416 0.166667,0.5885417 v 5.9635413 q 0,1.046876 -0.713542,1.046876 -0.317708,0 -0.510416,-0.213542 -0.192709,-0.213542 -0.192709,-0.630208 z"
         style="font-style:normal;font-variant:normal;font-weight:normal;font-stretch:normal;font-family:'Arial Rounded MT Bold';-inkscape-font-specification:'Arial Rounded MT Bold, ';fill:#ffffff;stroke-width:0.125"
         id="path831" />
    </g>
    <g
       aria-label="2,3"
       style="font-style:normal;font-weight:normal;font-size:10.66666698px;line-height:29.30000305;font-family:sans-serif;letter-spacing:0px;word-spacing:0px;fill:#000000;fill-opacity:1;stroke:none;stroke-width:0.125"
       id="text866-3">
      <path
         d="m 40.06608,14.595296 h 2.71875 q 0.40625,0 0.619791,0.166667 0.213542,0.166667 0.213542,0.453125 0,0.255208 -0.171875,0.432292 -0.166667,0.177083 -0.510417,0.177083 h -3.833333 q -0.390625,0 -0.609375,-0.213542 -0.21875,-0.21875 -0.21875,-0.510416 0,-0.1875 0.140625,-0.494792 0.140625,-0.3125 0.307291,-0.489583 0.692709,-0.718751 1.250001,-1.229167 0.557291,-0.515625 0.796875,-0.677084 0.427083,-0.302083 0.708333,-0.604166 0.286458,-0.307292 0.432292,-0.625 0.151041,-0.322917 0.151041,-0.630209 0,-0.333333 -0.161458,-0.5937496 -0.15625,-0.265625 -0.432292,-0.4114584 -0.270833,-0.1458333 -0.59375,-0.1458333 -0.682291,0 -1.072916,0.5989583 -0.05208,0.078125 -0.177084,0.427083 -0.119791,0.348959 -0.276041,0.536459 -0.151042,0.1875 -0.447917,0.1875 -0.260417,0 -0.432292,-0.171875 -0.171875,-0.171875 -0.171875,-0.46875 0,-0.3593753 0.161458,-0.7500003 0.161459,-0.390625 0.479167,-0.7083334 0.322917,-0.3177083 0.8125,-0.5104166 0.494792,-0.1979167 1.15625,-0.1979167 0.796875,0 1.359375,0.25 0.364584,0.1666667 0.640625,0.4583333 0.276042,0.2916667 0.427084,0.6770834 0.15625,0.3802083 0.15625,0.7916663 0,0.645834 -0.322917,1.177084 -0.317708,0.526041 -0.651042,0.828125 -0.333333,0.296875 -1.119791,0.9375 -0.78125,0.640625 -1.072917,0.994792 -0.125,0.140625 -0.255208,0.338541 z"
         style="font-style:normal;font-variant:normal;font-weight:normal;font-stretch:normal;font-family:'Arial Rounded MT Bold';-inkscape-font-specification:'Arial Rounded MT Bold, ';fill:#ffffff;stroke-width:0.125"
         id="path834" />
      <path
         d="m 45.717121,15.965088 q -0.34375,0 -0.59375,-0.208333 -0.25,-0.213542 -0.25,-0.59375 0,-0.328125 0.244792,-0.552084 0.244792,-0.223958 0.578125,-0.223958 0.25,0 0.453125,0.135417 0.203125,0.135416 0.317708,0.401041 0.114584,0.260417 0.114584,0.645834 0,0.515625 -0.21875,0.963541 -0.21875,0.453125 -0.536459,0.713542 -0.3125,0.265625 -0.567708,0.265625 -0.161458,0 -0.265625,-0.109375 -0.09896,-0.104167 -0.09896,-0.244792 0,-0.213541 0.213541,-0.34375 0.609375,-0.338541 0.609375,-0.848958 z"
         style="font-style:normal;font-variant:normal;font-weight:normal;font-stretch:normal;font-family:'Arial Rounded MT Bold';-inkscape-font-specification:'Arial Rounded MT Bold, ';fill:#ffffff;stroke-width:0.125"
         id="path836" />
      <path
         d="m 50.274413,11.215088 q 0.479167,0 0.822917,-0.28125 0.348958,-0.28125 0.348958,-0.807292 0,-0.4010416 -0.276041,-0.6875 -0.276042,-0.2916666 -0.744792,-0.2916666 -0.317708,0 -0.526042,0.088542 -0.203125,0.088542 -0.322916,0.234375 -0.119792,0.1458334 -0.229167,0.375 -0.104167,0.229167 -0.192709,0.432292 -0.05208,0.109375 -0.1875,0.171875 -0.135416,0.0625 -0.3125,0.0625 -0.208333,0 -0.385416,-0.166667 -0.171875,-0.171875 -0.171875,-0.453125 0,-0.2708333 0.161458,-0.5677083 0.166667,-0.3020833 0.479167,-0.5729167 0.317708,-0.2708333 0.786458,-0.4322917 0.46875,-0.1666666 1.046875,-0.1666666 0.505209,0 0.921875,0.140625 0.416667,0.1354166 0.723959,0.3958333 0.307291,0.2604167 0.463541,0.6041667 0.15625,0.34375 0.15625,0.7395833 0,0.520833 -0.229166,0.895833 -0.223959,0.369792 -0.645834,0.723959 0.40625,0.21875 0.682292,0.5 0.28125,0.28125 0.421875,0.625 0.140625,0.338541 0.140625,0.734375 0,0.473958 -0.192708,0.916667 -0.1875,0.442708 -0.557292,0.791666 -0.369792,0.34375 -0.880208,0.541667 -0.505209,0.192708 -1.119792,0.192708 -0.625,0 -1.119792,-0.223958 -0.494792,-0.223958 -0.817708,-0.557292 -0.317709,-0.338541 -0.484375,-0.697916 -0.161459,-0.359375 -0.161459,-0.593751 0,-0.302083 0.192709,-0.484375 0.197916,-0.1875 0.489583,-0.1875 0.145833,0 0.28125,0.08854 0.135417,0.08333 0.177083,0.203125 0.270834,0.723959 0.578126,1.078125 0.3125,0.348959 0.875,0.348959 0.322916,0 0.619791,-0.15625 0.302084,-0.161459 0.494792,-0.473959 0.197917,-0.3125 0.197917,-0.723958 0,-0.609375 -0.333334,-0.953125 -0.333333,-0.348959 -0.927083,-0.348959 -0.104167,0 -0.322917,0.02083 -0.21875,0.02083 -0.28125,0.02083 -0.286458,0 -0.442708,-0.140625 -0.15625,-0.145833 -0.15625,-0.401042 0,-0.25 0.1875,-0.401041 0.1875,-0.15625 0.557292,-0.15625 z"
         style="font-style:normal;font-variant:normal;font-weight:normal;font-stretch:normal;font-family:'Arial Rounded MT Bold';-inkscape-font-specification:'Arial Rounded MT Bold, ';fill:#ffffff;stroke-width:0.125"
         id="path838" />
    </g>
  </g>
</svg>
