<svg id="Capa_1" enable-background="new 0 0 512 512" height="512" viewBox="0 0 512 512" width="512" xmlns="http://www.w3.org/2000/svg"><g><g><g><circle cx="419.646" cy="369.138" fill="#f1d0a5" r="50.508"/></g><g><path d="m444.768 325.328c4.253 7.401 6.698 15.973 6.698 25.122 0 27.895-22.613 50.508-50.508 50.508-9.149 0-17.721-2.445-25.122-6.698 8.715 15.165 25.064 25.386 43.81 25.386 27.895 0 50.508-22.613 50.508-50.508 0-18.746-10.22-35.095-25.386-43.81z" fill="#f1b986"/></g><g><path d="m334.793 460.053v44.447h169.707v-44.447c0-22.316-18.091-40.407-40.406-40.407h-88.894c-22.317 0-40.407 18.091-40.407 40.407z" fill="#c8ea73"/></g><g><path d="m464.094 419.646h-24.244c22.316 0 40.407 18.091 40.407 40.407v44.447h24.243v-44.447c0-22.316-18.091-40.407-40.406-40.407z" fill="#b7e445"/></g></g><g><g><circle cx="92.354" cy="369.138" fill="#f1d0a5" r="50.508"/></g><g><path d="m117.476 325.328c4.253 7.401 6.698 15.973 6.698 25.122 0 27.895-22.613 50.508-50.508 50.508-9.149 0-17.721-2.445-25.122-6.698 8.715 15.165 25.064 25.386 43.81 25.386 27.895 0 50.508-22.613 50.508-50.508 0-18.746-10.221-35.095-25.386-43.81z" fill="#f1b986"/></g><g><path d="m7.5 460.053v44.447h169.707v-44.447c0-22.316-18.091-40.407-40.407-40.407h-88.893c-22.316 0-40.407 18.091-40.407 40.407z" fill="#dd5790"/></g><g><path d="m136.801 419.646h-24.244c22.316 0 40.407 18.091 40.407 40.407v44.447h24.244v-44.447c-.001-22.316-18.091-40.407-40.407-40.407z" fill="#da387d"/></g></g><g><g><path d="m301.457 278.224h-90.915c-5.579 0-10.102-4.523-10.102-10.102v-12.122c0-5.579 4.523-10.102 10.102-10.102h90.915c5.579 0 10.102 4.523 10.102 10.102v12.122c0 5.579-4.523 10.102-10.102 10.102z" fill="#4073c8"/></g><g><path d="m301.457 245.898h-22.224c5.579 0 10.102 4.523 10.102 10.102v12.122c0 5.579-4.523 10.102-10.102 10.102h22.224c5.579 0 10.102-4.523 10.102-10.102v-12.122c0-5.579-4.523-10.102-10.102-10.102z" fill="#30579d"/></g><g><path d="m210.543 278.224v28.285c0 11.158 9.045 20.203 20.203 20.203h50.508c11.158 0 20.203-9.045 20.203-20.203v-28.285z" fill="#9dc6fb"/></g><g><path d="m278.224 278.224v28.285c0 11.158-9.045 20.203-20.203 20.203h23.234c11.158 0 20.203-9.045 20.203-20.203v-28.285z" fill="#80b4fb"/></g><g><path d="m363.731 115.231c0-59.498-48.232-107.731-107.73-107.731-59.383-.001-107.467 47.86-107.731 107.242-.195 43.914 25.889 81.753 63.429 98.71 5.122 2.314 8.391 7.438 8.391 13.059v19.387h71.821v-19.386c0-5.682 3.37-10.783 8.545-13.13 37.317-16.927 63.275-54.505 63.275-98.151z" fill="#f6e266"/></g><g><path d="m326.472 33.745c6.864 15.344 10.686 32.347 10.686 50.244 0 68.026-55.146 123.173-123.173 123.173-5.343 0-10.606-.341-15.769-1.001 4.297 2.736 8.801 5.176 13.483 7.292 5.122 2.314 8.391 7.439 8.391 13.059v19.387h71.821v-19.386c0-5.682 3.37-10.783 8.545-13.13 37.318-16.928 63.276-54.505 63.276-98.152-.001-32.552-14.439-61.732-37.26-81.486z" fill="#f1d333"/></g></g><g><path d="m464.09 412.15h-5.566c11.741-10.622 19.13-25.969 19.13-43.012 0-31.986-26.022-58.009-58.008-58.009s-58.008 26.022-58.008 58.009c0 17.042 7.39 32.389 19.13 43.012h-5.568c-26.418 0-47.91 21.487-47.91 47.899v44.45c0 4.143 3.357 7.5 7.5 7.5h67.36c4.143 0 7.5-3.357 7.5-7.5s-3.357-7.5-7.5-7.5h-17.43v-12.703c0-4.143-3.357-7.5-7.5-7.5s-7.5 3.357-7.5 7.5v12.704h-27.43v-36.95c0-18.141 14.764-32.899 32.91-32.899h88.89c18.146 0 32.91 14.759 32.91 32.899v36.95h-27.427v-12.703c0-4.143-3.357-7.5-7.5-7.5s-7.5 3.357-7.5 7.5v12.703h-17.423c-4.143 0-7.5 3.357-7.5 7.5s3.357 7.5 7.5 7.5h67.35c4.143 0 7.5-3.357 7.5-7.5v-44.45c0-26.412-21.492-47.9-47.91-47.9zm-87.451-43.011c0-23.715 19.293-43.009 43.008-43.009s43.008 19.294 43.008 43.009-19.293 43.008-43.008 43.008-43.008-19.293-43.008-43.008z"/><path d="m136.8 412.15h-5.569c11.741-10.622 19.13-25.969 19.13-43.012 0-31.986-26.022-58.009-58.008-58.009s-58.008 26.022-58.008 58.009c0 17.042 7.39 32.389 19.13 43.012h-5.565c-26.418 0-47.91 21.488-47.91 47.9v44.45c0 4.143 3.357 7.5 7.5 7.5h67.35c4.143 0 7.5-3.357 7.5-7.5s-3.357-7.5-7.5-7.5h-17.423v-12.703c0-4.143-3.357-7.5-7.5-7.5s-7.5 3.357-7.5 7.5v12.703h-27.427v-36.95c0-18.141 14.764-32.899 32.91-32.899h88.89c18.146 0 32.91 14.759 32.91 32.899v36.95h-27.43v-12.703c0-4.143-3.357-7.5-7.5-7.5s-7.5 3.357-7.5 7.5v12.703h-17.43c-4.143 0-7.5 3.357-7.5 7.5s3.357 7.5 7.5 7.5h67.36c4.143 0 7.5-3.357 7.5-7.5v-44.45c0-26.412-21.492-47.9-47.91-47.9zm-87.454-43.011c0-23.715 19.293-43.009 43.008-43.009s43.008 19.294 43.008 43.009-19.293 43.008-43.008 43.008-43.008-19.293-43.008-43.008z"/><path d="m301.457 238.398h-2.047v-11.888c0-2.684 1.627-5.158 4.139-6.3 41.115-18.651 67.682-59.858 67.682-104.979-.001-63.539-51.693-115.231-115.231-115.231-24.716 0-48.262 7.684-68.094 22.221-3.341 2.448-4.064 7.142-1.615 10.482 2.448 3.341 7.142 4.063 10.482 1.615 17.243-12.637 37.723-19.318 59.227-19.318 55.268 0 100.23 44.963 100.23 100.23 0 39.249-23.111 75.094-58.885 91.322-7.858 3.572-12.936 11.406-12.936 19.957v11.889h-20.909v-112.709c0-7.005 5.698-12.704 12.703-12.704s12.703 5.699 12.703 12.704c0 2.774-.877 5.409-2.536 7.618-2.487 3.312-1.819 8.014 1.493 10.501 1.35 1.014 2.931 1.504 4.498 1.503 2.278 0 4.529-1.034 6.003-2.996 3.626-4.827 5.542-10.577 5.542-16.626 0-15.276-12.428-27.704-27.703-27.704-7.962 0-15.145 3.381-20.203 8.777-5.058-5.396-12.241-8.777-20.203-8.777-15.275 0-27.703 12.428-27.703 27.704 0 6.049 1.916 11.799 5.542 16.626 1.474 1.962 3.725 2.997 6.003 2.996 1.567 0 3.148-.489 4.498-1.503 3.312-2.487 3.98-7.188 1.493-10.501-1.659-2.209-2.536-4.844-2.536-7.618 0-7.005 5.698-12.704 12.703-12.704s12.703 5.699 12.703 12.704v112.709h-20.91v-11.888c0-8.562-5.022-16.37-12.804-19.896-36.03-16.269-59.196-52.317-59.017-91.841.091-20.667 6.392-40.465 18.222-57.253 2.386-3.386 1.575-8.065-1.811-10.451-3.389-2.386-8.065-1.573-10.451 1.811-13.607 19.312-20.855 42.074-20.96 65.826-.206 45.436 26.425 86.878 67.836 105.576 2.421 1.096 3.984 3.541 3.984 6.228v11.889h-2.047c-9.705 0-17.602 7.896-17.602 17.602v12.122c0 7.021 4.142 13.077 10.102 15.9v22.486c0 15.275 12.428 27.703 27.703 27.703h50.508c15.275 0 27.703-12.428 27.703-27.703v-22.486c5.959-2.823 10.102-8.879 10.102-15.9v-12.123c.001-9.705-7.896-17.602-17.601-17.602zm-93.516 17.602c0-1.435 1.167-2.602 2.602-2.602h9.508c.013 0 .026.002.039.002s.026-.002.039-.002h71.743c.013 0 .025.002.039.002s.026-.002.039-.002h9.508c1.435 0 2.602 1.167 2.602 2.602v12.122c0 1.435-1.167 2.602-2.602 2.602h-90.914c-1.435 0-2.602-1.167-2.602-2.602v-12.122zm73.313 63.211h-50.508c-7.005 0-12.703-5.698-12.703-12.703v-20.784h75.914v20.784c0 7.005-5.698 12.703-12.703 12.703z"/><path d="m334.54 263.828c-2.929 2.93-2.929 7.678 0 10.607l32.325 32.325c1.465 1.464 3.385 2.196 5.304 2.196s3.839-.732 5.304-2.196c2.929-2.93 2.929-7.678 0-10.607l-32.325-32.325c-2.93-2.928-7.678-2.928-10.608 0z"/><path d="m139.831 308.957c1.919 0 3.839-.732 5.304-2.196l32.325-32.325c2.929-2.93 2.929-7.678 0-10.607-2.93-2.928-7.678-2.928-10.607 0l-32.325 32.325c-2.929 2.93-2.929 7.678 0 10.607 1.464 1.464 3.384 2.196 5.303 2.196z"/></g></g></svg>