<?xml version="1.0" encoding="iso-8859-1"?>
<!-- Generator: Adobe Illustrator 19.0.0, SVG Export Plug-In . SVG Version: 6.00 Build 0)  -->
<svg version="1.1" id="Capa_1" xmlns="http://www.w3.org/2000/svg" xmlns:xlink="http://www.w3.org/1999/xlink" x="0px" y="0px"
	 viewBox="0 0 512 512" style="enable-background:new 0 0 512 512;" xml:space="preserve">
<path style="fill:#FF5D5D;" d="M216,256H50c-22.091,0-40,17.909-40,40v166c0,22.091,17.909,40,40,40h166c22.091,0,40-17.909,40-40
	V296C256,273.909,238.091,256,216,256z"/>
<path style="fill:#72D8FF;" d="M462,256H296c-22.091,0-40,17.909-40,40v166c0,22.091,17.909,40,40,40h166c22.091,0,40-17.909,40-40
	V296C502,273.909,484.091,256,462,256z"/>
<path style="fill:#A0E557;" d="M339,10H173c-22.091,0-40,17.909-40,40v166c0,22.091,17.909,40,40,40h166c22.091,0,40-17.909,40-40
	V50C379,27.909,361.091,10,339,10z"/>
<path d="M242.227,163c-5.522,0-10,4.477-10,10s4.478,10,10,10h31.599c5.522,0,10-4.477,10-10s-4.478-10-10-10h-5.8V93
	c0-4.508-3.017-8.459-7.365-9.646c-4.346-1.188-8.955,0.681-11.246,4.563l-14.012,23.735c-2.808,4.756-1.229,10.887,3.527,13.695
	c2.877,1.698,6.254,1.791,9.096,0.549V163H242.227z"/>
<path d="M157.055,409h-21.669c12.43-12.798,25.777-30.763,25.777-48.891c0-18.607-12.502-31.109-31.108-31.109
	c-17.153,0-31.109,13.956-31.109,31.109c0,5.523,4.478,10,10,10s10-4.477,10-10c0-6.125,4.983-11.109,11.109-11.109
	c9.957,0,11.108,6.34,11.108,11.109c0,18.531-28.251,43.54-38.142,50.834c-3.481,2.56-4.925,7.067-3.578,11.174
	c1.348,4.106,5.181,6.883,9.502,6.883h48.109c5.522,0,10-4.477,10-10S162.577,409,157.055,409z"/>
<path d="M377.68,329.187h-17.305c-5.522,0-10,4.477-10,10s4.478,10,10,10h17.305c5.483,0,9.945,4.461,9.945,9.946
	c0,4.986-3.691,9.114-8.481,9.826c-0.485-0.023-0.973-0.037-1.464-0.037h-17.305c-5.522,0-10,4.477-10,10s4.478,10,10,10h6.961
	c0.558,0.097,1.129,0.157,1.714,0.157h8.629c0.491,0,0.979-0.014,1.464-0.037c4.79,0.712,8.481,4.84,8.481,9.826
	c0,5.484-4.462,9.946-9.945,9.946h-17.305c-5.522,0-10,4.477-10,10s4.478,10,10,10h17.305c16.512,0,29.945-13.434,29.945-29.946
	c0-7.618-2.864-14.577-7.566-19.867c4.702-5.291,7.566-12.249,7.566-19.867C407.625,342.621,394.191,329.187,377.68,329.187z"/>
<path d="M462,246h-83.027c6.292-8.363,10.027-18.753,10.027-30v-44.667c0-5.523-4.478-10-10-10s-10,4.477-10,10V216
	c0,16.542-13.458,30-30,30H173c-16.542,0-30-13.458-30-30V50c0-16.542,13.458-30,30-30h166c16.542,0,30,13.458,30,30v38
	c0,5.523,4.478,10,10,10s10-4.477,10-10V50c0-27.57-22.43-50-50-50H173c-27.57,0-50,22.43-50,50v166
	c0,11.247,3.735,21.637,10.027,30H50c-27.57,0-50,22.43-50,50v166c0,27.57,22.43,50,50,50h166c16.339,0,30.87-7.878,40-20.035
	C265.13,504.122,279.661,512,296,512h166c27.57,0,50-22.43,50-50V296C512,268.43,489.57,246,462,246z M256.027,266
	c-0.009,0.012-0.019,0.023-0.027,0.035c-0.009-0.012-0.019-0.023-0.027-0.035H256.027z M216,492H50c-16.542,0-30-13.458-30-30V296
	c0-16.542,13.458-30,30-30h166c16.542,0,30,13.458,30,30v166C246,478.542,232.542,492,216,492z M492,462c0,16.542-13.458,30-30,30
	H296c-16.542,0-30-13.458-30-30V296c0-16.542,13.458-30,30-30h166c16.542,0,30,13.458,30,30V462z"/>
<path d="M379,123c-2.63,0-5.21,1.07-7.07,2.93c-1.86,1.86-2.93,4.44-2.93,7.07s1.069,5.21,2.93,7.07S376.37,143,379,143
	s5.21-1.07,7.069-2.93c1.86-1.86,2.931-4.44,2.931-7.07s-1.07-5.21-2.931-7.07C384.21,124.07,381.63,123,379,123z"/>
<g>
</g>
<g>
</g>
<g>
</g>
<g>
</g>
<g>
</g>
<g>
</g>
<g>
</g>
<g>
</g>
<g>
</g>
<g>
</g>
<g>
</g>
<g>
</g>
<g>
</g>
<g>
</g>
<g>
</g>
</svg>
