<?xml version="1.0" encoding="UTF-8" standalone="no"?>
<svg
   xmlns:dc="http://purl.org/dc/elements/1.1/"
   xmlns:cc="http://creativecommons.org/ns#"
   xmlns:rdf="http://www.w3.org/1999/02/22-rdf-syntax-ns#"
   xmlns:svg="http://www.w3.org/2000/svg"
   xmlns="http://www.w3.org/2000/svg"
   xmlns:sodipodi="http://sodipodi.sourceforge.net/DTD/sodipodi-0.dtd"
   xmlns:inkscape="http://www.inkscape.org/namespaces/inkscape"
   id="Layer_3"
   enable-background="new 0 0 64 64"
   height="512"
   viewBox="0 0 64 64"
   width="512"
   version="1.1"
   sodipodi:docname="patience.svg"
   inkscape:version="0.92.4 (5da689c313, 2019-01-14)">
  <metadata
     id="metadata81">
    <rdf:RDF>
      <cc:Work
         rdf:about="">
        <dc:format>image/svg+xml</dc:format>
        <dc:type
           rdf:resource="http://purl.org/dc/dcmitype/StillImage" />
      </cc:Work>
    </rdf:RDF>
  </metadata>
  <defs
     id="defs79" />
  <sodipodi:namedview
     pagecolor="#ffffff"
     bordercolor="#666666"
     borderopacity="1"
     objecttolerance="10"
     gridtolerance="10"
     guidetolerance="10"
     inkscape:pageopacity="0"
     inkscape:pageshadow="2"
     inkscape:window-width="1920"
     inkscape:window-height="1017"
     id="namedview77"
     showgrid="false"
     inkscape:zoom="0.32593203"
     inkscape:cx="-172.28241"
     inkscape:cy="338.41079"
     inkscape:window-x="-8"
     inkscape:window-y="-8"
     inkscape:window-maximized="1"
     inkscape:current-layer="g74" />
  <g
     id="g74">
    <path
       d="m 2,10.329689 h 60 v 34 H 2 Z"
       id="path12"
       inkscape:connector-curvature="0"
       style="fill:#845b59" />
    <path
       d="m 6,14.329689 h 52 v 26 H 6 Z"
       id="path14"
       inkscape:connector-curvature="0"
       style="fill:#dce2e9" />
    <path
       d="m 44,54.329689 v -4 c 0,-1.105 0.895,-2 2,-2 h 8 c 1.105,0 2,0.895 2,2 v 4 z"
       id="path28"
       inkscape:connector-curvature="0"
       style="fill:#668000" />
    <g
       id="g32"
       transform="translate(0,-7.6703108)">
      <path
         d="m 52,59 h 2 v 3 h -2 z"
         id="path30"
         inkscape:connector-curvature="0"
         style="fill:#aad400" />
    </g>
    <g
       id="g36"
       transform="translate(0,-7.6703108)">
      <path
         d="m 46,59 h 2 v 3 h -2 z"
         id="path34"
         inkscape:connector-curvature="0"
         style="fill:#aad400" />
    </g>
    <path
       d="m 8,54.329689 v -4 c 0,-1.105 0.895,-2 2,-2 h 8 c 1.105,0 2,0.895 2,2 v 4 z"
       id="path38"
       inkscape:connector-curvature="0"
       style="fill:#8f6af4" />
    <g
       id="g42"
       transform="translate(0,-7.6703108)">
      <path
         d="m 16,59 h 2 v 3 h -2 z"
         id="path40"
         inkscape:connector-curvature="0"
         style="fill:#bca6f8" />
    </g>
    <g
       id="g46"
       transform="translate(0,-7.6703108)">
      <path
         d="m 10,59 h 2 v 3 h -2 z"
         id="path44"
         inkscape:connector-curvature="0"
         style="fill:#bca6f8" />
    </g>
    <g
       id="g54"
       transform="translate(0,-7.6703108)"
       style="fill:#eecfae">
      <path
         d="m 14,46 c 1.657,0 3,1.343 3,3 v 2 c 0,1.657 -1.343,3 -3,3 -1.657,0 -3,-1.343 -3,-3 v -2 c 0,-1.657 1.343,-3 3,-3 z"
         id="path50"
         inkscape:connector-curvature="0" />
      <path
         d="m 50,46 c 1.657,0 3,1.343 3,3 v 2 c 0,1.657 -1.343,3 -3,3 -1.657,0 -3,-1.343 -3,-3 v -2 c 0,-1.657 1.343,-3 3,-3 z"
         id="path52"
         inkscape:connector-curvature="0" />
    </g>
    <path
       d="m 40,18.329689 h 4 v 6 h -4 z"
       id="path56"
       inkscape:connector-curvature="0"
       style="fill:#646977" />
    <path
       d="m 32,18.329689 h 4 v 6 h -4 z"
       id="path58"
       inkscape:connector-curvature="0"
       style="fill:#646977" />
    <path
       d="m 28,18.329689 h 4 v 6 h -4 z"
       id="path60"
       inkscape:connector-curvature="0"
       style="fill:#8b909f" />
    <path
       d="m 32,28.329689 h 4 v 6 h -4 z"
       id="path62"
       inkscape:connector-curvature="0"
       style="fill:#646977" />
    <path
       d="m 28,28.329689 h 4 v 6 h -4 z"
       id="path64"
       inkscape:connector-curvature="0"
       style="fill:#8b909f" />
    <path
       d="m 14,28.329689 h 4 v 6 h -4 z"
       id="path66"
       inkscape:connector-curvature="0"
       style="fill:#646977" />
    <path
       d="m 10,28.329689 h 4 v 6 h -4 z"
       id="path68"
       inkscape:connector-curvature="0"
       style="fill:#8b909f" />
    <path
       d="m 50,28.329689 h 4 v 6 h -4 z"
       id="path70"
       inkscape:connector-curvature="0"
       style="fill:#646977" />
    <path
       d="m 46,28.329689 h 4 v 6 h -4 z"
       id="path72"
       inkscape:connector-curvature="0"
       style="fill:#8b909f" />
  </g>
</svg>
