<svg id="Capa_1" enable-background="new 0 0 512 512" height="512" viewBox="0 0 512 512" width="512" xmlns="http://www.w3.org/2000/svg"><g><g clip-rule="evenodd" fill-rule="evenodd"><path d="m256.24 318.363 8.845 86.685-9.1 99.469c-33.761 0-90.709 0-124.497 0-6.378 0-11.594-5.216-11.594-11.594v-174.39l67.492-8.391z" fill="#6aa2e6"/><path d="m231.721 318.533h24.265v185.983h-24.265z" fill="#5a94db"/><path d="m392.077 127.759h-136.092l-16.016 90.909 16.016 99.865 72.255 10.177 63.837-10.177c23.867 0 43.398-19.532 43.398-43.399v-104.004c.001-23.868-19.531-43.371-43.398-43.371z" fill="#ccf49f"/><path d="m392.077 127.759h-24.266c23.868 0 43.398 19.503 43.398 43.371v104.004c0 23.867-19.53 43.399-43.398 43.399h24.266c23.867 0 43.398-19.532 43.398-43.399v-104.004c.001-23.868-19.531-43.371-43.398-43.371z" fill="#b3e59f"/><path d="m119.895 127.759h136.091v62.618c0 13.663 12.954 15.137 26.051 10.602 14.882-5.159 21.543-18.17 39.656-18.17 27.694 0 42.406 18.057 42.406 40.338 0 22.252-14.712 40.309-42.406 40.309-18.113 0-24.774-12.982-39.656-18.17-13.097-4.536-26.051-3.062-26.051 10.63v62.618h-136.091c-23.84 0-43.37-19.532-43.37-43.399v-104.005c-.001-23.868 19.53-43.371 43.37-43.371z" fill="#a5cdff"/><path d="m255.985 318.533v60.208c0 13.692-12.926 15.166-26.022 10.603-14.91-5.159-21.543-18.171-39.656-18.171-27.723 0-42.406 18.058-42.406 40.338s14.684 40.337 42.406 40.337c18.113 0 24.746-13.011 39.656-18.17 13.097-4.536 26.022-3.09 26.022 10.602v60.237h124.525c6.379 0 11.566-5.216 11.566-11.594v-174.39z" fill="#b3e59f"/><path d="m225.598 87.79c0 27.071-22.166 49.21-49.237 49.21s-49.21-22.139-49.21-49.21c0-17.574 0-35.149 0-52.726 0-15.165 12.388-27.553 27.554-27.553h63.552c5.046 0 7.342 2.892 7.342 7.313-.001 24.322-.001 48.645-.001 72.966z" fill="#ffcbbe"/><path d="m127.15 35.064v15.875h98.447v-36.114c0-4.422-2.296-7.313-7.342-7.313h-63.552c-15.165 0-27.553 12.387-27.553 27.552z" fill="#c68b87"/><path d="m384.849 87.79c0 27.071-22.167 49.21-49.238 49.21-27.042 0-49.209-22.139-49.209-49.21v-52.726c0-15.165 12.415-27.553 27.553-27.553h43.342c15.137 0 27.553 12.388 27.553 27.553v52.726z" fill="#ffcbbe"/><path d="m286.401 35.064v19.163c13.89 5.131 25.483.822 32.145-2.977 5.188-2.947 6.038-3.515 11.169.965 23.612 20.692 55.134 9.212 55.134 9.212v-26.363c0-15.165-12.416-27.553-27.553-27.553h-43.342c-15.138.001-27.553 12.388-27.553 27.553z" fill="#c68b87"/><path d="m201.306 50.939v36.851c0 22.904-15.817 42.266-37.078 47.708 3.884.992 7.966 1.502 12.133 1.502 27.071 0 49.237-22.139 49.237-49.21v-36.851z" fill="#f7beaf"/><path d="m201.306 14.825v36.114h24.292v-36.114c0-4.422-2.296-7.313-7.342-7.313h-24.264c5.045 0 7.314 2.891 7.314 7.313z" fill="#bd7d79"/><path d="m360.584 35.064v29.425c13.577.822 24.265-3.062 24.265-3.062v-26.363c0-15.165-12.416-27.553-27.553-27.553h-24.265c15.137.001 27.553 12.388 27.553 27.553z" fill="#bd7d79"/><path d="m360.584 64.489v23.301c0 22.904-15.846 42.266-37.106 47.708 3.883.992 7.965 1.502 12.132 1.502 27.071 0 49.238-22.139 49.238-49.21v-26.362c.001 0-10.687 3.884-24.264 3.061z" fill="#f7beaf"/><path d="m282.036 200.979c-13.097 4.535-26.051 3.061-26.051-10.602v-62.618h-24.265v187.685 2.892.198h24.236.028v-.198-62.42c0-13.691 12.954-15.166 26.051-10.63 14.882 5.188 21.543 18.17 39.656 18.17 27.694 0 42.406-18.057 42.406-40.309 0-22.281-14.712-40.338-42.406-40.338-18.112 0-24.773 13.01-39.655 18.17z" fill="#8abfff"/><path d="m367.811 322.389v170.534c0 6.378-5.215 11.594-11.564 11.594h24.264c6.379 0 11.566-5.216 11.566-11.594v-174.39h-24.266z" fill="#95d6a4"/></g><path d="m210.716 512c-4.139 0-7.483-3.346-7.483-7.483 0-4.139 3.345-7.513 7.483-7.513h37.786v-52.725c0-1.673-.142-3.657-1.814-4.564-3.515-1.928-10.743-.199-14.286 1.02-4.876 1.673-9.015 4.621-13.068 7.484-7.965 5.641-15.731 11.14-29.026 11.14-15.335 0-27.354-4.961-35.83-13.011-9.297-8.816-14.088-21.203-14.088-34.838s4.791-25.994 14.088-34.839c8.476-8.051 20.495-12.982 35.83-12.982 13.295 0 21.062 5.471 29.026 11.111 4.054 2.892 8.192 5.811 13.068 7.483 3.43 1.191 6.803 1.871 9.808 1.871 1.871 0 3.43-.254 4.479-.85.681-.369 1.162-.908 1.446-1.702.227-.68.368-1.643.368-2.862v-52.725h-121.097v166.906c0 2.239 1.842 4.081 4.082 4.081h45.269c4.139 0 7.512 3.374 7.512 7.513 0 4.138-3.373 7.483-7.512 7.483h-45.269c-5.244 0-10.035-2.126-13.493-5.584-3.458-3.459-5.584-8.221-5.584-13.493v-167.443c-11.027-1.644-20.92-6.86-28.46-14.4-9.213-9.213-14.938-21.941-14.938-35.944v-35.008c0-4.139 3.373-7.512 7.512-7.512s7.483 3.373 7.483 7.512v35.008c0 9.865 4.054 18.822 10.545 25.343 4.818 4.818 10.97 8.277 17.858 9.751v-119.057c0-4.139 3.345-7.512 7.483-7.512 4.139 0 7.512 3.373 7.512 7.512v119.851h121.096v-55.107c0-2.835.425-5.386 1.247-7.711 1.588-4.62 4.507-7.88 8.334-9.978 3.43-1.899 7.427-2.749 11.707-2.749 4.563 0 9.638 1.02 14.684 2.749 6.831 2.382 11.877 5.953 16.81 9.439 5.952 4.195 11.735 8.306 20.409 8.306 11.226 0 19.758-3.373 25.512-8.844 6.208-5.868 9.383-14.429 9.383-23.981 0-9.581-3.175-18.114-9.383-24.011-5.754-5.471-14.286-8.844-25.512-8.844-8.674 0-14.457 4.11-20.409 8.306-4.933 3.515-9.979 7.059-16.81 9.439-5.046 1.757-10.12 2.749-14.684 2.749-4.28 0-8.277-.851-11.707-2.721-3.827-2.126-6.746-5.386-8.334-9.979-.822-2.352-1.247-4.903-1.247-7.71v-55.134h-41.159c-8.9 5.868-19.559 9.27-30.982 9.27-11.396 0-22.054-3.401-30.982-9.27h-25.483c-9.865 0-18.822 4.054-25.342 10.545-6.491 6.52-10.545 15.477-10.545 25.342v35.008c0 4.139-3.345 7.513-7.483 7.513s-7.512-3.374-7.512-7.513v-35.006c0-14.003 5.726-26.731 14.938-35.943 9.212-9.214 21.939-14.939 35.943-14.939h10.005c-6.463-9.213-10.262-20.41-10.262-32.457v-52.727c0-9.666 3.94-18.425 10.29-24.774 6.35-6.35 15.137-10.29 24.776-10.29h70.894c4.139 0 7.483 3.373 7.483 7.512v80.278c0 12.047-3.798 23.244-10.261 32.457h66.358c-6.463-9.213-10.261-20.41-10.261-32.457v-52.726c0-9.666 3.939-18.425 10.289-24.774s15.11-10.29 24.748-10.29h43.342c9.638 0 18.397 3.94 24.746 10.29 6.35 6.35 10.29 15.108 10.29 24.774v52.726c0 12.047-3.799 23.244-10.262 32.457h10.007c14.003 0 26.73 5.726 35.943 14.939 9.24 9.212 14.967 21.941 14.967 35.943v35.008c0 4.139-3.374 7.513-7.512 7.513-4.139 0-7.513-3.374-7.513-7.513v-35.007c0-9.864-4.024-18.822-10.545-25.342-6.491-6.491-15.477-10.545-25.341-10.545h-25.455c-8.93 5.868-19.588 9.27-31.012 9.27-11.396 0-22.054-3.401-30.983-9.27h-41.131v55.134c0 4.563 2.098 5.414 6.293 5.414 2.977 0 6.378-.68 9.808-1.871 4.848-1.7 9.015-4.62 13.068-7.512 7.965-5.612 15.704-11.111 29.026-11.111 15.336 0 27.354 4.932 35.83 13.011 9.27 8.815 14.06 21.203 14.06 34.839 0 13.606-4.79 25.993-14.06 34.838-8.476 8.05-20.494 12.982-35.83 12.982-13.322 0-21.062-5.471-29.026-11.112-4.054-2.891-8.221-5.811-13.068-7.512-3.543-1.219-10.771-2.947-14.314-.992-1.645.908-1.786 2.863-1.786 4.564v55.107h121.096v-119.851c0-4.139 3.346-7.512 7.484-7.512s7.512 3.373 7.512 7.512v119.057c6.859-1.474 13.039-4.933 17.829-9.751 6.521-6.521 10.545-15.478 10.545-25.343v-35.008c0-4.139 3.374-7.512 7.513-7.512 4.138 0 7.512 3.373 7.512 7.512v35.008c0 14.003-5.727 26.731-14.967 35.944-7.541 7.54-17.405 12.756-28.432 14.4v167.444c0 5.272-2.154 10.034-5.613 13.493-3.458 3.458-8.221 5.584-13.465 5.584h-39.486c-4.139 0-7.483-3.346-7.483-7.483 0-4.139 3.345-7.513 7.483-7.513h39.486c1.106 0 2.127-.453 2.863-1.189.737-.766 1.219-1.786 1.219-2.892v-166.905h-121.095v52.725c0 2.806-.425 5.387-1.247 7.711-1.588 4.621-4.507 7.881-8.334 9.979-3.43 1.871-7.427 2.749-11.707 2.749-4.564 0-9.638-1.02-14.684-2.749-6.859-2.382-11.877-5.953-16.81-9.439-5.952-4.195-11.735-8.307-20.409-8.307-11.225 0-19.758 3.345-25.54 8.845-6.18 5.868-9.355 14.4-9.355 23.981s3.175 18.113 9.355 24.01c5.782 5.471 14.315 8.815 25.54 8.815 8.674 0 14.457-4.082 20.409-8.306 4.933-3.486 9.95-7.029 16.81-9.411 5.046-1.757 10.12-2.749 14.684-2.749 4.28 0 8.277.85 11.707 2.721 3.827 2.126 6.746 5.386 8.334 9.979.822 2.324 1.247 4.903 1.247 7.71v52.725h43.568c4.139 0 7.483 3.374 7.483 7.513 0 4.138-3.345 7.483-7.483 7.483h-96.349zm-76.053-468.544h83.423v-28.46h-63.382c-5.5 0-10.517 2.268-14.146 5.895-3.656 3.657-5.895 8.646-5.895 14.173zm83.423 14.996h-83.423v29.338c0 11.48 4.677 21.912 12.245 29.452 7.568 7.568 18 12.275 29.452 12.275 11.48 0 21.912-4.707 29.452-12.275 7.568-7.568 12.273-17.972 12.273-29.452v-29.338zm159.251 12.472c-12.729 2.154-35.349 2.75-53.66-14.088-6.18 3.798-16.781 8.504-29.764 6.888v24.066c0 11.48 4.677 21.912 12.245 29.452 7.569 7.568 18 12.275 29.452 12.275 11.48 0 21.912-4.707 29.48-12.275s12.246-17.972 12.246-29.452v-16.866zm-83.424-22.337c9.184 1.786 18.709-1.134 25.738-7.201 3.118-2.721 7.824-2.381 10.545.738 15.562 17.915 37.417 15.732 47.141 13.606v-20.666c0-5.527-2.24-10.516-5.897-14.173-3.629-3.628-8.646-5.895-14.145-5.895h-43.342c-5.5 0-10.517 2.268-14.146 5.895-3.656 3.657-5.896 8.646-5.896 14.173v13.523z"/></g></svg>