<svg id="Flat" height="512" viewBox="0 0 512 512" width="512" xmlns="http://www.w3.org/2000/svg"><path d="m416 195.53v271.98a16 16 0 0 1 -12.82 15.68 258.372 258.372 0 0 1 -51.18 4.81c-8.3 0-15.9-.34-22.75-.89a236.841 236.841 0 0 1 -28.43-3.92 16 16 0 0 1 -12.82-15.68v-271.98a23.989 23.989 0 0 1 9.01-18.74l19.8-15.84 11.19-8.95v-128h48v128l30.99 24.79a23.989 23.989 0 0 1 9.01 18.74z" fill="#686869"/><path d="m328 24h48v104h-48z" fill="#d4342f"/><path d="m328 48h48v16h-48z" fill="#bd3a2d"/><path d="m336 195.54v271.97a31.925 31.925 0 0 1 -6.75 19.6 236.841 236.841 0 0 1 -28.43-3.92 16 16 0 0 1 -12.82-15.68v-271.98a23.989 23.989 0 0 1 9.01-18.74l19.8-15.84 4.18 3.35a39.807 39.807 0 0 1 15.01 31.24z" fill="#4e4e4f"/><path d="m288 224h128v192h-128z" fill="#e3e4e2"/><path d="m288 224h48v192h-48z" fill="#c9c9c8"/><path d="m344 344h16v16h-16z" fill="#b2b1b4"/><path d="m344 376h40v16h-40z" fill="#b2b1b4"/><path d="m384 288a32.01 32.01 0 1 1 -32-32 32 32 0 0 1 32 32z" fill="#d4342f"/><path d="m344 280h16v16h-16z" fill="#bd3a2d"/><path d="m336 260.28v55.44a32.012 32.012 0 0 1 0-55.44z" fill="#bd3a2d"/><path d="m96 195.53v271.98a16 16 0 0 0 12.82 15.68 258.372 258.372 0 0 0 51.18 4.81c8.3 0 15.9-.34 22.75-.89a236.841 236.841 0 0 0 28.43-3.92 16 16 0 0 0 12.82-15.68v-271.98a23.989 23.989 0 0 0 -9.01-18.74l-19.8-15.84-11.19-8.95v-128h-48v128l-30.99 24.79a23.989 23.989 0 0 0 -9.01 18.74z" fill="#686869"/><path d="m136 24h48v104h-48z" fill="#d4342f"/><path d="m136 48h48v16h-48z" fill="#bd3a2d"/><path d="m176 195.54v271.97a31.925 31.925 0 0 0 6.75 19.6 236.841 236.841 0 0 0 28.43-3.92 16 16 0 0 0 12.82-15.68v-271.98a23.989 23.989 0 0 0 -9.01-18.74l-19.8-15.84-4.18 3.35a39.807 39.807 0 0 0 -15.01 31.24z" fill="#4e4e4f"/><path d="m96 224h128v192h-128z" fill="#e3e4e2"/><path d="m176 224h48v192h-48z" fill="#c9c9c8"/><path d="m152 344h16v16h-16z" fill="#b2b1b4"/><path d="m128 376h40v16h-40z" fill="#b2b1b4"/><path d="m128 288a32.01 32.01 0 1 0 32-32 32 32 0 0 0 -32 32z" fill="#d4342f"/><path d="m152 280h16v16h-16z" fill="#bd3a2d"/><path d="m176 260.28v55.44a32.012 32.012 0 0 0 0-55.44z" fill="#bd3a2d"/><path d="m320 467.513v-271.978a24 24 0 0 0 -9.007-18.741l-30.993-24.794v-128h-48v128l-30.993 24.794a24 24 0 0 0 -9.007 18.741v271.978a16 16 0 0 0 12.821 15.687 258.536 258.536 0 0 0 51.179 4.8 258.536 258.536 0 0 0 51.179-4.805 16 16 0 0 0 12.821-15.682z" fill="#686869"/><path d="m192 224h128v192h-128z" fill="#e3e4e2"/><path d="m248 344h16v16h-16z" fill="#b2b1b4"/><path d="m224 376h64v16h-64z" fill="#b2b1b4"/><circle cx="256" cy="288" fill="#d4342f" r="32"/><path d="m232 24h48v104h-48z" fill="#d4342f"/><g fill="#bd3a2d"><path d="m232 48h48v16h-48z"/><path d="m248 280h16v16h-16z"/></g></svg>