<svg id="Layer_3" height="512" viewBox="0 0 64 64" width="512" xmlns="http://www.w3.org/2000/svg" data-name="Layer 3"><path d="m0 53h64v11h-64z" fill="#84d7f4"/><path d="m25 36.13v12.87h-12v-16l5-5 5.751.614z" fill="#2565a3"/><path d="m20.58 28.41-2.58 6.59v14h-5v-16l5-5z" fill="#154a75"/><path d="m45 43-.27.54-2.73 5.46h-7l-3-6z" fill="#c86a25"/><path d="m44.73 43.54-2.73 5.46h-7l-1.12-2.24a19.534 19.534 0 0 0 2.2-.09 18.061 18.061 0 0 0 5.52-1.36 15.5 15.5 0 0 0 3.13-1.77z" fill="#a8541b"/><path d="m48 7a6 6 0 0 1 12 0z" fill="#ace1ef"/><path d="m43 24a5 5 0 0 1 10 0z" fill="#ace1ef"/><path d="m17.36 16h7.1v5.92h-7.1z" fill="#933815"/><path d="m25 22v7h-2l-5-1v-6z" fill="#edba70"/><path d="m23 29-5-1v-6h3.55v5.11z" fill="#ce964d"/><path d="m20.997 16h4.003v6.003h-4.003z" fill="#b24524"/><path d="m31 23h-19a1 1 0 0 1 0-2h19a1 1 0 0 1 0 2z" fill="#933815"/><path d="m4 56h-3a1 1 0 0 1 0-2h3a1 1 0 0 1 0 2z" fill="#2d99b2"/><path d="m63 56h-3a1 1 0 0 1 0-2h3a1 1 0 0 1 0 2z" fill="#2d99b2"/><path d="m43 63h-2a1 1 0 0 1 0-2h2a1 1 0 0 1 0 2z" fill="#2d99b2"/><path d="m37 63h-35a1 1 0 0 1 0-2h35a1 1 0 0 1 0 2z" fill="#2d99b2"/><g fill="#ace1ef"><path d="m63 8h-3a1 1 0 0 1 -1-1 5 5 0 0 0 -10 0 1 1 0 0 1 -1 1h-9a1 1 0 0 1 0-2h8.071a7 7 0 0 1 13.858 0h2.071a1 1 0 0 1 0 2z"/><path d="m36 8h-4a1 1 0 0 1 0-2h4a1 1 0 0 1 0 2z"/><path d="m58 20a1 1 0 0 1 -1-1 4 4 0 0 0 -8 0 1 1 0 0 1 -2 0 6 6 0 0 1 12 0 1 1 0 0 1 -1 1z"/><path d="m63 25h-10a1 1 0 0 1 -1-1 4 4 0 0 0 -8 0 1 1 0 0 1 -1 1h-5a1 1 0 0 1 0-2h4.083a6 6 0 0 1 11.833 0h9.084a1 1 0 0 1 0 2z"/></g><path d="m53 63h-1a1 1 0 0 1 0-2h1a1 1 0 0 1 0 2z" fill="#2d99b2"/><path d="m57 63h-1a1 1 0 0 1 0-2h1a1 1 0 0 1 0 2z" fill="#2d99b2"/><path d="m59.008 40h-6.008a1 1 0 0 0 -.848.47l-4.706 7.53h-35.946l-2.7-3.6a1 1 0 0 0 -.8-.4h-7a1 1 0 0 0 0 2h1.434l5.709 9.515a1 1 0 0 0 .857.485h42a1 1 0 0 0 .868-.5l7.71-13.5 4.414.037.017-2z" fill="#844214"/><path d="m15 63a1 1 0 0 1 -.856-1.515l18-30a1 1 0 1 1 1.715 1.029l-18 30a1 1 0 0 1 -.859.486z" fill="#933815"/><path d="m25 48a1 1 0 0 1 -.76-.35l-12-14a1 1 0 0 1 1.519-1.3l12 14a1 1 0 0 1 -.759 1.65z" fill="#134c7a"/></svg>