<svg height="512pt" viewBox="0 -2 512 512" width="512pt" xmlns="http://www.w3.org/2000/svg"><path d="m499.304688 418.0625c0 29.917969-50.777344 81.242188-50.777344 81.242188s-50.773438-51.324219-50.773438-81.242188c0-29.914062 22.730469-54.160156 50.773438-54.160156 28.046875 0 50.777344 24.246094 50.777344 54.160156zm0 0" fill="#dd352e"/><path d="m431.601562 397.753906h33.851563v33.847656h-33.851563zm0 0" fill="#fff"/><path d="m110.015625 62.625c0 29.914062-50.777344 81.242188-50.777344 81.242188s-50.777343-51.328126-50.777343-81.242188c0-29.917969 22.734374-54.164062 50.777343-54.164062 28.046875 0 50.777344 24.246093 50.777344 54.164062zm0 0" fill="#ebba16"/><path d="m42.3125 42.3125h33.851562v33.851562h-33.851562zm0 0" fill="#fff"/><g fill="#4d007e"><path d="m448.527344 507.769531c-2.257813 0-4.425782-.898437-6.015625-2.515625-5.449219-5.5-53.222657-54.734375-53.222657-87.191406 0-34.535156 26.574219-62.625 59.238282-62.625 32.667968 0 59.242187 28.089844 59.242187 62.625 0 32.457031-47.773437 81.683594-53.222656 87.191406-1.59375 1.617188-3.757813 2.515625-6.019531 2.515625zm0-135.40625c-23.332032 0-42.3125 20.503907-42.3125 45.699219 0 17.289062 23.890625 48.992188 42.304687 68.957031 15.691407-17.089843 42.324219-50.035156 42.324219-68.957031 0-25.195312-18.984375-45.699219-42.316406-45.699219zm0 0"/><path d="m465.453125 440.066406h-33.851563c-4.667968 0-8.460937-3.78125-8.460937-8.464844v-33.847656c0-4.683594 3.792969-8.464844 8.460937-8.464844h33.851563c4.671875 0 8.464844 3.78125 8.464844 8.464844v33.847656c0 4.683594-3.792969 8.464844-8.464844 8.464844zm-25.386719-16.925781h16.925782v-16.925781h-16.925782zm0 0"/><path d="m59.238281 152.332031c-2.257812 0-4.425781-.898437-6.015625-2.515625-5.449218-5.5-53.222656-54.738281-53.222656-87.191406 0-34.535156 26.574219-62.625 59.238281-62.625 32.667969 0 59.242188 28.089844 59.242188 62.625 0 32.453125-47.773438 81.683594-53.222657 87.191406-1.59375 1.617188-3.757812 2.515625-6.019531 2.515625zm0-135.40625c-23.332031 0-42.3125 20.503907-42.3125 45.699219 0 17.289062 23.890625 48.992188 42.304688 68.953125 15.691406-17.085937 42.324219-50.03125 42.324219-68.953125 0-25.195312-18.984376-45.699219-42.316407-45.699219zm0 0"/><path d="m76.164062 84.628906h-33.851562c-4.667969 0-8.460938-3.785156-8.460938-8.464844v-33.851562c0-4.679688 3.792969-8.460938 8.460938-8.460938h33.851562c4.671876 0 8.464844 3.78125 8.464844 8.460938v33.851562c0 4.679688-3.792968 8.464844-8.464844 8.464844zm-25.386718-16.925781h16.925781v-16.925781h-16.925781zm0 0"/><path d="m397.753906 507.769531h-291.96875c-25.667968 0-46.546875-20.886719-46.546875-46.546875s20.878907-46.546875 46.546875-46.546875h203.105469c16.335937 0 29.621094-13.285156 29.621094-29.617187 0-16.332032-13.285157-29.621094-29.621094-29.621094h-262.34375c-25.667969 0-46.546875-20.886719-46.546875-46.546875 0-25.65625 20.878906-46.542969 46.546875-46.542969h418.90625c16.335937 0 29.621094-13.289062 29.621094-29.621094 0-16.332031-13.285157-29.617187-29.621094-29.617187h-308.890625c-25.667969 0-46.546875-20.886719-46.546875-46.546875s20.878906-46.546875 46.546875-46.546875h228.496094c16.332031 0 29.617187-13.285156 29.617187-29.617187 0-16.335938-13.285156-29.621094-29.617187-29.621094h-215.800782c-4.671874 0-8.464843-3.785156-8.464843-8.464844s3.792969-8.460938 8.464843-8.460938h215.800782c25.667968 0 46.542968 20.886719 46.542968 46.546876 0 25.65625-20.875 46.542968-46.542968 46.542968h-228.496094c-16.332031 0-29.621094 13.289063-29.621094 29.621094s13.289063 29.621094 29.621094 29.621094h308.890625c25.667969 0 46.546875 20.882812 46.546875 46.542968 0 25.660157-20.878906 46.546876-46.546875 46.546876h-418.90625c-16.335937 0-29.621094 13.285156-29.621094 29.617187 0 16.335937 13.285157 29.621094 29.621094 29.621094h262.34375c25.667969 0 46.546875 20.886719 46.546875 46.546875s-20.878906 46.542968-46.546875 46.542968h-203.105469c-16.332031 0-29.621094 13.289063-29.621094 29.621094 0 16.332032 13.289063 29.621094 29.621094 29.621094h291.96875c4.667969 0 8.460938 3.78125 8.460938 8.460938 0 4.679687-3.792969 8.464843-8.460938 8.464843zm0 0"/></g></svg>