<svg id="Layer_1" enable-background="new 0 0 256 256" height="512" viewBox="0 0 256 256" width="512" xmlns="http://www.w3.org/2000/svg"><g><path d="m176.327 108.756c0 18.224 14.774 32.998 32.998 32.998s32.998-14.774 32.998-32.998z" fill="#63bce7"/><g><path d="m235.822 108.756c0 17.127-13.049 31.204-29.748 32.837 1.069.104 2.153.161 3.25.161 18.224 0 32.998-14.774 32.998-32.998z" fill="#63e2e7"/></g><path d="m13.678 95.162c0 18.224 14.774 32.998 32.998 32.998s32.998-14.774 32.998-32.998z" fill="#63bce7"/><g><path d="m20.178 95.162h-6.5c0 18.224 14.774 32.998 32.998 32.998 1.097 0 2.181-.056 3.25-.161-16.699-1.633-29.748-15.71-29.748-32.837z" fill="#6377e7"/></g><path d="m173.843 205.213h-91.686v-20.202c0-8.27 6.704-14.974 14.974-14.974h61.738c8.27 0 14.974 6.704 14.974 14.974z" fill="#cecece"/><g><path d="m103.631 170.037h-6.5c-8.27 0-14.974 6.704-14.974 14.974v20.202h6.5v-20.202c0-8.27 6.704-14.974 14.974-14.974z" fill="#afafaf"/></g><g><path d="m152.369 170.037h6.5c8.27 0 14.974 6.704 14.974 14.974v20.202h-6.5v-20.202c0-8.27-6.704-14.974-14.974-14.974z" fill="#e2e2e2"/></g><path d="m120.497 41.604h15.006v128.433h-15.006z" fill="#9e9e9e"/><g><path d="m120.497 41.604h6.5v128.433h-6.5z" fill="#707070"/></g><circle cx="128" cy="41.604" fill="#f8af23" r="19.847"/><g><path d="m114.653 41.604c0-9.852 7.186-18.004 16.597-19.558-1.06-.175-2.141-.289-3.25-.289-10.961 0-19.847 8.886-19.847 19.847s8.886 19.847 19.847 19.847c1.109 0 2.19-.114 3.25-.289-9.411-1.554-16.597-9.706-16.597-19.558z" fill="#f87023"/></g><circle cx="128" cy="41.604" fill="#f46275" r="8.713"/><path d="m180.971 223.27h-105.942c-4.986 0-9.029-4.042-9.029-9.029 0-4.986 4.042-9.029 9.029-9.029h105.942c4.986 0 9.029 4.042 9.029 9.029 0 4.987-4.042 9.029-9.029 9.029z" fill="#9e9e9e"/><g><path d="m72.5 214.242c0-4.986 4.042-9.029 9.029-9.029h-6.5c-4.986 0-9.029 4.042-9.029 9.029 0 4.986 4.042 9.029 9.029 9.029h6.5c-4.987-.001-9.029-4.043-9.029-9.029z" fill="#707070"/></g><g><path d="m183.5 214.242c0-4.986-4.042-9.029-9.029-9.029h6.5c4.986 0 9.029 4.042 9.029 9.029 0 4.986-4.042 9.029-9.029 9.029h-6.5c4.987-.001 9.029-4.043 9.029-9.029z" fill="#cecece"/></g><path d="m154.938 192.5h-53.875c-2.681 0-4.875-2.194-4.875-4.875 0-2.681 2.194-4.875 4.875-4.875h53.875c2.681 0 4.875 2.194 4.875 4.875-.001 2.681-2.194 4.875-4.875 4.875z" fill="#f8af23"/><path d="m195.552 175.772 13.385 13.385c.214.214.56.214.774 0l13.385-13.385c.345-.345.101-.934-.387-.934h-4.582c-.302 0-.547-.245-.547-.547v-22.987c0-.302-.245-.547-.547-.547h-15.416c-.302 0-.547.245-.547.547v22.987c0 .302-.245.547-.547.547h-4.582c-.489 0-.733.589-.389.934z" fill="#f46275"/><g><path d="m222.709 174.838h-4.582c-.302 0-.547-.245-.547-.547v-22.987c0-.302-.245-.547-.547-.547h-6.5c.302 0 .547.245.547.547v22.987c0 .302.245.547.547.547h4.582c.488 0 .732.589.387.934l-10.522 10.522 2.863 2.863c.214.214.56.214.774 0l13.385-13.385c.345-.345.101-.934-.387-.934z" fill="#f48875"/></g><g fill="#3f3679"><path d="m138.213 41.604c0-5.631-4.582-10.213-10.213-10.213s-10.213 4.582-10.213 10.213c0 5.632 4.582 10.213 10.213 10.213s10.213-4.582 10.213-10.213zm-17.426 0c0-3.977 3.236-7.213 7.213-7.213s7.213 3.236 7.213 7.213c0 3.978-3.236 7.213-7.213 7.213s-7.213-3.236-7.213-7.213z"/><path d="m27.323 232.743h-18.003c-.829 0-1.5.671-1.5 1.5s.671 1.5 1.5 1.5h18.003c.829 0 1.5-.671 1.5-1.5s-.671-1.5-1.5-1.5z"/><path d="m246.68 232.743h-18.003c-.829 0-1.5.671-1.5 1.5s.671 1.5 1.5 1.5h18.003c.829 0 1.5-.671 1.5-1.5s-.671-1.5-1.5-1.5z"/><path d="m218.479 232.743h-180.958c-.829 0-1.5.671-1.5 1.5s.671 1.5 1.5 1.5h180.959c.829 0 1.5-.671 1.5-1.5s-.672-1.5-1.501-1.5z"/><path d="m9.32 224.771h65.709 105.942 65.709c.829 0 1.5-.671 1.5-1.5s-.671-1.5-1.5-1.5h-58.363c1.961-1.913 3.183-4.579 3.183-7.529 0-5.806-4.723-10.529-10.529-10.529h-5.628v-18.702c0-9.084-7.39-16.474-16.474-16.474h-21.866v-107.605c6.281-2.938 10.893-8.835 12.042-15.896l57.855 4.836-31.888 58.163.004.007c-.116.213-.189.454-.189.714 0 19.022 15.476 34.498 34.498 34.498s34.498-15.476 34.498-34.498c0-.26-.072-.501-.189-.714l.004-.007-32.998-60.187c-.242-.441-.689-.731-1.19-.773l-60.125-5.025c.003-.15.023-.296.023-.446 0-11.771-9.576-21.347-21.347-21.347-10.716 0-19.587 7.944-21.096 18.247l-60.105-5.024c-.592-.058-1.156.253-1.44.773l-32.998 60.187.004.007c-.116.213-.189.454-.189.714 0 19.022 15.476 34.498 34.498 34.498s34.498-15.476 34.498-34.498c0-.26-.072-.501-.189-.714l.004-.007-31.655-57.737 57.325 4.791c0 .037-.006.073-.006.11 0 8.552 5.066 15.924 12.344 19.329v107.604h-21.865c-9.084 0-16.474 7.39-16.474 16.474v18.702h-5.628c-5.806 0-10.529 4.723-10.529 10.529 0 2.949 1.223 5.615 3.183 7.529h-58.363c-.829 0-1.5.671-1.5 1.5s.671 1.5 1.5 1.5zm230.469-117.515h-60.929l30.465-55.566zm-30.464 32.998c-16.866 0-30.678-13.323-31.463-29.998h62.925c-.785 16.675-14.597 29.998-31.462 29.998zm-162.65-102.159 30.465 55.567h-60.929zm0 88.564c-16.865 0-30.677-13.323-31.462-29.998h62.925c-.785 16.675-14.597 29.998-31.463 29.998zm62.978-85.055c0-10.116 8.23-18.347 18.347-18.347s18.347 8.23 18.347 18.347-8.23 18.347-18.347 18.347-18.347-8.231-18.347-18.347zm12.344 20.473c1.907.56 3.918.874 6.003.874s4.096-.314 6.003-.874v106.46h-12.006zm-38.34 122.934c0-7.43 6.044-13.474 13.474-13.474h23.366 15.006 23.366c7.43 0 13.474 6.044 13.474 13.474v18.702h-88.686zm-16.157 29.231c0-4.151 3.377-7.529 7.529-7.529h7.128 91.686 7.128c4.151 0 7.529 3.377 7.529 7.529s-3.377 7.529-7.529 7.529h-105.942c-4.152 0-7.529-3.378-7.529-7.529z"/><path d="m154.937 181.25h-53.875c-3.515 0-6.375 2.86-6.375 6.375s2.86 6.375 6.375 6.375h53.875c3.515 0 6.375-2.86 6.375-6.375s-2.859-6.375-6.375-6.375zm0 9.75h-53.875c-1.861 0-3.375-1.514-3.375-3.375s1.514-3.375 3.375-3.375h53.875c1.861 0 3.375 1.514 3.375 3.375s-1.514 3.375-3.375 3.375z"/><path d="m217.032 149.256h-15.416c-1.129 0-2.047.918-2.047 2.047v22.035h-3.63c-.831 0-1.574.496-1.892 1.264s-.144 1.644.444 2.231l13.386 13.387c.399.397.922.597 1.446.597s1.048-.199 1.448-.598l13.385-13.385c.588-.587.762-1.463.444-2.231s-1.061-1.264-1.892-1.264h-3.63v-22.035c.002-1.13-.917-2.048-2.046-2.048zm3.378 27.082-11.085 11.085-11.085-11.085h2.283c1.129 0 2.047-.918 2.047-2.047v-22.035h13.51v22.035c0 1.129.918 2.047 2.047 2.047z"/></g></g></svg>