<?xml version="1.0" encoding="iso-8859-1"?>
<!-- Generator: Adobe Illustrator 19.0.0, SVG Export Plug-In . SVG Version: 6.00 Build 0)  -->
<svg version="1.1" id="Capa_1" xmlns="http://www.w3.org/2000/svg" xmlns:xlink="http://www.w3.org/1999/xlink" x="0px" y="0px"
	 viewBox="0 0 512.001 512.001" style="enable-background:new 0 0 512.001 512.001;" xml:space="preserve">
<path style="fill:#FFCDAC;" d="M393.041,234h-4.042v-55.917h4.042c15.441,0,27.958,12.517,27.958,27.958l0,0
	C420.999,221.483,408.482,234,393.041,234z"/>
<path style="fill:#EF3C3C;" d="M469.507,162.35l-57.895-78.388C377.257,37.447,322.863,10,265.037,10h-46.999
	c-38.385,0-75.79,12.122-106.879,34.636l0,0c-26.481,19.178-42.16,49.89-42.16,82.586l0,0v50.861h378L469.507,162.35z"/>
<path style="fill:#FFCDAC;" d="M64.957,178.083h4.042V234h-4.042c-15.441,0-27.958-12.517-27.958-27.958l0,0
	C36.999,190.601,49.516,178.083,64.957,178.083z"/>
<circle style="fill:#FFFFFF;" cx="446.999" cy="179" r="28"/>
<path style="fill:#FFCDAC;" d="M388.999,160.749v63.889c0,38.66-13.711,74.117-36.536,101.775l-250.228-4.136
	c-20.84-27.017-33.236-60.88-33.236-97.639v-63.889H388.999z"/>
<g>
	<path style="fill:#FFFFFF;" d="M370.666,180H87.332c-10.125,0-18.333-8.208-18.333-18.333v-34.444
		c0-10.125,8.208-18.333,18.333-18.333h283.333c10.125,0,18.333,8.208,18.333,18.333v34.444
		C388.999,171.792,380.791,180,370.666,180z"/>
	<path style="fill:#FFFFFF;" d="M327.677,305.802c3.566-19.518,22.28-32.45,41.799-28.883s32.45,22.28,28.883,41.799
		c-2.419,13.237-11.808,23.437-23.687,27.523c11.472,12.492,18.481,29.148,18.481,47.445c0,38.754-31.416,70.17-70.17,70.17l0,0
		c-34.576,0-67.83,13.284-92.89,37.105L228.999,502l-1.093-1.039c-25.06-23.822-58.314-37.105-92.89-37.105l0,0
		c-38.754,0-70.17-31.416-70.17-70.17c0-18.297,7.009-34.953,18.481-47.445c-11.879-4.086-21.268-14.286-23.687-27.523
		c-3.566-19.518,9.365-38.232,28.883-41.799s38.232,9.365,41.799,28.883L327.677,305.802L327.677,305.802z"/>
</g>
<path style="fill:#EF3C3C;" d="M228.429,326.186c-8.02,9.762-18.171,16.072-31.241,19.365l-1.176,2.765
	c0,17.904,14.514,32.417,32.417,32.417l0,0c17.904,0,32.417-14.514,32.417-32.417l-1.122-2.752
	C246.629,342.274,236.46,335.961,228.429,326.186z"/>
<path style="fill:#FFFFFF;" d="M333.888,304.848c-5.126,3.554-6.826,4.321-15.433,4.321c-20.209,0-35.039-26.363-61.455-26.363
	c-7.348,0-17.49,2.834-28.571,12.702c-11.081-9.868-21.223-12.702-28.571-12.702c-26.416,0-41.245,26.363-61.455,26.363
	c-8.606,0-10.307-0.767-15.433-4.321c-5.63-3.904-6.06,0.092-5.112,3.164c5.488,14.899,26.078,40.303,54.288,40.303
	c26.021,0,43.74-6.863,56.282-22.129c12.543,15.266,30.262,22.129,56.282,22.129c28.21,0,48.8-25.405,54.288-40.303
	C339.948,304.94,339.518,300.944,333.888,304.848z"/>
<path d="M477.833,156.835c-0.094-0.142-0.18-0.288-0.283-0.426l-57.895-78.388C383.574,29.167,325.772,0,265.037,0h-46.999
	C177.287,0,138.3,12.634,105.294,36.537C76.305,57.53,58.999,91.432,58.999,127.223v41.332c-18.109,2.868-32,18.584-32,37.488
	c0,19.27,14.438,35.22,33.062,37.632c1.222,10.97,3.504,21.762,6.83,32.275c-13.114,10.18-20.273,27.138-17.088,44.566
	c2.158,11.808,8.837,22.135,18.318,28.982c-8.625,13.03-13.274,28.338-13.274,44.188c0,44.206,35.964,80.17,80.17,80.17
	c32.153,0,62.695,12.2,86,34.353l1.093,1.039c1.93,1.835,4.41,2.753,6.891,2.753s4.96-0.918,6.891-2.753l1.092-1.038
	c23.305-22.153,53.847-34.354,86-34.354c44.206,0,80.17-35.964,80.17-80.17c0-15.851-4.65-31.158-13.274-44.188
	c9.481-6.848,16.16-17.175,18.318-28.982c2.205-12.067-0.421-24.271-7.395-34.363c-2.728-3.947-5.999-7.378-9.685-10.234
	c3.321-10.503,5.602-21.284,6.823-32.244c16.278-2.108,29.35-14.56,32.385-30.533c5.038,2.471,10.696,3.864,16.676,3.864
	c20.953,0,38-17.047,38-38C484.999,170.735,482.336,163.08,477.833,156.835z M117.024,52.735C146.596,31.319,181.526,20,218.038,20
	h46.999c54.416,0,106.204,26.132,138.531,69.904l38.029,51.49c-16.075,2.299-28.93,14.691-31.927,30.533
	c-3.316-1.623-6.902-2.777-10.671-3.374v-41.332c0-15.623-12.71-28.334-28.333-28.334H87.332c-1.329,0-2.634,0.099-3.915,0.277
	c1.342-4.169,2.976-8.234,4.888-12.164h90.035c5.523,0,10-4.478,10-10s-4.477-10-10-10h-76.851
	C106.063,61.711,111.259,56.91,117.024,52.735z M78.999,160.749v-33.526c0-4.596,3.738-8.334,8.333-8.334h283.333
	c4.595,0,8.333,3.738,8.333,8.334v33.526v0.918c0,4.595-3.738,8.333-8.333,8.333H87.332c-4.595,0-8.333-3.738-8.333-8.333V160.749z
	 M46.999,206.042c0-7.812,5.022-14.456,12-16.921v33.842C52.021,220.497,46.999,213.854,46.999,206.042z M388.522,316.919
	c-1.682,9.203-8.235,16.814-17.103,19.865c-3.19,1.097-5.612,3.729-6.441,6.998c-0.829,3.271,0.046,6.737,2.328,9.222
	c10.218,11.127,15.846,25.575,15.846,40.682c0,33.178-26.992,60.17-60.17,60.17c-34.693,0-67.772,12.244-93.983,34.633
	c-26.21-22.391-59.288-34.633-93.983-34.633c-33.178,0-60.17-26.992-60.17-60.17c0-15.106,5.627-29.555,15.846-40.682
	c2.282-2.484,3.157-5.951,2.328-9.222c-0.829-3.27-3.251-5.901-6.441-6.998c-8.867-3.051-15.421-10.662-17.103-19.865
	c-2.569-14.062,6.781-27.594,20.844-30.164c6.813-1.243,13.702,0.238,19.399,4.175c1.527,1.055,2.914,2.257,4.157,3.575
	c-0.588,0.306-1.108,0.633-1.541,0.95c-4.437,3.249-5.982,9.191-4.033,15.507c0.053,0.17,0.11,0.339,0.171,0.507
	c7.166,19.451,31.658,46.846,63.672,46.846c5.245,0,10.187-0.281,14.877-0.816c4.209,18.987,21.169,33.234,41.405,33.234
	s37.196-14.247,41.405-33.234c4.69,0.535,9.632,0.816,14.877,0.816c32.015,0,56.506-27.395,63.672-46.846
	c0.062-0.168,0.119-0.338,0.171-0.509c1.949-6.315,0.403-12.257-4.034-15.505c-0.237-0.174-0.507-0.351-0.792-0.526
	c1.341-1.487,2.86-2.832,4.549-3.999c5.697-3.937,12.586-5.417,19.399-4.174c6.812,1.245,12.732,5.068,16.669,10.766
	C388.284,303.218,389.767,310.107,388.522,316.919z M221.779,302.977c3.791,3.377,9.51,3.377,13.301,0
	c9.937-8.849,18-10.17,21.921-10.17c10.957,0,19.843,6.175,29.25,12.713c9.656,6.71,19.642,13.649,32.204,13.649
	c0.764,0,1.491-0.007,2.186-0.021c-8.227,9.786-20.944,19.167-35.93,19.167c-23.082,0-38.057-5.698-48.556-18.477
	c-1.899-2.313-4.734-3.652-7.727-3.652s-5.827,1.34-7.727,3.652c-10.499,12.778-25.474,18.477-48.556,18.477
	c-14.986,0-27.703-9.381-35.93-19.167c0.695,0.015,1.422,0.021,2.186,0.021c12.563,0,22.548-6.939,32.204-13.649
	c9.408-6.538,18.293-12.713,29.25-12.713C203.779,292.807,211.842,294.128,221.779,302.977z M250.309,353.18
	c-2.229,10.029-11.19,17.553-21.88,17.553s-19.651-7.524-21.88-17.553c8.332-2.919,15.579-7.097,21.88-12.632
	C234.73,346.083,241.977,350.261,250.309,353.18z M371.273,267.082c-12.067-2.207-24.272,0.421-34.364,7.395
	c-8.718,6.024-14.95,14.672-17.91,24.692c-0.181,0-0.351,0-0.544,0c-6.296,0-13.013-4.668-20.791-10.073
	c-9.682-6.728-21.565-14.968-36.969-16.136c0.273-1.699,0.421-3.439,0.421-5.214c0-5.522-4.477-10-10-10s-10,4.478-10,10
	c0,6.995-5.691,12.687-12.687,12.687s-12.687-5.691-12.687-12.687c0-5.522-4.477-10-10-10s-10,4.478-10,10
	c0,1.775,0.147,3.515,0.421,5.214c-15.405,1.168-27.288,9.408-36.969,16.136c-7.538,5.238-14.077,9.771-20.205,10.047
	c-6.587-22.159-29.008-36.312-52.265-32.061c-0.519,0.095-1.028,0.21-1.54,0.322c-4.103-13.822-6.185-28.176-6.185-42.766v-35.89
	c2.636,0.813,5.434,1.252,8.333,1.252h283.333c2.899,0,5.698-0.44,8.333-1.252v35.89c0,14.594-2.084,28.943-6.189,42.764
	C372.3,267.291,371.79,267.177,371.273,267.082z M398.999,222.962V189.12c6.978,2.466,12,9.11,12,16.921
	S405.977,220.497,398.999,222.962z M446.999,197.004c-9.925,0-18-8.075-18-18s8.075-18,18-18s18,8.075,18,18
	S456.924,197.004,446.999,197.004z"/>
<path d="M213.999,87c2.63,0,5.21-1.07,7.07-2.931c1.86-1.859,2.93-4.439,2.93-7.069s-1.07-5.21-2.93-7.07s-4.44-2.93-7.07-2.93
	s-5.21,1.069-7.07,2.93c-1.86,1.86-2.93,4.44-2.93,7.07s1.07,5.21,2.93,7.069C208.789,85.93,211.369,87,213.999,87z"/>
<path d="M163.584,210.829c-12.595,0-24.215,7.362-29.603,18.756c-2.361,4.992-0.228,10.954,4.765,13.314
	c4.992,2.361,10.954,0.228,13.315-4.766c2.099-4.438,6.622-7.305,11.522-7.305s9.424,2.867,11.522,7.305
	c1.708,3.612,5.3,5.728,9.047,5.728c1.432,0,2.887-0.309,4.268-0.962c4.993-2.36,7.126-8.322,4.765-13.314
	C187.8,218.191,176.18,210.829,163.584,210.829z"/>
<path d="M292.191,210.829c-12.595,0-24.215,7.362-29.603,18.756c-2.361,4.992-0.228,10.954,4.765,13.314
	c4.993,2.361,10.955,0.228,13.315-4.766c2.099-4.438,6.622-7.305,11.522-7.305s9.424,2.867,11.522,7.305
	c1.708,3.612,5.3,5.728,9.047,5.728c1.432,0,2.887-0.309,4.268-0.962c4.993-2.36,7.126-8.322,4.765-13.314
	C316.407,218.191,304.787,210.829,292.191,210.829z"/>
<path d="M354.499,383.686c-5.523,0-10,4.478-10,10c0,11.864-9.652,21.517-21.517,21.517c-5.523,0-10,4.478-10,10s4.477,10,10,10
	c22.893,0,41.517-18.624,41.517-41.517C364.499,388.163,360.022,383.686,354.499,383.686z"/>
<path d="M289.999,421.33c-2.63,0-5.21,1.069-7.07,2.93c-1.86,1.86-2.93,4.44-2.93,7.07c0,2.64,1.07,5.21,2.93,7.069
	c1.86,1.87,4.44,2.931,7.07,2.931s5.21-1.061,7.07-2.931c1.86-1.859,2.93-4.439,2.93-7.069s-1.07-5.21-2.93-7.07
	S292.629,421.33,289.999,421.33z"/>
<g>
</g>
<g>
</g>
<g>
</g>
<g>
</g>
<g>
</g>
<g>
</g>
<g>
</g>
<g>
</g>
<g>
</g>
<g>
</g>
<g>
</g>
<g>
</g>
<g>
</g>
<g>
</g>
<g>
</g>
</svg>
