<?xml version="1.0" encoding="UTF-8" standalone="no"?>
<svg
   xmlns:dc="http://purl.org/dc/elements/1.1/"
   xmlns:cc="http://creativecommons.org/ns#"
   xmlns:rdf="http://www.w3.org/1999/02/22-rdf-syntax-ns#"
   xmlns:svg="http://www.w3.org/2000/svg"
   xmlns="http://www.w3.org/2000/svg"
   id="svg8"
   preserveAspectRatio="xMidYMid meet"
   viewBox="0 0 699 698.99999"
   height="699pt"
   width="699pt"
   version="1.0">
  <defs
     id="defs12" />
  <metadata
     id="metadata2">
Created by potrace 1.15, written by Peter Selinger 2001-2017
<rdf:RDF>
  <cc:Work
     rdf:about="">
    <dc:format>image/svg+xml</dc:format>
    <dc:type
       rdf:resource="http://purl.org/dc/dcmitype/StillImage" />
    <dc:title></dc:title>
  </cc:Work>
</rdf:RDF>
</metadata>
  <g
     style="fill:#000000;stroke:none"
     id="g6"
     transform="matrix(0.17596566,0,0,-0.17596566,-286.61588,626.36996)">
    <path
       style="fill:#800000"
       id="path4"
       d="m 127,3023 c -4,-3 -7,-659 -7,-1456 V 118 l 22,6 c 13,3 1586,6 3496,6 H 7110 V 1580 3030 H 3622 c -1919,0 -3492,-3 -3495,-7 z m 1681,-20 c 397,-3 720,-8 718,-10 -2,-2 -34,-10 -72,-17 -38,-8 -105,-22 -149,-30 -72,-15 -217,-62 -395,-129 -187,-71 -557,-283 -629,-361 -14,-14 -29,-26 -34,-26 -31,0 -434,-392 -494,-481 -9,-13 -35,-46 -58,-74 -56,-67 -160,-223 -179,-269 -8,-20 -24,-50 -36,-65 -73,-103 -254,-565 -285,-730 -8,-40 -17,-76 -20,-79 -3,-3 -5,508 -5,1136 v 1142 h 458 c 252,0 783,-3 1180,-7 z M 3000,1580 V 160 h -363 c -200,0 -837,3 -1415,7 l -1052,6 v 141 c 0,138 22,355 40,387 5,9 12,44 16,78 4,34 11,64 15,67 5,3 9,18 9,34 0,16 5,32 10,35 6,3 10,19 10,35 0,16 4,32 10,35 5,3 10,17 10,30 0,13 5,27 10,30 6,3 10,19 10,36 0,16 4,29 9,29 5,0 13,14 16,32 4,17 14,38 21,46 8,7 14,22 14,32 0,10 5,22 10,25 6,3 10,19 10,36 0,16 4,29 10,29 5,0 13,12 16,27 4,15 16,36 26,47 10,11 18,26 18,34 0,7 7,20 15,28 8,9 15,24 15,35 0,10 4,19 10,19 5,0 13,12 16,26 4,15 15,35 25,45 11,11 19,26 19,34 0,8 5,15 10,15 6,0 16,12 23,28 6,15 17,33 24,40 7,7 13,22 13,33 0,10 5,19 10,19 6,0 16,12 23,28 6,15 22,35 34,45 13,10 23,24 23,30 0,7 9,18 20,25 11,7 20,19 20,27 0,8 5,15 10,15 6,0 16,12 23,27 6,15 33,48 60,72 26,25 47,48 47,52 0,9 160,169 169,169 4,0 26,20 49,45 23,25 46,45 51,45 5,0 18,11 29,25 11,14 25,25 30,25 6,0 17,8 24,18 7,9 25,23 41,29 15,7 27,17 27,23 0,5 7,10 15,10 8,0 23,8 33,18 9,9 30,23 45,29 15,7 27,17 27,23 0,5 7,10 15,10 8,0 23,8 33,18 9,9 30,23 45,29 15,7 27,17 27,23 0,5 9,10 19,10 11,0 26,6 33,13 7,7 25,18 41,24 15,7 27,17 27,23 0,5 9,10 19,10 11,0 26,6 33,14 8,7 29,17 46,21 18,3 32,11 32,16 0,5 9,9 19,9 11,0 26,6 33,14 8,7 29,17 46,21 18,3 32,11 32,16 0,5 11,9 24,9 14,0 27,4 30,9 3,5 22,12 41,15 19,4 35,11 35,16 0,6 13,10 29,10 17,0 33,5 36,10 3,6 19,10 35,10 16,0 32,5 35,10 3,6 17,10 30,10 13,0 27,5 30,10 3,6 19,10 35,10 16,0 31,4 34,9 3,4 34,12 68,15 35,4 67,11 73,15 20,16 293,46 443,49 l 82,2 z m 195,1404 c 84,-15 175,-40 235,-66 14,-6 34,-14 45,-18 39,-14 146,-71 187,-98 22,-15 51,-33 64,-40 37,-20 195,-183 233,-240 20,-30 53,-79 73,-110 42,-63 122,-271 144,-372 7,-36 14,-95 14,-132 v -68 l -575,1 -575,1 v 579 579 h 33 c 17,0 73,-7 122,-16 z m 995,-411 c -1,-394 -2,-424 -16,-383 -30,90 -80,196 -137,290 -46,75 -186,232 -249,279 -24,17 -65,48 -93,68 -63,47 -186,108 -290,144 l -80,27 433,1 432,1 z m 2870,350 c 0,-85 -45,-438 -60,-464 -5,-9 -12,-44 -16,-78 -4,-34 -11,-64 -15,-67 -5,-3 -9,-18 -9,-34 0,-16 -4,-32 -10,-35 -5,-3 -10,-19 -10,-35 0,-16 -4,-32 -10,-35 -5,-3 -10,-17 -10,-30 0,-13 -4,-27 -10,-30 -5,-3 -10,-19 -10,-36 0,-16 -4,-29 -9,-29 -5,0 -13,-14 -16,-32 -4,-17 -14,-38 -21,-46 -8,-7 -14,-22 -14,-32 0,-10 -4,-22 -10,-25 -5,-3 -10,-19 -10,-36 0,-16 -4,-29 -10,-29 -5,0 -13,-12 -16,-27 -4,-15 -16,-36 -26,-47 -10,-11 -18,-28 -18,-38 0,-10 -4,-18 -10,-18 -5,0 -13,-12 -16,-27 -4,-15 -13,-34 -21,-41 -7,-7 -13,-22 -13,-33 0,-10 -5,-19 -10,-19 -6,0 -16,-12 -23,-27 -6,-15 -20,-36 -29,-45 -10,-10 -18,-25 -18,-33 0,-8 -4,-15 -10,-15 -5,0 -13,-12 -16,-27 -4,-16 -16,-34 -26,-41 -10,-7 -18,-18 -18,-24 0,-5 -11,-19 -25,-30 -14,-11 -25,-25 -25,-31 0,-7 -9,-18 -20,-25 -11,-7 -20,-19 -20,-27 0,-8 -5,-15 -10,-15 -6,0 -16,-12 -23,-27 -6,-15 -33,-48 -59,-72 -27,-25 -48,-48 -48,-52 0,-9 -160,-169 -169,-169 -4,0 -26,-20 -49,-45 -23,-25 -46,-45 -51,-45 -5,0 -18,-11 -29,-25 -11,-14 -25,-25 -30,-25 -6,0 -17,-8 -24,-18 -7,-9 -25,-23 -40,-29 -16,-7 -28,-17 -28,-22 0,-5 -11,-12 -25,-15 -14,-4 -25,-13 -25,-21 0,-8 -7,-15 -15,-15 -8,0 -24,-9 -35,-20 -11,-11 -24,-20 -30,-20 -5,0 -18,-8 -28,-18 -9,-9 -30,-23 -45,-29 -15,-7 -27,-17 -27,-23 0,-5 -9,-10 -19,-10 -11,0 -26,-6 -33,-13 -7,-7 -25,-18 -40,-24 -16,-7 -28,-17 -28,-23 0,-5 -9,-10 -19,-10 -11,0 -26,-6 -33,-14 -8,-7 -29,-17 -46,-21 -18,-3 -32,-11 -32,-16 0,-5 -9,-9 -19,-9 -11,0 -26,-6 -33,-14 -8,-7 -29,-17 -46,-21 -18,-3 -32,-11 -32,-16 0,-5 -11,-9 -24,-9 -14,0 -27,-4 -30,-9 -3,-5 -22,-12 -41,-15 -19,-4 -35,-11 -35,-16 0,-6 -13,-10 -29,-10 -17,0 -33,-4 -36,-10 -3,-5 -19,-10 -35,-10 -16,0 -32,-4 -35,-10 -3,-5 -17,-10 -30,-10 -13,0 -27,-4 -30,-10 -3,-5 -19,-10 -35,-10 -16,0 -31,-4 -34,-9 -3,-4 -33,-11 -67,-15 -34,-4 -69,-11 -78,-16 -25,-14 -231,-39 -378,-46 l -133,-7 v 1417 1416 h 1415 1415 z m 0,-1563 V 160 l -1217,1 c -670,1 -1202,5 -1183,9 75,17 178,39 255,54 114,24 406,127 530,189 249,123 363,194 470,290 23,20 46,37 50,37 30,0 417,379 504,495 17,22 67,87 111,145 44,58 92,130 107,160 14,30 34,67 44,81 39,55 171,358 220,503 50,150 69,224 91,364 7,39 13,72 15,72 2,0 3,-540 3,-1200 z m -3786,435 c -17,-8 -36,-21 -43,-29 -8,-9 -18,-16 -23,-16 -14,0 -126,-119 -134,-143 -4,-12 -13,-27 -20,-35 -12,-11 -14,6 -14,112 v 126 l 133,-1 c 120,-1 129,-2 101,-14 z m 216,-210 v -225 h -226 -227 l 6,60 c 11,126 113,272 231,332 77,39 131,56 179,57 l 37,1 z m 104,205 c 46,-22 84,-72 96,-124 l 8,-36 h -84 -84 v 90 c 0,100 1,101 64,70 z m 594,-44 c -12,-141 -113,-280 -252,-348 -65,-31 -91,-38 -138,-38 h -58 v 225 225 h 226 227 z m 2,-266 v -120 l -122,1 c -75,0 -115,3 -103,9 12,4 27,15 34,24 7,9 18,16 23,16 14,0 126,119 134,143 6,18 24,46 32,47 1,0 2,-54 2,-120 z m -490,-35 c 0,-85 0,-85 -26,-85 -55,0 -118,62 -134,134 l -8,36 h 84 84 z M 4190,744 V 170 h -32 c -78,0 -268,44 -358,82 -14,6 -34,14 -45,18 -39,14 -146,71 -187,98 -22,15 -51,33 -64,40 -37,20 -195,183 -233,240 -20,30 -53,79 -73,110 -42,63 -122,271 -144,372 -7,36 -14,93 -14,127 v 63 l 575,-1 575,-1 z M 3079,915 c 20,-51 78,-166 114,-225 46,-75 186,-232 249,-279 24,-17 66,-48 93,-68 69,-51 192,-110 310,-149 l 100,-33 -452,-1 h -453 v 433 c 1,398 2,428 16,387 8,-25 19,-54 23,-65 z" />
  </g>
</svg>
