<svg height="512pt" viewBox="-26 0 512 512" width="512pt" xmlns="http://www.w3.org/2000/svg"><path d="m395.820312 465.878906c21.152344-21.640625 34.179688-54.238281 34.179688-86.878906 0-66.269531-53.730469-123-120-123-14.097656 0-27.628906 2.429688-40.1875 6.898438h-.011719l-79.71875 108.902343.109375.300781c-.121094 2.277344-.191406 4.578126-.191406 6.898438 0 66.269531 53.730469 123 120 123h140zm0 0" fill="#ff637b"/><path d="m270.269531 247.988281-80.070312-108.089843h-.007813c-12.558594-4.46875-26.089844-6.898438-40.191406-6.898438-66.269531 0-120 56.730469-120 123 0 32.640625 13.03125 65.238281 34.179688 86.878906l-54.179688 36.121094h140c68.453125 0 123.46875-60.339844 119.8125-129.898438zm0 0" fill="#ffe469"/><path d="m395.820312 216.878906c21.152344-21.640625 34.179688-51.238281 34.179688-83.878906 0-70.164062-57.8125-122.96875-117.640625-122.96875-66.082031-1.675781-122.359375 54.964844-122.359375 122.96875 0 66.390625 57.761719 123 120 123h140zm0 0" fill="#61d7a8"/><path d="m210 183c-2.917969 0-5.550781 1.261719-7.390625 3.261719-1.617187 1.777343-2.609375 4.136719-2.609375 6.738281 0 5.519531 4.480469 10 10 10 .871094 0 1.722656-.109375 2.53125-.328125 4.300781-1.113281 7.46875-5.023437 7.46875-9.671875 0-5.519531-4.480469-10-10-10zm0 0"/><path d="m459.515625 259.074219c1.335937-4.125-.144531-8.644531-3.660156-11.183594l-45.179688-32.621094c18.984375-23.167969 29.324219-51.976562 29.324219-82.269531 0-69.746094-56.320312-133-130-133-69.925781 0-126.53125 57.789062-129.84375 126.519531-9.824219-2.339843-19.917969-3.519531-30.15625-3.519531-72.421875 0-130 61.761719-130 133 0 30.863281 10.734375 61.761719 29.125 84.898438l-44.671875 29.78125c-3.667969 2.445312-5.300781 7-4.023437 11.21875 1.277343 4.214843 5.164062 7.101562 9.570312 7.101562h140c10.214844 0 20.308594-1.234375 30.152344-3.683594 3.238281 69.019532 60.066406 126.683594 129.847656 126.683594h140c4.40625 0 8.292969-2.886719 9.570312-7.101562 1.277344-4.21875-.355468-8.773438-4.023437-11.21875l-44.671875-29.78125c18.394531-23.136719 29.125-54.035157 29.125-84.898438 0-47.523438-25.15625-89.417969-61.96875-113h71.96875c4.339844 0 8.183594-2.796875 9.515625-6.925781zm-39.515625 119.925781c0 29.949219-11.710938 59.816406-31.332031 79.890625-2.078125 2.128906-3.101563 5.074219-2.792969 8.03125.3125 2.960937 1.921875 5.628906 4.398438 7.277344l26.699218 17.800781h-106.972656c-59.625 0-110-51.746094-110-113 0-.144531.003906-.296875.003906-.441406 43.117188-18.730469 73.984375-60.402344 79.1875-108.164063 9.957032-2.902343 20.289063-4.394531 30.808594-4.394531 59.625 0 110 51.746094 110 113zm-110-133c-29.808594 0-54.621094-15.386719-70.1875-28.296875-4.25-3.523437-10.554688-2.9375-14.078125 1.3125-3.527344 4.25-2.941406 10.554687 1.3125 14.082031 8.632813 7.160156 19.769531 14.972656 32.9375 21.1875.007813.578125.015625 1.148438.015625 1.714844 0 2.050781-.0625 4.179688-.183594 6.339844-3.234375 57.394531-50.769531 106.660156-109.816406 106.660156h-106.972656l26.699218-17.800781c5.207032-3.46875 5.980469-10.832031 1.605469-15.308594-19.617187-20.074219-31.332031-49.941406-31.332031-79.890625 0-61.253906 50.375-113 110-113 10.523438 0 20.855469 1.492188 30.816406 4.398438.433594 3.9375 1.03125 7.855468 1.804688 11.660156 1.097656 5.410156 6.375 8.90625 11.785156 7.8125 5.414062-1.097656 8.914062-6.375 7.816406-11.789063-1.453125-7.164062-2.222656-14.800781-2.222656-22.082031 0-61.253906 50.375-113 110-113s110 51.746094 110 113c0 28.910156-11.125 56.21875-31.332031 76.890625-2.03125 2.082031-3.058594 4.945313-2.808594 7.847656.246094 2.898438 1.746094 5.546875 4.109375 7.25l29.101562 21.011719zm0 0"/><path d="m350 103c0-22.054688-17.941406-40-40-40-22.054688 0-40 17.945312-40 40 0 5.523438 4.480469 10 10 10 5.523438 0 10-4.476562 10-10 0-11.027344 8.972656-20 20-20s20 8.972656 20 20-8.972656 20-20 20c-5.519531 0-10 4.476562-10 10s4.480469 10 10 10c11.027344 0 20 8.972656 20 20s-8.972656 20-20 20-20-8.972656-20-20c0-5.523438-4.476562-10-10-10-5.519531 0-10 4.476562-10 10 0 22.054688 17.945312 40 40 40 22.058594 0 40-17.945312 40-40 0-11.933594-5.253906-22.664062-13.566406-30 8.3125-7.335938 13.566406-18.066406 13.566406-30zm0 0"/><path d="m153.660156 183.691406c-3.824218-1.5-8.183594-.511718-10.980468 2.496094l-40 43c-3.761719 4.042969-3.53125 10.371094.511718 14.132812 4.042969 3.761719 10.371094 3.535157 14.132813-.507812l22.675781-24.378906v100.566406c0 5.523438 4.480469 10 10 10 5.523438 0 10-4.476562 10-10v-126c0-4.109375-2.515625-7.804688-6.339844-9.308594zm0 0"/><path d="m270 349c0 5.523438 4.480469 10 10 10 5.523438 0 10-4.476562 10-10 0-11.464844 9.816406-21.074219 21.972656-19.902344 13.242188 1.246094 20.496094 16.441406 16.472656 29.292969-1.6875 5.40625-6.828124 21.867187-55.910156 76.957031-2.621094 2.941406-3.269531 7.148438-1.660156 10.746094 1.613281 3.59375 5.1875 5.90625 9.125 5.90625h60c5.523438 0 10-4.476562 10-10s-4.476562-10-10-10h-38.003906c33.789062-39.644531 42.195312-56.941406 45.539062-67.644531 7.71875-24.652344-7.308594-52.679688-33.683594-55.171875-23.761718-2.242188-43.851562 16.441406-43.851562 39.816406zm0 0"/></svg>