<svg height="512" viewBox="0 0 64 64" width="512" xmlns="http://www.w3.org/2000/svg"><g id="flat"><path d="m57 3h-54v58h58v-58zm0 54h-50v-50h50z" fill="#995f5b"/><path d="m7 7 25 25-25 25z" fill="#fcf05a"/><path d="m32 32-25 25h50z" fill="#e1462b"/><path d="m32 32 12-12v24z" fill="#f9bb4b"/><path d="m44 20v24l13 13v-24z" fill="#c8d952"/><path d="m57 33-26-26h26z" fill="#87cee9"/><path d="m23.015 10.308h16.971v18.385h-16.971z" fill="#fff69a" transform="matrix(.707 -.707 .707 .707 -4.562 27.985)"/><path d="m7 7 12 12 12-12z" fill="#f98c96"/><g fill="#f4f4e6"><path d="m54 15h-2v-3h-3v-2h5z"/><path d="m16 52h2v2h-2z"/><path d="m20 52h2v2h-2z"/></g><path d="m10 16h2v14h-2z" fill="#f9bb4b"/><path d="m10 32h2v2h-2z" fill="#f9bb4b"/></g></svg>