<?xml version="1.0" encoding="iso-8859-1"?>
<!-- Generator: Adobe Illustrator 19.0.0, SVG Export Plug-In . SVG Version: 6.00 Build 0)  -->
<svg version="1.1" id="Capa_1" xmlns="http://www.w3.org/2000/svg" xmlns:xlink="http://www.w3.org/1999/xlink" x="0px" y="0px"
	 viewBox="0 0 409.6 409.6" style="enable-background:new 0 0 409.6 409.6;" xml:space="preserve">
<g>
	<path style="fill:#FFE600;" d="M94.399,61.44l31.307-31.307c5.333-5.333,5.333-13.974,0-19.306c-5.327-5.333-13.979-5.333-19.306,0
		L75.093,42.134L43.786,10.827c-5.327-5.333-13.979-5.333-19.306,0c-5.333,5.333-5.333,13.974,0,19.306L55.788,61.44L24.48,92.747
		c-5.333,5.333-5.333,13.974,0,19.306c2.662,2.668,6.159,4,9.653,4c3.494,0,6.991-1.333,9.653-4l31.307-31.307l31.307,31.307
		c2.662,2.668,6.159,4,9.653,4c3.494,0,6.991-1.333,9.653-4c5.333-5.333,5.333-13.974,0-19.306L94.399,61.44z"/>
	<path style="fill:#FFE600;" d="M116.053,122.88c-5.473,0-10.617-2.133-14.483-6.001L75.093,90.4l-26.481,26.479
		c-7.726,7.733-21.229,7.733-28.964,0c-7.984-7.987-7.984-20.973,0.003-28.96L46.133,61.44L19.654,34.959
		c-7.987-7.987-7.987-20.973,0-28.96c7.726-7.733,21.229-7.733,28.964,0L75.093,32.48l26.481-26.481
		c7.726-7.733,21.229-7.733,28.964,0c7.984,7.987,7.984,20.973-0.003,28.96L104.054,61.44l26.481,26.481
		c7.987,7.987,7.987,20.973,0,28.96C126.671,120.747,121.527,122.88,116.053,122.88z M75.093,73.919c1.746,0,3.494,0.667,4.826,2
		l31.307,31.307c2.58,2.587,7.076,2.587,9.649,0c2.664-2.661,2.664-6.994,0.003-9.653L89.573,66.266
		c-2.666-2.666-2.666-6.987,0-9.653l31.307-31.307c2.661-2.661,2.661-6.994,0-9.653c-2.58-2.587-7.076-2.587-9.649,0L79.92,46.961
		c-2.666,2.666-6.987,2.666-9.653,0L38.96,15.654c-2.58-2.587-7.076-2.587-9.649,0c-2.664,2.661-2.664,6.994-0.003,9.653
		l31.307,31.307c2.666,2.666,2.666,6.987,0,9.653L29.307,97.574c-2.661,2.661-2.661,6.994,0,9.653c2.58,2.587,7.076,2.587,9.649,0
		l31.311-31.307C71.6,74.586,73.347,73.919,75.093,73.919z"/>
	<path style="fill:#FFE600;" d="M353.812,61.44l31.307-31.307c5.333-5.333,5.333-13.974,0-19.306
		c-5.327-5.333-13.979-5.333-19.306,0l-31.307,31.307L303.2,10.827c-5.327-5.333-13.979-5.333-19.306,0
		c-5.333,5.333-5.333,13.974,0,19.306l31.307,31.307l-31.307,31.307c-5.333,5.333-5.333,13.974,0,19.306
		c2.662,2.668,6.159,4,9.653,4c3.494,0,6.991-1.333,9.653-4l31.307-31.307l31.307,31.307c2.662,2.668,6.159,4,9.653,4
		s6.991-1.333,9.653-4c5.333-5.333,5.333-13.974,0-19.306L353.812,61.44z"/>
	<path style="fill:#FFE600;" d="M375.467,122.88c-5.473,0-10.617-2.133-14.483-6.001L334.507,90.4l-26.481,26.481
		c-7.726,7.733-21.229,7.733-28.964,0c-7.984-7.987-7.984-20.973,0.003-28.96l26.481-26.481l-26.481-26.481
		c-7.987-7.987-7.987-20.973,0-28.96c7.726-7.733,21.229-7.733,28.964,0l26.477,26.481l26.481-26.481
		c7.726-7.733,21.229-7.733,28.964,0c7.984,7.987,7.984,20.973-0.003,28.96L363.467,61.44l26.481,26.481
		c7.987,7.987,7.987,20.973,0,28.96C386.084,120.747,380.94,122.88,375.467,122.88z M334.507,73.919c1.746,0,3.494,0.667,4.826,2
		l31.307,31.307c2.58,2.587,7.076,2.587,9.65,0c2.664-2.661,2.664-6.994,0.003-9.653l-31.307-31.307
		c-2.666-2.666-2.666-6.987,0-9.653l31.307-31.307c2.661-2.661,2.661-6.994,0-9.653c-2.58-2.587-7.076-2.587-9.65,0l-31.31,31.307
		c-2.666,2.666-6.987,2.666-9.653,0l-31.307-31.307c-2.58-2.587-7.076-2.587-9.65,0c-2.664,2.661-2.664,6.994-0.003,9.653
		l31.307,31.307c2.666,2.666,2.666,6.987,0,9.653L288.72,97.574c-2.661,2.661-2.661,6.994,0,9.653c2.58,2.587,7.076,2.587,9.65,0
		l31.31-31.307C331.013,74.586,332.761,73.919,334.507,73.919z"/>
</g>
<path style="fill:#EA3457;" d="M224.106,348.16l31.307-31.307c5.333-5.333,5.333-13.974,0-19.306
	c-5.327-5.333-13.979-5.333-19.306,0L204.8,328.854l-31.307-31.307c-5.327-5.333-13.979-5.333-19.306,0
	c-5.333,5.333-5.333,13.974,0,19.306l31.307,31.307l-31.307,31.307c-5.333,5.333-5.333,13.974,0,19.306c2.664,2.666,6.159,4,9.653,4
	c3.494,0,6.991-1.333,9.653-4l31.307-31.307l31.307,31.307c2.664,2.666,6.159,4,9.653,4c3.494,0,6.99-1.333,9.653-4
	c5.333-5.333,5.333-13.974,0-19.306L224.106,348.16z"/>
<path style="fill:#602F75;" d="M245.76,409.6c-5.473,0-10.617-2.133-14.483-6.001L204.8,377.12l-26.481,26.481
	c-7.726,7.733-21.229,7.733-28.964,0c-7.984-7.987-7.984-20.973,0.003-28.96l26.481-26.481l-26.481-26.481
	c-7.987-7.987-7.987-20.973,0-28.96c7.726-7.733,21.229-7.733,28.964,0L204.8,319.2l26.481-26.481
	c7.726-7.733,21.229-7.733,28.964,0c7.984,7.987,7.984,20.973-0.003,28.96L233.76,348.16l26.481,26.481
	c7.987,7.987,7.987,20.973,0,28.96C256.377,407.467,251.233,409.6,245.76,409.6z M204.8,360.639c1.746,0,3.494,0.667,4.826,2
	l31.307,31.307c2.58,2.587,7.076,2.587,9.65,0c2.664-2.661,2.664-6.994,0.003-9.653l-31.307-31.307
	c-2.666-2.666-2.666-6.987,0-9.653l31.307-31.307c2.661-2.661,2.661-6.994,0-9.653c-2.58-2.587-7.076-2.587-9.65,0l-31.311,31.307
	c-2.666,2.666-6.987,2.666-9.653,0l-31.307-31.307c-2.58-2.587-7.076-2.587-9.649,0c-2.664,2.661-2.664,6.994-0.003,9.653
	l31.307,31.307c2.666,2.666,2.666,6.987,0,9.653l-31.307,31.307c-2.661,2.661-2.661,6.994,0,9.653c2.58,2.587,7.076,2.587,9.649,0
	l31.31-31.307C201.306,361.306,203.054,360.639,204.8,360.639z"/>
<path style="fill:#EA3457;" d="M94.399,204.8l31.307-31.307c5.333-5.333,5.333-13.974,0-19.306c-5.327-5.333-13.979-5.333-19.306,0
	l-31.307,31.307l-31.307-31.307c-5.327-5.333-13.979-5.333-19.306,0c-5.333,5.333-5.333,13.974,0,19.306L55.788,204.8L24.48,236.107
	c-5.333,5.333-5.333,13.974,0,19.306c2.662,2.668,6.159,4,9.653,4c3.494,0,6.991-1.333,9.653-4l31.307-31.307l31.307,31.307
	c2.662,2.668,6.159,4,9.653,4c3.494,0,6.991-1.333,9.653-4c5.333-5.333,5.333-13.974,0-19.306L94.399,204.8z"/>
<path style="fill:#602F75;" d="M116.053,266.24c-5.473,0-10.617-2.133-14.483-6.001L75.093,233.76l-26.481,26.481
	c-7.726,7.733-21.229,7.733-28.964,0c-7.984-7.987-7.984-20.973,0.003-28.96L46.133,204.8l-26.481-26.481
	c-7.987-7.987-7.987-20.973,0-28.96c7.726-7.733,21.229-7.733,28.964,0l26.477,26.481l26.481-26.481
	c7.726-7.733,21.229-7.733,28.964,0c7.984,7.987,7.984,20.973-0.003,28.96L104.054,204.8l26.481,26.481
	c7.987,7.987,7.987,20.973,0,28.96C126.671,264.107,121.527,266.24,116.053,266.24z M75.093,217.279c1.746,0,3.494,0.667,4.826,2
	l31.307,31.307c2.58,2.587,7.076,2.587,9.649,0c2.664-2.661,2.664-6.994,0.003-9.653l-31.307-31.307
	c-2.666-2.666-2.666-6.987,0-9.653l31.307-31.307c2.661-2.661,2.661-6.994,0-9.653c-2.58-2.587-7.076-2.587-9.649,0L79.92,190.321
	c-2.666,2.666-6.987,2.666-9.653,0L38.96,159.014c-2.58-2.587-7.076-2.587-9.649,0c-2.664,2.661-2.664,6.994-0.003,9.653
	l31.307,31.307c2.666,2.666,2.666,6.987,0,9.653l-31.307,31.307c-2.661,2.661-2.661,6.994,0,9.653c2.58,2.587,7.076,2.587,9.649,0
	l31.311-31.307C71.6,217.946,73.347,217.279,75.093,217.279z"/>
<path style="fill:#FFFFFF;" d="M204.8,116.053c-30.114,0-54.613-24.499-54.613-54.613S174.686,6.827,204.8,6.827
	s54.613,24.499,54.613,54.613S234.914,116.053,204.8,116.053z M204.8,34.133c-15.056,0-27.307,12.247-27.307,27.307
	s12.25,27.307,27.307,27.307S232.107,76.5,232.107,61.44S219.856,34.133,204.8,34.133z"/>
<path style="fill:#602F75;" d="M204.8,122.88c-33.877,0-61.44-27.559-61.44-61.44S170.923,0,204.8,0s61.44,27.559,61.44,61.44
	S238.677,122.88,204.8,122.88z M204.8,13.653c-26.349,0-47.787,21.439-47.787,47.787s21.437,47.787,47.787,47.787
	s47.787-21.439,47.787-47.787S231.149,13.653,204.8,13.653z M204.8,95.573c-18.819,0-34.133-15.314-34.133-34.133
	s15.314-34.133,34.133-34.133s34.133,15.314,34.133,34.133S223.619,95.573,204.8,95.573z M204.8,40.96
	c-11.293,0-20.48,9.187-20.48,20.48s9.187,20.48,20.48,20.48c11.293,0,20.48-9.187,20.48-20.48S216.093,40.96,204.8,40.96z"/>
<path style="fill:#00E7FF;" d="M204.8,259.413c-30.114,0-54.613-24.499-54.613-54.613s24.499-54.613,54.613-54.613
	s54.613,24.499,54.613,54.613S234.914,259.413,204.8,259.413z M204.8,177.493c-15.056,0-27.307,12.247-27.307,27.307
	s12.25,27.307,27.307,27.307s27.307-12.247,27.307-27.307S219.856,177.493,204.8,177.493z"/>
<path style="fill:#602F75;" d="M204.8,266.24c-33.877,0-61.44-27.559-61.44-61.44s27.563-61.44,61.44-61.44
	s61.44,27.559,61.44,61.44S238.677,266.24,204.8,266.24z M204.8,157.013c-26.349,0-47.787,21.439-47.787,47.787
	s21.437,47.787,47.787,47.787s47.787-21.439,47.787-47.787S231.149,157.013,204.8,157.013z M204.8,238.933
	c-18.819,0-34.133-15.314-34.133-34.133s15.314-34.133,34.133-34.133s34.133,15.314,34.133,34.133S223.619,238.933,204.8,238.933z
	 M204.8,184.32c-11.293,0-20.48,9.187-20.48,20.48c0,11.293,9.187,20.48,20.48,20.48c11.293,0,20.48-9.187,20.48-20.48
	C225.28,193.507,216.093,184.32,204.8,184.32z"/>
<path style="fill:#FFE600;" d="M68.267,402.773c-30.114,0-54.613-24.499-54.613-54.613s24.499-54.613,54.613-54.613
	s54.613,24.499,54.613,54.613S98.381,402.773,68.267,402.773z M68.267,320.853c-15.056,0-27.307,12.247-27.307,27.307
	s12.25,27.307,27.307,27.307s27.307-12.247,27.307-27.307S83.323,320.853,68.267,320.853z"/>
<path style="fill:#602F75;" d="M68.267,409.6c-33.877,0-61.44-27.559-61.44-61.44s27.563-61.44,61.44-61.44
	s61.44,27.559,61.44,61.44S102.144,409.6,68.267,409.6z M68.267,300.373c-26.349,0-47.787,21.439-47.787,47.787
	s21.437,47.787,47.787,47.787s47.787-21.439,47.787-47.787S94.616,300.373,68.267,300.373z M68.267,382.293
	c-18.819,0-34.133-15.314-34.133-34.133s15.314-34.133,34.133-34.133S102.4,329.341,102.4,348.16S87.086,382.293,68.267,382.293z
	 M68.267,327.68c-11.293,0-20.48,9.187-20.48,20.48s9.187,20.48,20.48,20.48s20.48-9.187,20.48-20.48S79.56,327.68,68.267,327.68z"
	/>
<path style="fill:#00E7FF;" d="M341.333,402.773c-30.114,0-54.613-24.499-54.613-54.613s24.499-54.613,54.613-54.613
	s54.613,24.499,54.613,54.613S371.447,402.773,341.333,402.773z M341.333,320.853c-15.056,0-27.307,12.247-27.307,27.307
	s12.25,27.307,27.307,27.307s27.307-12.247,27.307-27.307S356.39,320.853,341.333,320.853z"/>
<path style="fill:#602F75;" d="M341.333,409.6c-33.877,0-61.44-27.559-61.44-61.44s27.563-61.44,61.44-61.44
	s61.44,27.559,61.44,61.44S375.211,409.6,341.333,409.6z M341.333,300.373c-26.349,0-47.787,21.439-47.787,47.787
	s21.437,47.787,47.787,47.787s47.787-21.439,47.787-47.787S367.683,300.373,341.333,300.373z M341.333,382.293
	c-18.819,0-34.133-15.314-34.133-34.133s15.314-34.133,34.133-34.133s34.133,15.314,34.133,34.133S360.153,382.293,341.333,382.293z
	 M341.333,327.68c-11.293,0-20.48,9.187-20.48,20.48s9.187,20.48,20.48,20.48s20.48-9.187,20.48-20.48
	S352.626,327.68,341.333,327.68z"/>
<path style="fill:#FFFFFF;" d="M341.333,259.413c-30.114,0-54.613-24.499-54.613-54.613s24.499-54.613,54.613-54.613
	s54.613,24.499,54.613,54.613S371.447,259.413,341.333,259.413z M341.333,177.493c-15.056,0-27.307,12.247-27.307,27.307
	s12.25,27.307,27.307,27.307S368.64,219.86,368.64,204.8S356.39,177.493,341.333,177.493z"/>
<path style="fill:#602F75;" d="M341.333,266.24c-33.877,0-61.44-27.559-61.44-61.44s27.563-61.44,61.44-61.44
	s61.44,27.559,61.44,61.44S375.211,266.24,341.333,266.24z M341.333,157.013c-26.349,0-47.787,21.439-47.787,47.787
	s21.437,47.787,47.787,47.787s47.787-21.439,47.787-47.787S367.683,157.013,341.333,157.013z M341.333,238.933
	c-18.819,0-34.133-15.314-34.133-34.133s15.314-34.133,34.133-34.133s34.133,15.314,34.133,34.133S360.153,238.933,341.333,238.933z
	 M341.333,184.32c-11.293,0-20.48,9.187-20.48,20.48c0,11.293,9.187,20.48,20.48,20.48s20.48-9.187,20.48-20.48
	C361.813,193.507,352.626,184.32,341.333,184.32z"/>
<g>
</g>
<g>
</g>
<g>
</g>
<g>
</g>
<g>
</g>
<g>
</g>
<g>
</g>
<g>
</g>
<g>
</g>
<g>
</g>
<g>
</g>
<g>
</g>
<g>
</g>
<g>
</g>
<g>
</g>
</svg>
