<svg id="Capa_1" enable-background="new 0 0 512 512" height="512" viewBox="0 0 512 512" width="512" xmlns="http://www.w3.org/2000/svg"><g><g><path d="m256 210.653c-4.268 0-7.726-3.459-7.726-7.726v-31.182c0-4.268 3.459-7.726 7.726-7.726s7.726 3.459 7.726 7.726v31.182c0 4.267-3.459 7.726-7.726 7.726z" fill="#454045"/></g><g><path d="m116.226 73.323c-4.268 0-7.726-3.459-7.726-7.726v-32.823c0-4.268 3.459-7.726 7.726-7.726 4.268 0 7.726 3.459 7.726 7.726v32.823c0 4.267-3.458 7.726-7.726 7.726z" fill="#454045"/></g><g><path d="m116.226 210.653c-4.268 0-7.726-3.459-7.726-7.726v-31.182c0-4.268 3.459-7.726 7.726-7.726 4.268 0 7.726 3.459 7.726 7.726v31.182c0 4.267-3.458 7.726-7.726 7.726z" fill="#454045"/></g><g><path d="m116.226 347.982c-4.268 0-7.726-3.459-7.726-7.726v-31.182c0-4.268 3.459-7.726 7.726-7.726 4.268 0 7.726 3.459 7.726 7.726v31.182c0 4.267-3.458 7.726-7.726 7.726z" fill="#454045"/></g><g><path d="m116.226 486.952c-4.268 0-7.726-3.459-7.726-7.726v-32.823c0-4.268 3.459-7.726 7.726-7.726 4.268 0 7.726 3.459 7.726 7.726v32.823c0 4.267-3.458 7.726-7.726 7.726z" fill="#454045"/></g><g><path d="m256 73.323c-4.268 0-7.726-3.459-7.726-7.726v-32.823c0-4.268 3.459-7.726 7.726-7.726s7.726 3.459 7.726 7.726v32.823c0 4.267-3.459 7.726-7.726 7.726z" fill="#454045"/></g><g><path d="m256 347.982c-4.268 0-7.726-3.459-7.726-7.726v-31.182c0-4.268 3.459-7.726 7.726-7.726s7.726 3.459 7.726 7.726v31.182c0 4.267-3.459 7.726-7.726 7.726z" fill="#454045"/></g><g><path d="m256 486.952c-4.268 0-7.726-3.459-7.726-7.726v-32.823c0-4.268 3.459-7.726 7.726-7.726s7.726 3.459 7.726 7.726v32.823c0 4.267-3.459 7.726-7.726 7.726z" fill="#454045"/></g><g><path d="m395.774 73.323c-4.268 0-7.726-3.459-7.726-7.726v-32.823c0-4.268 3.459-7.726 7.726-7.726s7.726 3.459 7.726 7.726v32.823c.001 4.267-3.458 7.726-7.726 7.726z" fill="#454045"/></g><g><path d="m395.774 210.653c-4.268 0-7.726-3.459-7.726-7.726v-31.182c0-4.268 3.459-7.726 7.726-7.726s7.726 3.459 7.726 7.726v31.182c.001 4.267-3.458 7.726-7.726 7.726z" fill="#454045"/></g><g><path d="m395.774 347.982c-4.268 0-7.726-3.459-7.726-7.726v-31.182c0-4.268 3.459-7.726 7.726-7.726s7.726 3.459 7.726 7.726v31.182c.001 4.267-3.458 7.726-7.726 7.726z" fill="#454045"/></g><g><path d="m395.774 486.952c-4.268 0-7.726-3.459-7.726-7.726v-32.823c0-4.268 3.459-7.726 7.726-7.726s7.726 3.459 7.726 7.726v32.823c.001 4.267-3.458 7.726-7.726 7.726z" fill="#454045"/></g><path d="m475.991 32.774h-439.982c-7.222 0-13.076-5.854-13.076-13.076v-6.622c0-7.221 5.855-13.076 13.076-13.076h439.981c7.222 0 13.076 5.854 13.076 13.076v6.622c.001 7.222-5.854 13.076-13.075 13.076z" fill="#78d0b1"/><path d="m475.991 0h-22.933c7.222 0 13.076 5.855 13.076 13.076v6.621c0 7.222-5.855 13.076-13.076 13.076h22.933c7.222 0 13.076-5.854 13.076-13.076v-6.621c0-7.221-5.855-13.076-13.076-13.076z" fill="#66b49d"/><path d="m475.991 512h-439.982c-7.222 0-13.076-5.854-13.076-13.076v-6.622c0-7.222 5.854-13.076 13.076-13.076h439.981c7.222 0 13.076 5.854 13.076 13.076v6.622c.001 7.222-5.854 13.076-13.075 13.076z" fill="#78d0b1"/><path d="m475.991 479.226h-22.933c7.222 0 13.076 5.854 13.076 13.076v6.621c0 7.222-5.855 13.076-13.076 13.076h22.933c7.222 0 13.076-5.854 13.076-13.076v-6.621c0-7.222-5.855-13.076-13.076-13.076z" fill="#66b49d"/><path d="m147.788 171.745h-63.123c-7.839 0-14.193-6.354-14.193-14.193v-77.762c0-7.839 6.354-14.193 14.193-14.193h63.123c7.839 0 14.193 6.354 14.193 14.193v77.762c0 7.838-6.355 14.193-14.193 14.193z" fill="#dd636e"/><path d="m147.788 65.597h-18.333c7.839 0 14.193 6.355 14.193 14.193v77.762c0 7.838-6.355 14.193-14.193 14.193h18.333c7.839 0 14.193-6.354 14.193-14.193v-77.762c0-7.838-6.355-14.193-14.193-14.193z" fill="#da4a54"/><g><path d="m116.226 144.731c-14.369 0-26.059-11.69-26.059-26.059s11.69-26.059 26.059-26.059 26.059 11.69 26.059 26.059-11.69 26.059-26.059 26.059zm0-36.666c-5.848 0-10.607 4.759-10.607 10.607s4.759 10.607 10.607 10.607 10.607-4.759 10.607-10.607c0-5.849-4.759-10.607-10.607-10.607z" fill="#f9f6f9"/></g><path d="m147.788 309.074h-63.123c-7.839 0-14.193-6.354-14.193-14.193v-77.762c0-7.839 6.354-14.193 14.193-14.193h63.123c7.839 0 14.193 6.354 14.193 14.193v77.762c0 7.838-6.355 14.193-14.193 14.193z" fill="#f1d333"/><path d="m147.788 202.926h-18.333c7.839 0 14.193 6.355 14.193 14.193v77.762c0 7.839-6.355 14.193-14.193 14.193h18.333c7.839 0 14.193-6.354 14.193-14.193v-77.762c0-7.838-6.355-14.193-14.193-14.193z" fill="#eab14d"/><path d="m147.788 446.403h-63.123c-7.839 0-14.193-6.354-14.193-14.193v-77.762c0-7.839 6.354-14.193 14.193-14.193h63.123c7.839 0 14.193 6.354 14.193 14.193v77.762c0 7.838-6.355 14.193-14.193 14.193z" fill="#dd636e"/><path d="m147.788 340.255h-18.333c7.839 0 14.193 6.355 14.193 14.193v77.762c0 7.839-6.355 14.193-14.193 14.193h18.333c7.839 0 14.193-6.354 14.193-14.193v-77.762c0-7.838-6.355-14.193-14.193-14.193z" fill="#da4a54"/><g><path d="m116.226 419.389c-14.369 0-26.059-11.69-26.059-26.059s11.69-26.059 26.059-26.059 26.059 11.69 26.059 26.059c0 14.368-11.69 26.059-26.059 26.059zm0-36.666c-5.848 0-10.607 4.759-10.607 10.607s4.759 10.607 10.607 10.607 10.607-4.759 10.607-10.607-4.759-10.607-10.607-10.607z" fill="#f9f6f9"/></g><path d="m287.561 171.745h-63.123c-7.839 0-14.193-6.354-14.193-14.193v-77.762c0-7.839 6.354-14.193 14.193-14.193h63.123c7.839 0 14.193 6.354 14.193 14.193v77.762c0 7.838-6.354 14.193-14.193 14.193z" fill="#dd636e"/><path d="m287.561 65.597h-18.333c7.839 0 14.193 6.355 14.193 14.193v77.762c0 7.838-6.355 14.193-14.193 14.193h18.333c7.839 0 14.193-6.354 14.193-14.193v-77.762c0-7.838-6.354-14.193-14.193-14.193z" fill="#da4a54"/><g><path d="m256 144.731c-14.369 0-26.059-11.69-26.059-26.059s11.689-26.06 26.059-26.06c14.369 0 26.059 11.69 26.059 26.059s-11.69 26.06-26.059 26.06zm0-36.666c-5.848 0-10.607 4.759-10.607 10.607s4.759 10.607 10.607 10.607 10.607-4.759 10.607-10.607c-.001-5.849-4.759-10.607-10.607-10.607z" fill="#f9f6f9"/></g><path d="m287.561 309.074h-63.123c-7.839 0-14.193-6.354-14.193-14.193v-77.762c0-7.839 6.354-14.193 14.193-14.193h63.123c7.839 0 14.193 6.354 14.193 14.193v77.762c0 7.838-6.354 14.193-14.193 14.193z" fill="#dd636e"/><path d="m287.561 202.926h-18.333c7.839 0 14.193 6.355 14.193 14.193v77.762c0 7.839-6.355 14.193-14.193 14.193h18.333c7.839 0 14.193-6.354 14.193-14.193v-77.762c0-7.838-6.354-14.193-14.193-14.193z" fill="#da4a54"/><g><path d="m256 282.06c-14.369 0-26.059-11.69-26.059-26.059s11.69-26.059 26.059-26.059 26.059 11.69 26.059 26.059c0 14.368-11.69 26.059-26.059 26.059zm0-36.666c-5.848 0-10.607 4.759-10.607 10.607s4.759 10.607 10.607 10.607 10.607-4.759 10.607-10.607c-.001-5.849-4.759-10.607-10.607-10.607z" fill="#f9f6f9"/></g><path d="m287.561 446.403h-63.123c-7.839 0-14.193-6.354-14.193-14.193v-77.762c0-7.839 6.354-14.193 14.193-14.193h63.123c7.839 0 14.193 6.354 14.193 14.193v77.762c0 7.838-6.354 14.193-14.193 14.193z" fill="#f1d333"/><path d="m287.561 340.255h-18.333c7.839 0 14.193 6.355 14.193 14.193v77.762c0 7.839-6.355 14.193-14.193 14.193h18.333c7.839 0 14.193-6.354 14.193-14.193v-77.762c0-7.838-6.354-14.193-14.193-14.193z" fill="#eab14d"/><path d="m427.335 171.745h-63.123c-7.839 0-14.193-6.354-14.193-14.193v-77.762c0-7.839 6.354-14.193 14.193-14.193h63.123c7.839 0 14.193 6.354 14.193 14.193v77.762c0 7.838-6.354 14.193-14.193 14.193z" fill="#f1d333"/><path d="m427.335 65.597h-18.333c7.839 0 14.193 6.355 14.193 14.193v77.762c0 7.838-6.355 14.193-14.193 14.193h18.333c7.839 0 14.193-6.354 14.193-14.193v-77.762c0-7.838-6.354-14.193-14.193-14.193z" fill="#eab14d"/><path d="m427.335 309.074h-63.123c-7.839 0-14.193-6.354-14.193-14.193v-77.762c0-7.839 6.354-14.193 14.193-14.193h63.123c7.839 0 14.193 6.354 14.193 14.193v77.762c0 7.838-6.354 14.193-14.193 14.193z" fill="#dd636e"/><path d="m427.335 202.926h-18.333c7.839 0 14.193 6.355 14.193 14.193v77.762c0 7.839-6.355 14.193-14.193 14.193h18.333c7.839 0 14.193-6.354 14.193-14.193v-77.762c0-7.838-6.354-14.193-14.193-14.193z" fill="#da4a54"/><g><path d="m395.774 282.06c-14.369 0-26.059-11.69-26.059-26.059s11.69-26.059 26.059-26.059 26.059 11.69 26.059 26.059c.001 14.368-11.69 26.059-26.059 26.059zm0-36.666c-5.848 0-10.607 4.759-10.607 10.607s4.759 10.607 10.607 10.607 10.607-4.759 10.607-10.607c0-5.849-4.759-10.607-10.607-10.607z" fill="#f9f6f9"/></g><path d="m427.335 446.403h-63.123c-7.839 0-14.193-6.354-14.193-14.193v-77.762c0-7.839 6.354-14.193 14.193-14.193h63.123c7.839 0 14.193 6.354 14.193 14.193v77.762c0 7.838-6.354 14.193-14.193 14.193z" fill="#f1d333"/><path d="m427.335 340.255h-18.333c7.839 0 14.193 6.355 14.193 14.193v77.762c0 7.839-6.355 14.193-14.193 14.193h18.333c7.839 0 14.193-6.354 14.193-14.193v-77.762c0-7.838-6.354-14.193-14.193-14.193z" fill="#eab14d"/><g><g><path d="m382.81 139.36c-1.977 0-3.955-.755-5.464-2.263-3.017-3.018-3.017-7.909 0-10.928l25.927-25.927c3.018-3.016 7.909-3.016 10.928 0 3.017 3.018 3.017 7.909 0 10.928l-25.927 25.927c-1.509 1.509-3.487 2.263-5.464 2.263z" fill="#f9f6f9"/></g><g><path d="m408.737 139.36c-1.977 0-3.955-.755-5.464-2.263l-25.927-25.927c-3.017-3.018-3.017-7.909 0-10.928 3.018-3.016 7.909-3.016 10.928 0l25.927 25.927c3.017 3.018 3.017 7.909 0 10.928-1.509 1.509-3.487 2.263-5.464 2.263z" fill="#f9f6f9"/></g></g><g><g><path d="m103.263 276.689c-1.977 0-3.955-.755-5.464-2.263-3.017-3.018-3.017-7.909 0-10.928l25.927-25.927c3.018-3.016 7.909-3.016 10.928 0 3.017 3.018 3.017 7.909 0 10.928l-25.927 25.927c-1.509 1.509-3.487 2.263-5.464 2.263z" fill="#f9f6f9"/></g><g><path d="m129.19 276.689c-1.977 0-3.955-.755-5.464-2.263l-25.927-25.926c-3.017-3.018-3.017-7.909 0-10.928 3.018-3.016 7.909-3.016 10.928 0l25.927 25.927c3.017 3.018 3.017 7.909 0 10.928-1.51 1.508-3.487 2.262-5.464 2.262z" fill="#f9f6f9"/></g></g><g><g><path d="m243.037 414.018c-1.977 0-3.955-.755-5.464-2.263-3.017-3.018-3.017-7.909 0-10.928l25.927-25.927c3.018-3.016 7.909-3.016 10.928 0 3.017 3.018 3.017 7.909 0 10.928l-25.927 25.927c-1.509 1.509-3.487 2.263-5.464 2.263z" fill="#f9f6f9"/></g><g><path d="m268.963 414.018c-1.977 0-3.955-.755-5.464-2.263l-25.927-25.927c-3.017-3.018-3.017-7.909 0-10.928 3.018-3.016 7.909-3.016 10.928 0l25.927 25.927c3.017 3.018 3.017 7.909 0 10.928-1.509 1.509-3.487 2.263-5.464 2.263z" fill="#f9f6f9"/></g></g><g><g><path d="m382.81 414.018c-1.977 0-3.955-.755-5.464-2.263-3.017-3.018-3.017-7.909 0-10.928l25.927-25.927c3.018-3.016 7.909-3.016 10.928 0 3.017 3.018 3.017 7.909 0 10.928l-25.927 25.927c-1.509 1.509-3.487 2.263-5.464 2.263z" fill="#f9f6f9"/></g><g><path d="m408.737 414.018c-1.977 0-3.955-.755-5.464-2.263l-25.927-25.927c-3.017-3.018-3.017-7.909 0-10.928 3.018-3.016 7.909-3.016 10.928 0l25.927 25.927c3.017 3.018 3.017 7.909 0 10.928-1.509 1.509-3.487 2.263-5.464 2.263z" fill="#f9f6f9"/></g></g></g></svg>