<svg height="512pt" viewBox="0 -47 512.03725 512" width="512pt" xmlns="http://www.w3.org/2000/svg"><path d="m503.484375 153.617188-16.042969 240.042968c-.582031 8.957032-8.003906 15.933594-16.980468 15.957032h-428.886719c-8.972657-.023438-16.394531-7-16.980469-15.957032l-16.042969-240.042968 242.773438-24.234376 13.226562-1.363281zm0 0" fill="#f57c00"/><path d="m477.886719 153.617188-16.042969 240.042968c-.585938 8.957032-8.007812 15.933594-16.984375 15.957032h-403.285156c-8.972657-.023438-16.394531-7-16.980469-15.957032l-16.042969-240.042968 242.773438-24.234376zm0 0" fill="#ff9801"/><path d="m448.1875 213.949219-2.8125 42.070312h-378.710938l-2.816406-42.070312c-.164062-2.363281.660156-4.691407 2.277344-6.425781 1.621094-1.730469 3.886719-2.710938 6.257812-2.703126h367.273438c2.371094-.007812 4.636719.972657 6.253906 2.703126 1.621094 1.734374 2.445313 4.0625 2.277344 6.425781zm0 0" fill="#4e342e"/><path d="m445.375 256.019531-3.414062 51.199219-2.902344 43.265625c-.3125 4.476563-4.042969 7.945313-8.535156 7.933594h-349.011719c-4.488281.011719-8.21875-3.457031-8.53125-7.933594l-2.902344-43.265625-3.414063-51.199219 189.355469-17.066406zm0 0" fill="#4e342e"/><path d="m445.375 256.019531-3.414062 51.199219h-371.882813l-3.414063-51.199219zm0 0" fill="#795548"/><path d="m204.820312 145.085938h102.398438v76.800781c0 28.277343-22.921875 51.199219-51.199219 51.199219-28.277343 0-51.199219-22.921876-51.199219-51.199219zm0 0" fill="#fec108"/><path d="m273.085938 204.820312c0 9.425782-7.640626 17.066407-17.066407 17.066407s-17.066406-7.640625-17.066406-17.066407c0-9.425781 7.640625-17.066406 17.066406-17.066406s17.066407 7.640625 17.066407 17.066406zm0 0" fill="#607d8b"/><path d="m153.617188 8.550781c-30.378907 0-40.957032 13.140625-59.730469 34.132813-12.628907 14.082031-5.292969 31.660156-8.535157 51.203125-.9375 5.546875-17.066406 11.261719-17.066406 17.066406l-17.066406 42.664063h-42.667969v-51.199219c-.011719-24.898438 9.871094-48.78125 27.480469-66.386719 17.605469-17.609375 41.488281-27.492188 66.386719-27.480469zm0 0" fill="#fec108"/><path d="m503.484375 102.417969v51.199219h-42.664063l-17.066406-42.664063c0-5.804687-7.597656-11.519531-8.535156-17.066406-3.242188-19.542969-4.4375-37.121094-17.066406-51.203125-18.773438-20.992188-29.355469-34.132813-59.734375-34.132813h51.199219c24.902343-.011719 48.785156 9.871094 66.390624 27.480469 17.605469 17.605469 27.492188 41.488281 27.476563 66.386719zm0 0" fill="#ff9801"/><path d="m477.886719 102.417969v51.199219h-17.066407l-17.066406-42.664063c0-5.804687-7.597656-11.519531-8.535156-17.066406-3.242188-19.542969-4.4375-37.121094-17.066406-51.203125-18.773438-20.992188-29.355469-34.132813-59.734375-34.132813h25.601562c24.898438-.011719 48.78125 9.871094 66.386719 27.480469 17.609375 17.605469 27.492188 41.488281 27.480469 66.386719zm0 0" fill="#fec108"/><path d="m460.820312 110.953125v42.664063h-409.601562v-42.664063c.007812-5.71875.492188-11.429687 1.449219-17.066406l203.351562-25.601563 203.347657 25.601563c.960937 5.636719 1.445312 11.347656 1.453124 17.066406zm0 0" fill="#795548"/><path d="m434.792969 42.683594-178.773438 8.535156-178.773437-8.535156c19.410156-21.765625 47.207031-34.191406 76.371094-34.132813h204.800781c29.167969-.058593 56.964843 12.367188 76.375 34.132813zm0 0" fill="#795548"/><path d="m459.367188 93.886719h-406.699219c3.144531-19.0625 11.671875-36.828125 24.578125-51.203125h357.546875c12.902343 14.375 21.429687 32.140625 24.574219 51.203125zm0 0" fill="#4e342e"/><path d="m470.453125 418.152344h-428.867187c-13.464844-.035156-24.609376-10.464844-25.542969-23.894532l-16.0234378-240.074218c-.1562502-2.359375.6718748-4.679688 2.2890628-6.402344 1.617187-1.726562 3.878906-2.699219 6.242187-2.695312h494.933594c2.363281-.003907 4.625.96875 6.242187 2.695312 1.617188 1.722656 2.449219 4.042969 2.292969 6.402344l-16.027343 240.074218c-.929688 13.429688-12.078126 23.859376-25.539063 23.894532zm-452.777344-256 15.359375 230.960937c.296875 4.492188 4.03125 7.980469 8.53125 7.972657h428.886719c4.5.007812 8.234375-3.480469 8.53125-7.972657l15.378906-230.960937zm0 0"/><path d="m430.566406 366.953125h-349.097656c-8.972656-.027344-16.402344-6.980469-17.023438-15.933594l-9.105468-136.53125c-.3125-4.722656 1.34375-9.359375 4.578125-12.808593 3.238281-3.453126 7.757812-5.40625 12.488281-5.394532h132.414062c4.710938 0 8.53125 3.820313 8.53125 8.535156 0 4.710938-3.820312 8.53125-8.53125 8.53125h-132.449218l9.097656 136.535157h349.097656l9.097656-136.535157h-132.445312c-4.714844 0-8.535156-3.820312-8.535156-8.53125 0-4.714843 3.820312-8.535156 8.535156-8.535156h132.445312c4.730469-.011718 9.253907 1.941406 12.488282 5.394532 3.234375 3.449218 4.894531 8.085937 4.578125 12.808593l-9.105469 136.53125c-.621094 8.964844-8.070312 15.921875-17.058594 15.933594zm0 0"/><path d="m503.484375 162.152344h-494.933594c-4.710937 0-8.5312498-3.820313-8.5312498-8.535156v-51.199219c.0585938-56.527344 45.8710938-102.339844 102.3984378-102.3984378h307.199219c56.53125.0585938 102.339843 45.8710938 102.402343 102.3984378v51.199219c0 4.714843-3.820312 8.535156-8.535156 8.535156zm-486.398437-17.066406h477.867187v-42.667969c-.054687-47.105469-38.226563-85.28125-85.335937-85.332031h-307.199219c-47.105469.050781-85.28125 38.226562-85.332031 85.332031zm0 0"/><path d="m460.820312 162.152344h-409.601562c-4.714844 0-8.535156-3.820313-8.535156-8.535156v-42.664063c.070312-61.238281 49.699218-110.8632812 110.933594-110.9335938h204.800781c61.238281.0703126 110.863281 49.6953128 110.933593 110.9335938v42.664063c0 2.265624-.898437 4.433593-2.5 6.035156-1.597656 1.601562-3.769531 2.5-6.03125 2.5zm-401.066406-17.066406h392.53125v-34.132813c-.0625-51.816406-42.050781-93.808594-93.867187-93.867187h-204.800781c-51.8125.058593-93.804688 42.050781-93.863282 93.867187zm0 0"/><path d="m256.019531 281.617188c-32.976562-.035157-59.695312-26.757813-59.734375-59.730469v-68.269531c0-4.710938 3.820313-8.53125 8.535156-8.53125h102.398438c4.710938 0 8.535156 3.820312 8.535156 8.53125v68.269531c-.039062 32.972656-26.761718 59.695312-59.734375 59.730469zm-42.667969-119.464844v59.734375c0 23.5625 19.101563 42.664062 42.667969 42.664062 23.5625 0 42.664063-19.101562 42.664063-42.664062v-59.734375zm0 0"/><path d="m256.019531 230.417969c-14.140625 0-25.601562-11.460938-25.601562-25.597657 0-14.140624 11.460937-25.601562 25.601562-25.601562 14.136719 0 25.597657 11.460938 25.597657 25.601562 0 14.136719-11.460938 25.597657-25.597657 25.597657zm0-34.132813c-4.714843 0-8.535156 3.820313-8.535156 8.535156 0 4.710938 3.820313 8.53125 8.535156 8.53125 4.710938 0 8.53125-3.820312 8.53125-8.53125 0-4.714843-3.820312-8.535156-8.53125-8.535156zm0 0"/><path d="m459.367188 102.417969h-406.699219c-4.710938 0-8.53125-3.820313-8.53125-8.53125 0-4.714844 3.820312-8.535157 8.53125-8.535157h406.699219c4.714843 0 8.535156 3.820313 8.535156 8.535157 0 4.710937-3.820313 8.53125-8.535156 8.53125zm0 0"/><path d="m434.792969 51.21875h-357.546875c-4.714844 0-8.535156-3.820312-8.535156-8.535156 0-4.710938 3.820312-8.53125 8.535156-8.53125h357.546875c4.710937 0 8.53125 3.820312 8.53125 8.53125 0 4.714844-3.820313 8.535156-8.53125 8.535156zm0 0"/><path d="m256.019531 247.484375c-4.714843 0-8.535156-3.820313-8.535156-8.53125v-17.066406c0-4.714844 3.820313-8.535157 8.535156-8.535157 4.710938 0 8.53125 3.820313 8.53125 8.535157v17.066406c0 4.710937-3.820312 8.53125-8.53125 8.53125zm0 0"/><path d="m445.375 264.550781h-151.296875c-4.714844 0-8.535156-3.820312-8.535156-8.53125 0-4.714843 3.820312-8.535156 8.535156-8.535156h151.296875c4.710938 0 8.53125 3.820313 8.53125 8.535156 0 4.710938-3.820312 8.53125-8.53125 8.53125zm0 0"/><path d="m217.960938 264.550781h-151.296876c-4.714843 0-8.535156-3.820312-8.535156-8.53125 0-4.714843 3.820313-8.535156 8.535156-8.535156h151.296876c4.710937 0 8.53125 3.820313 8.53125 8.535156 0 4.710938-3.820313 8.53125-8.53125 8.53125zm0 0"/><path d="m441.960938 315.753906h-371.882813c-4.714844 0-8.535156-3.824218-8.535156-8.535156 0-4.714844 3.820312-8.535156 8.535156-8.535156h371.882813c4.710937 0 8.53125 3.820312 8.53125 8.535156 0 4.710938-3.820313 8.535156-8.53125 8.535156zm0 0"/></svg>