<svg id="Capa_1" enable-background="new 0 0 511.921 511.921" height="512" viewBox="0 0 511.921 511.921" width="512" xmlns="http://www.w3.org/2000/svg"><g id="XMLID_1450_"><g id="XMLID_1319_"><g id="XMLID_1322_"><path id="XMLID_1751_" d="m24.152 297.604c-31.606-86.837-11.238-233.453 69.076-262.685 80.313-29.232 190.159 69.99 221.765 156.827 31.606 86.838-7.879 180.93-88.192 210.162s-171.042-17.466-202.649-104.304z" fill="#fff"/><path id="XMLID_2138_" d="m178.212 42.75-168.242 168.242c.2 31.022 4.987 61.348 14.183 86.612.01.027.021.054.031.082l214.372-214.373c-18.818-16.898-39.412-31.052-60.344-40.563z" fill="#e67d97"/><path id="XMLID_2111_" d="m62.78 359.997 223.082-223.083c-13.374-19.257-29.544-37.652-47.306-53.601l-214.373 214.373c8.796 24.13 22.162 45.154 38.597 62.311z" fill="#adeefa"/><path id="XMLID_2110_" d="m123.24 400.445 195.885-195.886c-1.211-4.282-2.583-8.556-4.133-12.812-6.612-18.166-16.657-36.871-29.131-54.832l-223.081 223.082c17.322 18.085 38.058 31.864 60.46 40.448z" fill="#d5ea7a"/></g><g id="XMLID_1756_"><path id="XMLID_3057_" d="m195.395 275.644c-23.918 89.262 23.618 179.555 106.173 201.676s168.869-32.308 192.786-121.57z" fill="#e67d97"/><path id="XMLID_1321_" d="m501.918 297.108-.309-.199c-11.457-19.845-36.834-26.645-56.679-15.187-19.845 11.458-45.221 4.658-56.679-15.187-11.457-19.845-36.834-26.645-56.679-15.187-19.845 11.458-45.221 4.658-56.679-15.187-11.456-19.842-36.825-26.642-56.669-15.193-10.177 18.193-18.046 36.818-22.831 54.677-4.335 16.178-6.311 32.387-6.169 48.221l1.164.955c19.845-11.458 45.221-4.658 56.679 15.187 11.458 19.845 36.834 26.645 56.679 15.187 19.845-11.458 45.221-4.658 56.679 15.187 11.458 19.845 36.834 26.645 56.679 15.187 19.845-11.458 45.221-4.658 56.679 15.187l1.76-.088c8.06-13.66 14.468-28.711 18.81-44.917 4.777-17.824 7.274-37.843 7.565-58.643z" fill="#f2cd69"/><path id="XMLID_1320_" d="m402.647 100.086c-66.039-17.695-143.732 48.141-184.422 120.882 19.844-11.449 45.213-4.649 56.669 15.193 11.458 19.845 36.834 26.645 56.679 15.187 19.845-11.458 45.221-4.658 56.679 15.187 11.458 19.845 36.834 26.645 56.679 15.187 19.845-11.458 45.221-4.658 56.679 15.187l.31.141c1.15-83.356-33.217-179.265-99.273-196.964z" fill="#adeefa"/></g></g><g id="XMLID_438_"><g id="XMLID_562_"><path id="XMLID_565_" d="m448.552 114.963c-4.058-3.745-10.385-3.491-14.13.569-3.745 4.059-3.49 10.386.569 14.13 33.91 31.285 52.462 88.55 56.161 143.271-15.372-8.721-34.839-9.328-51.221.129-7.285 4.206-15.772 5.323-23.897 3.146s-14.916-7.388-19.122-14.673c-14.196-24.589-45.75-33.044-70.339-18.847-7.284 4.206-15.772 5.324-23.896 3.146-8.126-2.177-14.917-7.388-19.123-14.673-9.39-16.264-26.375-25.461-43.915-25.721 30.548-45.481 75.19-85.74 120.144-95.896 5.387-1.217 8.768-6.571 7.551-11.958s-6.572-8.769-11.958-7.55c-23.115 5.222-45.878 17.152-66.952 33.297-50.351-67.917-132.477-121.882-198.617-97.811-40.135 14.609-69.561 56.161-82.856 117.003-11.544 52.824-8.553 113.558 7.805 158.499 15.043 41.331 43.627 75.82 80.487 97.115 7.859 4.54 15.958 8.397 24.217 11.576.008.003.016.006.023.009 18.755 7.215 38.346 10.898 57.896 10.898 9.744 0 19.476-.93 29.089-2.773 20.954 33.237 52.98 58.538 92.511 69.13 13.25 3.55 26.594 5.249 39.792 5.249 74.211-.001 143.757-53.706 165.242-133.889 19.943-74.425 2.416-189.98-55.461-243.376zm-175.758 20.877-209.685 209.686c-11.093-13.192-20.377-28.432-27.252-45.37l202.916-202.917c12.474 11.932 23.991 25.029 34.021 38.601zm-252.768 79.238 160.215-160.214c14.94 7.516 29.68 17.47 43.588 29.034l-195.08 195.08c-5.334-19.564-8.271-41.474-8.723-63.9zm76.622-170.762c19.7-7.172 41.636-5.581 63.756 2.099l-139.573 139.573c1.005-13.287 2.88-26.479 5.659-39.194 11.608-53.123 37.18-90.475 70.158-102.478zm-19.756 315.712 121.193-121.193c-5.19 11.583-9.367 23.091-12.349 34.221-5.137 19.171-7.137 38.404-6.33 57.081l-58.68 58.681c-15.891-6.89-30.739-16.62-43.834-28.79zm64.836 36.07 40.551-40.551c2.825 15.316 7.566 30.024 14.024 43.748-18.463 2.652-36.934 1.428-54.575-3.197zm197.073 76.131c-11.494 0-23.116-1.479-34.645-4.568-60.618-16.242-101.049-72.249-104.654-136.176 6.268-2.506 13.147-2.929 19.784-1.151 8.125 2.177 14.916 7.388 19.122 14.673 14.196 24.589 45.75 33.042 70.339 18.847 15.038-8.682 34.336-3.512 43.019 11.527 14.196 24.588 45.75 33.042 70.339 18.847 13.799-7.965 31.176-4.263 40.655 8.016-28.422 43.265-75.087 69.988-123.959 69.985zm134.358-88.236c-6.124-5.78-13.619-9.989-21.981-12.229-13.283-3.56-27.161-1.733-39.073 5.144-15.039 8.681-34.337 3.511-43.019-11.527-14.197-24.589-45.749-33.043-70.339-18.847-15.039 8.683-34.337 3.511-43.019-11.527-11.563-20.027-34.638-29.347-56.088-24.448.744-10.702 2.518-21.523 5.412-32.326 4.281-15.978 11.379-32.998 20.628-49.874 14.623-6.813 32.338-1.426 40.553 12.801 6.877 11.911 17.98 20.432 31.266 23.992 13.285 3.559 27.162 1.733 39.073-5.145 15.04-8.682 34.337-3.51 43.019 11.527 6.877 11.911 17.98 20.432 31.266 23.991 13.285 3.56 27.161 1.733 39.073-5.144 14.391-8.308 32.675-3.923 41.833 9.647-.451 19.101-2.814 37.256-7.068 53.134-2.907 10.851-6.801 21.154-11.536 30.831z"/><path id="XMLID_575_" d="m348.444 292.374c-2.63 0-5.21 1.06-7.07 2.93-1.86 1.86-2.93 4.43-2.93 7.07 0 2.63 1.07 5.21 2.93 7.07s4.44 2.93 7.07 2.93c2.64 0 5.21-1.07 7.07-2.93s2.93-4.44 2.93-7.07c0-2.64-1.07-5.21-2.93-7.07-1.86-1.87-4.44-2.93-7.07-2.93z"/><path id="XMLID_577_" d="m455.054 320.934c-2.63 0-5.21 1.07-7.07 2.93s-2.93 4.44-2.93 7.07 1.07 5.21 2.93 7.07c1.86 1.87 4.44 2.93 7.07 2.93s5.211-1.06 7.07-2.93c1.86-1.86 2.93-4.44 2.93-7.07s-1.07-5.21-2.93-7.07-4.44-2.93-7.07-2.93z"/><path id="XMLID_440_" d="m241.834 263.804c-2.63 0-5.21 1.07-7.07 2.93s-2.93 4.44-2.93 7.07 1.07 5.21 2.93 7.07 4.44 2.93 7.07 2.93 5.21-1.07 7.07-2.93 2.93-4.44 2.93-7.07-1.07-5.21-2.93-7.07-4.44-2.93-7.07-2.93z"/><path id="XMLID_439_" d="m402.644 110.084c2.64 0 5.21-1.07 7.08-2.93 1.86-1.86 2.92-4.44 2.92-7.07s-1.06-5.21-2.92-7.07c-1.87-1.86-4.44-2.93-7.08-2.93-2.63 0-5.21 1.07-7.07 2.93s-2.93 4.44-2.93 7.07 1.07 5.21 2.93 7.07 4.44 2.93 7.07 2.93z"/></g></g></g></svg>