<svg id="Layer_1" enable-background="new 0 0 512.082 512.082" height="512" viewBox="0 0 512.082 512.082" width="512" xmlns="http://www.w3.org/2000/svg"><g><g clip-rule="evenodd" fill-rule="evenodd"><path d="m236.083 10.082c-2.988 10.632-4.842 17.231-7.83 27.863-3.749 13.342-5.737 17.729-16.034 26.957-6.154 5.514-12.188 11.168-18.342 16.682-13.774 13.773 5.026 32.013 22.779 33.468 23.168 1.899 35.556 2.915 58.725 4.813 13.191 1.08 18.193.055 26.31-10.382 6.005-7.721 17.27-10.411 26.825-1.971 13.454 11.885 16.087 14.21 29.541 26.095 11.47 10.131 17.631 12.611 27.638 7.749 6.861-3.333 13.721-6.667 20.582-10.001-8.621-25.044-22.926-48.565-42.915-68.554-35.147-35.145-81.213-52.719-127.279-52.719z" fill="#cbe558"/><path d="m216.657 115.053c-17.754-1.455-36.554-19.695-22.779-33.468 6.154-5.514 12.188-11.168 18.342-16.682 10.297-9.228 12.285-13.615 16.034-26.957 2.988-10.632 4.842-17.231 7.83-27.863-46.066 0-92.132 17.573-127.279 52.721-35.147 35.147-52.721 81.213-52.72 127.279 19.43 1.699 38.859 3.398 58.288 5.097 13.222 1.156 18.861 7.233 21.965 15.808 2.854 7.886 5.708 15.773 8.562 23.659 3.167 8.752 10.106 13.604 18.749 12.01 4.918-.907 9.837-1.815 14.755-2.722 11.981-2.21 16.35-5.65 20.829-17.102 2.153-5.505 4.307-11.011 6.46-16.516 3.308-8.458 8.265-12.873 19.447-13.555 10.667-.651 18.603-1.136 29.271-1.788 12.432-.759 19.318 9.472 16.798 20.714-3.016 13.459-4.805 21.441-7.821 34.9-2.58 11.518-4.956 15.985-15.54 19.922-6.033 2.245-12.066 4.49-18.099 6.734-7.447 2.771-9.682 11.133-6.645 17.296 1.532 3.11 3.064 6.22 4.597 9.33 5.172 10.497 10.681 12.254 22.961 11.18 17.332-1.516 34.664-3.033 51.996-4.549 10.211-.893 17.201.287 25.436 8.202 5.338 5.13 10.676 10.26 16.015 15.39 6.71-5.047 13.148-10.624 19.255-16.732 50.305-50.305 64.61-122.978 42.915-186.004-6.86 3.334-13.721 6.668-20.582 10.001-10.007 4.863-16.168 2.382-27.638-7.749-13.454-11.885-16.087-14.21-29.541-26.095-9.555-8.44-20.819-5.751-26.825 1.971-8.117 10.436-13.119 11.462-26.31 10.382-23.169-1.899-35.558-2.915-58.726-4.814z" fill="#66e0f7"/><path d="m199.232 226.832c-4.479 11.451-8.848 14.891-20.829 17.102-4.918.907-9.837 1.814-14.755 2.722-8.643 1.594-15.583-3.258-18.749-12.01-2.854-7.886-5.708-15.773-8.562-23.659-3.103-8.575-8.742-14.652-21.965-15.808-19.429-1.699-38.859-3.398-58.289-5.097 0 46.066 17.573 92.132 52.721 127.279 64.187 64.187 164.788 69.764 235.303 16.732-5.338-5.13-10.676-10.26-16.015-15.39-8.236-7.915-15.225-9.095-25.436-8.202-17.332 1.516-34.664 3.033-51.996 4.549-12.28 1.074-17.789-.682-22.961-11.18-1.532-3.11-3.065-6.22-4.597-9.33-3.037-6.163-.802-14.526 6.645-17.296 6.033-2.244 12.066-4.489 18.099-6.734 10.585-3.938 12.96-8.404 15.54-19.922 3.016-13.459 4.805-21.441 7.821-34.9 2.519-11.242-4.366-21.473-16.798-20.714-10.668.651-18.603 1.136-29.271 1.788-11.182.682-16.139 5.097-19.447 13.555-2.153 5.504-4.306 11.01-6.459 16.515z" fill="#cbe558"/><path d="m344.107 334.093c-70.515 53.032-171.117 47.455-235.303-16.732-7.811-7.811-20.474-7.811-28.284 0-7.811 7.811-7.811 20.474 0 28.284 42.956 42.956 99.259 64.434 155.562 64.434 13.394 0 26.787-1.215 40.001-3.646 42.335-7.788 82.826-28.05 115.564-60.788 85.913-85.912 85.913-225.215 0-311.127-7.811-7.811-20.474-7.811-28.284 0s-7.811 20.474 0 28.284c19.989 19.989 34.294 43.51 42.915 68.554 21.695 63.026 7.39 135.699-42.915 186.004-6.109 6.109-12.546 11.686-19.256 16.733z" fill="#ddb9a3"/><path d="m276.082 406.434c-13.214 2.43-26.608 3.646-40.001 3.646v47.003h40.001z" fill="#d1a184"/><path d="m276.082 457.083h-40.001-79.999c-11 0-20 9-20 20v25h240v-25c0-11-9-20-20-20z" fill="#c68a65"/></g><g><path d="m398.718 352.716c43.439-43.44 67.363-101.198 67.363-162.635s-23.924-119.195-67.363-162.635c-11.695-11.695-30.728-11.696-42.427 0-3.012 3.012-5.243 6.513-6.704 10.248-60.757-45.346-143.696-50.671-210.365-11.115-4.75 2.818-6.316 8.953-3.498 13.703 2.817 4.751 8.954 6.317 13.703 3.498 22.943-13.613 48.041-21.284 73.336-23.261l-4.137 14.721c-3.395 12.084-4.561 14.58-13.08 22.214-3.121 2.797-6.243 5.657-9.262 8.423-2.973 2.725-6.048 5.542-9.081 8.259-.136.122-.268.247-.397.376-7.294 7.294-9.53 16.786-6.132 26.042 4.656 12.686 19.774 23.203 35.166 24.465l58.725 4.813c15.58 1.275 24.336-.473 35.021-14.209 1.47-1.89 3.509-3.085 5.594-3.28 2.227-.208 4.48.689 6.717 2.665l29.541 26.096c7.627 6.737 15.396 12.648 25.226 12.647 4.068 0 8.492-1.013 13.402-3.399l10.027-4.872c15.366 56.881.767 120.242-43.802 164.81-3.725 3.725-7.587 7.228-11.559 10.534l-9.71-9.331c-10.97-10.544-21.216-12.007-33.237-10.955l-51.997 4.549c-9.914.869-10.465-.253-13.119-5.638l-4.596-9.328c-.343-.695-.378-1.612-.09-2.337.23-.578.604-.927 1.25-1.168l18.1-6.734c14.514-5.4 18.733-13.366 21.811-27.108l7.821-34.9c2.004-8.938.026-17.734-5.425-24.132-5.262-6.178-12.987-9.291-21.741-8.751l-29.271 1.787c-14.236.869-23.182 7.19-28.151 19.895l-6.459 16.516c-3.163 8.086-4.657 9.31-13.33 10.91l-14.755 2.722c-1.28.237-5.169.952-7.532-5.579l-8.563-23.659c-4.954-13.69-14.93-21.006-30.497-22.367l-48.992-4.284c1.427-26.699 9.169-53.3 23.528-77.502 2.818-4.75 1.252-10.885-3.498-13.703s-10.885-1.253-13.703 3.498c-39.554 66.668-34.229 149.604 11.118 210.361-3.735 1.461-7.236 3.691-10.248 6.703-11.697 11.697-11.697 30.729 0 42.427 41.074 41.073 94.951 64.685 152.633 67.137v27.228h-69.999c-16.542 0-30 13.458-30 30v25c0 5.523 4.477 10 10 10h239.999c5.522 0 10-4.477 10-10v-25c0-16.542-13.457-30-29.999-30h-70v-32.428c42.349-9.339 81.236-30.535 112.638-61.937zm-17.394-220.353c-4.365 2.122-6.173 3.002-16.646-6.249l-29.542-26.095c-6.355-5.615-14.104-8.309-21.817-7.588-7.561.706-14.676 4.684-19.521 10.914-5.465 7.025-6.612 7.454-17.601 6.555l-58.724-4.813c-8.162-.669-16.248-6.583-18.024-11.422-.484-1.319-.743-2.685 1.335-4.842 3.037-2.725 6.073-5.506 9.011-8.198 2.979-2.729 6.059-5.552 9.097-8.274 12.312-11.033 14.985-17.456 18.987-31.699l5.754-20.476c41.33 1.859 81.743 18.786 112.657 49.7 16.645 16.645 29.107 35.913 37.393 56.484zm-254.391 82.025 8.563 23.658c4.938 13.65 16.704 20.891 29.967 18.442l14.755-2.722c15.486-2.857 22.634-8.735 28.327-23.293l6.459-16.516c1.868-4.776 3.363-6.766 10.743-7.216l29.271-1.787c2.392-.147 4.179.445 5.298 1.759 1.315 1.544 1.739 4.082 1.133 6.788l-7.822 34.9c-2.186 9.757-3.063 10.428-9.269 12.736l-18.1 6.734c-5.965 2.22-10.533 6.667-12.862 12.524-2.387 6.005-2.12 12.771.734 18.565l4.597 9.33c7.706 15.64 18.264 17.995 32.802 16.721l51.996-4.549c8.096-.706 11.975.009 17.636 5.451l7.219 6.938c-65.835 42.581-154.88 35.067-212.508-22.562-30.069-30.069-46.906-69.126-49.514-109.271l47.139 4.122c8.758.765 11.479 3.84 13.436 9.248zm-39.343 110.044c3.897-3.898 10.239-3.899 14.138-.004.001.001.002.003.004.004 37.041 37.04 85.695 55.561 134.351 55.561 48.654 0 97.31-18.521 134.351-55.561 74.08-74.081 74.08-194.62 0-268.701-1.889-1.889-2.929-4.4-2.929-7.071s1.04-5.182 2.929-7.071c3.899-3.899 10.244-3.898 14.142 0 81.879 81.879 81.879 215.106 0 296.985-81.878 81.879-215.105 81.88-296.985 0-3.9-3.899-3.9-10.243-.001-14.142zm278.491 152.65v15h-219.999v-15c0-5.514 4.486-10 10-10h200c5.514 0 9.999 4.486 9.999 10zm-99.999-30h-20.001v-27.228c6.724-.286 13.395-.859 20.001-1.714z"/><path d="m108.804 72.802c5.523 0 10-4.477 10-10s-4.477-10-10-10h-.008c-5.523 0-9.996 4.477-9.996 10s4.481 10 10.004 10z"/></g></g></svg>