<?xml version="1.0" encoding="UTF-8" standalone="no"?>
<svg
   xmlns:dc="http://purl.org/dc/elements/1.1/"
   xmlns:cc="http://creativecommons.org/ns#"
   xmlns:rdf="http://www.w3.org/1999/02/22-rdf-syntax-ns#"
   xmlns:svg="http://www.w3.org/2000/svg"
   xmlns="http://www.w3.org/2000/svg"
   xmlns:sodipodi="http://sodipodi.sourceforge.net/DTD/sodipodi-0.dtd"
   xmlns:inkscape="http://www.inkscape.org/namespaces/inkscape"
   width="512"
   height="512"
   overflow="hidden"
   version="1.1"
   id="svg27"
   sodipodi:docname="icon.svg"
   style="overflow:hidden"
   inkscape:version="0.92.4 (5da689c313, 2019-01-14)"
   inkscape:export-filename="C:\apps\supportingami\sami-maths-club\maths-club-app\resources\icon-foreground.png"
   inkscape:export-xdpi="768"
   inkscape:export-ydpi="768">
  <metadata
     id="metadata31">
    <rdf:RDF>
      <cc:Work
         rdf:about="">
        <dc:format>image/svg+xml</dc:format>
        <dc:type
           rdf:resource="http://purl.org/dc/dcmitype/StillImage" />
        <dc:title />
      </cc:Work>
    </rdf:RDF>
  </metadata>
  <sodipodi:namedview
     pagecolor="#ffffff"
     bordercolor="#666666"
     borderopacity="1"
     objecttolerance="10"
     gridtolerance="10"
     guidetolerance="10"
     inkscape:pageopacity="0"
     inkscape:pageshadow="2"
     inkscape:window-width="1920"
     inkscape:window-height="1009"
     id="namedview29"
     showgrid="false"
     inkscape:pagecheckerboard="true"
     inkscape:zoom="1.1429945"
     inkscape:cx="-151.31859"
     inkscape:cy="247.63231"
     inkscape:window-x="-8"
     inkscape:window-y="-8"
     inkscape:window-maximized="1"
     inkscape:current-layer="svg27" />
  <defs
     id="defs5">
    <clipPath
       id="clip0">
      <path
         d="M 434,72 H 845 V 656 H 434 Z"
         id="path2"
         inkscape:connector-curvature="0"
         style="clip-rule:evenodd;fill-rule:evenodd" />
    </clipPath>
    <clipPath
       id="clip0-4">
      <path
         d="M 434,72 H 845 V 656 H 434 Z"
         id="path2-1"
         inkscape:connector-curvature="0"
         style="clip-rule:evenodd;fill-rule:evenodd" />
    </clipPath>
    <clipPath
       id="clip0-5">
      <path
         id="path67"
         clip-rule="evenodd"
         fill-rule="evenodd"
         d="M434 72 845 72 845 656 434 656Z" />
    </clipPath>
    <clipPath
       id="clip0-6">
      <path
         id="path118"
         clip-rule="evenodd"
         fill-rule="evenodd"
         d="M434 72 845 72 845 656 434 656Z" />
    </clipPath>
  </defs>
  <rect
     style="opacity:1;fill:#03a9f4;fill-opacity:1;stroke:none;stroke-width:1.01048136;stroke-linecap:butt;stroke-linejoin:miter;stroke-miterlimit:4;stroke-dasharray:none;stroke-opacity:1;paint-order:normal"
     id="rect831"
     width="512"
     height="512"
     x="0"
     y="0" />
  <path
     id="path139"
     stroke-miterlimit="8"
     d="m 303.54284,124.05595 h -62.91181 c -5.53094,0 -10.02947,-4.61707 -10.02947,-10.28964 0,-5.67255 4.49853,-10.28962 10.02947,-10.28962 h 43.76426 c 3.51962,0 6.38225,-2.93672 6.38225,-6.546905 0,-3.610186 -2.86263,-6.547722 -6.38225,-6.547722 h -56.52874 c -5.53096,0 -10.02947,-4.617082 -10.02947,-10.289634 0,-5.671728 4.49851,-10.288808 10.02947,-10.288808 h 90.26356 c 3.51961,0 6.38223,-2.937542 6.38223,-6.547721 0,-3.610181 -2.86262,-6.547723 -6.38223,-6.547723 h -66.55822 c -5.53012,0 -10.02948,-4.616256 -10.02948,-10.288808 0,-5.672551 4.49936,-10.289549 10.02948,-10.289549 H 300.807 c 3.51961,0 6.38141,-2.936882 6.38141,-6.547226 0,-3.611087 -2.8618,-6.547806 -6.38141,-6.547806 h -46.49928 c -1.00689,0 -1.82362,-0.836723 -1.82362,-1.8712 0,-1.034564 0.81673,-1.87038 1.82362,-1.87038 H 300.807 c 5.53095,0 10.02865,4.617079 10.02865,10.289386 0,5.671646 -4.4977,10.28823 -10.02865,10.28823 h -49.23511 c -3.5188,0 -6.38224,2.937541 -6.38224,6.548545 0,3.61018 2.86344,6.547723 6.38224,6.547723 h 66.55822 c 5.53094,0 10.02946,4.616255 10.02946,10.288808 0,5.672549 -4.49852,10.288806 -10.02946,10.288806 h -90.26356 c -3.51961,0 -6.38224,2.937542 -6.38224,6.547723 0,3.611002 2.86263,6.547721 6.38224,6.547721 h 56.52874 c 5.53013,0 10.02947,4.617081 10.02947,10.289635 0,5.672545 -4.49934,10.288815 -10.02947,10.288815 h -43.76426 c -3.51881,0 -6.38225,2.93754 -6.38225,6.54771 0,3.61018 2.86344,6.54774 6.38225,6.54774 h 62.91181 c 1.00524,0 1.82278,0.83564 1.82278,1.87053 0,1.03408 -0.81754,1.87137 -1.82278,1.87137 z"
     inkscape:connector-curvature="0"
     style="display:inline;overflow:hidden;fill:#4d007e;fill-rule:evenodd;stroke:#ffffff;stroke-width:6.5864172;stroke-miterlimit:8" />
  <path
     id="path127"
     stroke-miterlimit="8"
     d="m 397.13089,42.928568 c -19.59541,-5.61245 -40.18621,6.052094 -45.89993,26.00153 -1.84172,6.429167 1.78575,13.106971 8.09883,14.914942 6.31308,1.807971 12.92667,-1.938053 14.76758,-8.365573 2.03767,-7.112507 9.37904,-11.270185 16.36395,-9.269559 6.98572,2.000624 11.01249,9.416105 8.97564,16.526966 -2.03686,7.111684 -9.37906,11.271834 -16.36477,9.271204 -6.31391,-1.807968 -12.92668,1.938059 -14.76676,8.365582 l -2.11342,7.37679 c -1.8409,6.42835 1.78658,13.10697 8.09965,14.91495 5.49802,1.57496 11.21751,-1.06042 13.82325,-6.00929 15.5003,-0.73521 29.615,-11.39614 34.1901,-27.369866 5.71535,-19.948613 -5.57871,-40.745224 -25.17412,-46.357676 z"
     inkscape:connector-curvature="0"
     style="display:inline;overflow:hidden;fill:#ffffff;fill-rule:evenodd;stroke:#ffffff;stroke-width:0.91656584;stroke-miterlimit:8" />
  <path
     id="path137"
     stroke-miterlimit="8"
     d="m 168.53939,110.35208 -23.74816,6.20029 c -3.27509,0.85459 -6.64157,-1.15427 -7.51427,-4.49605 l -6.31226,-24.1771 c -0.87269,-3.342606 1.08347,-6.737904 4.35774,-7.592493 l 23.74815,-6.200288 c 3.27757,-0.85541 6.64323,1.150153 7.51593,4.492761 l 6.31225,24.17626 c 0.87271,3.34262 -1.08264,6.74039 -4.35938,7.59662 z m -20.96621,-7.43853 11.87449,-3.100565 -3.15654,-12.088545 -11.87367,3.100556 z"
     inkscape:connector-curvature="0"
     style="display:inline;overflow:hidden;fill:#ffffff;fill-rule:evenodd;stroke:#ffffff;stroke-width:2.46990657;stroke-miterlimit:8" />
  <path
     id="path135"
     stroke-miterlimit="8"
     d="m 169.23261,161.80517 c -1.58403,0.4133 -3.2718,0.1696 -4.6887,-0.69485 -4.84843,-2.93015 -47.54405,-29.34579 -53.59533,-52.52422 -6.43987,-24.665316 6.96432,-49.594084 29.87928,-55.57702 22.91744,-5.982938 46.79732,9.211105 53.23637,33.876415 6.05209,23.178445 -18.28224,67.089245 -21.07736,72.020015 -0.81672,1.44737 -2.16776,2.48554 -3.75426,2.89966 z M 143.98358,65.097625 c -16.36807,4.273764 -25.85993,22.39382 -21.16134,40.388745 3.22406,12.34789 25.89533,30.61448 42.53508,41.49771 7.8222,-15.07712 20.36274,-43.48434 16.83407,-56.998849 C 177.4928,71.991136 160.35165,60.823865 143.98358,65.097625 Z"
     inkscape:connector-curvature="0"
     style="display:inline;overflow:hidden;fill:#ffffff;fill-rule:evenodd;stroke:#ffffff;stroke-width:0.24444091;stroke-miterlimit:8" />
  <path
     id="path133"
     stroke-miterlimit="8"
     d="m 333.39494,317.75838 c -3.88846,-2.47486 -8.95013,-1.17075 -11.30722,2.91283 l -0.14492,0.24946 c -2.35629,4.08277 -1.11475,9.398 2.77371,11.87202 1.33375,0.84883 2.805,1.25224 4.25895,1.25224 2.78439,0 5.50048,-1.48194 7.04828,-4.16509 l 0.1449,-0.24945 c 2.35629,-4.08277 1.11475,-9.39801 -2.7737,-11.87201 z"
     inkscape:connector-curvature="0"
     style="display:inline;overflow:hidden;fill:#04b0ed;fill-rule:evenodd;stroke:#ffffff;stroke-width:16.46604156;stroke-miterlimit:8" />
  <path
     id="path131"
     stroke-miterlimit="8"
     d="m 374.53041,226.87487 c -0.0775,-4.63848 -3.74685,-8.34253 -8.22891,-8.34253 -0.0469,0 -0.0939,0 -0.14161,8.2e-4 -4.5471,0.0807 -8.16962,3.94444 -8.09224,8.62985 0.31368,18.92443 -4.37912,40.313 -13.56719,61.85469 -1.83021,4.29188 0.06,9.29837 4.2219,11.18621 1.07853,0.48823 2.20398,0.72039 3.31049,0.72039 3.16559,0 6.18465,-1.8936 7.54062,-5.07401 10.1365,-23.76873 15.31013,-47.61897 14.95694,-68.97542 z"
     inkscape:connector-curvature="0"
     style="display:inline;overflow:hidden;fill:#ffffff;fill-rule:evenodd;stroke:#ffffff;stroke-width:16.46604156;stroke-miterlimit:8" />
  <path
     id="path129"
     stroke-miterlimit="8"
     d="m 377.99487,140.29063 c -1.50583,-2.77451 -4.10253,-4.85335 -7.10921,-5.71453 -3.00918,-0.862 -6.3131,-0.47176 -9.05798,1.08347 -2.75066,1.56838 -4.83114,4.20954 -5.71125,7.28293 -0.87682,3.06186 -0.51455,6.41517 0.9929,9.1897 1.50583,2.77453 4.09923,4.86489 7.10758,5.72689 3.00752,0.86116 6.30073,0.45775 9.05962,-1.09582 2.74735,-1.55687 4.83197,-4.20871 5.70877,-7.27058 0.88093,-3.0734 0.51374,-6.416 -0.99043,-9.20206 z"
     inkscape:connector-curvature="0"
     style="display:inline;overflow:hidden;fill:#ffffff;fill-rule:evenodd;stroke:#ffffff;stroke-width:0.91656584;stroke-miterlimit:8" />
  <path
     id="path125"
     stroke-miterlimit="8"
     d="m 415.43044,226.42204 c -0.24042,-14.38967 -2.47239,-28.59575 -6.63171,-42.21811 -1.0917,-3.57478 -4.33552,-6.00929 -8.00415,-6.00929 h -90.21499 c -4.63024,0 -8.38368,3.83002 -8.38368,8.55165 0,4.72245 3.75426,8.55164 8.38368,8.55164 h 83.89285 c 2.60576,10.21553 4.01443,20.75627 4.19226,31.41475 0.4948,29.71627 -8.73853,64.15088 -24.09475,89.86507 -14.81698,24.80857 -21.34741,54.34042 -18.38682,83.156 l 7.28541,70.93077 H 254.38265 v -23.88236 c 0,-13.57296 -5.1934,-26.32178 -14.62186,-35.89927 -9.37741,-9.52313 -21.80928,-14.76015 -35.03315,-14.76015 -0.1482,8.2e-4 -0.29721,0.003 -0.44787,0.002 -13.39596,0 -25.97766,-5.32594 -35.4448,-15.00879 -9.51985,-9.73884 -14.70995,-22.67458 -14.61362,-36.42783 l 0.19676,-27.84079 c 0.0156,-2.27891 -0.86034,-4.46971 -2.4345,-6.08751 -1.57416,-1.61695 -3.71557,-2.52588 -5.95,-2.52588 h -28.87486 c 8.65125,-21.60592 22.00358,-60.15458 22.00358,-79.21732 0,-11.43978 1.43008,-22.75442 4.25481,-33.72245 h 103.02474 c 4.63026,0 8.38369,-3.83 8.38369,-8.55164 0,-4.72163 -3.75425,-8.55164 -8.38369,-8.55164 H 137.11065 c -3.66204,0 -6.90091,2.42546 -7.99756,5.99035 -4.45817,14.47528 -6.71813,29.55983 -6.71813,44.83622 0,18.67659 -17.76193,67.54536 -25.572597,84.05009 -1.25472,2.65103 -1.084288,5.77217 0.448693,8.2643 1.533814,2.49213 4.216144,4.00618 7.101804,4.00618 h 33.21696 l -0.13584,19.22658 c -0.12844,18.35882 6.798,35.62759 19.50731,48.62669 12.63769,12.9275 29.43058,20.03673 47.31682,20.03673 0.14984,-8.3e-4 0.29721,-0.003 0.44706,-0.002 8.75747,0 16.99379,3.46856 23.20476,9.77589 6.24559,6.34353 9.68533,14.78815 9.68533,23.7778 v 32.43562 c 0,4.72246 3.75426,8.55164 8.38369,8.55164 H 372.7776 c 2.37606,0 4.63932,-1.0283 6.22993,-2.82886 1.59062,-1.8014 2.35711,-4.2046 2.10848,-6.61442 l -8.25607,-80.37405 c -2.57857,-25.10907 3.11454,-50.84879 16.03052,-72.47529 17.17161,-28.75218 27.09322,-65.78266 26.53998,-99.05231 z"
     inkscape:connector-curvature="0"
     style="display:inline;overflow:hidden;fill:#ffffff;fill-rule:evenodd;stroke:#ffffff;stroke-width:16.46604156;stroke-miterlimit:8" />
  <path
     id="path123"
     stroke-miterlimit="8"
     d="m 284.46197,180.72302 c -1.60873,-1.6071 -3.83,-2.53248 -6.11219,-2.53248 -2.27315,0 -4.50347,0.92374 -6.11219,2.53248 -1.60627,1.60872 -2.53248,3.83905 -2.53248,6.11219 0,2.27314 0.92538,4.50346 2.53248,6.11054 1.60872,1.60791 3.83904,2.53413 6.11219,2.53413 2.28219,0 4.50346,-0.9254 6.11219,-2.53413 1.60627,-1.60708 2.53248,-3.8374 2.53248,-6.11054 0,-2.27314 -0.9254,-4.50347 -2.53248,-6.11219 z"
     inkscape:connector-curvature="0"
     style="display:inline;overflow:hidden;fill:#04b0ed;fill-rule:evenodd;stroke:#ffffff;stroke-width:16.46604156;stroke-miterlimit:8" />
</svg>
