<?xml version="1.0" encoding="iso-8859-1"?>
<!-- Generator: Adobe Illustrator 19.0.0, SVG Export Plug-In . SVG Version: 6.00 Build 0)  -->
<svg version="1.1" id="Capa_1" xmlns="http://www.w3.org/2000/svg" xmlns:xlink="http://www.w3.org/1999/xlink" x="0px" y="0px"
	 viewBox="0 0 512 512" style="enable-background:new 0 0 512 512;" xml:space="preserve">
<g>
	<path style="fill:#FF6E5E;" d="M230.754,29.855H52.294c-4.142,0-7.5-3.357-7.5-7.5s3.358-7.5,7.5-7.5h178.46
		c4.142,0,7.5,3.357,7.5,7.5S234.896,29.855,230.754,29.855z"/>
	<path style="fill:#FF6E5E;" d="M459.706,29.855h-187.56c-4.143,0-7.5-3.357-7.5-7.5s3.357-7.5,7.5-7.5h187.56
		c4.143,0,7.5,3.357,7.5,7.5S463.849,29.855,459.706,29.855z"/>
	<path style="fill:#FF6E5E;" d="M482.467,244.625c-4.143,0-7.5-3.357-7.5-7.5v-74.479c0-4.143,3.357-7.5,7.5-7.5s7.5,3.357,7.5,7.5
		v74.479C489.967,241.268,486.609,244.625,482.467,244.625z"/>
	<path style="fill:#FF6E5E;" d="M482.467,115.876c-4.143,0-7.5-3.357-7.5-7.5V40.022c0-4.143,3.357-7.5,7.5-7.5s7.5,3.357,7.5,7.5
		v68.354C489.967,112.519,486.609,115.876,482.467,115.876z"/>
	<path style="fill:#FF6E5E;" d="M482.467,474.789c-4.143,0-7.5-3.357-7.5-7.5V271.86c0-4.143,3.357-7.5,7.5-7.5s7.5,3.357,7.5,7.5
		v195.429C489.967,471.432,486.609,474.789,482.467,474.789z"/>
	<path style="fill:#FF6E5E;" d="M29.534,244.682c-4.142,0-7.5-3.357-7.5-7.5V40.022c0-4.143,3.358-7.5,7.5-7.5s7.5,3.357,7.5,7.5
		v197.159C37.034,241.324,33.676,244.682,29.534,244.682z"/>
	<path style="fill:#FF6E5E;" d="M29.534,474.789c-4.142,0-7.5-3.357-7.5-7.5V276.883c0-4.143,3.358-7.5,7.5-7.5s7.5,3.357,7.5,7.5
		v190.406C37.034,471.432,33.676,474.789,29.534,474.789z"/>
	<path style="fill:#FF6E5E;" d="M242.604,496.079H171.16c-4.142,0-7.5-3.357-7.5-7.5s3.358-7.5,7.5-7.5h71.444
		c4.142,0,7.5,3.357,7.5,7.5S246.746,496.079,242.604,496.079z"/>
	<path style="fill:#FF6E5E;" d="M116.203,496.079H52.294c-4.142,0-7.5-3.357-7.5-7.5s3.358-7.5,7.5-7.5h63.909
		c4.142,0,7.5,3.357,7.5,7.5S120.345,496.079,116.203,496.079z"/>
	<path style="fill:#FF6E5E;" d="M459.706,496.079H275.578c-4.143,0-7.5-3.357-7.5-7.5s3.357-7.5,7.5-7.5h184.128
		c4.143,0,7.5,3.357,7.5,7.5S463.849,496.079,459.706,496.079z"/>
</g>
<g>
	<path style="fill:#34D6C1;" d="M46.889,44.711H12.178c-2.761,0-5-2.239-5-5V5c0-2.761,2.239-5,5-5h34.711c2.761,0,5,2.239,5,5
		v34.711C51.889,42.473,49.65,44.711,46.889,44.711z"/>
	<path style="fill:#34D6C1;" d="M273.356,44.711h-34.711c-2.761,0-5-2.239-5-5V5c0-2.761,2.239-5,5-5h34.711c2.761,0,5,2.239,5,5
		v34.711C278.356,42.473,276.117,44.711,273.356,44.711z"/>
	<path style="fill:#34D6C1;" d="M499.822,44.711h-34.711c-2.761,0-5-2.239-5-5V5c0-2.761,2.239-5,5-5h34.711c2.761,0,5,2.239,5,5
		v34.711C504.822,42.473,502.583,44.711,499.822,44.711z"/>
	<path style="fill:#34D6C1;" d="M499.822,277.742h-34.711c-2.761,0-5-2.239-5-5v-34.711c0-2.761,2.239-5,5-5h34.711
		c2.761,0,5,2.239,5,5v34.711C504.822,275.504,502.583,277.742,499.822,277.742z"/>
</g>
<g>
	<path style="fill:#1AC4AE;" d="M51.889,5.152v34.407c0,2.844-2.308,5.152-5.152,5.152H31.97c2.844,0,5.152-2.308,5.152-5.152V5.152
		C37.122,2.308,34.814,0,31.97,0h14.766C49.58,0,51.889,2.308,51.889,5.152z"/>
	<path style="fill:#1AC4AE;" d="M278.361,5.152v34.407c0,2.844-2.308,5.152-5.152,5.152h-14.777c2.844,0,5.152-2.308,5.152-5.152
		V5.152c0-2.844-2.308-5.152-5.152-5.152h14.777C276.052,0,278.361,2.308,278.361,5.152z"/>
	<path style="fill:#1AC4AE;" d="M504.822,238.183v34.407c0,2.844-2.308,5.152-5.152,5.152h-14.766c2.844,0,5.152-2.308,5.152-5.152
		v-34.407c0-2.844-2.308-5.152-5.152-5.152h14.766C502.514,233.031,504.822,235.339,504.822,238.183z"/>
</g>
<path style="fill:#34D6C1;" d="M46.889,277.742H12.178c-2.761,0-5-2.239-5-5v-34.711c0-2.761,2.239-5,5-5h34.711
	c2.761,0,5,2.239,5,5v34.711C51.889,275.504,49.65,277.742,46.889,277.742z"/>
<path style="fill:#1AC4AE;" d="M51.889,238.183v34.407c0,2.844-2.308,5.152-5.152,5.152H31.971c2.844,0,5.152-2.308,5.152-5.152
	v-34.407c0-2.844-2.308-5.152-5.152-5.152h14.766C49.581,233.031,51.889,235.339,51.889,238.183z"/>
<g>
	<path style="fill:#34D6C1;" d="M46.889,512H12.178c-2.761,0-5-2.239-5-5v-34.711c0-2.761,2.239-5,5-5h34.711c2.761,0,5,2.239,5,5
		V507C51.889,509.761,49.65,512,46.889,512z"/>
	<path style="fill:#34D6C1;" d="M273.356,512h-34.711c-2.761,0-5-2.239-5-5v-34.711c0-2.761,2.239-5,5-5h34.711c2.761,0,5,2.239,5,5
		V507C278.356,509.761,276.117,512,273.356,512z"/>
	<path style="fill:#34D6C1;" d="M499.822,512h-34.711c-2.761,0-5-2.239-5-5v-34.711c0-2.761,2.239-5,5-5h34.711c2.761,0,5,2.239,5,5
		V507C504.822,509.761,502.583,512,499.822,512z"/>
</g>
<g>
	<path style="fill:#1AC4AE;" d="M51.889,472.441v34.407c0,2.844-2.308,5.152-5.152,5.152H31.97c2.844,0,5.152-2.308,5.152-5.152
		v-34.407c0-2.844-2.308-5.152-5.152-5.152h14.766C49.58,467.289,51.889,469.597,51.889,472.441z"/>
	<path style="fill:#1AC4AE;" d="M278.361,472.441v34.407c0,2.844-2.308,5.152-5.152,5.152h-14.777c2.844,0,5.152-2.308,5.152-5.152
		v-34.407c0-2.844-2.308-5.152-5.152-5.152h14.777C276.052,467.289,278.361,469.597,278.361,472.441z"/>
	<path style="fill:#1AC4AE;" d="M504.822,472.441v34.407c0,2.844-2.308,5.152-5.152,5.152h-14.766c2.844,0,5.152-2.308,5.152-5.152
		v-34.407c0-2.844-2.308-5.152-5.152-5.152h14.766C502.514,467.289,504.822,469.597,504.822,472.441z"/>
</g>
<g>
</g>
<g>
</g>
<g>
</g>
<g>
</g>
<g>
</g>
<g>
</g>
<g>
</g>
<g>
</g>
<g>
</g>
<g>
</g>
<g>
</g>
<g>
</g>
<g>
</g>
<g>
</g>
<g>
</g>
</svg>
