<svg id="Layer_1" enable-background="new 0 0 510 510" height="512" viewBox="0 0 510 510" width="512" xmlns="http://www.w3.org/2000/svg"><g><path d="m210 0v60l22.5 10 22.5-10 10-30-10-30z" fill="#cf8472"/><path d="m300 0h-45v60l22.5 10 22.5-10z" fill="#b35f49"/><path d="m180 60c-24.852 0-45 20.146-45 45 0 24.852 20.146 45 45 45l37.5 10 37.5-10 10-45-10-45c-20.194 0-63.236 0-75 0z" fill="#25d9f8"/><path d="m375 105c0-24.852-20.147-45-45-45-20.194 0-63.236 0-75 0v90l37.5 10 37.5-10c24.852 0 45-20.146 45-45z" fill="#00bdef"/><path d="m150 150c-24.852 0-45 20.146-45 45 0 24.852 20.146 45 45 45l52.5 10 52.5-10 10-45-10-45c-28.278 0-88.527 0-105 0z" fill="#fc6363"/><path d="m405 195c0-24.852-20.147-45-45-45-28.278 0-88.527 0-105 0v90l52.5 10 52.5-10c24.852 0 45-20.146 45-45z" fill="#e63950"/><path d="m120 240c-24.852 0-45 20.147-45 45 0 24.853 20.146 45 45 45l67.5 10 67.5-10 10-45-10-45c-16.333 0-118.559 0-135 0z" fill="#76dd00"/><path d="m435 285c0-24.852-20.147-45-45-45-16.333 0-118.559 0-135 0v90l67.5 10 67.5-10c24.852 0 45-20.147 45-45z" fill="#00c200"/><path d="m90 330c-24.852 0-45 20.147-45 45 0 24.853 20.146 45 45 45l82.5 10 82.5-10 10-45-10-45c-4.655 0-160.348 0-165 0z" fill="#fad42b"/><path d="m465 375c0-24.852-20.147-45-45-45-4.655 0-160.348 0-165 0v90l82.5 10 82.5-10c24.852 0 45-20.147 45-45z" fill="#fcbf00"/><path d="m0 420v90h255l10-45-10-45z" fill="#b35f49"/><path d="m255 420h255v90h-255z" fill="#a74641"/></g></svg>