<?xml version="1.0" encoding="iso-8859-1"?>
<!-- Generator: Adobe Illustrator 19.0.0, SVG Export Plug-In . SVG Version: 6.00 Build 0)  -->
<svg version="1.1" id="Capa_1" xmlns="http://www.w3.org/2000/svg" xmlns:xlink="http://www.w3.org/1999/xlink" x="0px" y="0px"
	 viewBox="0 0 512 512" style="enable-background:new 0 0 512 512;" xml:space="preserve">
<path style="fill:#E8F7FF;" d="M256,192.363c-92.904,0-175.999,55.999-248,56v32c72,0,155.097-56,248-56s176,56,248,56v-32
	C431.999,248.361,348.904,192.363,256,192.363z"/>
<rect x="8" y="288.359" style="fill:#BE788C;" width="72" height="112"/>
<path style="fill:#AA6478;" d="M80,288.363H8v48c23.443,0,47.352-5.318,72-12.686V288.363z"/>
<rect x="432" y="288.359" style="fill:#BE788C;" width="72" height="112"/>
<path style="fill:#AA6478;" d="M432,288.363h72v48c-23.443,0-47.352-5.318-72-12.686V288.363z"/>
<path style="fill:#BE788C;" d="M256,224.363c-92.903,0-176,56-248,56v32c72,0,155.097-56,248-56s176,56,248,56v-32
	C432,280.363,348.903,224.363,256,224.363z"/>
<path style="fill:#E8F7FF;" d="M496.25,160.363c-31.378,0-65.883-12.098-102.415-24.906
	c-43.601-15.285-88.686-31.094-137.835-31.094s-94.234,15.809-137.835,31.094c-36.532,12.809-71.037,24.906-102.415,24.906
	c-4.284,0-7.75,3.582-7.75,8v8c0,4.418,3.466,8,7.75,8c33.937,0,69.621-12.512,107.395-25.754
	c42.413-14.871,86.272-30.246,132.855-30.246s90.442,15.375,132.855,30.246c37.774,13.242,73.458,25.754,107.395,25.754
	c4.284,0,7.75-3.582,7.75-8v-8C504,163.945,500.534,160.363,496.25,160.363z"/>
<path d="M7.5,287.395c10.396,0,21.331-1.086,33.433-3.32c4.074-0.752,6.766-4.664,6.014-8.737c-0.752-4.074-4.66-6.768-8.737-6.014
	c-11.193,2.066-21.238,3.071-30.71,3.071c-4.142,0-7.5,3.358-7.5,7.5S3.358,287.395,7.5,287.395z"/>
<path d="M504.5,319.459c4.142,0,7.5-3.358,7.5-7.5s-3.358-7.5-7.5-7.5c-32.538,0-68.269-12.135-106.098-24.983
	c-45.061-15.304-91.656-31.129-142.402-31.129s-97.341,15.825-142.402,31.129C75.769,292.324,40.038,304.459,7.5,304.459
	c-4.142,0-7.5,3.358-7.5,7.5s3.358,7.5,7.5,7.5c20.867,0,42.394-4.448,64.645-10.848v84.026H7.5c-4.142,0-7.5,3.358-7.5,7.5
	s3.358,7.5,7.5,7.5h88.177c4.142,0,7.5-3.358,7.5-7.5s-3.358-7.5-7.5-7.5h-3.812c18.063-75.439,85.689-129.29,164.135-129.29
	s146.072,53.852,164.134,129.291h-3.811c-4.142,0-7.5,3.358-7.5,7.5s3.358,7.5,7.5,7.5H504.5c4.142,0,7.5-3.358,7.5-7.5
	s-3.358-7.5-7.5-7.5h-64.645v-84.026C462.106,315.01,483.633,319.459,504.5,319.459z M87.145,359.39v-55.327
	c10.271-3.251,20.694-6.789,31.277-10.384c9.433-3.204,18.935-6.43,28.519-9.522C121.012,303.258,100.177,329.084,87.145,359.39z
	 M424.855,359.39c-13.032-30.305-33.867-56.132-59.796-75.233c9.584,3.093,19.087,6.319,28.519,9.522
	c10.583,3.594,21.006,7.132,31.277,10.384L424.855,359.39L424.855,359.39z"/>
<path d="M504.5,255.33c4.142,0,7.5-3.358,7.5-7.5s-3.358-7.5-7.5-7.5c-20.385,0-42.023-4.764-64.645-11.481v-48.496
	c22.251,6.4,43.778,10.848,64.645,10.848c4.142,0,7.5-3.358,7.5-7.5s-3.358-7.5-7.5-7.5c-32.538,0-68.269-12.135-106.098-24.983
	c-45.057-15.303-91.649-31.127-142.39-31.129c-0.004,0-0.008,0-0.012,0s-0.008,0-0.012,0c-50.741,0.002-97.332,15.826-142.39,31.129
	C75.769,164.065,40.038,176.201,7.5,176.201c-4.142,0-7.5,3.358-7.5,7.5s3.358,7.5,7.5,7.5c20.867,0,42.394-4.448,64.645-10.848
	v48.496c-22.622,6.717-44.26,11.481-64.645,11.481c-4.142,0-7.5,3.358-7.5,7.5s3.358,7.5,7.5,7.5
	c20.867,0,42.394-4.448,64.645-10.848v16.429c-0.872,0.259-1.746,0.524-2.617,0.777c-3.977,1.158-6.262,5.321-5.104,9.298
	s5.322,6.264,9.298,5.104c14.591-4.249,29.216-9.216,44.699-14.475c43.908-14.912,89.31-30.333,137.579-30.333
	c48.268,0,93.67,15.42,137.578,30.333c39.036,13.258,75.907,25.78,110.922,25.78c4.142,0,7.5-3.358,7.5-7.5s-3.358-7.5-7.5-7.5
	c-20.385,0-42.023-4.764-64.645-11.481v-16.432C462.106,250.882,483.632,255.33,504.5,255.33z M248.5,184.342
	c-25.297,0.767-49.58,5.319-73.178,11.596v-48.579c23.759-6.521,48.086-11.323,73.178-12.138V184.342z M248.5,199.35v17.057
	c-25.297,0.767-49.58,5.319-73.178,11.596v-16.514C199.081,204.967,223.408,200.165,248.5,199.35z M263.5,199.348
	c26.113,0.878,51.354,6.174,73.177,12.149v16.506c-23.598-6.276-47.88-10.829-73.177-11.596V199.348z M263.5,184.337v-49.116
	c25.091,0.816,49.419,5.618,73.177,12.138v48.601C314.744,190.148,289.64,185.16,263.5,184.337z M87.145,175.804
	c10.271-3.251,20.694-6.789,31.277-10.384c13.805-4.688,27.758-9.427,41.9-13.72v48.461c-15.822,4.691-31.362,9.968-46.724,15.185
	c-8.94,3.036-17.762,6.031-26.453,8.837C87.145,224.183,87.145,175.804,87.145,175.804z M113.598,247.411
	c-9.072,3.081-17.842,6.056-26.453,8.837v-16.315c10.271-3.251,20.694-6.789,31.277-10.384c13.805-4.688,27.757-9.427,41.9-13.72
	v16.397C144.5,236.917,128.959,242.193,113.598,247.411z M424.855,256.247c-8.691-2.806-17.513-5.8-26.453-8.837
	c-15.362-5.217-30.903-10.494-46.725-15.185v-16.389c2.14,0.65,4.24,1.297,6.285,1.938c3.952,1.237,8.161-0.964,9.398-4.917
	s-0.964-8.161-4.917-9.398c-3.456-1.082-7.051-2.183-10.767-3.283V151.7c14.143,4.294,28.096,9.032,41.901,13.72
	c10.583,3.594,21.006,7.132,31.277,10.384v48.379c-8.693-2.806-17.516-5.801-26.458-8.838l-3.66-1.243
	c-3.924-1.333-8.182,0.77-9.512,4.692c-1.331,3.922,0.77,8.181,4.692,9.512l3.656,1.242c10.585,3.595,21.009,7.133,31.281,10.385
	v16.314H424.855z"/>
<g>
</g>
<g>
</g>
<g>
</g>
<g>
</g>
<g>
</g>
<g>
</g>
<g>
</g>
<g>
</g>
<g>
</g>
<g>
</g>
<g>
</g>
<g>
</g>
<g>
</g>
<g>
</g>
<g>
</g>
</svg>
