<?xml version="1.0" encoding="iso-8859-1"?>
<!-- Generator: Adobe Illustrator 19.0.0, SVG Export Plug-In . SVG Version: 6.00 Build 0)  -->
<svg version="1.1" id="Capa_1" xmlns="http://www.w3.org/2000/svg" xmlns:xlink="http://www.w3.org/1999/xlink" x="0px" y="0px"
	 viewBox="0 0 512 512" style="enable-background:new 0 0 512 512;" xml:space="preserve">
<path style="fill:#D4E1F4;" d="M454.122,215.93c21.704,0.557,38.957,18.365,38.957,40.07c0,22.261-17.809,40.07-40.07,40.07
	c-22.261,0-40.07-17.809-40.07-40.07s17.809-40.07,40.07-40.07C453.565,215.93,453.565,215.93,454.122,215.93z"/>
<path style="fill:#4DCFE0;" d="M297.183,16.696c22.261,0,40.07,17.809,40.07,40.07s-17.809,40.07-40.07,40.07
	c-22.261,0-40.07-17.809-40.07-40.07S274.922,16.696,297.183,16.696z"/>
<path style="fill:#D4E1F4;" d="M297.183,215.93c22.261,0,40.07,17.809,40.07,40.07s-17.809,40.07-40.07,40.07
	c-22.261,0-40.07-17.809-40.07-40.07S274.922,215.93,297.183,215.93z"/>
<g>
	<path style="fill:#4DCFE0;" d="M221.496,415.165c21.704,0.557,38.957,18.365,38.957,40.07c0,22.261-17.809,40.07-40.07,40.07
		s-40.07-17.809-40.07-40.07s17.809-40.07,40.07-40.07C220.939,415.165,220.939,415.165,221.496,415.165z"/>
	<path style="fill:#4DCFE0;" d="M140.243,215.93c0.557,0,0.557,0,1.113,0c22.261,0,40.07,17.809,40.07,40.07
		s-17.809,40.07-40.07,40.07s-40.07-17.809-40.07-40.07C101.287,234.296,118.539,216.487,140.243,215.93z"/>
	<path style="fill:#4DCFE0;" d="M57.878,415.165c0.557,0,0.557,0,1.113,0c22.261,0,40.07,17.809,40.07,40.07
		s-17.809,40.07-40.07,40.07s-40.07-17.809-40.07-40.07C18.922,433.53,36.174,415.722,57.878,415.165z"/>
</g>
<path style="fill:#3A2C51;" d="M470.817,202.017v-47.861c0-9.461-7.235-16.696-16.696-16.696H313.878v-26.713
	c23.374-7.235,40.07-28.939,40.07-53.983C353.948,25.6,328.348,0,297.183,0s-56.765,25.6-56.765,56.765
	c0,25.6,16.696,47.304,40.07,53.983v26.713H140.243c-9.461,0-16.696,7.235-16.696,16.696v47.861
	C100.73,209.252,84.591,230.4,84.591,256c0,25.043,16.139,46.191,38.4,53.426v32.835H57.878c-9.461,0-16.696,7.235-16.696,16.696
	v42.296c-22.817,7.235-38.957,28.383-38.957,53.983C2.226,486.4,27.826,512,58.991,512s56.765-25.6,56.765-56.765
	c0-26.156-17.252-47.861-41.183-54.539v-25.043H204.8v25.043c-23.93,6.678-41.183,28.383-41.183,54.539
	c0,31.165,25.6,56.765,56.765,56.765s56.765-25.6,56.765-56.765c0-25.043-16.139-46.191-38.957-53.983v-42.296
	c0-9.461-7.235-16.696-16.696-16.696h-65.113v-31.722c23.93-6.678,41.739-28.383,41.739-54.539s-17.252-47.861-41.183-54.539
	v-30.609h123.548v31.165c-23.374,7.235-40.07,28.939-40.07,53.983c0,31.165,25.6,56.765,56.765,56.765s56.765-25.6,56.765-56.765
	c0-25.6-16.696-47.304-40.07-53.983v-31.165h123.548v30.609c-23.93,6.678-41.183,28.383-41.183,54.539
	c0,31.165,25.6,56.765,56.765,56.765s56.765-25.6,56.765-56.765C509.774,230.957,493.635,209.809,470.817,202.017z M297.183,33.391
	c13.357,0,23.374,10.017,23.374,23.374s-10.017,23.374-23.374,23.374c-13.357,0-23.374-10.017-23.374-23.374
	S283.826,33.391,297.183,33.391z M82.365,455.235c0,13.357-10.017,23.374-23.374,23.374s-23.374-10.017-23.374-23.374
	c0-12.8,10.017-22.817,22.261-23.374h1.113C72.348,431.861,82.365,441.878,82.365,455.235z M220.383,478.609
	c-13.357,0-23.374-10.017-23.374-23.374c0-13.356,10.017-23.374,23.374-23.374h0.557c12.8,0.557,22.817,10.574,22.817,23.374
	C243.757,468.591,233.739,478.609,220.383,478.609z M164.73,256c0,13.357-10.017,23.374-23.374,23.374S117.983,269.357,117.983,256
	c0-12.8,10.017-22.817,22.261-23.374h1.113C154.713,232.626,164.73,242.643,164.73,256z M297.183,279.374
	c-13.357,0-23.374-10.017-23.374-23.374c0-13.357,10.017-23.374,23.374-23.374c13.357,0,23.374,10.017,23.374,23.374
	C320.557,269.357,310.539,279.374,297.183,279.374z M453.009,279.374c-13.357,0-23.374-10.017-23.374-23.374
	c0-13.357,10.017-23.374,23.374-23.374h0.556c12.8,0.557,22.817,10.574,22.817,23.374
	C476.383,269.357,466.365,279.374,453.009,279.374z"/>
<g>
</g>
<g>
</g>
<g>
</g>
<g>
</g>
<g>
</g>
<g>
</g>
<g>
</g>
<g>
</g>
<g>
</g>
<g>
</g>
<g>
</g>
<g>
</g>
<g>
</g>
<g>
</g>
<g>
</g>
</svg>
