<svg id="Capa_1" enable-background="new 0 0 512 512" height="512" viewBox="0 0 512 512" width="512" xmlns="http://www.w3.org/2000/svg"><g><path d="m196 460v17c0 19.299 15.701 35 35 35h50c19.299 0 35-15.701 35-35v-17l-60-7.66z" fill="#55696e"/><path d="m316 460v17c0 19.3-15.7 35-35 35h-25v-59.66z" fill="#495959"/><path d="m326 461.004c8.284 0 15-6.716 15-15v-87.222l-85-10.002-85 9.998v87.226c0 8.284 6.716 15 15 15z" fill="#e8e1de"/><path d="m341 358.784v87.22c0 8.28-6.72 15-15 15h-70v-112.22z" fill="#dbd1cc"/><path d="m341 358.781c46.662-29.232 75.395-80.746 75.395-136.012 0-88.441-71.953-160.394-160.395-160.394s-160.395 71.953-160.395 160.395c0 55.427 28.69 106.776 75.395 136.008z" fill="#fbbd43"/><path d="m416.39 222.774c0 55.26-28.73 106.78-75.39 136.01h-85v-296.41c88.44 0 160.39 71.95 160.39 160.4z" fill="#f19637"/><path d="m331 211.004h-75v-23c0-8.284-6.716-15-15-15h-60c-8.284 0-15 6.716-15 15v75c0 8.284 6.716 15 15 15h60c8.284 0 15-6.716 15-15v-22h15v15c0 8.284 6.716 15 15 15s15-6.716 15-15v-15h15v15c0 8.284 6.716 15 15 15s15-6.716 15-15v-30c0-8.285-6.716-15-15-15zm-105 37h-30v-45h30z" fill="#fedd33"/><path d="m331 211.004h-75v30h15v15c0 8.28 6.72 15 15 15s15-6.72 15-15v-15h15v15c0 8.28 6.72 15 15 15s15-6.72 15-15v-30c0-8.28-6.72-15-15-15z" fill="#fbbd43"/><g><g fill="#fbbd43"><path d="m48 208.716h-33c-8.284 0-15 6.716-15 15s6.716 15 15 15h33c8.284 0 15-6.716 15-15s-6.716-15-15-15z"/><path d="m83.367 106.725-28.579-16.5c-7.175-4.144-16.349-1.685-20.49 5.49-4.143 7.174-1.685 16.348 5.49 20.49l28.579 16.5c7.143 4.125 16.33 1.715 20.49-5.49 4.143-7.174 1.685-16.348-5.49-20.49z"/><path d="m148.49 7.504c-4.143-7.175-13.316-9.632-20.49-5.49-7.175 4.142-9.633 13.316-5.49 20.49l16.5 28.579c4.155 7.197 13.336 9.62 20.49 5.49 7.175-4.142 9.633-13.316 5.49-20.49z"/></g><path d="m497 208.716h-33c-8.284 0-15 6.716-15 15s6.716 15 15 15h33c8.284 0 15-6.716 15-15s-6.716-15-15-15z" fill="#f19637"/><path d="m477.702 95.716c-4.143-7.175-13.315-9.632-20.49-5.49l-28.579 16.5c-7.175 4.142-9.633 13.316-5.49 20.49 4.155 7.197 13.336 9.62 20.49 5.49l28.579-16.5c7.175-4.142 9.633-13.316 5.49-20.49z" fill="#f19637"/><path d="m384 2.013c-7.174-4.145-16.349-1.685-20.49 5.49l-16.5 28.579c-4.143 7.174-1.685 16.348 5.49 20.49 7.143 4.125 16.33 1.715 20.49-5.49l16.5-28.579c4.143-7.174 1.685-16.347-5.49-20.49z" fill="#f19637"/></g></g></svg>