<svg id="Capa_1" enable-background="new 0 0 512 512" height="512" viewBox="0 0 512 512" width="512" xmlns="http://www.w3.org/2000/svg"><g><path d="m256 62.874c-88.441 0-160.395 71.953-160.395 160.394 0 55.427 28.69 106.776 75.395 136.008v77.226c0 8.284 6.716 15 15 15h10v25c0 19.299 15.701 35 35 35h50c19.299 0 35-15.701 35-35v-25h10c8.284 0 15-6.716 15-15v-77.222c46.662-29.232 75.395-80.746 75.395-136.012 0-88.441-71.954-160.394-160.395-160.394zm-55 358.628v-60h110v60zm85 55c0 2.757-2.243 5-5 5h-50c-2.757 0-5-2.243-5-5v-25h60zm42.399-144.791c-2.499-.403 6.59-.122-142.399-.21-.816 0-1.612.083-2.393.209-36.021-24.087-58.002-64.705-58.002-108.442 0-71.899 58.495-130.394 130.395-130.394s130.395 58.495 130.395 130.394c0 43.606-22.008 84.347-57.996 108.443z"/><path d="m331 211.502h-75v-23c0-8.284-6.716-15-15-15h-60c-8.284 0-15 6.716-15 15v75c0 8.284 6.716 15 15 15h60c8.284 0 15-6.716 15-15v-22h15v15c0 8.284 6.716 15 15 15s15-6.716 15-15v-15h15v15c0 8.284 6.716 15 15 15s15-6.716 15-15v-30c0-8.284-6.716-15-15-15zm-105 37h-30v-45h30z"/><path d="m48 209.214h-33c-8.284 0-15 6.716-15 15s6.716 15 15 15h33c8.284 0 15-6.716 15-15s-6.716-15-15-15z"/><path d="m83.367 107.224-28.579-16.5c-7.175-4.144-16.349-1.685-20.49 5.49-4.143 7.174-1.685 16.348 5.49 20.49l28.579 16.5c7.143 4.125 16.33 1.715 20.49-5.49 4.143-7.175 1.685-16.348-5.49-20.49z"/><path d="m139.01 51.58c4.155 7.197 13.336 9.62 20.49 5.49 7.175-4.142 9.633-13.316 5.49-20.49l-16.5-28.579c-4.143-7.175-13.316-9.632-20.49-5.49-7.175 4.142-9.633 13.316-5.49 20.49z"/><path d="m497 209.214h-33c-8.284 0-15 6.716-15 15s6.716 15 15 15h33c8.284 0 15-6.716 15-15s-6.716-15-15-15z"/><path d="m477.702 96.214c-4.143-7.175-13.315-9.632-20.49-5.49l-28.579 16.5c-7.175 4.142-9.633 13.316-5.49 20.49 4.155 7.197 13.336 9.62 20.49 5.49l28.579-16.5c7.175-4.142 9.633-13.316 5.49-20.49z"/><path d="m352.5 57.071c7.143 4.125 16.33 1.715 20.49-5.49l16.5-28.579c4.143-7.174 1.685-16.348-5.49-20.49-7.174-4.145-16.349-1.685-20.49 5.49l-16.5 28.579c-4.143 7.174-1.685 16.348 5.49 20.49z"/></g></svg>